%TF.GenerationSoftware,KiCad,Pcbnew,9.0.2*%
%TF.CreationDate,2025-05-23T00:15:24+09:00*%
%TF.ProjectId,jjongkbd,6a6a6f6e-676b-4626-942e-6b696361645f,0.1*%
%TF.SameCoordinates,Original*%
%TF.FileFunction,Copper,L2,Bot*%
%TF.FilePolarity,Positive*%
%FSLAX46Y46*%
G04 Gerber Fmt 4.6, Leading zero omitted, Abs format (unit mm)*
G04 Created by KiCad (PCBNEW 9.0.2) date 2025-05-23 00:15:24*
%MOMM*%
%LPD*%
G01*
G04 APERTURE LIST*
G04 Aperture macros list*
%AMRoundRect*
0 Rectangle with rounded corners*
0 $1 Rounding radius*
0 $2 $3 $4 $5 $6 $7 $8 $9 X,Y pos of 4 corners*
0 Add a 4 corners polygon primitive as box body*
4,1,4,$2,$3,$4,$5,$6,$7,$8,$9,$2,$3,0*
0 Add four circle primitives for the rounded corners*
1,1,$1+$1,$2,$3*
1,1,$1+$1,$4,$5*
1,1,$1+$1,$6,$7*
1,1,$1+$1,$8,$9*
0 Add four rect primitives between the rounded corners*
20,1,$1+$1,$2,$3,$4,$5,0*
20,1,$1+$1,$4,$5,$6,$7,0*
20,1,$1+$1,$6,$7,$8,$9,0*
20,1,$1+$1,$8,$9,$2,$3,0*%
G04 Aperture macros list end*
%TA.AperFunction,SMDPad,CuDef*%
%ADD10R,2.550000X2.500000*%
%TD*%
%TA.AperFunction,SMDPad,CuDef*%
%ADD11R,0.900000X1.200000*%
%TD*%
%TA.AperFunction,ComponentPad*%
%ADD12R,1.778000X1.778000*%
%TD*%
%TA.AperFunction,ComponentPad*%
%ADD13C,1.905000*%
%TD*%
%TA.AperFunction,ComponentPad*%
%ADD14C,1.700000*%
%TD*%
%TA.AperFunction,SMDPad,CuDef*%
%ADD15R,0.800000X1.000000*%
%TD*%
%TA.AperFunction,SMDPad,CuDef*%
%ADD16R,1.500000X0.700000*%
%TD*%
%TA.AperFunction,ComponentPad*%
%ADD17RoundRect,0.240000X-0.635000X0.360000X-0.635000X-0.360000X0.635000X-0.360000X0.635000X0.360000X0*%
%TD*%
%TA.AperFunction,ComponentPad*%
%ADD18O,1.750000X1.200000*%
%TD*%
%TA.AperFunction,ComponentPad*%
%ADD19RoundRect,0.240000X0.635000X-0.360000X0.635000X0.360000X-0.635000X0.360000X-0.635000X-0.360000X0*%
%TD*%
%TA.AperFunction,ComponentPad*%
%ADD20R,1.752600X1.752600*%
%TD*%
%TA.AperFunction,ComponentPad*%
%ADD21C,1.752600*%
%TD*%
%TA.AperFunction,Conductor*%
%ADD22C,0.250000*%
%TD*%
G04 APERTURE END LIST*
D10*
%TO.P,S1,1*%
%TO.N,LC1*%
X30915000Y-54460000D03*
%TO.P,S1,2*%
%TO.N,function_esc*%
X43842000Y-51920000D03*
%TD*%
%TO.P,S2,1*%
%TO.N,LC3*%
X68915000Y-54460000D03*
%TO.P,S2,2*%
%TO.N,function_f1*%
X81842000Y-51920000D03*
%TD*%
%TO.P,S3,1*%
%TO.N,LC4*%
X87915000Y-54460000D03*
%TO.P,S3,2*%
%TO.N,function_f2*%
X100842000Y-51920000D03*
%TD*%
%TO.P,S4,1*%
%TO.N,LC5*%
X106915000Y-54460000D03*
%TO.P,S4,2*%
%TO.N,function_f3*%
X119842000Y-51920000D03*
%TD*%
%TO.P,S5,1*%
%TO.N,LC6*%
X125915000Y-54460000D03*
%TO.P,S5,2*%
%TO.N,function_f4*%
X138842000Y-51920000D03*
%TD*%
%TO.P,S6,1*%
%TO.N,LC7*%
X144915000Y-54460000D03*
%TO.P,S6,2*%
%TO.N,function_f5*%
X157842000Y-51920000D03*
%TD*%
%TO.P,S7,1*%
%TO.N,LC1*%
X30915000Y-79160000D03*
%TO.P,S7,2*%
%TO.N,num_tilda*%
X43842000Y-76620000D03*
%TD*%
%TO.P,S8,1*%
%TO.N,LC2*%
X49915000Y-79160000D03*
%TO.P,S8,2*%
%TO.N,num_one*%
X62842000Y-76620000D03*
%TD*%
%TO.P,S9,1*%
%TO.N,LC3*%
X68915000Y-79160000D03*
%TO.P,S9,2*%
%TO.N,num_two*%
X81842000Y-76620000D03*
%TD*%
%TO.P,S10,1*%
%TO.N,LC4*%
X87915000Y-79160000D03*
%TO.P,S10,2*%
%TO.N,num_three*%
X100842000Y-76620000D03*
%TD*%
%TO.P,S11,1*%
%TO.N,LC5*%
X106915000Y-79160000D03*
%TO.P,S11,2*%
%TO.N,num_four*%
X119842000Y-76620000D03*
%TD*%
%TO.P,S12,1*%
%TO.N,LC6*%
X125915000Y-79160000D03*
%TO.P,S12,2*%
%TO.N,num_five*%
X138842000Y-76620000D03*
%TD*%
%TO.P,S13,1*%
%TO.N,LC7*%
X144915000Y-79160000D03*
%TO.P,S13,2*%
%TO.N,num_six*%
X157842000Y-76620000D03*
%TD*%
%TO.P,S14,1*%
%TO.N,LC1*%
X35665000Y-98160000D03*
%TO.P,S14,2*%
%TO.N,top_tab*%
X48592000Y-95620000D03*
%TD*%
%TO.P,S15,1*%
%TO.N,LC2*%
X59415000Y-98160000D03*
%TO.P,S15,2*%
%TO.N,top_q*%
X72342000Y-95620000D03*
%TD*%
%TO.P,S16,1*%
%TO.N,LC3*%
X78415000Y-98160000D03*
%TO.P,S16,2*%
%TO.N,top_w*%
X91342000Y-95620000D03*
%TD*%
%TO.P,S17,1*%
%TO.N,LC4*%
X97415000Y-98160000D03*
%TO.P,S17,2*%
%TO.N,top_e*%
X110342000Y-95620000D03*
%TD*%
%TO.P,S18,1*%
%TO.N,LC5*%
X116415000Y-98160000D03*
%TO.P,S18,2*%
%TO.N,top_r*%
X129342000Y-95620000D03*
%TD*%
%TO.P,S19,1*%
%TO.N,LC6*%
X135415000Y-98160000D03*
%TO.P,S19,2*%
%TO.N,top_t*%
X148342000Y-95620000D03*
%TD*%
%TO.P,S20,1*%
%TO.N,LC1*%
X37915000Y-117160000D03*
%TO.P,S20,2*%
%TO.N,mid_caps*%
X50842000Y-114620000D03*
%TD*%
%TO.P,S21,1*%
%TO.N,LC2*%
X63915000Y-117160000D03*
%TO.P,S21,2*%
%TO.N,mid_a*%
X76842000Y-114620000D03*
%TD*%
%TO.P,S22,1*%
%TO.N,LC3*%
X82915000Y-117160000D03*
%TO.P,S22,2*%
%TO.N,mid_s*%
X95842000Y-114620000D03*
%TD*%
%TO.P,S23,1*%
%TO.N,LC4*%
X101915000Y-117160000D03*
%TO.P,S23,2*%
%TO.N,mid_d*%
X114842000Y-114620000D03*
%TD*%
%TO.P,S24,1*%
%TO.N,LC5*%
X120915000Y-117160000D03*
%TO.P,S24,2*%
%TO.N,mid_f*%
X133842000Y-114620000D03*
%TD*%
%TO.P,S25,1*%
%TO.N,LC6*%
X139915000Y-117160000D03*
%TO.P,S25,2*%
%TO.N,mid_g*%
X152842000Y-114620000D03*
%TD*%
%TO.P,S26,1*%
%TO.N,LC1*%
X42415000Y-136160000D03*
%TO.P,S26,2*%
%TO.N,bottom_shift*%
X55342000Y-133620000D03*
%TD*%
%TO.P,S27,1*%
%TO.N,LC2*%
X72915000Y-136160000D03*
%TO.P,S27,2*%
%TO.N,bottom_z*%
X85842000Y-133620000D03*
%TD*%
%TO.P,S28,1*%
%TO.N,LC3*%
X91915000Y-136160000D03*
%TO.P,S28,2*%
%TO.N,bottom_x*%
X104842000Y-133620000D03*
%TD*%
%TO.P,S29,1*%
%TO.N,LC4*%
X110915000Y-136160000D03*
%TO.P,S29,2*%
%TO.N,bottom_c*%
X123842000Y-133620000D03*
%TD*%
%TO.P,S30,1*%
%TO.N,LC5*%
X129915000Y-136160000D03*
%TO.P,S30,2*%
%TO.N,bottom_v*%
X142842000Y-133620000D03*
%TD*%
%TO.P,S31,1*%
%TO.N,LC6*%
X148915000Y-136160000D03*
%TO.P,S31,2*%
%TO.N,bottom_b*%
X161842000Y-133620000D03*
%TD*%
%TO.P,S32,1*%
%TO.N,LC1*%
X33165000Y-155160000D03*
%TO.P,S32,2*%
%TO.N,meta_ctrl*%
X46092000Y-152620000D03*
%TD*%
%TO.P,S33,1*%
%TO.N,LC2*%
X56665000Y-155160000D03*
%TO.P,S33,2*%
%TO.N,meta_win*%
X69592000Y-152620000D03*
%TD*%
%TO.P,S34,1*%
%TO.N,LC3*%
X80165000Y-155160000D03*
%TO.P,S34,2*%
%TO.N,meta_alt*%
X93092000Y-152620000D03*
%TD*%
%TO.P,S35,1*%
%TO.N,LC5*%
X127415000Y-155160000D03*
%TO.P,S35,2*%
%TO.N,meta_space*%
X140342000Y-152620000D03*
%TD*%
%TO.P,S36,1*%
%TO.N,RC8*%
X372165000Y-155160000D03*
%TO.P,S36,2*%
%TO.N,meta_ctrl_r*%
X385092000Y-152620000D03*
%TD*%
%TO.P,S37,1*%
%TO.N,RC7*%
X348665000Y-155160000D03*
%TO.P,S37,2*%
%TO.N,meta_meta*%
X361592000Y-152620000D03*
%TD*%
%TO.P,S38,1*%
%TO.N,RC6*%
X325165000Y-155160000D03*
%TO.P,S38,2*%
%TO.N,meta_fn*%
X338092000Y-152620000D03*
%TD*%
%TO.P,S39,1*%
%TO.N,RC5*%
X301665000Y-155160000D03*
%TO.P,S39,2*%
%TO.N,meta_alt_r*%
X314592000Y-152620000D03*
%TD*%
%TO.P,S40,1*%
%TO.N,RC2*%
X254415000Y-155160000D03*
%TO.P,S40,2*%
%TO.N,meta_space_r*%
X267342000Y-152620000D03*
%TD*%
%TO.P,S41,1*%
%TO.N,RC8*%
X357915000Y-136160000D03*
%TO.P,S41,2*%
%TO.N,bottom_shift_r*%
X370842000Y-133620000D03*
%TD*%
%TO.P,S42,1*%
%TO.N,RC6*%
X322415000Y-136160000D03*
%TO.P,S42,2*%
%TO.N,bottom_slash*%
X335342000Y-133620000D03*
%TD*%
%TO.P,S43,1*%
%TO.N,RC5*%
X303415000Y-136160000D03*
%TO.P,S43,2*%
%TO.N,bottom_period*%
X316342000Y-133620000D03*
%TD*%
%TO.P,S44,1*%
%TO.N,RC4*%
X284415000Y-136160000D03*
%TO.P,S44,2*%
%TO.N,bottom_comma*%
X297342000Y-133620000D03*
%TD*%
%TO.P,S45,1*%
%TO.N,RC3*%
X265415000Y-136160000D03*
%TO.P,S45,2*%
%TO.N,bottom_m*%
X278342000Y-133620000D03*
%TD*%
%TO.P,S46,1*%
%TO.N,RC2*%
X246415000Y-136160000D03*
%TO.P,S46,2*%
%TO.N,bottom_n*%
X259342000Y-133620000D03*
%TD*%
%TO.P,S47,1*%
%TO.N,RC1*%
X227415000Y-136160000D03*
%TO.P,S47,2*%
%TO.N,bottom_b_r*%
X240342000Y-133620000D03*
%TD*%
%TO.P,S48,1*%
%TO.N,RC8*%
X362915000Y-117160000D03*
%TO.P,S48,2*%
%TO.N,mid_enter*%
X375842000Y-114620000D03*
%TD*%
%TO.P,S49,1*%
%TO.N,RC6*%
X332415000Y-117160000D03*
%TO.P,S49,2*%
%TO.N,mid_quote*%
X345342000Y-114620000D03*
%TD*%
%TO.P,S50,1*%
%TO.N,RC5*%
X313415000Y-117160000D03*
%TO.P,S50,2*%
%TO.N,mid_colon*%
X326342000Y-114620000D03*
%TD*%
%TO.P,S51,1*%
%TO.N,RC4*%
X294415000Y-117160000D03*
%TO.P,S51,2*%
%TO.N,mid_l*%
X307342000Y-114620000D03*
%TD*%
%TO.P,S52,1*%
%TO.N,RC3*%
X275415000Y-117160000D03*
%TO.P,S52,2*%
%TO.N,mid_k*%
X288342000Y-114620000D03*
%TD*%
%TO.P,S53,1*%
%TO.N,RC2*%
X256415000Y-117160000D03*
%TO.P,S53,2*%
%TO.N,mid_j*%
X269342000Y-114620000D03*
%TD*%
%TO.P,S54,1*%
%TO.N,RC1*%
X237415000Y-117160000D03*
%TO.P,S54,2*%
%TO.N,mid_h*%
X250342000Y-114620000D03*
%TD*%
%TO.P,S55,1*%
%TO.N,RC8*%
X369665000Y-98160000D03*
%TO.P,S55,2*%
%TO.N,top_pipe*%
X382592000Y-95620000D03*
%TD*%
%TO.P,S56,1*%
%TO.N,RC7*%
X345915000Y-98160000D03*
%TO.P,S56,2*%
%TO.N,top_right_paren*%
X358842000Y-95620000D03*
%TD*%
%TO.P,S57,1*%
%TO.N,RC6*%
X326915000Y-98160000D03*
%TO.P,S57,2*%
%TO.N,top_left_paren*%
X339842000Y-95620000D03*
%TD*%
%TO.P,S58,1*%
%TO.N,RC5*%
X307915000Y-98160000D03*
%TO.P,S58,2*%
%TO.N,top_p*%
X320842000Y-95620000D03*
%TD*%
%TO.P,S59,1*%
%TO.N,RC4*%
X288915000Y-98160000D03*
%TO.P,S59,2*%
%TO.N,top_o*%
X301842000Y-95620000D03*
%TD*%
%TO.P,S60,1*%
%TO.N,RC3*%
X269915000Y-98160000D03*
%TO.P,S60,2*%
%TO.N,top_i*%
X282842000Y-95620000D03*
%TD*%
%TO.P,S61,1*%
%TO.N,RC2*%
X250915000Y-98160000D03*
%TO.P,S61,2*%
%TO.N,top_u*%
X263842000Y-95620000D03*
%TD*%
%TO.P,S62,1*%
%TO.N,RC1*%
X231915000Y-98160000D03*
%TO.P,S62,2*%
%TO.N,top_y*%
X244842000Y-95620000D03*
%TD*%
%TO.P,S63,1*%
%TO.N,RC8*%
X364915000Y-79160000D03*
%TO.P,S63,2*%
%TO.N,num_backspace*%
X377842000Y-76620000D03*
%TD*%
%TO.P,S64,1*%
%TO.N,RC7*%
X336415000Y-79160000D03*
%TO.P,S64,2*%
%TO.N,num_plus*%
X349342000Y-76620000D03*
%TD*%
%TO.P,S65,1*%
%TO.N,RC6*%
X317415000Y-79160000D03*
%TO.P,S65,2*%
%TO.N,num_minus*%
X330342000Y-76620000D03*
%TD*%
%TO.P,S66,1*%
%TO.N,RC5*%
X298415000Y-79160000D03*
%TO.P,S66,2*%
%TO.N,num_zero*%
X311342000Y-76620000D03*
%TD*%
%TO.P,S67,1*%
%TO.N,RC4*%
X279415000Y-79160000D03*
%TO.P,S67,2*%
%TO.N,num_nine*%
X292342000Y-76620000D03*
%TD*%
%TO.P,S68,1*%
%TO.N,RC3*%
X260415000Y-79160000D03*
%TO.P,S68,2*%
%TO.N,num_eight*%
X273342000Y-76620000D03*
%TD*%
%TO.P,S69,1*%
%TO.N,RC2*%
X241415000Y-79160000D03*
%TO.P,S69,2*%
%TO.N,num_seven*%
X254342000Y-76620000D03*
%TD*%
%TO.P,S70,1*%
%TO.N,RC8*%
X374415000Y-54460000D03*
%TO.P,S70,2*%
%TO.N,function_f12*%
X387342000Y-51920000D03*
%TD*%
%TO.P,S71,1*%
%TO.N,RC7*%
X355415000Y-54460000D03*
%TO.P,S71,2*%
%TO.N,function_f11*%
X368342000Y-51920000D03*
%TD*%
%TO.P,S72,1*%
%TO.N,RC6*%
X336415000Y-54460000D03*
%TO.P,S72,2*%
%TO.N,function_f10*%
X349342000Y-51920000D03*
%TD*%
%TO.P,S73,1*%
%TO.N,RC5*%
X317415000Y-54460000D03*
%TO.P,S73,2*%
%TO.N,function_f9*%
X330342000Y-51920000D03*
%TD*%
%TO.P,S74,1*%
%TO.N,RC4*%
X288915000Y-54460000D03*
%TO.P,S74,2*%
%TO.N,function_f8*%
X301842000Y-51920000D03*
%TD*%
%TO.P,S75,1*%
%TO.N,RC3*%
X269915000Y-54460000D03*
%TO.P,S75,2*%
%TO.N,function_f7*%
X282842000Y-51920000D03*
%TD*%
%TO.P,S76,1*%
%TO.N,RC2*%
X250915000Y-54460000D03*
%TO.P,S76,2*%
%TO.N,function_f6*%
X263842000Y-51920000D03*
%TD*%
%TO.P,S77,1*%
%TO.N,RC1*%
X231915000Y-54460000D03*
%TO.P,S77,2*%
%TO.N,function_f5_r*%
X244842000Y-51920000D03*
%TD*%
D11*
%TO.P,D1,1*%
%TO.N,LR1*%
X36350000Y-62000000D03*
%TO.P,D1,2*%
%TO.N,function_esc*%
X39650000Y-62000000D03*
D12*
%TO.P,D1,1*%
%TO.N,LR1*%
X34190000Y-62000000D03*
D13*
%TO.P,D1,2*%
%TO.N,function_esc*%
X41810000Y-62000000D03*
%TD*%
D11*
%TO.P,D2,1*%
%TO.N,LR1*%
X74350000Y-62000000D03*
%TO.P,D2,2*%
%TO.N,function_f1*%
X77650000Y-62000000D03*
D12*
%TO.P,D2,1*%
%TO.N,LR1*%
X72190000Y-62000000D03*
D13*
%TO.P,D2,2*%
%TO.N,function_f1*%
X79810000Y-62000000D03*
%TD*%
D11*
%TO.P,D3,1*%
%TO.N,LR1*%
X93350000Y-62000000D03*
%TO.P,D3,2*%
%TO.N,function_f2*%
X96650000Y-62000000D03*
D12*
%TO.P,D3,1*%
%TO.N,LR1*%
X91190000Y-62000000D03*
D13*
%TO.P,D3,2*%
%TO.N,function_f2*%
X98810000Y-62000000D03*
%TD*%
D11*
%TO.P,D4,1*%
%TO.N,LR1*%
X112350000Y-62000000D03*
%TO.P,D4,2*%
%TO.N,function_f3*%
X115650000Y-62000000D03*
D12*
%TO.P,D4,1*%
%TO.N,LR1*%
X110190000Y-62000000D03*
D13*
%TO.P,D4,2*%
%TO.N,function_f3*%
X117810000Y-62000000D03*
%TD*%
D11*
%TO.P,D5,1*%
%TO.N,LR1*%
X131350000Y-62000000D03*
%TO.P,D5,2*%
%TO.N,function_f4*%
X134650000Y-62000000D03*
D12*
%TO.P,D5,1*%
%TO.N,LR1*%
X129190000Y-62000000D03*
D13*
%TO.P,D5,2*%
%TO.N,function_f4*%
X136810000Y-62000000D03*
%TD*%
D11*
%TO.P,D6,1*%
%TO.N,LR1*%
X150350000Y-62000000D03*
%TO.P,D6,2*%
%TO.N,function_f5*%
X153650000Y-62000000D03*
D12*
%TO.P,D6,1*%
%TO.N,LR1*%
X148190000Y-62000000D03*
D13*
%TO.P,D6,2*%
%TO.N,function_f5*%
X155810000Y-62000000D03*
%TD*%
D11*
%TO.P,D7,1*%
%TO.N,LR2*%
X36350000Y-86700000D03*
%TO.P,D7,2*%
%TO.N,num_tilda*%
X39650000Y-86700000D03*
D12*
%TO.P,D7,1*%
%TO.N,LR2*%
X34190000Y-86700000D03*
D13*
%TO.P,D7,2*%
%TO.N,num_tilda*%
X41810000Y-86700000D03*
%TD*%
D11*
%TO.P,D8,1*%
%TO.N,LR2*%
X55350000Y-86700000D03*
%TO.P,D8,2*%
%TO.N,num_one*%
X58650000Y-86700000D03*
D12*
%TO.P,D8,1*%
%TO.N,LR2*%
X53190000Y-86700000D03*
D13*
%TO.P,D8,2*%
%TO.N,num_one*%
X60810000Y-86700000D03*
%TD*%
D11*
%TO.P,D9,1*%
%TO.N,LR2*%
X74350000Y-86700000D03*
%TO.P,D9,2*%
%TO.N,num_two*%
X77650000Y-86700000D03*
D12*
%TO.P,D9,1*%
%TO.N,LR2*%
X72190000Y-86700000D03*
D13*
%TO.P,D9,2*%
%TO.N,num_two*%
X79810000Y-86700000D03*
%TD*%
D11*
%TO.P,D10,1*%
%TO.N,LR2*%
X93350000Y-86700000D03*
%TO.P,D10,2*%
%TO.N,num_three*%
X96650000Y-86700000D03*
D12*
%TO.P,D10,1*%
%TO.N,LR2*%
X91190000Y-86700000D03*
D13*
%TO.P,D10,2*%
%TO.N,num_three*%
X98810000Y-86700000D03*
%TD*%
D11*
%TO.P,D11,1*%
%TO.N,LR2*%
X112350000Y-86700000D03*
%TO.P,D11,2*%
%TO.N,num_four*%
X115650000Y-86700000D03*
D12*
%TO.P,D11,1*%
%TO.N,LR2*%
X110190000Y-86700000D03*
D13*
%TO.P,D11,2*%
%TO.N,num_four*%
X117810000Y-86700000D03*
%TD*%
D11*
%TO.P,D12,1*%
%TO.N,LR2*%
X131350000Y-86700000D03*
%TO.P,D12,2*%
%TO.N,num_five*%
X134650000Y-86700000D03*
D12*
%TO.P,D12,1*%
%TO.N,LR2*%
X129190000Y-86700000D03*
D13*
%TO.P,D12,2*%
%TO.N,num_five*%
X136810000Y-86700000D03*
%TD*%
D11*
%TO.P,D13,1*%
%TO.N,LR2*%
X150350000Y-86700000D03*
%TO.P,D13,2*%
%TO.N,num_six*%
X153650000Y-86700000D03*
D12*
%TO.P,D13,1*%
%TO.N,LR2*%
X148190000Y-86700000D03*
D13*
%TO.P,D13,2*%
%TO.N,num_six*%
X155810000Y-86700000D03*
%TD*%
D11*
%TO.P,D14,1*%
%TO.N,LR3*%
X41100000Y-105700000D03*
%TO.P,D14,2*%
%TO.N,top_tab*%
X44400000Y-105700000D03*
D12*
%TO.P,D14,1*%
%TO.N,LR3*%
X38940000Y-105700000D03*
D13*
%TO.P,D14,2*%
%TO.N,top_tab*%
X46560000Y-105700000D03*
%TD*%
D11*
%TO.P,D15,1*%
%TO.N,LR3*%
X64850000Y-105700000D03*
%TO.P,D15,2*%
%TO.N,top_q*%
X68150000Y-105700000D03*
D12*
%TO.P,D15,1*%
%TO.N,LR3*%
X62690000Y-105700000D03*
D13*
%TO.P,D15,2*%
%TO.N,top_q*%
X70310000Y-105700000D03*
%TD*%
D11*
%TO.P,D16,1*%
%TO.N,LR3*%
X83850000Y-105700000D03*
%TO.P,D16,2*%
%TO.N,top_w*%
X87150000Y-105700000D03*
D12*
%TO.P,D16,1*%
%TO.N,LR3*%
X81690000Y-105700000D03*
D13*
%TO.P,D16,2*%
%TO.N,top_w*%
X89310000Y-105700000D03*
%TD*%
D11*
%TO.P,D17,1*%
%TO.N,LR3*%
X102850000Y-105700000D03*
%TO.P,D17,2*%
%TO.N,top_e*%
X106150000Y-105700000D03*
D12*
%TO.P,D17,1*%
%TO.N,LR3*%
X100690000Y-105700000D03*
D13*
%TO.P,D17,2*%
%TO.N,top_e*%
X108310000Y-105700000D03*
%TD*%
D11*
%TO.P,D18,1*%
%TO.N,LR3*%
X121850000Y-105700000D03*
%TO.P,D18,2*%
%TO.N,top_r*%
X125150000Y-105700000D03*
D12*
%TO.P,D18,1*%
%TO.N,LR3*%
X119690000Y-105700000D03*
D13*
%TO.P,D18,2*%
%TO.N,top_r*%
X127310000Y-105700000D03*
%TD*%
D11*
%TO.P,D19,1*%
%TO.N,LR3*%
X140850000Y-105700000D03*
%TO.P,D19,2*%
%TO.N,top_t*%
X144150000Y-105700000D03*
D12*
%TO.P,D19,1*%
%TO.N,LR3*%
X138690000Y-105700000D03*
D13*
%TO.P,D19,2*%
%TO.N,top_t*%
X146310000Y-105700000D03*
%TD*%
D11*
%TO.P,D20,1*%
%TO.N,LR4*%
X43350000Y-124700000D03*
%TO.P,D20,2*%
%TO.N,mid_caps*%
X46650000Y-124700000D03*
D12*
%TO.P,D20,1*%
%TO.N,LR4*%
X41190000Y-124700000D03*
D13*
%TO.P,D20,2*%
%TO.N,mid_caps*%
X48810000Y-124700000D03*
%TD*%
D11*
%TO.P,D21,1*%
%TO.N,LR4*%
X69350000Y-124700000D03*
%TO.P,D21,2*%
%TO.N,mid_a*%
X72650000Y-124700000D03*
D12*
%TO.P,D21,1*%
%TO.N,LR4*%
X67190000Y-124700000D03*
D13*
%TO.P,D21,2*%
%TO.N,mid_a*%
X74810000Y-124700000D03*
%TD*%
D11*
%TO.P,D22,1*%
%TO.N,LR4*%
X88350000Y-124700000D03*
%TO.P,D22,2*%
%TO.N,mid_s*%
X91650000Y-124700000D03*
D12*
%TO.P,D22,1*%
%TO.N,LR4*%
X86190000Y-124700000D03*
D13*
%TO.P,D22,2*%
%TO.N,mid_s*%
X93810000Y-124700000D03*
%TD*%
D11*
%TO.P,D23,1*%
%TO.N,LR4*%
X107350000Y-124700000D03*
%TO.P,D23,2*%
%TO.N,mid_d*%
X110650000Y-124700000D03*
D12*
%TO.P,D23,1*%
%TO.N,LR4*%
X105190000Y-124700000D03*
D13*
%TO.P,D23,2*%
%TO.N,mid_d*%
X112810000Y-124700000D03*
%TD*%
D11*
%TO.P,D24,1*%
%TO.N,LR4*%
X126350000Y-124700000D03*
%TO.P,D24,2*%
%TO.N,mid_f*%
X129650000Y-124700000D03*
D12*
%TO.P,D24,1*%
%TO.N,LR4*%
X124190000Y-124700000D03*
D13*
%TO.P,D24,2*%
%TO.N,mid_f*%
X131810000Y-124700000D03*
%TD*%
D11*
%TO.P,D25,1*%
%TO.N,LR4*%
X145350000Y-124700000D03*
%TO.P,D25,2*%
%TO.N,mid_g*%
X148650000Y-124700000D03*
D12*
%TO.P,D25,1*%
%TO.N,LR4*%
X143190000Y-124700000D03*
D13*
%TO.P,D25,2*%
%TO.N,mid_g*%
X150810000Y-124700000D03*
%TD*%
D11*
%TO.P,D26,1*%
%TO.N,LR5*%
X47850000Y-143700000D03*
%TO.P,D26,2*%
%TO.N,bottom_shift*%
X51150000Y-143700000D03*
D12*
%TO.P,D26,1*%
%TO.N,LR5*%
X45690000Y-143700000D03*
D13*
%TO.P,D26,2*%
%TO.N,bottom_shift*%
X53310000Y-143700000D03*
%TD*%
D11*
%TO.P,D27,1*%
%TO.N,LR5*%
X78350000Y-143700000D03*
%TO.P,D27,2*%
%TO.N,bottom_z*%
X81650000Y-143700000D03*
D12*
%TO.P,D27,1*%
%TO.N,LR5*%
X76190000Y-143700000D03*
D13*
%TO.P,D27,2*%
%TO.N,bottom_z*%
X83810000Y-143700000D03*
%TD*%
D11*
%TO.P,D28,1*%
%TO.N,LR5*%
X97350000Y-143700000D03*
%TO.P,D28,2*%
%TO.N,bottom_x*%
X100650000Y-143700000D03*
D12*
%TO.P,D28,1*%
%TO.N,LR5*%
X95190000Y-143700000D03*
D13*
%TO.P,D28,2*%
%TO.N,bottom_x*%
X102810000Y-143700000D03*
%TD*%
D11*
%TO.P,D29,1*%
%TO.N,LR5*%
X116350000Y-143700000D03*
%TO.P,D29,2*%
%TO.N,bottom_c*%
X119650000Y-143700000D03*
D12*
%TO.P,D29,1*%
%TO.N,LR5*%
X114190000Y-143700000D03*
D13*
%TO.P,D29,2*%
%TO.N,bottom_c*%
X121810000Y-143700000D03*
%TD*%
D11*
%TO.P,D30,1*%
%TO.N,LR5*%
X135350000Y-143700000D03*
%TO.P,D30,2*%
%TO.N,bottom_v*%
X138650000Y-143700000D03*
D12*
%TO.P,D30,1*%
%TO.N,LR5*%
X133190000Y-143700000D03*
D13*
%TO.P,D30,2*%
%TO.N,bottom_v*%
X140810000Y-143700000D03*
%TD*%
D11*
%TO.P,D31,1*%
%TO.N,LR5*%
X154350000Y-143700000D03*
%TO.P,D31,2*%
%TO.N,bottom_b*%
X157650000Y-143700000D03*
D12*
%TO.P,D31,1*%
%TO.N,LR5*%
X152190000Y-143700000D03*
D13*
%TO.P,D31,2*%
%TO.N,bottom_b*%
X159810000Y-143700000D03*
%TD*%
D11*
%TO.P,D32,1*%
%TO.N,LR6*%
X38600000Y-162700000D03*
%TO.P,D32,2*%
%TO.N,meta_ctrl*%
X41900000Y-162700000D03*
D12*
%TO.P,D32,1*%
%TO.N,LR6*%
X36440000Y-162700000D03*
D13*
%TO.P,D32,2*%
%TO.N,meta_ctrl*%
X44060000Y-162700000D03*
%TD*%
D11*
%TO.P,D33,1*%
%TO.N,LR6*%
X62100000Y-162700000D03*
%TO.P,D33,2*%
%TO.N,meta_win*%
X65400000Y-162700000D03*
D12*
%TO.P,D33,1*%
%TO.N,LR6*%
X59940000Y-162700000D03*
D13*
%TO.P,D33,2*%
%TO.N,meta_win*%
X67560000Y-162700000D03*
%TD*%
D11*
%TO.P,D34,1*%
%TO.N,LR6*%
X85600000Y-162700000D03*
%TO.P,D34,2*%
%TO.N,meta_alt*%
X88900000Y-162700000D03*
D12*
%TO.P,D34,1*%
%TO.N,LR6*%
X83440000Y-162700000D03*
D13*
%TO.P,D34,2*%
%TO.N,meta_alt*%
X91060000Y-162700000D03*
%TD*%
D11*
%TO.P,D35,1*%
%TO.N,LR6*%
X132850000Y-162700000D03*
%TO.P,D35,2*%
%TO.N,meta_space*%
X136150000Y-162700000D03*
D12*
%TO.P,D35,1*%
%TO.N,LR6*%
X130690000Y-162700000D03*
D13*
%TO.P,D35,2*%
%TO.N,meta_space*%
X138310000Y-162700000D03*
%TD*%
D11*
%TO.P,D36,1*%
%TO.N,RR6*%
X377600000Y-162700000D03*
%TO.P,D36,2*%
%TO.N,meta_ctrl_r*%
X380900000Y-162700000D03*
D12*
%TO.P,D36,1*%
%TO.N,RR6*%
X375440000Y-162700000D03*
D13*
%TO.P,D36,2*%
%TO.N,meta_ctrl_r*%
X383060000Y-162700000D03*
%TD*%
D11*
%TO.P,D37,1*%
%TO.N,RR6*%
X354100000Y-162700000D03*
%TO.P,D37,2*%
%TO.N,meta_meta*%
X357400000Y-162700000D03*
D12*
%TO.P,D37,1*%
%TO.N,RR6*%
X351940000Y-162700000D03*
D13*
%TO.P,D37,2*%
%TO.N,meta_meta*%
X359560000Y-162700000D03*
%TD*%
D11*
%TO.P,D38,1*%
%TO.N,RR6*%
X330600000Y-162700000D03*
%TO.P,D38,2*%
%TO.N,meta_fn*%
X333900000Y-162700000D03*
D12*
%TO.P,D38,1*%
%TO.N,RR6*%
X328440000Y-162700000D03*
D13*
%TO.P,D38,2*%
%TO.N,meta_fn*%
X336060000Y-162700000D03*
%TD*%
D11*
%TO.P,D39,1*%
%TO.N,RR6*%
X307100000Y-162700000D03*
%TO.P,D39,2*%
%TO.N,meta_alt_r*%
X310400000Y-162700000D03*
D12*
%TO.P,D39,1*%
%TO.N,RR6*%
X304940000Y-162700000D03*
D13*
%TO.P,D39,2*%
%TO.N,meta_alt_r*%
X312560000Y-162700000D03*
%TD*%
D11*
%TO.P,D40,1*%
%TO.N,RR6*%
X259850000Y-162700000D03*
%TO.P,D40,2*%
%TO.N,meta_space_r*%
X263150000Y-162700000D03*
D12*
%TO.P,D40,1*%
%TO.N,RR6*%
X257690000Y-162700000D03*
D13*
%TO.P,D40,2*%
%TO.N,meta_space_r*%
X265310000Y-162700000D03*
%TD*%
D11*
%TO.P,D41,1*%
%TO.N,RR5*%
X363350000Y-143700000D03*
%TO.P,D41,2*%
%TO.N,bottom_shift_r*%
X366650000Y-143700000D03*
D12*
%TO.P,D41,1*%
%TO.N,RR5*%
X361190000Y-143700000D03*
D13*
%TO.P,D41,2*%
%TO.N,bottom_shift_r*%
X368810000Y-143700000D03*
%TD*%
D11*
%TO.P,D42,1*%
%TO.N,RR5*%
X327850000Y-143700000D03*
%TO.P,D42,2*%
%TO.N,bottom_slash*%
X331150000Y-143700000D03*
D12*
%TO.P,D42,1*%
%TO.N,RR5*%
X325690000Y-143700000D03*
D13*
%TO.P,D42,2*%
%TO.N,bottom_slash*%
X333310000Y-143700000D03*
%TD*%
D11*
%TO.P,D43,1*%
%TO.N,RR5*%
X308850000Y-143700000D03*
%TO.P,D43,2*%
%TO.N,bottom_period*%
X312150000Y-143700000D03*
D12*
%TO.P,D43,1*%
%TO.N,RR5*%
X306690000Y-143700000D03*
D13*
%TO.P,D43,2*%
%TO.N,bottom_period*%
X314310000Y-143700000D03*
%TD*%
D11*
%TO.P,D44,1*%
%TO.N,RR5*%
X289850000Y-143700000D03*
%TO.P,D44,2*%
%TO.N,bottom_comma*%
X293150000Y-143700000D03*
D12*
%TO.P,D44,1*%
%TO.N,RR5*%
X287690000Y-143700000D03*
D13*
%TO.P,D44,2*%
%TO.N,bottom_comma*%
X295310000Y-143700000D03*
%TD*%
D11*
%TO.P,D45,1*%
%TO.N,RR5*%
X270850000Y-143700000D03*
%TO.P,D45,2*%
%TO.N,bottom_m*%
X274150000Y-143700000D03*
D12*
%TO.P,D45,1*%
%TO.N,RR5*%
X268690000Y-143700000D03*
D13*
%TO.P,D45,2*%
%TO.N,bottom_m*%
X276310000Y-143700000D03*
%TD*%
D11*
%TO.P,D46,1*%
%TO.N,RR5*%
X251850000Y-143700000D03*
%TO.P,D46,2*%
%TO.N,bottom_n*%
X255150000Y-143700000D03*
D12*
%TO.P,D46,1*%
%TO.N,RR5*%
X249690000Y-143700000D03*
D13*
%TO.P,D46,2*%
%TO.N,bottom_n*%
X257310000Y-143700000D03*
%TD*%
D11*
%TO.P,D47,1*%
%TO.N,RR5*%
X232850000Y-143700000D03*
%TO.P,D47,2*%
%TO.N,bottom_b_r*%
X236150000Y-143700000D03*
D12*
%TO.P,D47,1*%
%TO.N,RR5*%
X230690000Y-143700000D03*
D13*
%TO.P,D47,2*%
%TO.N,bottom_b_r*%
X238310000Y-143700000D03*
%TD*%
D11*
%TO.P,D48,1*%
%TO.N,RR4*%
X368350000Y-124700000D03*
%TO.P,D48,2*%
%TO.N,mid_enter*%
X371650000Y-124700000D03*
D12*
%TO.P,D48,1*%
%TO.N,RR4*%
X366190000Y-124700000D03*
D13*
%TO.P,D48,2*%
%TO.N,mid_enter*%
X373810000Y-124700000D03*
%TD*%
D11*
%TO.P,D49,1*%
%TO.N,RR4*%
X337850000Y-124700000D03*
%TO.P,D49,2*%
%TO.N,mid_quote*%
X341150000Y-124700000D03*
D12*
%TO.P,D49,1*%
%TO.N,RR4*%
X335690000Y-124700000D03*
D13*
%TO.P,D49,2*%
%TO.N,mid_quote*%
X343310000Y-124700000D03*
%TD*%
D11*
%TO.P,D50,1*%
%TO.N,RR4*%
X318850000Y-124700000D03*
%TO.P,D50,2*%
%TO.N,mid_colon*%
X322150000Y-124700000D03*
D12*
%TO.P,D50,1*%
%TO.N,RR4*%
X316690000Y-124700000D03*
D13*
%TO.P,D50,2*%
%TO.N,mid_colon*%
X324310000Y-124700000D03*
%TD*%
D11*
%TO.P,D51,1*%
%TO.N,RR4*%
X299850000Y-124700000D03*
%TO.P,D51,2*%
%TO.N,mid_l*%
X303150000Y-124700000D03*
D12*
%TO.P,D51,1*%
%TO.N,RR4*%
X297690000Y-124700000D03*
D13*
%TO.P,D51,2*%
%TO.N,mid_l*%
X305310000Y-124700000D03*
%TD*%
D11*
%TO.P,D52,1*%
%TO.N,RR4*%
X280850000Y-124700000D03*
%TO.P,D52,2*%
%TO.N,mid_k*%
X284150000Y-124700000D03*
D12*
%TO.P,D52,1*%
%TO.N,RR4*%
X278690000Y-124700000D03*
D13*
%TO.P,D52,2*%
%TO.N,mid_k*%
X286310000Y-124700000D03*
%TD*%
D11*
%TO.P,D53,1*%
%TO.N,RR4*%
X261850000Y-124700000D03*
%TO.P,D53,2*%
%TO.N,mid_j*%
X265150000Y-124700000D03*
D12*
%TO.P,D53,1*%
%TO.N,RR4*%
X259690000Y-124700000D03*
D13*
%TO.P,D53,2*%
%TO.N,mid_j*%
X267310000Y-124700000D03*
%TD*%
D11*
%TO.P,D54,1*%
%TO.N,RR4*%
X242850000Y-124700000D03*
%TO.P,D54,2*%
%TO.N,mid_h*%
X246150000Y-124700000D03*
D12*
%TO.P,D54,1*%
%TO.N,RR4*%
X240690000Y-124700000D03*
D13*
%TO.P,D54,2*%
%TO.N,mid_h*%
X248310000Y-124700000D03*
%TD*%
D11*
%TO.P,D55,1*%
%TO.N,RR3*%
X375100000Y-105700000D03*
%TO.P,D55,2*%
%TO.N,top_pipe*%
X378400000Y-105700000D03*
D12*
%TO.P,D55,1*%
%TO.N,RR3*%
X372940000Y-105700000D03*
D13*
%TO.P,D55,2*%
%TO.N,top_pipe*%
X380560000Y-105700000D03*
%TD*%
D11*
%TO.P,D56,1*%
%TO.N,RR3*%
X351350000Y-105700000D03*
%TO.P,D56,2*%
%TO.N,top_right_paren*%
X354650000Y-105700000D03*
D12*
%TO.P,D56,1*%
%TO.N,RR3*%
X349190000Y-105700000D03*
D13*
%TO.P,D56,2*%
%TO.N,top_right_paren*%
X356810000Y-105700000D03*
%TD*%
D11*
%TO.P,D57,1*%
%TO.N,RR3*%
X332350000Y-105700000D03*
%TO.P,D57,2*%
%TO.N,top_left_paren*%
X335650000Y-105700000D03*
D12*
%TO.P,D57,1*%
%TO.N,RR3*%
X330190000Y-105700000D03*
D13*
%TO.P,D57,2*%
%TO.N,top_left_paren*%
X337810000Y-105700000D03*
%TD*%
D11*
%TO.P,D58,1*%
%TO.N,RR3*%
X313350000Y-105700000D03*
%TO.P,D58,2*%
%TO.N,top_p*%
X316650000Y-105700000D03*
D12*
%TO.P,D58,1*%
%TO.N,RR3*%
X311190000Y-105700000D03*
D13*
%TO.P,D58,2*%
%TO.N,top_p*%
X318810000Y-105700000D03*
%TD*%
D11*
%TO.P,D59,1*%
%TO.N,RR3*%
X294350000Y-105700000D03*
%TO.P,D59,2*%
%TO.N,top_o*%
X297650000Y-105700000D03*
D12*
%TO.P,D59,1*%
%TO.N,RR3*%
X292190000Y-105700000D03*
D13*
%TO.P,D59,2*%
%TO.N,top_o*%
X299810000Y-105700000D03*
%TD*%
D11*
%TO.P,D60,1*%
%TO.N,RR3*%
X275350000Y-105700000D03*
%TO.P,D60,2*%
%TO.N,top_i*%
X278650000Y-105700000D03*
D12*
%TO.P,D60,1*%
%TO.N,RR3*%
X273190000Y-105700000D03*
D13*
%TO.P,D60,2*%
%TO.N,top_i*%
X280810000Y-105700000D03*
%TD*%
D11*
%TO.P,D61,1*%
%TO.N,RR3*%
X256350000Y-105700000D03*
%TO.P,D61,2*%
%TO.N,top_u*%
X259650000Y-105700000D03*
D12*
%TO.P,D61,1*%
%TO.N,RR3*%
X254190000Y-105700000D03*
D13*
%TO.P,D61,2*%
%TO.N,top_u*%
X261810000Y-105700000D03*
%TD*%
D11*
%TO.P,D62,1*%
%TO.N,RR3*%
X237350000Y-105700000D03*
%TO.P,D62,2*%
%TO.N,top_y*%
X240650000Y-105700000D03*
D12*
%TO.P,D62,1*%
%TO.N,RR3*%
X235190000Y-105700000D03*
D13*
%TO.P,D62,2*%
%TO.N,top_y*%
X242810000Y-105700000D03*
%TD*%
D11*
%TO.P,D63,1*%
%TO.N,RR2*%
X370350000Y-86700000D03*
%TO.P,D63,2*%
%TO.N,num_backspace*%
X373650000Y-86700000D03*
D12*
%TO.P,D63,1*%
%TO.N,RR2*%
X368190000Y-86700000D03*
D13*
%TO.P,D63,2*%
%TO.N,num_backspace*%
X375810000Y-86700000D03*
%TD*%
D11*
%TO.P,D64,1*%
%TO.N,RR2*%
X341850000Y-86700000D03*
%TO.P,D64,2*%
%TO.N,num_plus*%
X345150000Y-86700000D03*
D12*
%TO.P,D64,1*%
%TO.N,RR2*%
X339690000Y-86700000D03*
D13*
%TO.P,D64,2*%
%TO.N,num_plus*%
X347310000Y-86700000D03*
%TD*%
D11*
%TO.P,D65,1*%
%TO.N,RR2*%
X322850000Y-86700000D03*
%TO.P,D65,2*%
%TO.N,num_minus*%
X326150000Y-86700000D03*
D12*
%TO.P,D65,1*%
%TO.N,RR2*%
X320690000Y-86700000D03*
D13*
%TO.P,D65,2*%
%TO.N,num_minus*%
X328310000Y-86700000D03*
%TD*%
D11*
%TO.P,D66,1*%
%TO.N,RR2*%
X303850000Y-86700000D03*
%TO.P,D66,2*%
%TO.N,num_zero*%
X307150000Y-86700000D03*
D12*
%TO.P,D66,1*%
%TO.N,RR2*%
X301690000Y-86700000D03*
D13*
%TO.P,D66,2*%
%TO.N,num_zero*%
X309310000Y-86700000D03*
%TD*%
D11*
%TO.P,D67,1*%
%TO.N,RR2*%
X284850000Y-86700000D03*
%TO.P,D67,2*%
%TO.N,num_nine*%
X288150000Y-86700000D03*
D12*
%TO.P,D67,1*%
%TO.N,RR2*%
X282690000Y-86700000D03*
D13*
%TO.P,D67,2*%
%TO.N,num_nine*%
X290310000Y-86700000D03*
%TD*%
D11*
%TO.P,D68,1*%
%TO.N,RR2*%
X265850000Y-86700000D03*
%TO.P,D68,2*%
%TO.N,num_eight*%
X269150000Y-86700000D03*
D12*
%TO.P,D68,1*%
%TO.N,RR2*%
X263690000Y-86700000D03*
D13*
%TO.P,D68,2*%
%TO.N,num_eight*%
X271310000Y-86700000D03*
%TD*%
D11*
%TO.P,D69,1*%
%TO.N,RR2*%
X246850000Y-86700000D03*
%TO.P,D69,2*%
%TO.N,num_seven*%
X250150000Y-86700000D03*
D12*
%TO.P,D69,1*%
%TO.N,RR2*%
X244690000Y-86700000D03*
D13*
%TO.P,D69,2*%
%TO.N,num_seven*%
X252310000Y-86700000D03*
%TD*%
D11*
%TO.P,D70,1*%
%TO.N,RR1*%
X379850000Y-62000000D03*
%TO.P,D70,2*%
%TO.N,function_f12*%
X383150000Y-62000000D03*
D12*
%TO.P,D70,1*%
%TO.N,RR1*%
X377690000Y-62000000D03*
D13*
%TO.P,D70,2*%
%TO.N,function_f12*%
X385310000Y-62000000D03*
%TD*%
D11*
%TO.P,D71,1*%
%TO.N,RR1*%
X360850000Y-62000000D03*
%TO.P,D71,2*%
%TO.N,function_f11*%
X364150000Y-62000000D03*
D12*
%TO.P,D71,1*%
%TO.N,RR1*%
X358690000Y-62000000D03*
D13*
%TO.P,D71,2*%
%TO.N,function_f11*%
X366310000Y-62000000D03*
%TD*%
D11*
%TO.P,D72,1*%
%TO.N,RR1*%
X341850000Y-62000000D03*
%TO.P,D72,2*%
%TO.N,function_f10*%
X345150000Y-62000000D03*
D12*
%TO.P,D72,1*%
%TO.N,RR1*%
X339690000Y-62000000D03*
D13*
%TO.P,D72,2*%
%TO.N,function_f10*%
X347310000Y-62000000D03*
%TD*%
D11*
%TO.P,D73,1*%
%TO.N,RR1*%
X322850000Y-62000000D03*
%TO.P,D73,2*%
%TO.N,function_f9*%
X326150000Y-62000000D03*
D12*
%TO.P,D73,1*%
%TO.N,RR1*%
X320690000Y-62000000D03*
D13*
%TO.P,D73,2*%
%TO.N,function_f9*%
X328310000Y-62000000D03*
%TD*%
D11*
%TO.P,D74,1*%
%TO.N,RR1*%
X294350000Y-62000000D03*
%TO.P,D74,2*%
%TO.N,function_f8*%
X297650000Y-62000000D03*
D12*
%TO.P,D74,1*%
%TO.N,RR1*%
X292190000Y-62000000D03*
D13*
%TO.P,D74,2*%
%TO.N,function_f8*%
X299810000Y-62000000D03*
%TD*%
D11*
%TO.P,D75,1*%
%TO.N,RR1*%
X275350000Y-62000000D03*
%TO.P,D75,2*%
%TO.N,function_f7*%
X278650000Y-62000000D03*
D12*
%TO.P,D75,1*%
%TO.N,RR1*%
X273190000Y-62000000D03*
D13*
%TO.P,D75,2*%
%TO.N,function_f7*%
X280810000Y-62000000D03*
%TD*%
D11*
%TO.P,D76,1*%
%TO.N,RR1*%
X256350000Y-62000000D03*
%TO.P,D76,2*%
%TO.N,function_f6*%
X259650000Y-62000000D03*
D12*
%TO.P,D76,1*%
%TO.N,RR1*%
X254190000Y-62000000D03*
D13*
%TO.P,D76,2*%
%TO.N,function_f6*%
X261810000Y-62000000D03*
%TD*%
D11*
%TO.P,D77,1*%
%TO.N,RR1*%
X237350000Y-62000000D03*
%TO.P,D77,2*%
%TO.N,function_f5_r*%
X240650000Y-62000000D03*
D12*
%TO.P,D77,1*%
%TO.N,RR1*%
X235190000Y-62000000D03*
D13*
%TO.P,D77,2*%
%TO.N,function_f5_r*%
X242810000Y-62000000D03*
%TD*%
D14*
%TO.P,RST1,2*%
%TO.N,LGND*%
X187150000Y-62150000D03*
%TO.P,RST1,1*%
%TO.N,LRST*%
X187150000Y-55650000D03*
%TD*%
%TO.P,RST2,2*%
%TO.N,RGND*%
X203850000Y-62150000D03*
%TO.P,RST2,1*%
%TO.N,RRST*%
X203850000Y-55650000D03*
%TD*%
D15*
%TO.P,PWR1,*%
%TO.N,*%
X186065000Y-45750000D03*
X188275000Y-45750000D03*
X186065000Y-53050000D03*
X188275000Y-53050000D03*
D16*
%TO.P,PWR1,1*%
%TO.N,LBAT*%
X185415000Y-47150000D03*
%TO.P,PWR1,2*%
%TO.N,LRAW*%
X185415000Y-50150000D03*
%TO.P,PWR1,3*%
%TO.N,N/C*%
X185415000Y-51650000D03*
%TD*%
D15*
%TO.P,PWR2,*%
%TO.N,*%
X204935000Y-53050000D03*
X202725000Y-53050000D03*
X204935000Y-45750000D03*
X202725000Y-45750000D03*
D16*
%TO.P,PWR2,1*%
%TO.N,RBAT*%
X205585000Y-51650000D03*
%TO.P,PWR2,2*%
%TO.N,RRAW*%
X205585000Y-48650000D03*
%TO.P,PWR2,3*%
%TO.N,N/C*%
X205585000Y-47150000D03*
%TD*%
D17*
%TO.P,JST1,1*%
%TO.N,LGND*%
X179550000Y-48500000D03*
D18*
%TO.P,JST1,2*%
%TO.N,LBAT*%
X179550000Y-46500000D03*
%TD*%
D19*
%TO.P,JST2,1*%
%TO.N,RGND*%
X211450000Y-46500000D03*
D18*
%TO.P,JST2,2*%
%TO.N,RBAT*%
X211450000Y-48500000D03*
%TD*%
D20*
%TO.P,MCU1,1*%
%TO.N,LRAW*%
X168130000Y-54430000D03*
D21*
%TO.P,MCU1,2*%
%TO.N,LGND*%
X168130000Y-56970000D03*
%TO.P,MCU1,3*%
%TO.N,LRST*%
X168130000Y-59510000D03*
%TO.P,MCU1,4*%
%TO.N,LVCC*%
X168130000Y-62050000D03*
%TO.P,MCU1,5*%
%TO.N,LP21*%
X168130000Y-64590000D03*
%TO.P,MCU1,6*%
%TO.N,LP20*%
X168130000Y-67130000D03*
%TO.P,MCU1,7*%
%TO.N,LR6*%
X168130000Y-69670000D03*
%TO.P,MCU1,8*%
%TO.N,LR5*%
X168130000Y-72210000D03*
%TO.P,MCU1,9*%
%TO.N,LR4*%
X168130000Y-74750000D03*
%TO.P,MCU1,10*%
%TO.N,LR3*%
X168130000Y-77290000D03*
%TO.P,MCU1,11*%
%TO.N,LR2*%
X168130000Y-79830000D03*
%TO.P,MCU1,12*%
%TO.N,LR1*%
X168130000Y-82370000D03*
%TO.P,MCU1,13*%
%TO.N,LP1*%
X183370000Y-54430000D03*
%TO.P,MCU1,14*%
%TO.N,LP0*%
X183370000Y-56970000D03*
%TO.P,MCU1,15*%
%TO.N,LGND*%
X183370000Y-59510000D03*
%TO.P,MCU1,16*%
X183370000Y-62050000D03*
%TO.P,MCU1,17*%
%TO.N,LP2*%
X183370000Y-64590000D03*
%TO.P,MCU1,18*%
%TO.N,LC7*%
X183370000Y-67130000D03*
%TO.P,MCU1,19*%
%TO.N,LC6*%
X183370000Y-69670000D03*
%TO.P,MCU1,20*%
%TO.N,LC5*%
X183370000Y-72210000D03*
%TO.P,MCU1,21*%
%TO.N,LC4*%
X183370000Y-74750000D03*
%TO.P,MCU1,22*%
%TO.N,LC3*%
X183370000Y-77290000D03*
%TO.P,MCU1,23*%
%TO.N,LC2*%
X183370000Y-79830000D03*
%TO.P,MCU1,24*%
%TO.N,LC1*%
X183370000Y-82370000D03*
%TD*%
D20*
%TO.P,MCU2,1*%
%TO.N,RRAW*%
X207630000Y-54430000D03*
D21*
%TO.P,MCU2,2*%
%TO.N,RGND*%
X207630000Y-56970000D03*
%TO.P,MCU2,3*%
%TO.N,RRST*%
X207630000Y-59510000D03*
%TO.P,MCU2,4*%
%TO.N,RVCC*%
X207630000Y-62050000D03*
%TO.P,MCU2,5*%
%TO.N,RC1*%
X207630000Y-64590000D03*
%TO.P,MCU2,6*%
%TO.N,RC2*%
X207630000Y-67130000D03*
%TO.P,MCU2,7*%
%TO.N,RC3*%
X207630000Y-69670000D03*
%TO.P,MCU2,8*%
%TO.N,RC4*%
X207630000Y-72210000D03*
%TO.P,MCU2,9*%
%TO.N,RC5*%
X207630000Y-74750000D03*
%TO.P,MCU2,10*%
%TO.N,RC6*%
X207630000Y-77290000D03*
%TO.P,MCU2,11*%
%TO.N,RC7*%
X207630000Y-79830000D03*
%TO.P,MCU2,12*%
%TO.N,RC8*%
X207630000Y-82370000D03*
%TO.P,MCU2,13*%
%TO.N,RP1*%
X222870000Y-54430000D03*
%TO.P,MCU2,14*%
%TO.N,RP0*%
X222870000Y-56970000D03*
%TO.P,MCU2,15*%
%TO.N,RGND*%
X222870000Y-59510000D03*
%TO.P,MCU2,16*%
X222870000Y-62050000D03*
%TO.P,MCU2,17*%
%TO.N,RP2*%
X222870000Y-64590000D03*
%TO.P,MCU2,18*%
%TO.N,RP3*%
X222870000Y-67130000D03*
%TO.P,MCU2,19*%
%TO.N,RR6*%
X222870000Y-69670000D03*
%TO.P,MCU2,20*%
%TO.N,RR5*%
X222870000Y-72210000D03*
%TO.P,MCU2,21*%
%TO.N,RR4*%
X222870000Y-74750000D03*
%TO.P,MCU2,22*%
%TO.N,RR3*%
X222870000Y-77290000D03*
%TO.P,MCU2,23*%
%TO.N,RR2*%
X222870000Y-79830000D03*
%TO.P,MCU2,24*%
%TO.N,RR1*%
X222870000Y-82370000D03*
%TD*%
D22*
%TO.N,RRAW*%
X205585000Y-48650000D02*
X209350000Y-48650000D01*
X209350000Y-48650000D02*
X210500000Y-47500000D01*
X214500000Y-48000000D02*
X214500000Y-53500000D01*
X210500000Y-47500000D02*
X214000000Y-47500000D01*
X214000000Y-47500000D02*
X214500000Y-48000000D01*
X214500000Y-53500000D02*
X213570000Y-54430000D01*
X213570000Y-54430000D02*
X207630000Y-54430000D01*
%TO.N,LC1*%
X42415000Y-136160000D02*
X42415000Y-142085000D01*
X42415000Y-142085000D02*
X33165000Y-151335000D01*
X33165000Y-151335000D02*
X33165000Y-155160000D01*
%TO.N,RR6*%
X259850000Y-162700000D02*
X257690000Y-162700000D01*
%TO.N,meta_space_r*%
X265310000Y-162700000D02*
X263150000Y-162700000D01*
%TO.N,RR6*%
X307100000Y-162700000D02*
X304940000Y-162700000D01*
%TO.N,meta_alt_r*%
X312560000Y-162700000D02*
X310400000Y-162700000D01*
%TO.N,RR6*%
X330600000Y-162700000D02*
X328440000Y-162700000D01*
%TO.N,meta_fn*%
X336060000Y-162700000D02*
X333900000Y-162700000D01*
%TO.N,RR6*%
X354100000Y-162700000D02*
X351940000Y-162700000D01*
%TO.N,meta_meta*%
X359560000Y-162700000D02*
X357400000Y-162700000D01*
%TO.N,RR6*%
X377600000Y-162700000D02*
X375440000Y-162700000D01*
%TO.N,meta_ctrl_r*%
X383060000Y-162700000D02*
X380900000Y-162700000D01*
%TO.N,RR5*%
X232850000Y-143700000D02*
X230690000Y-143700000D01*
%TO.N,bottom_b_r*%
X238310000Y-143700000D02*
X236150000Y-143700000D01*
%TO.N,RR5*%
X251850000Y-143700000D02*
X249690000Y-143700000D01*
%TO.N,bottom_n*%
X257310000Y-143700000D02*
X255150000Y-143700000D01*
%TO.N,RR5*%
X270850000Y-143700000D02*
X268690000Y-143700000D01*
%TO.N,bottom_m*%
X276310000Y-143700000D02*
X274150000Y-143700000D01*
%TO.N,RR5*%
X289850000Y-143700000D02*
X287690000Y-143700000D01*
%TO.N,bottom_comma*%
X295310000Y-143700000D02*
X293150000Y-143700000D01*
%TO.N,RR5*%
X308850000Y-143700000D02*
X306690000Y-143700000D01*
%TO.N,bottom_period*%
X314310000Y-143700000D02*
X312150000Y-143700000D01*
%TO.N,RR5*%
X327850000Y-143700000D02*
X325690000Y-143700000D01*
%TO.N,bottom_slash*%
X333310000Y-143700000D02*
X331150000Y-143700000D01*
%TO.N,RR5*%
X363350000Y-143700000D02*
X361190000Y-143700000D01*
%TO.N,bottom_shift_r*%
X368810000Y-143700000D02*
X366650000Y-143700000D01*
%TO.N,RR4*%
X242850000Y-124700000D02*
X240690000Y-124700000D01*
%TO.N,mid_h*%
X248310000Y-124700000D02*
X246150000Y-124700000D01*
%TO.N,RR4*%
X261850000Y-124700000D02*
X259690000Y-124700000D01*
%TO.N,mid_j*%
X267310000Y-124700000D02*
X265150000Y-124700000D01*
%TO.N,RR4*%
X280850000Y-124700000D02*
X278690000Y-124700000D01*
%TO.N,mid_k*%
X286310000Y-124700000D02*
X284150000Y-124700000D01*
%TO.N,RR4*%
X299850000Y-124700000D02*
X297690000Y-124700000D01*
%TO.N,mid_l*%
X305310000Y-124700000D02*
X303150000Y-124700000D01*
%TO.N,RR4*%
X318850000Y-124700000D02*
X316690000Y-124700000D01*
%TO.N,mid_colon*%
X324310000Y-124700000D02*
X322150000Y-124700000D01*
%TO.N,RR4*%
X337850000Y-124700000D02*
X335690000Y-124700000D01*
%TO.N,mid_quote*%
X343310000Y-124700000D02*
X341150000Y-124700000D01*
%TO.N,RR4*%
X368350000Y-124700000D02*
X366190000Y-124700000D01*
%TO.N,mid_enter*%
X373810000Y-124700000D02*
X371650000Y-124700000D01*
%TO.N,RR3*%
X237350000Y-105700000D02*
X235190000Y-105700000D01*
%TO.N,top_y*%
X242810000Y-105700000D02*
X240650000Y-105700000D01*
%TO.N,top_u*%
X263842000Y-95620000D02*
X261810000Y-97652000D01*
X261810000Y-97652000D02*
X261810000Y-105700000D01*
%TO.N,RR3*%
X256350000Y-105700000D02*
X254190000Y-105700000D01*
%TO.N,top_u*%
X261810000Y-105700000D02*
X259650000Y-105700000D01*
%TO.N,RR3*%
X275350000Y-105700000D02*
X273190000Y-105700000D01*
%TO.N,top_i*%
X280810000Y-105700000D02*
X278650000Y-105700000D01*
%TO.N,RR3*%
X294350000Y-105700000D02*
X292190000Y-105700000D01*
%TO.N,top_o*%
X299810000Y-105700000D02*
X297650000Y-105700000D01*
%TO.N,RR3*%
X313350000Y-105700000D02*
X311190000Y-105700000D01*
%TO.N,top_p*%
X318810000Y-105700000D02*
X316650000Y-105700000D01*
%TO.N,RR3*%
X332350000Y-105700000D02*
X330190000Y-105700000D01*
%TO.N,top_left_paren*%
X337810000Y-105700000D02*
X335650000Y-105700000D01*
%TO.N,RR3*%
X351350000Y-105700000D02*
X349190000Y-105700000D01*
%TO.N,top_right_paren*%
X356810000Y-105700000D02*
X354650000Y-105700000D01*
%TO.N,RR3*%
X375100000Y-105700000D02*
X372940000Y-105700000D01*
%TO.N,top_pipe*%
X380560000Y-105700000D02*
X378400000Y-105700000D01*
%TO.N,RR2*%
X265850000Y-86700000D02*
X263690000Y-86700000D01*
%TO.N,num_eight*%
X271310000Y-86700000D02*
X269150000Y-86700000D01*
%TO.N,RR2*%
X284850000Y-86700000D02*
X282690000Y-86700000D01*
%TO.N,num_nine*%
X290310000Y-86700000D02*
X288150000Y-86700000D01*
%TO.N,RR2*%
X303850000Y-86700000D02*
X301690000Y-86700000D01*
%TO.N,num_zero*%
X309310000Y-86700000D02*
X307150000Y-86700000D01*
%TO.N,RR2*%
X322850000Y-86700000D02*
X320690000Y-86700000D01*
%TO.N,num_minus*%
X328310000Y-86700000D02*
X326150000Y-86700000D01*
%TO.N,RR2*%
X341850000Y-86700000D02*
X339690000Y-86700000D01*
%TO.N,num_plus*%
X347310000Y-86700000D02*
X345150000Y-86700000D01*
%TO.N,RR2*%
X370350000Y-86700000D02*
X368190000Y-86700000D01*
%TO.N,num_backspace*%
X375810000Y-86700000D02*
X373650000Y-86700000D01*
%TO.N,RR2*%
X246850000Y-86700000D02*
X244690000Y-86700000D01*
%TO.N,num_seven*%
X252310000Y-86700000D02*
X250150000Y-86700000D01*
%TO.N,RR1*%
X237350000Y-62000000D02*
X235190000Y-62000000D01*
%TO.N,function_f5_r*%
X242810000Y-62000000D02*
X240650000Y-62000000D01*
%TO.N,RR1*%
X256350000Y-62000000D02*
X254190000Y-62000000D01*
%TO.N,function_f6*%
X261810000Y-62000000D02*
X259650000Y-62000000D01*
%TO.N,RR1*%
X275350000Y-62000000D02*
X273190000Y-62000000D01*
%TO.N,function_f7*%
X280810000Y-62000000D02*
X278650000Y-62000000D01*
%TO.N,RR1*%
X294350000Y-62000000D02*
X292190000Y-62000000D01*
%TO.N,function_f8*%
X299810000Y-62000000D02*
X297650000Y-62000000D01*
%TO.N,RR1*%
X322850000Y-62000000D02*
X320690000Y-62000000D01*
%TO.N,function_f9*%
X328310000Y-62000000D02*
X326150000Y-62000000D01*
%TO.N,RR1*%
X341850000Y-62000000D02*
X339690000Y-62000000D01*
%TO.N,function_f10*%
X347310000Y-62000000D02*
X345150000Y-62000000D01*
%TO.N,RR1*%
X360850000Y-62000000D02*
X358690000Y-62000000D01*
%TO.N,function_f11*%
X366310000Y-62000000D02*
X364150000Y-62000000D01*
%TO.N,RR1*%
X379850000Y-62000000D02*
X377690000Y-62000000D01*
%TO.N,function_f12*%
X385310000Y-62000000D02*
X383150000Y-62000000D01*
%TO.N,bottom_slash*%
X335342000Y-133620000D02*
X333310000Y-135652000D01*
X333310000Y-135652000D02*
X333310000Y-143700000D01*
%TO.N,bottom_shift_r*%
X370842000Y-133620000D02*
X368810000Y-135652000D01*
X368810000Y-135652000D02*
X368810000Y-143700000D01*
%TO.N,meta_ctrl_r*%
X385092000Y-152620000D02*
X383060000Y-154652000D01*
X383060000Y-154652000D02*
X383060000Y-162700000D01*
%TO.N,meta_meta*%
X361592000Y-152620000D02*
X359560000Y-154652000D01*
X359560000Y-154652000D02*
X359560000Y-162700000D01*
%TO.N,meta_fn*%
X338092000Y-152620000D02*
X336060000Y-154652000D01*
X336060000Y-154652000D02*
X336060000Y-162700000D01*
%TO.N,meta_alt_r*%
X314592000Y-152620000D02*
X312560000Y-154652000D01*
X312560000Y-154652000D02*
X312560000Y-162700000D01*
%TO.N,bottom_period*%
X316342000Y-133620000D02*
X314310000Y-135652000D01*
X314310000Y-135652000D02*
X314310000Y-143700000D01*
%TO.N,bottom_comma*%
X297342000Y-133620000D02*
X295310000Y-135652000D01*
X295310000Y-135652000D02*
X295310000Y-143700000D01*
%TO.N,bottom_m*%
X278342000Y-133620000D02*
X276310000Y-135652000D01*
X276310000Y-135652000D02*
X276310000Y-143700000D01*
%TO.N,meta_space_r*%
X267342000Y-152620000D02*
X265310000Y-154652000D01*
X265310000Y-154652000D02*
X265310000Y-162700000D01*
%TO.N,bottom_n*%
X259342000Y-133620000D02*
X257310000Y-135652000D01*
X257310000Y-135652000D02*
X257310000Y-143700000D01*
%TO.N,bottom_b_r*%
X240342000Y-133620000D02*
X238310000Y-135652000D01*
X238310000Y-135652000D02*
X238310000Y-143700000D01*
%TO.N,mid_h*%
X250342000Y-114620000D02*
X248310000Y-116652000D01*
X248310000Y-116652000D02*
X248310000Y-124700000D01*
%TO.N,top_y*%
X244842000Y-95620000D02*
X242810000Y-97652000D01*
X242810000Y-97652000D02*
X242810000Y-105700000D01*
%TO.N,num_seven*%
X254342000Y-76620000D02*
X252310000Y-78652000D01*
X252310000Y-78652000D02*
X252310000Y-86700000D01*
%TO.N,mid_k*%
X288342000Y-114620000D02*
X286310000Y-116652000D01*
X286310000Y-116652000D02*
X286310000Y-124700000D01*
%TO.N,mid_l*%
X307342000Y-114620000D02*
X305310000Y-116652000D01*
X305310000Y-116652000D02*
X305310000Y-124700000D01*
%TO.N,mid_colon*%
X326342000Y-114620000D02*
X324310000Y-116652000D01*
X324310000Y-116652000D02*
X324310000Y-124700000D01*
%TO.N,mid_quote*%
X345342000Y-114620000D02*
X343310000Y-116652000D01*
X343310000Y-116652000D02*
X343310000Y-124700000D01*
%TO.N,mid_enter*%
X375842000Y-114620000D02*
X373810000Y-116652000D01*
X373810000Y-116652000D02*
X373810000Y-124700000D01*
%TO.N,top_pipe*%
X382592000Y-95620000D02*
X380560000Y-97652000D01*
X380560000Y-97652000D02*
X380560000Y-105700000D01*
%TO.N,top_right_paren*%
X358842000Y-95620000D02*
X356810000Y-97652000D01*
X356810000Y-97652000D02*
X356810000Y-105700000D01*
%TO.N,top_left_paren*%
X339842000Y-95620000D02*
X337810000Y-97652000D01*
X337810000Y-97652000D02*
X337810000Y-105700000D01*
%TO.N,top_p*%
X320842000Y-95620000D02*
X318810000Y-97652000D01*
X318810000Y-97652000D02*
X318810000Y-105700000D01*
%TO.N,top_o*%
X301842000Y-95620000D02*
X299810000Y-97652000D01*
X299810000Y-97652000D02*
X299810000Y-105700000D01*
%TO.N,top_i*%
X282842000Y-95620000D02*
X280810000Y-97652000D01*
X280810000Y-97652000D02*
X280810000Y-105700000D01*
%TO.N,num_eight*%
X273342000Y-76620000D02*
X271310000Y-78652000D01*
X271310000Y-78652000D02*
X271310000Y-86700000D01*
%TO.N,num_nine*%
X292342000Y-76620000D02*
X290310000Y-78652000D01*
X290310000Y-78652000D02*
X290310000Y-86700000D01*
%TO.N,num_zero*%
X311342000Y-76620000D02*
X309310000Y-78652000D01*
X309310000Y-78652000D02*
X309310000Y-86700000D01*
%TO.N,num_minus*%
X330342000Y-76620000D02*
X328310000Y-78652000D01*
X328310000Y-78652000D02*
X328310000Y-86700000D01*
%TO.N,num_plus*%
X349342000Y-76620000D02*
X347310000Y-78652000D01*
X347310000Y-78652000D02*
X347310000Y-86700000D01*
%TO.N,num_backspace*%
X377842000Y-76620000D02*
X375810000Y-78652000D01*
X375810000Y-78652000D02*
X375810000Y-86700000D01*
%TO.N,function_f12*%
X387342000Y-51920000D02*
X385310000Y-53952000D01*
X385310000Y-53952000D02*
X385310000Y-62000000D01*
%TO.N,function_f11*%
X368342000Y-51920000D02*
X366310000Y-53952000D01*
X366310000Y-53952000D02*
X366310000Y-62000000D01*
%TO.N,function_f10*%
X349342000Y-51920000D02*
X347310000Y-53952000D01*
X347310000Y-53952000D02*
X347310000Y-62000000D01*
%TO.N,function_f9*%
X330342000Y-51920000D02*
X328310000Y-53952000D01*
X328310000Y-53952000D02*
X328310000Y-62000000D01*
%TO.N,function_f8*%
X301842000Y-51920000D02*
X299810000Y-53952000D01*
X299810000Y-53952000D02*
X299810000Y-62000000D01*
%TO.N,function_f7*%
X282842000Y-51920000D02*
X280810000Y-53952000D01*
X280810000Y-53952000D02*
X280810000Y-62000000D01*
%TO.N,function_f6*%
X263842000Y-51920000D02*
X261810000Y-53952000D01*
X261810000Y-53952000D02*
X261810000Y-62000000D01*
%TO.N,function_f5_r*%
X244842000Y-51920000D02*
X242810000Y-53952000D01*
X242810000Y-53952000D02*
X242810000Y-62000000D01*
%TO.N,LRAW*%
X185415000Y-50150000D02*
X182765000Y-47500000D01*
X182765000Y-47500000D02*
X177000000Y-47500000D01*
X177000000Y-47500000D02*
X170070000Y-54430000D01*
X170070000Y-54430000D02*
X168130000Y-54430000D01*
%TO.N,LGND*%
X179550000Y-48500000D02*
X179550000Y-54950000D01*
X179550000Y-54950000D02*
X177530000Y-56970000D01*
X177530000Y-56970000D02*
X168130000Y-56970000D01*
%TO.N,RRST*%
X203850000Y-55650000D02*
X203850000Y-57850000D01*
X203850000Y-57850000D02*
X205510000Y-59510000D01*
X205510000Y-59510000D02*
X207630000Y-59510000D01*
%TO.N,RGND*%
X203850000Y-62150000D02*
X205152300Y-60847700D01*
X205152300Y-60847700D02*
X209152300Y-60847700D01*
X209152300Y-60847700D02*
X209500000Y-60500000D01*
X209500000Y-60500000D02*
X209500000Y-58840000D01*
X209500000Y-58840000D02*
X207630000Y-56970000D01*
%TO.N,RBAT*%
X211450000Y-48500000D02*
X211450000Y-51050000D01*
X211450000Y-51050000D02*
X210850000Y-51650000D01*
X210850000Y-51650000D02*
X205585000Y-51650000D01*
%TO.N,RGND*%
X214951000Y-52186810D02*
X214951000Y-56049000D01*
X214030000Y-56970000D02*
X207630000Y-56970000D01*
X214951000Y-56049000D02*
X214030000Y-56970000D01*
X214951000Y-52186810D02*
X214951000Y-58451000D01*
X214951000Y-58451000D02*
X216010000Y-59510000D01*
X216010000Y-59510000D02*
X222870000Y-59510000D01*
X222870000Y-59510000D02*
X222870000Y-62050000D01*
%TO.N,RC2*%
X256415000Y-117160000D02*
X256415000Y-126160000D01*
X256415000Y-126160000D02*
X246415000Y-136160000D01*
%TO.N,RC3*%
X275415000Y-117160000D02*
X275415000Y-126160000D01*
X275415000Y-126160000D02*
X265415000Y-136160000D01*
%TO.N,RC4*%
X294415000Y-117160000D02*
X294415000Y-118660000D01*
X294415000Y-118660000D02*
X284415000Y-128660000D01*
X284415000Y-128660000D02*
X284415000Y-136160000D01*
%TO.N,RC5*%
X303415000Y-136160000D02*
X303415000Y-153410000D01*
X303415000Y-153410000D02*
X301665000Y-155160000D01*
X313415000Y-117160000D02*
X313415000Y-126160000D01*
X313415000Y-126160000D02*
X303415000Y-136160000D01*
%TO.N,RC6*%
X322415000Y-136160000D02*
X322415000Y-152410000D01*
X322415000Y-152410000D02*
X325165000Y-155160000D01*
X332415000Y-117160000D02*
X332415000Y-126160000D01*
X332415000Y-126160000D02*
X322415000Y-136160000D01*
%TO.N,RC8*%
X357915000Y-136160000D02*
X357915000Y-142915000D01*
X357915000Y-142915000D02*
X370160000Y-155160000D01*
X370160000Y-155160000D02*
X372165000Y-155160000D01*
X362915000Y-117160000D02*
X362915000Y-131160000D01*
X362915000Y-131160000D02*
X357915000Y-136160000D01*
X369665000Y-98160000D02*
X369665000Y-110410000D01*
X369665000Y-110410000D02*
X362915000Y-117160000D01*
%TO.N,RC7*%
X345915000Y-98160000D02*
X345915000Y-105415000D01*
X345915000Y-105415000D02*
X348665000Y-108165000D01*
X348665000Y-108165000D02*
X348665000Y-155160000D01*
%TO.N,RC6*%
X326915000Y-98160000D02*
X326915000Y-111660000D01*
X326915000Y-111660000D02*
X332415000Y-117160000D01*
%TO.N,RC5*%
X307915000Y-98160000D02*
X307915000Y-104915000D01*
X307915000Y-104915000D02*
X313415000Y-110415000D01*
X313415000Y-110415000D02*
X313415000Y-117160000D01*
%TO.N,RC4*%
X288915000Y-98160000D02*
X288915000Y-111660000D01*
X288915000Y-111660000D02*
X294415000Y-117160000D01*
%TO.N,RC3*%
X269915000Y-98160000D02*
X269915000Y-111660000D01*
X269915000Y-111660000D02*
X275415000Y-117160000D01*
%TO.N,RC2*%
X250915000Y-98160000D02*
X250915000Y-104855000D01*
X250915000Y-104855000D02*
X256415000Y-110355000D01*
X256415000Y-110355000D02*
X256415000Y-117160000D01*
X241415000Y-79160000D02*
X241415000Y-85855000D01*
X241415000Y-85855000D02*
X250915000Y-95355000D01*
X250915000Y-95355000D02*
X250915000Y-98160000D01*
%TO.N,RC3*%
X260415000Y-79160000D02*
X260415000Y-85915000D01*
X260415000Y-85915000D02*
X269915000Y-95415000D01*
X269915000Y-95415000D02*
X269915000Y-98160000D01*
%TO.N,RC4*%
X279415000Y-79160000D02*
X279415000Y-85855000D01*
X279415000Y-85855000D02*
X288915000Y-95355000D01*
X288915000Y-95355000D02*
X288915000Y-98160000D01*
%TO.N,RC5*%
X298415000Y-79160000D02*
X298415000Y-85915000D01*
X298415000Y-85915000D02*
X307915000Y-95415000D01*
X307915000Y-95415000D02*
X307915000Y-98160000D01*
%TO.N,RC6*%
X317415000Y-79160000D02*
X317415000Y-85915000D01*
X326915000Y-95415000D02*
X326915000Y-98160000D01*
X317415000Y-85915000D02*
X326915000Y-95415000D01*
%TO.N,RC7*%
X336415000Y-79160000D02*
X336415000Y-85915000D01*
X336415000Y-85915000D02*
X345915000Y-95415000D01*
X345915000Y-95415000D02*
X345915000Y-98160000D01*
%TO.N,RC8*%
X364915000Y-79160000D02*
X364915000Y-93410000D01*
X364915000Y-93410000D02*
X369665000Y-98160000D01*
X374415000Y-54460000D02*
X374415000Y-69660000D01*
X374415000Y-69660000D02*
X364915000Y-79160000D01*
%TO.N,RC7*%
X355415000Y-54460000D02*
X355415000Y-60160000D01*
X355415000Y-60160000D02*
X336415000Y-79160000D01*
%TO.N,RC6*%
X336415000Y-54460000D02*
X336415000Y-55960000D01*
X336415000Y-55960000D02*
X317415000Y-74960000D01*
X317415000Y-74960000D02*
X317415000Y-79160000D01*
%TO.N,RC5*%
X317415000Y-54460000D02*
X317415000Y-60160000D01*
X317415000Y-60160000D02*
X298415000Y-79160000D01*
%TO.N,RC4*%
X288915000Y-54460000D02*
X288915000Y-69660000D01*
X288915000Y-69660000D02*
X279415000Y-79160000D01*
%TO.N,RC3*%
X269915000Y-54460000D02*
X269915000Y-69660000D01*
X269915000Y-69660000D02*
X260415000Y-79160000D01*
%TO.N,RC2*%
X250915000Y-54460000D02*
X250915000Y-70281935D01*
X242036935Y-79160000D02*
X241415000Y-79160000D01*
X250915000Y-70281935D02*
X242036935Y-79160000D01*
%TO.N,RC6*%
X325165000Y-155160000D02*
X325165000Y-167335000D01*
X210290000Y-77290000D02*
X207630000Y-77290000D01*
X325165000Y-167335000D02*
X323196000Y-169304000D01*
X212402000Y-79402000D02*
X210290000Y-77290000D01*
X323196000Y-169304000D02*
X224941810Y-169304000D01*
X224941810Y-169304000D02*
X221402000Y-165764190D01*
X221402000Y-165764190D02*
X221402000Y-105626380D01*
X221402000Y-105626380D02*
X212402000Y-96626380D01*
X212402000Y-96626380D02*
X212402000Y-79402000D01*
%TO.N,RC8*%
X207630000Y-82370000D02*
X210370000Y-82370000D01*
X369294000Y-170206000D02*
X372165000Y-167335000D01*
X210370000Y-82370000D02*
X211500000Y-83500000D01*
X211500000Y-83500000D02*
X211500000Y-97000000D01*
X224568190Y-170206000D02*
X369294000Y-170206000D01*
X220500000Y-106000000D02*
X220500000Y-166137810D01*
X211500000Y-97000000D02*
X220500000Y-106000000D01*
X220500000Y-166137810D02*
X224568190Y-170206000D01*
X372165000Y-167335000D02*
X372165000Y-155160000D01*
%TO.N,RC7*%
X210330000Y-79830000D02*
X211951000Y-81451000D01*
X211951000Y-81451000D02*
X211951000Y-96813190D01*
X220951000Y-165951000D02*
X224755000Y-169755000D01*
X211951000Y-96813190D02*
X220951000Y-105813190D01*
X207630000Y-79830000D02*
X210330000Y-79830000D01*
X220951000Y-105813190D02*
X220951000Y-165951000D01*
X224755000Y-169755000D02*
X346245000Y-169755000D01*
X348665000Y-167335000D02*
X348665000Y-155160000D01*
X346245000Y-169755000D02*
X348665000Y-167335000D01*
%TO.N,RC5*%
X301665000Y-155160000D02*
X301665000Y-167335000D01*
X210250000Y-74750000D02*
X207630000Y-74750000D01*
X301665000Y-167335000D02*
X300147000Y-168853000D01*
X300147000Y-168853000D02*
X225128620Y-168853000D01*
X225128620Y-168853000D02*
X221853000Y-165577380D01*
X221853000Y-105439570D02*
X212853000Y-96439570D01*
X221853000Y-165577380D02*
X221853000Y-105439570D01*
X212853000Y-96439570D02*
X212853000Y-77353000D01*
X212853000Y-77353000D02*
X210250000Y-74750000D01*
%TO.N,RC3*%
X207630000Y-69670000D02*
X210170000Y-69670000D01*
X265415000Y-144915000D02*
X265415000Y-136160000D01*
X210170000Y-69670000D02*
X213755000Y-73255000D01*
X213755000Y-73255000D02*
X213755000Y-96065950D01*
X213755000Y-96065950D02*
X222755000Y-105065950D01*
X222755000Y-105065950D02*
X222755000Y-165203760D01*
X222755000Y-165203760D02*
X225502240Y-167951000D01*
X225502240Y-167951000D02*
X271549000Y-167951000D01*
X272500000Y-167000000D02*
X272500000Y-152000000D01*
X271549000Y-167951000D02*
X272500000Y-167000000D01*
X272500000Y-152000000D02*
X265415000Y-144915000D01*
%TO.N,RC4*%
X284415000Y-136160000D02*
X284415000Y-167085000D01*
X284415000Y-167085000D02*
X283098000Y-168402000D01*
X225315430Y-168402000D02*
X222456715Y-165543285D01*
X283098000Y-168402000D02*
X225315430Y-168402000D01*
%TO.N,RC7*%
X348500000Y-155000000D02*
X348660000Y-155160000D01*
X348660000Y-155160000D02*
X348665000Y-155160000D01*
%TO.N,RC2*%
X246415000Y-136160000D02*
X246415000Y-142915000D01*
X246415000Y-142915000D02*
X254415000Y-150915000D01*
X254415000Y-150915000D02*
X254415000Y-155160000D01*
%TO.N,RC1*%
X237415000Y-117160000D02*
X237415000Y-126160000D01*
X237415000Y-126160000D02*
X227415000Y-136160000D01*
X231915000Y-98160000D02*
X231915000Y-104915000D01*
X231915000Y-104915000D02*
X237415000Y-110415000D01*
X237415000Y-110415000D02*
X237415000Y-117160000D01*
%TO.N,RC4*%
X222304000Y-165390570D02*
X222304000Y-105252760D01*
X210210000Y-72210000D02*
X207630000Y-72210000D01*
X222304000Y-105252760D02*
X213304000Y-96252760D01*
X213304000Y-96252760D02*
X213304000Y-75304000D01*
X213304000Y-75304000D02*
X210210000Y-72210000D01*
X222456715Y-165543285D02*
X222304000Y-165390570D01*
%TO.N,RC2*%
X207630000Y-67130000D02*
X210130000Y-67130000D01*
X210130000Y-67130000D02*
X214206000Y-71206000D01*
X214206000Y-71206000D02*
X214206000Y-95879140D01*
X223206000Y-104879140D02*
X223206000Y-165016950D01*
X223206000Y-165016950D02*
X223344525Y-165155475D01*
X214206000Y-95879140D02*
X223206000Y-104879140D01*
%TO.N,RC1*%
X227415000Y-136160000D02*
X225160000Y-136160000D01*
X225160000Y-136160000D02*
X223657000Y-134657000D01*
X223657000Y-134657000D02*
X223657000Y-104692330D01*
X223657000Y-104692330D02*
X214657000Y-95692330D01*
X214657000Y-95692330D02*
X214657000Y-69157000D01*
X214657000Y-69157000D02*
X210090000Y-64590000D01*
X210090000Y-64590000D02*
X207630000Y-64590000D01*
%TO.N,RC2*%
X225689050Y-167500000D02*
X223344525Y-165155475D01*
X254415000Y-155160000D02*
X254415000Y-166585000D01*
X254415000Y-166585000D02*
X253500000Y-167500000D01*
X253500000Y-167500000D02*
X225689050Y-167500000D01*
X223344525Y-165155475D02*
X223304000Y-165114950D01*
%TO.N,RC4*%
X222456715Y-165543285D02*
X222402000Y-165488570D01*
%TO.N,LGND*%
X183370000Y-59510000D02*
X182167700Y-60712300D01*
X182167700Y-60712300D02*
X167631991Y-60712300D01*
X167631991Y-60712300D02*
X166927700Y-60008009D01*
X166927700Y-58172300D02*
X168130000Y-56970000D01*
X166927700Y-60008009D02*
X166927700Y-58172300D01*
X183370000Y-59510000D02*
X183370000Y-62050000D01*
X183370000Y-59510000D02*
X186010000Y-62150000D01*
X186010000Y-62150000D02*
X187150000Y-62150000D01*
%TO.N,LRST*%
X168130000Y-59510000D02*
X169467700Y-58172300D01*
X169467700Y-58172300D02*
X184627700Y-58172300D01*
X184627700Y-58172300D02*
X187150000Y-55650000D01*
X168490000Y-59510000D02*
X168500000Y-59500000D01*
X168130000Y-59510000D02*
X168490000Y-59510000D01*
%TO.N,LR1*%
X150350000Y-62000000D02*
X148190000Y-62000000D01*
%TO.N,function_f5*%
X155810000Y-62000000D02*
X153650000Y-62000000D01*
%TO.N,LR1*%
X131350000Y-62000000D02*
X129190000Y-62000000D01*
%TO.N,function_f4*%
X136810000Y-62000000D02*
X134650000Y-62000000D01*
%TO.N,LR1*%
X112350000Y-62000000D02*
X110190000Y-62000000D01*
%TO.N,function_f3*%
X117810000Y-62000000D02*
X115650000Y-62000000D01*
%TO.N,LR1*%
X93350000Y-62000000D02*
X91190000Y-62000000D01*
%TO.N,function_f2*%
X98810000Y-62000000D02*
X96650000Y-62000000D01*
%TO.N,LR1*%
X74350000Y-62000000D02*
X72190000Y-62000000D01*
%TO.N,function_f1*%
X79810000Y-62000000D02*
X77650000Y-62000000D01*
%TO.N,LR1*%
X36350000Y-62000000D02*
X34190000Y-62000000D01*
%TO.N,function_esc*%
X41810000Y-62000000D02*
X39650000Y-62000000D01*
%TO.N,LR2*%
X36350000Y-86700000D02*
X34190000Y-86700000D01*
%TO.N,num_tilda*%
X41810000Y-86700000D02*
X39650000Y-86700000D01*
%TO.N,LR2*%
X74350000Y-86700000D02*
X72190000Y-86700000D01*
%TO.N,num_two*%
X79810000Y-86700000D02*
X77650000Y-86700000D01*
%TO.N,LR2*%
X93350000Y-86700000D02*
X91190000Y-86700000D01*
%TO.N,num_three*%
X98810000Y-86700000D02*
X96650000Y-86700000D01*
%TO.N,LR2*%
X112350000Y-86700000D02*
X110190000Y-86700000D01*
%TO.N,num_four*%
X117810000Y-86700000D02*
X115650000Y-86700000D01*
%TO.N,LR2*%
X131350000Y-86700000D02*
X129190000Y-86700000D01*
%TO.N,num_five*%
X136810000Y-86700000D02*
X134650000Y-86700000D01*
%TO.N,LR2*%
X150350000Y-86700000D02*
X148190000Y-86700000D01*
%TO.N,num_six*%
X155810000Y-86700000D02*
X153650000Y-86700000D01*
%TO.N,top_t*%
X146310000Y-105700000D02*
X144150000Y-105700000D01*
%TO.N,LR3*%
X140850000Y-105700000D02*
X138690000Y-105700000D01*
%TO.N,top_r*%
X127310000Y-105700000D02*
X125150000Y-105700000D01*
%TO.N,LR3*%
X121850000Y-105700000D02*
X119690000Y-105700000D01*
%TO.N,top_e*%
X108310000Y-105700000D02*
X106150000Y-105700000D01*
%TO.N,LR3*%
X102850000Y-105700000D02*
X100690000Y-105700000D01*
%TO.N,top_w*%
X89310000Y-105700000D02*
X87150000Y-105700000D01*
%TO.N,LR3*%
X83850000Y-105700000D02*
X81690000Y-105700000D01*
X64850000Y-105700000D02*
X62690000Y-105700000D01*
%TO.N,top_q*%
X70310000Y-105700000D02*
X68150000Y-105700000D01*
%TO.N,LR3*%
X41100000Y-105700000D02*
X38940000Y-105700000D01*
%TO.N,top_tab*%
X46560000Y-105700000D02*
X44400000Y-105700000D01*
%TO.N,LR4*%
X43350000Y-124700000D02*
X41190000Y-124700000D01*
%TO.N,mid_caps*%
X48810000Y-124700000D02*
X46650000Y-124700000D01*
%TO.N,LR4*%
X69350000Y-124700000D02*
X67190000Y-124700000D01*
%TO.N,mid_a*%
X74810000Y-124700000D02*
X72650000Y-124700000D01*
%TO.N,LR4*%
X88350000Y-124700000D02*
X86190000Y-124700000D01*
%TO.N,mid_s*%
X93810000Y-124700000D02*
X91650000Y-124700000D01*
%TO.N,LR4*%
X107350000Y-124700000D02*
X105190000Y-124700000D01*
%TO.N,mid_d*%
X112810000Y-124700000D02*
X110650000Y-124700000D01*
%TO.N,LR4*%
X126350000Y-124700000D02*
X124190000Y-124700000D01*
%TO.N,mid_f*%
X131810000Y-124700000D02*
X129650000Y-124700000D01*
%TO.N,LR4*%
X145350000Y-124700000D02*
X143190000Y-124700000D01*
%TO.N,mid_g*%
X150810000Y-124700000D02*
X148650000Y-124700000D01*
%TO.N,LR5*%
X116350000Y-143700000D02*
X114190000Y-143700000D01*
%TO.N,bottom_c*%
X121810000Y-143700000D02*
X119650000Y-143700000D01*
%TO.N,LR5*%
X135350000Y-143700000D02*
X133190000Y-143700000D01*
%TO.N,bottom_v*%
X140810000Y-143700000D02*
X138650000Y-143700000D01*
%TO.N,LR5*%
X154350000Y-143700000D02*
X152190000Y-143700000D01*
%TO.N,bottom_b*%
X159810000Y-143700000D02*
X157650000Y-143700000D01*
%TO.N,LC5*%
X120915000Y-117160000D02*
X120915000Y-123915000D01*
X120915000Y-123915000D02*
X129915000Y-132915000D01*
X129915000Y-132915000D02*
X129915000Y-136160000D01*
%TO.N,LC4*%
X101915000Y-117160000D02*
X101915000Y-124415000D01*
X110915000Y-133415000D02*
X110915000Y-136160000D01*
X101915000Y-124415000D02*
X110915000Y-133415000D01*
%TO.N,LC3*%
X82915000Y-117160000D02*
X82915000Y-123915000D01*
X82915000Y-123915000D02*
X91915000Y-132915000D01*
X91915000Y-132915000D02*
X91915000Y-136160000D01*
X91915000Y-136160000D02*
X91915000Y-143410000D01*
X91915000Y-143410000D02*
X80165000Y-155160000D01*
%TO.N,bottom_x*%
X102810000Y-143700000D02*
X100650000Y-143700000D01*
%TO.N,LR5*%
X97350000Y-143700000D02*
X95190000Y-143700000D01*
X78350000Y-143700000D02*
X76190000Y-143700000D01*
%TO.N,bottom_z*%
X83810000Y-143700000D02*
X81650000Y-143700000D01*
%TO.N,LR5*%
X47850000Y-143700000D02*
X45690000Y-143700000D01*
%TO.N,bottom_shift*%
X53310000Y-143700000D02*
X51150000Y-143700000D01*
%TO.N,LR6*%
X38600000Y-162700000D02*
X36440000Y-162700000D01*
%TO.N,meta_ctrl*%
X44060000Y-162700000D02*
X41900000Y-162700000D01*
%TO.N,LR6*%
X62100000Y-162700000D02*
X59940000Y-162700000D01*
%TO.N,meta_win*%
X67560000Y-162700000D02*
X65400000Y-162700000D01*
%TO.N,LR6*%
X85600000Y-162700000D02*
X83440000Y-162700000D01*
%TO.N,meta_alt*%
X91060000Y-162700000D02*
X88900000Y-162700000D01*
%TO.N,LR6*%
X132850000Y-162700000D02*
X130690000Y-162700000D01*
%TO.N,meta_space*%
X138310000Y-162700000D02*
X136150000Y-162700000D01*
%TO.N,LC4*%
X110915000Y-136160000D02*
X110915000Y-166342101D01*
X112523899Y-167951000D02*
X165635570Y-167951000D01*
X110915000Y-166342101D02*
X112523899Y-167951000D01*
X179000000Y-96775620D02*
X179000000Y-77000000D01*
X165635570Y-167951000D02*
X169000000Y-164586570D01*
X181250000Y-74750000D02*
X183370000Y-74750000D01*
X169000000Y-164586570D02*
X169000000Y-106775620D01*
X169000000Y-106775620D02*
X179000000Y-96775620D01*
X179000000Y-77000000D02*
X181250000Y-74750000D01*
%TO.N,LC3*%
X81500000Y-168402000D02*
X129000000Y-168402000D01*
X80165000Y-155160000D02*
X80165000Y-167067000D01*
X80165000Y-167067000D02*
X81500000Y-168402000D01*
%TO.N,LC2*%
X58353000Y-168853000D02*
X166009190Y-168853000D01*
X170000000Y-107051240D02*
X180000000Y-97051240D01*
X181174387Y-79830000D02*
X183370000Y-79830000D01*
X166009190Y-168853000D02*
X170000000Y-164862190D01*
X56665000Y-155160000D02*
X56665000Y-167165000D01*
X180000000Y-97051240D02*
X180000000Y-81004387D01*
X180000000Y-81004387D02*
X181174387Y-79830000D01*
X170000000Y-164862190D02*
X170000000Y-107051240D01*
X56665000Y-167165000D02*
X58353000Y-168853000D01*
%TO.N,LC1*%
X33165000Y-155160000D02*
X33165000Y-167165000D01*
X181630000Y-82370000D02*
X183370000Y-82370000D01*
X35304000Y-169304000D02*
X166196000Y-169304000D01*
X166196000Y-169304000D02*
X170500000Y-165000000D01*
X170500000Y-165000000D02*
X170500000Y-107189050D01*
X33165000Y-167165000D02*
X35304000Y-169304000D01*
X170500000Y-107189050D02*
X180500000Y-97189050D01*
X180500000Y-97189050D02*
X180500000Y-83500000D01*
X180500000Y-83500000D02*
X181630000Y-82370000D01*
%TO.N,meta_win*%
X69592000Y-152620000D02*
X67560000Y-154652000D01*
X67560000Y-154652000D02*
X67560000Y-162700000D01*
%TO.N,meta_alt*%
X93092000Y-152620000D02*
X91060000Y-154652000D01*
X91060000Y-154652000D02*
X91060000Y-162700000D01*
%TO.N,meta_space*%
X140342000Y-152620000D02*
X138310000Y-154652000D01*
X138310000Y-154652000D02*
X138310000Y-162700000D01*
%TO.N,LC2*%
X72915000Y-136160000D02*
X72915000Y-138910000D01*
X72915000Y-138910000D02*
X56665000Y-155160000D01*
X63915000Y-117160000D02*
X63915000Y-123915000D01*
X63915000Y-123915000D02*
X72915000Y-132915000D01*
X72915000Y-132915000D02*
X72915000Y-136160000D01*
%TO.N,bottom_b*%
X161842000Y-133620000D02*
X159810000Y-135652000D01*
X159810000Y-135652000D02*
X159810000Y-143700000D01*
%TO.N,bottom_v*%
X142842000Y-133620000D02*
X140810000Y-135652000D01*
X140810000Y-135652000D02*
X140810000Y-143700000D01*
%TO.N,bottom_c*%
X123842000Y-133620000D02*
X121810000Y-135652000D01*
X121810000Y-135652000D02*
X121810000Y-143700000D01*
%TO.N,bottom_x*%
X104842000Y-133620000D02*
X102810000Y-135652000D01*
X102810000Y-135652000D02*
X102810000Y-143700000D01*
%TO.N,bottom_z*%
X85842000Y-133620000D02*
X83810000Y-135652000D01*
X83810000Y-135652000D02*
X83810000Y-143700000D01*
%TO.N,bottom_shift*%
X55342000Y-133620000D02*
X53310000Y-135652000D01*
X53310000Y-135652000D02*
X53310000Y-143700000D01*
%TO.N,mid_f*%
X133842000Y-114620000D02*
X131810000Y-116652000D01*
X131810000Y-116652000D02*
X131810000Y-124700000D01*
%TO.N,mid_d*%
X114842000Y-114620000D02*
X112810000Y-116652000D01*
X112810000Y-116652000D02*
X112810000Y-124700000D01*
%TO.N,mid_s*%
X95842000Y-114620000D02*
X93810000Y-116652000D01*
X93810000Y-116652000D02*
X93810000Y-124700000D01*
%TO.N,mid_a*%
X76842000Y-114620000D02*
X74810000Y-116652000D01*
X74810000Y-116652000D02*
X74810000Y-124700000D01*
%TO.N,mid_caps*%
X50842000Y-114620000D02*
X48810000Y-116652000D01*
X48810000Y-116652000D02*
X48810000Y-124700000D01*
%TO.N,LC1*%
X37915000Y-117160000D02*
X37915000Y-131660000D01*
X37915000Y-131660000D02*
X42415000Y-136160000D01*
%TO.N,LC5*%
X116415000Y-98160000D02*
X116415000Y-112660000D01*
X116415000Y-112660000D02*
X120915000Y-117160000D01*
%TO.N,LC4*%
X97415000Y-98160000D02*
X97415000Y-112660000D01*
X97415000Y-112660000D02*
X101915000Y-117160000D01*
%TO.N,LC3*%
X78415000Y-98160000D02*
X78415000Y-105415000D01*
X78415000Y-105415000D02*
X82915000Y-109915000D01*
X82915000Y-109915000D02*
X82915000Y-117160000D01*
%TO.N,LC2*%
X59415000Y-98160000D02*
X59415000Y-112660000D01*
X59415000Y-112660000D02*
X63915000Y-117160000D01*
%TO.N,LC1*%
X35665000Y-98160000D02*
X35665000Y-114910000D01*
X35665000Y-114910000D02*
X37915000Y-117160000D01*
%TO.N,top_e*%
X110342000Y-95620000D02*
X108310000Y-97652000D01*
X108310000Y-97652000D02*
X108310000Y-105700000D01*
%TO.N,top_w*%
X91342000Y-95620000D02*
X89310000Y-97652000D01*
X89310000Y-97652000D02*
X89310000Y-105700000D01*
%TO.N,top_tab*%
X48592000Y-95620000D02*
X46560000Y-97652000D01*
X46560000Y-97652000D02*
X46560000Y-105700000D01*
%TO.N,top_q*%
X72342000Y-95620000D02*
X70310000Y-97652000D01*
X70310000Y-97652000D02*
X70310000Y-105700000D01*
%TO.N,LC5*%
X106915000Y-79160000D02*
X106915000Y-85915000D01*
X106915000Y-85915000D02*
X116415000Y-95415000D01*
X116415000Y-95415000D02*
X116415000Y-98160000D01*
%TO.N,LC4*%
X87915000Y-79160000D02*
X87915000Y-86415000D01*
X87915000Y-86415000D02*
X97415000Y-95915000D01*
X97415000Y-95915000D02*
X97415000Y-98160000D01*
%TO.N,LC3*%
X68915000Y-79160000D02*
X68915000Y-85855000D01*
X68915000Y-85855000D02*
X78415000Y-95355000D01*
X78415000Y-95355000D02*
X78415000Y-98160000D01*
%TO.N,LC2*%
X49915000Y-79160000D02*
X49915000Y-85855000D01*
X49915000Y-85855000D02*
X59415000Y-95355000D01*
X59415000Y-95355000D02*
X59415000Y-98160000D01*
%TO.N,LC1*%
X30915000Y-79160000D02*
X30915000Y-93410000D01*
X30915000Y-93410000D02*
X35665000Y-98160000D01*
%TO.N,num_two*%
X81842000Y-76620000D02*
X79810000Y-78652000D01*
X79810000Y-78652000D02*
X79810000Y-86700000D01*
%TO.N,num_one*%
X62842000Y-76620000D02*
X60810000Y-78652000D01*
X60810000Y-78652000D02*
X60810000Y-86700000D01*
%TO.N,num_tilda*%
X43842000Y-76620000D02*
X41810000Y-78652000D01*
X41810000Y-78652000D02*
X41810000Y-86700000D01*
%TO.N,LC3*%
X68915000Y-54460000D02*
X68915000Y-79160000D01*
%TO.N,LC1*%
X30915000Y-54460000D02*
X30915000Y-79160000D01*
%TO.N,function_esc*%
X43842000Y-51920000D02*
X41810000Y-53952000D01*
X41810000Y-53952000D02*
X41810000Y-62000000D01*
%TO.N,function_f1*%
X81842000Y-51920000D02*
X79810000Y-53952000D01*
X79810000Y-53952000D02*
X79810000Y-62000000D01*
%TO.N,num_three*%
X100842000Y-76620000D02*
X98810000Y-78652000D01*
X98810000Y-78652000D02*
X98810000Y-86700000D01*
%TO.N,function_f5*%
X157842000Y-51920000D02*
X155810000Y-53952000D01*
X155810000Y-53952000D02*
X155810000Y-62000000D01*
%TO.N,function_f4*%
X138842000Y-51920000D02*
X136810000Y-53952000D01*
X136810000Y-53952000D02*
X136810000Y-62000000D01*
%TO.N,function_f3*%
X119842000Y-51920000D02*
X117810000Y-53952000D01*
X117810000Y-53952000D02*
X117810000Y-62000000D01*
%TO.N,function_f2*%
X100842000Y-51920000D02*
X98810000Y-53952000D01*
X98810000Y-53952000D02*
X98810000Y-62000000D01*
%TO.N,LC4*%
X87915000Y-54460000D02*
X87915000Y-79160000D01*
%TO.N,LC5*%
X106915000Y-54460000D02*
X106915000Y-79160000D01*
%TO.N,LC6*%
X125915000Y-54460000D02*
X125915000Y-79160000D01*
%TO.N,LC7*%
X144915000Y-79160000D02*
X144915000Y-85855000D01*
X144915000Y-85855000D02*
X165560000Y-106500000D01*
X167362190Y-106500000D02*
X177549000Y-96313190D01*
X165560000Y-106500000D02*
X167362190Y-106500000D01*
X177549000Y-96313190D02*
X177549000Y-70451000D01*
X180870000Y-67130000D02*
X183370000Y-67130000D01*
X177549000Y-70451000D02*
X180870000Y-67130000D01*
%TO.N,RGND*%
X211450000Y-46500000D02*
X213637810Y-46500000D01*
X213637810Y-46500000D02*
X214951000Y-47813190D01*
X214951000Y-47813190D02*
X214951000Y-52186810D01*
%TO.N,LBAT*%
X185415000Y-47150000D02*
X184765000Y-46500000D01*
X184765000Y-46500000D02*
X179550000Y-46500000D01*
%TO.N,LGND*%
X183470000Y-62150000D02*
X183370000Y-62050000D01*
%TO.N,LC7*%
X144915000Y-54460000D02*
X144915000Y-79160000D01*
%TO.N,LC6*%
X125915000Y-79160000D02*
X125915000Y-85855000D01*
X125915000Y-85855000D02*
X135415000Y-95355000D01*
X135415000Y-95355000D02*
X135415000Y-98160000D01*
X135415000Y-98160000D02*
X135415000Y-112660000D01*
X135415000Y-112660000D02*
X139915000Y-117160000D01*
X139915000Y-117160000D02*
X139915000Y-123855000D01*
X139915000Y-123855000D02*
X148915000Y-132855000D01*
X148915000Y-132855000D02*
X148915000Y-136160000D01*
X148915000Y-136160000D02*
X148915000Y-135585000D01*
X148915000Y-135585000D02*
X149000000Y-135500000D01*
X148915000Y-136160000D02*
X148915000Y-165415000D01*
X165261950Y-167049000D02*
X168000000Y-164310950D01*
X150549000Y-167049000D02*
X165261950Y-167049000D01*
X148915000Y-165415000D02*
X150549000Y-167049000D01*
X168000000Y-164310950D02*
X168000000Y-106500000D01*
X178000000Y-73500000D02*
X181830000Y-69670000D01*
X168000000Y-106500000D02*
X178000000Y-96500000D01*
X178000000Y-96500000D02*
X178000000Y-73500000D01*
X181830000Y-69670000D02*
X183370000Y-69670000D01*
%TO.N,LC5*%
X183370000Y-72210000D02*
X181790000Y-72210000D01*
X178500000Y-75500000D02*
X178500000Y-96637810D01*
X168500000Y-164448760D02*
X165448760Y-167500000D01*
X165448760Y-167500000D02*
X129500000Y-167500000D01*
X127415000Y-165415000D02*
X127415000Y-155160000D01*
X178500000Y-96637810D02*
X168500000Y-106637810D01*
X168500000Y-106637810D02*
X168500000Y-164448760D01*
X181790000Y-72210000D02*
X178500000Y-75500000D01*
X129500000Y-167500000D02*
X127415000Y-165415000D01*
%TO.N,LC3*%
X183370000Y-77290000D02*
X181210000Y-77290000D01*
X181210000Y-77290000D02*
X179500000Y-79000000D01*
X179500000Y-79000000D02*
X179500000Y-96913430D01*
X165822380Y-168402000D02*
X127976380Y-168402000D01*
X179500000Y-96913430D02*
X169500000Y-106913430D01*
X169500000Y-106913430D02*
X169500000Y-164724380D01*
X169500000Y-164724380D02*
X165822380Y-168402000D01*
%TO.N,mid_g*%
X152842000Y-114620000D02*
X150810000Y-116652000D01*
X150810000Y-116652000D02*
X150810000Y-124700000D01*
%TO.N,top_t*%
X148342000Y-95620000D02*
X146310000Y-97652000D01*
X146310000Y-97652000D02*
X146310000Y-105700000D01*
%TO.N,top_r*%
X129342000Y-95620000D02*
X127310000Y-97652000D01*
X127310000Y-97652000D02*
X127310000Y-105700000D01*
%TO.N,num_four*%
X119842000Y-76620000D02*
X117810000Y-78652000D01*
X117810000Y-78652000D02*
X117810000Y-86700000D01*
%TO.N,num_six*%
X157842000Y-76620000D02*
X155810000Y-78652000D01*
X155810000Y-78652000D02*
X155810000Y-86700000D01*
%TO.N,num_five*%
X138842000Y-76620000D02*
X136810000Y-78652000D01*
X136810000Y-78652000D02*
X136810000Y-86700000D01*
%TO.N,LC1*%
X183130000Y-82370000D02*
X183000000Y-82500000D01*
X183370000Y-82370000D02*
X183130000Y-82370000D01*
%TO.N,LC3*%
X183210000Y-77290000D02*
X183000000Y-77500000D01*
X183370000Y-77290000D02*
X183210000Y-77290000D01*
%TO.N,RC1*%
X231915000Y-54460000D02*
X231915000Y-98160000D01*
%TD*%
M02*
