%TF.GenerationSoftware,KiCad,Pcbnew,9.0.2*%
%TF.CreationDate,2025-05-23T00:15:24+09:00*%
%TF.ProjectId,jjongkbd,6a6a6f6e-676b-4626-942e-6b696361645f,0.1*%
%TF.SameCoordinates,Original*%
%TF.FileFunction,Legend,Bot*%
%TF.FilePolarity,Positive*%
%FSLAX46Y46*%
G04 Gerber Fmt 4.6, Leading zero omitted, Abs format (unit mm)*
G04 Created by KiCad (PCBNEW 9.0.2) date 2025-05-23 00:15:24*
%MOMM*%
%LPD*%
G01*
G04 APERTURE LIST*
%ADD10C,0.150000*%
%ADD11C,0.100000*%
%ADD12C,0.120000*%
%ADD13R,1.752600X1.752600*%
%ADD14C,1.752600*%
G04 APERTURE END LIST*
D10*
X187604819Y-58352380D02*
X187128628Y-58019047D01*
X187604819Y-57780952D02*
X186604819Y-57780952D01*
X186604819Y-57780952D02*
X186604819Y-58161904D01*
X186604819Y-58161904D02*
X186652438Y-58257142D01*
X186652438Y-58257142D02*
X186700057Y-58304761D01*
X186700057Y-58304761D02*
X186795295Y-58352380D01*
X186795295Y-58352380D02*
X186938152Y-58352380D01*
X186938152Y-58352380D02*
X187033390Y-58304761D01*
X187033390Y-58304761D02*
X187081009Y-58257142D01*
X187081009Y-58257142D02*
X187128628Y-58161904D01*
X187128628Y-58161904D02*
X187128628Y-57780952D01*
X187557200Y-58733333D02*
X187604819Y-58876190D01*
X187604819Y-58876190D02*
X187604819Y-59114285D01*
X187604819Y-59114285D02*
X187557200Y-59209523D01*
X187557200Y-59209523D02*
X187509580Y-59257142D01*
X187509580Y-59257142D02*
X187414342Y-59304761D01*
X187414342Y-59304761D02*
X187319104Y-59304761D01*
X187319104Y-59304761D02*
X187223866Y-59257142D01*
X187223866Y-59257142D02*
X187176247Y-59209523D01*
X187176247Y-59209523D02*
X187128628Y-59114285D01*
X187128628Y-59114285D02*
X187081009Y-58923809D01*
X187081009Y-58923809D02*
X187033390Y-58828571D01*
X187033390Y-58828571D02*
X186985771Y-58780952D01*
X186985771Y-58780952D02*
X186890533Y-58733333D01*
X186890533Y-58733333D02*
X186795295Y-58733333D01*
X186795295Y-58733333D02*
X186700057Y-58780952D01*
X186700057Y-58780952D02*
X186652438Y-58828571D01*
X186652438Y-58828571D02*
X186604819Y-58923809D01*
X186604819Y-58923809D02*
X186604819Y-59161904D01*
X186604819Y-59161904D02*
X186652438Y-59304761D01*
X186604819Y-59590476D02*
X186604819Y-60161904D01*
X187604819Y-59876190D02*
X186604819Y-59876190D01*
X204304819Y-58352380D02*
X203828628Y-58019047D01*
X204304819Y-57780952D02*
X203304819Y-57780952D01*
X203304819Y-57780952D02*
X203304819Y-58161904D01*
X203304819Y-58161904D02*
X203352438Y-58257142D01*
X203352438Y-58257142D02*
X203400057Y-58304761D01*
X203400057Y-58304761D02*
X203495295Y-58352380D01*
X203495295Y-58352380D02*
X203638152Y-58352380D01*
X203638152Y-58352380D02*
X203733390Y-58304761D01*
X203733390Y-58304761D02*
X203781009Y-58257142D01*
X203781009Y-58257142D02*
X203828628Y-58161904D01*
X203828628Y-58161904D02*
X203828628Y-57780952D01*
X204257200Y-58733333D02*
X204304819Y-58876190D01*
X204304819Y-58876190D02*
X204304819Y-59114285D01*
X204304819Y-59114285D02*
X204257200Y-59209523D01*
X204257200Y-59209523D02*
X204209580Y-59257142D01*
X204209580Y-59257142D02*
X204114342Y-59304761D01*
X204114342Y-59304761D02*
X204019104Y-59304761D01*
X204019104Y-59304761D02*
X203923866Y-59257142D01*
X203923866Y-59257142D02*
X203876247Y-59209523D01*
X203876247Y-59209523D02*
X203828628Y-59114285D01*
X203828628Y-59114285D02*
X203781009Y-58923809D01*
X203781009Y-58923809D02*
X203733390Y-58828571D01*
X203733390Y-58828571D02*
X203685771Y-58780952D01*
X203685771Y-58780952D02*
X203590533Y-58733333D01*
X203590533Y-58733333D02*
X203495295Y-58733333D01*
X203495295Y-58733333D02*
X203400057Y-58780952D01*
X203400057Y-58780952D02*
X203352438Y-58828571D01*
X203352438Y-58828571D02*
X203304819Y-58923809D01*
X203304819Y-58923809D02*
X203304819Y-59161904D01*
X203304819Y-59161904D02*
X203352438Y-59304761D01*
X203304819Y-59590476D02*
X203304819Y-60161904D01*
X204304819Y-59876190D02*
X203304819Y-59876190D01*
X187769047Y-43854819D02*
X187578571Y-43854819D01*
X187578571Y-43854819D02*
X187483333Y-43902438D01*
X187483333Y-43902438D02*
X187388095Y-43997676D01*
X187388095Y-43997676D02*
X187340476Y-44188152D01*
X187340476Y-44188152D02*
X187340476Y-44521485D01*
X187340476Y-44521485D02*
X187388095Y-44711961D01*
X187388095Y-44711961D02*
X187483333Y-44807200D01*
X187483333Y-44807200D02*
X187578571Y-44854819D01*
X187578571Y-44854819D02*
X187769047Y-44854819D01*
X187769047Y-44854819D02*
X187864285Y-44807200D01*
X187864285Y-44807200D02*
X187959523Y-44711961D01*
X187959523Y-44711961D02*
X188007142Y-44521485D01*
X188007142Y-44521485D02*
X188007142Y-44188152D01*
X188007142Y-44188152D02*
X187959523Y-43997676D01*
X187959523Y-43997676D02*
X187864285Y-43902438D01*
X187864285Y-43902438D02*
X187769047Y-43854819D01*
X186911904Y-44854819D02*
X186911904Y-43854819D01*
X186911904Y-43854819D02*
X186340476Y-44854819D01*
X186340476Y-44854819D02*
X186340476Y-43854819D01*
X188102380Y-53854819D02*
X187911904Y-53854819D01*
X187911904Y-53854819D02*
X187816666Y-53902438D01*
X187816666Y-53902438D02*
X187721428Y-53997676D01*
X187721428Y-53997676D02*
X187673809Y-54188152D01*
X187673809Y-54188152D02*
X187673809Y-54521485D01*
X187673809Y-54521485D02*
X187721428Y-54711961D01*
X187721428Y-54711961D02*
X187816666Y-54807200D01*
X187816666Y-54807200D02*
X187911904Y-54854819D01*
X187911904Y-54854819D02*
X188102380Y-54854819D01*
X188102380Y-54854819D02*
X188197618Y-54807200D01*
X188197618Y-54807200D02*
X188292856Y-54711961D01*
X188292856Y-54711961D02*
X188340475Y-54521485D01*
X188340475Y-54521485D02*
X188340475Y-54188152D01*
X188340475Y-54188152D02*
X188292856Y-53997676D01*
X188292856Y-53997676D02*
X188197618Y-53902438D01*
X188197618Y-53902438D02*
X188102380Y-53854819D01*
X186911904Y-54331009D02*
X187245237Y-54331009D01*
X187245237Y-54854819D02*
X187245237Y-53854819D01*
X187245237Y-53854819D02*
X186769047Y-53854819D01*
X186054761Y-54331009D02*
X186388094Y-54331009D01*
X186388094Y-54854819D02*
X186388094Y-53854819D01*
X186388094Y-53854819D02*
X185911904Y-53854819D01*
X204469047Y-53854819D02*
X204278571Y-53854819D01*
X204278571Y-53854819D02*
X204183333Y-53902438D01*
X204183333Y-53902438D02*
X204088095Y-53997676D01*
X204088095Y-53997676D02*
X204040476Y-54188152D01*
X204040476Y-54188152D02*
X204040476Y-54521485D01*
X204040476Y-54521485D02*
X204088095Y-54711961D01*
X204088095Y-54711961D02*
X204183333Y-54807200D01*
X204183333Y-54807200D02*
X204278571Y-54854819D01*
X204278571Y-54854819D02*
X204469047Y-54854819D01*
X204469047Y-54854819D02*
X204564285Y-54807200D01*
X204564285Y-54807200D02*
X204659523Y-54711961D01*
X204659523Y-54711961D02*
X204707142Y-54521485D01*
X204707142Y-54521485D02*
X204707142Y-54188152D01*
X204707142Y-54188152D02*
X204659523Y-53997676D01*
X204659523Y-53997676D02*
X204564285Y-53902438D01*
X204564285Y-53902438D02*
X204469047Y-53854819D01*
X203611904Y-54854819D02*
X203611904Y-53854819D01*
X203611904Y-53854819D02*
X203040476Y-54854819D01*
X203040476Y-54854819D02*
X203040476Y-53854819D01*
X204802380Y-43854819D02*
X204611904Y-43854819D01*
X204611904Y-43854819D02*
X204516666Y-43902438D01*
X204516666Y-43902438D02*
X204421428Y-43997676D01*
X204421428Y-43997676D02*
X204373809Y-44188152D01*
X204373809Y-44188152D02*
X204373809Y-44521485D01*
X204373809Y-44521485D02*
X204421428Y-44711961D01*
X204421428Y-44711961D02*
X204516666Y-44807200D01*
X204516666Y-44807200D02*
X204611904Y-44854819D01*
X204611904Y-44854819D02*
X204802380Y-44854819D01*
X204802380Y-44854819D02*
X204897618Y-44807200D01*
X204897618Y-44807200D02*
X204992856Y-44711961D01*
X204992856Y-44711961D02*
X205040475Y-44521485D01*
X205040475Y-44521485D02*
X205040475Y-44188152D01*
X205040475Y-44188152D02*
X204992856Y-43997676D01*
X204992856Y-43997676D02*
X204897618Y-43902438D01*
X204897618Y-43902438D02*
X204802380Y-43854819D01*
X203611904Y-44331009D02*
X203945237Y-44331009D01*
X203945237Y-44854819D02*
X203945237Y-43854819D01*
X203945237Y-43854819D02*
X203469047Y-43854819D01*
X202754761Y-44331009D02*
X203088094Y-44331009D01*
X203088094Y-44854819D02*
X203088094Y-43854819D01*
X203088094Y-43854819D02*
X202611904Y-43854819D01*
D11*
%TO.C,D1*%
X38250000Y-62000000D02*
X38750000Y-62000000D01*
X38250000Y-62400000D02*
X37650000Y-62000000D01*
X38250000Y-61600000D02*
X38250000Y-62400000D01*
X37650000Y-62000000D02*
X38250000Y-61600000D01*
X37650000Y-62000000D02*
X37650000Y-62550000D01*
X37650000Y-62000000D02*
X37650000Y-61450000D01*
X37250000Y-62000000D02*
X37650000Y-62000000D01*
%TO.C,D2*%
X76250000Y-62000000D02*
X76750000Y-62000000D01*
X76250000Y-62400000D02*
X75650000Y-62000000D01*
X76250000Y-61600000D02*
X76250000Y-62400000D01*
X75650000Y-62000000D02*
X76250000Y-61600000D01*
X75650000Y-62000000D02*
X75650000Y-62550000D01*
X75650000Y-62000000D02*
X75650000Y-61450000D01*
X75250000Y-62000000D02*
X75650000Y-62000000D01*
%TO.C,D3*%
X95250000Y-62000000D02*
X95750000Y-62000000D01*
X95250000Y-62400000D02*
X94650000Y-62000000D01*
X95250000Y-61600000D02*
X95250000Y-62400000D01*
X94650000Y-62000000D02*
X95250000Y-61600000D01*
X94650000Y-62000000D02*
X94650000Y-62550000D01*
X94650000Y-62000000D02*
X94650000Y-61450000D01*
X94250000Y-62000000D02*
X94650000Y-62000000D01*
%TO.C,D4*%
X114250000Y-62000000D02*
X114750000Y-62000000D01*
X114250000Y-62400000D02*
X113650000Y-62000000D01*
X114250000Y-61600000D02*
X114250000Y-62400000D01*
X113650000Y-62000000D02*
X114250000Y-61600000D01*
X113650000Y-62000000D02*
X113650000Y-62550000D01*
X113650000Y-62000000D02*
X113650000Y-61450000D01*
X113250000Y-62000000D02*
X113650000Y-62000000D01*
%TO.C,D5*%
X133250000Y-62000000D02*
X133750000Y-62000000D01*
X133250000Y-62400000D02*
X132650000Y-62000000D01*
X133250000Y-61600000D02*
X133250000Y-62400000D01*
X132650000Y-62000000D02*
X133250000Y-61600000D01*
X132650000Y-62000000D02*
X132650000Y-62550000D01*
X132650000Y-62000000D02*
X132650000Y-61450000D01*
X132250000Y-62000000D02*
X132650000Y-62000000D01*
%TO.C,D6*%
X152250000Y-62000000D02*
X152750000Y-62000000D01*
X152250000Y-62400000D02*
X151650000Y-62000000D01*
X152250000Y-61600000D02*
X152250000Y-62400000D01*
X151650000Y-62000000D02*
X152250000Y-61600000D01*
X151650000Y-62000000D02*
X151650000Y-62550000D01*
X151650000Y-62000000D02*
X151650000Y-61450000D01*
X151250000Y-62000000D02*
X151650000Y-62000000D01*
%TO.C,D7*%
X38250000Y-86700000D02*
X38750000Y-86700000D01*
X38250000Y-87100000D02*
X37650000Y-86700000D01*
X38250000Y-86300000D02*
X38250000Y-87100000D01*
X37650000Y-86700000D02*
X38250000Y-86300000D01*
X37650000Y-86700000D02*
X37650000Y-87250000D01*
X37650000Y-86700000D02*
X37650000Y-86150000D01*
X37250000Y-86700000D02*
X37650000Y-86700000D01*
%TO.C,D8*%
X57250000Y-86700000D02*
X57750000Y-86700000D01*
X57250000Y-87100000D02*
X56650000Y-86700000D01*
X57250000Y-86300000D02*
X57250000Y-87100000D01*
X56650000Y-86700000D02*
X57250000Y-86300000D01*
X56650000Y-86700000D02*
X56650000Y-87250000D01*
X56650000Y-86700000D02*
X56650000Y-86150000D01*
X56250000Y-86700000D02*
X56650000Y-86700000D01*
%TO.C,D9*%
X76250000Y-86700000D02*
X76750000Y-86700000D01*
X76250000Y-87100000D02*
X75650000Y-86700000D01*
X76250000Y-86300000D02*
X76250000Y-87100000D01*
X75650000Y-86700000D02*
X76250000Y-86300000D01*
X75650000Y-86700000D02*
X75650000Y-87250000D01*
X75650000Y-86700000D02*
X75650000Y-86150000D01*
X75250000Y-86700000D02*
X75650000Y-86700000D01*
%TO.C,D10*%
X95250000Y-86700000D02*
X95750000Y-86700000D01*
X95250000Y-87100000D02*
X94650000Y-86700000D01*
X95250000Y-86300000D02*
X95250000Y-87100000D01*
X94650000Y-86700000D02*
X95250000Y-86300000D01*
X94650000Y-86700000D02*
X94650000Y-87250000D01*
X94650000Y-86700000D02*
X94650000Y-86150000D01*
X94250000Y-86700000D02*
X94650000Y-86700000D01*
%TO.C,D11*%
X114250000Y-86700000D02*
X114750000Y-86700000D01*
X114250000Y-87100000D02*
X113650000Y-86700000D01*
X114250000Y-86300000D02*
X114250000Y-87100000D01*
X113650000Y-86700000D02*
X114250000Y-86300000D01*
X113650000Y-86700000D02*
X113650000Y-87250000D01*
X113650000Y-86700000D02*
X113650000Y-86150000D01*
X113250000Y-86700000D02*
X113650000Y-86700000D01*
%TO.C,D12*%
X133250000Y-86700000D02*
X133750000Y-86700000D01*
X133250000Y-87100000D02*
X132650000Y-86700000D01*
X133250000Y-86300000D02*
X133250000Y-87100000D01*
X132650000Y-86700000D02*
X133250000Y-86300000D01*
X132650000Y-86700000D02*
X132650000Y-87250000D01*
X132650000Y-86700000D02*
X132650000Y-86150000D01*
X132250000Y-86700000D02*
X132650000Y-86700000D01*
%TO.C,D13*%
X152250000Y-86700000D02*
X152750000Y-86700000D01*
X152250000Y-87100000D02*
X151650000Y-86700000D01*
X152250000Y-86300000D02*
X152250000Y-87100000D01*
X151650000Y-86700000D02*
X152250000Y-86300000D01*
X151650000Y-86700000D02*
X151650000Y-87250000D01*
X151650000Y-86700000D02*
X151650000Y-86150000D01*
X151250000Y-86700000D02*
X151650000Y-86700000D01*
%TO.C,D14*%
X43000000Y-105700000D02*
X43500000Y-105700000D01*
X43000000Y-106100000D02*
X42400000Y-105700000D01*
X43000000Y-105300000D02*
X43000000Y-106100000D01*
X42400000Y-105700000D02*
X43000000Y-105300000D01*
X42400000Y-105700000D02*
X42400000Y-106250000D01*
X42400000Y-105700000D02*
X42400000Y-105150000D01*
X42000000Y-105700000D02*
X42400000Y-105700000D01*
%TO.C,D15*%
X66750000Y-105700000D02*
X67250000Y-105700000D01*
X66750000Y-106100000D02*
X66150000Y-105700000D01*
X66750000Y-105300000D02*
X66750000Y-106100000D01*
X66150000Y-105700000D02*
X66750000Y-105300000D01*
X66150000Y-105700000D02*
X66150000Y-106250000D01*
X66150000Y-105700000D02*
X66150000Y-105150000D01*
X65750000Y-105700000D02*
X66150000Y-105700000D01*
%TO.C,D16*%
X85750000Y-105700000D02*
X86250000Y-105700000D01*
X85750000Y-106100000D02*
X85150000Y-105700000D01*
X85750000Y-105300000D02*
X85750000Y-106100000D01*
X85150000Y-105700000D02*
X85750000Y-105300000D01*
X85150000Y-105700000D02*
X85150000Y-106250000D01*
X85150000Y-105700000D02*
X85150000Y-105150000D01*
X84750000Y-105700000D02*
X85150000Y-105700000D01*
%TO.C,D17*%
X104750000Y-105700000D02*
X105250000Y-105700000D01*
X104750000Y-106100000D02*
X104150000Y-105700000D01*
X104750000Y-105300000D02*
X104750000Y-106100000D01*
X104150000Y-105700000D02*
X104750000Y-105300000D01*
X104150000Y-105700000D02*
X104150000Y-106250000D01*
X104150000Y-105700000D02*
X104150000Y-105150000D01*
X103750000Y-105700000D02*
X104150000Y-105700000D01*
%TO.C,D18*%
X123750000Y-105700000D02*
X124250000Y-105700000D01*
X123750000Y-106100000D02*
X123150000Y-105700000D01*
X123750000Y-105300000D02*
X123750000Y-106100000D01*
X123150000Y-105700000D02*
X123750000Y-105300000D01*
X123150000Y-105700000D02*
X123150000Y-106250000D01*
X123150000Y-105700000D02*
X123150000Y-105150000D01*
X122750000Y-105700000D02*
X123150000Y-105700000D01*
%TO.C,D19*%
X142750000Y-105700000D02*
X143250000Y-105700000D01*
X142750000Y-106100000D02*
X142150000Y-105700000D01*
X142750000Y-105300000D02*
X142750000Y-106100000D01*
X142150000Y-105700000D02*
X142750000Y-105300000D01*
X142150000Y-105700000D02*
X142150000Y-106250000D01*
X142150000Y-105700000D02*
X142150000Y-105150000D01*
X141750000Y-105700000D02*
X142150000Y-105700000D01*
%TO.C,D20*%
X45250000Y-124700000D02*
X45750000Y-124700000D01*
X45250000Y-125100000D02*
X44650000Y-124700000D01*
X45250000Y-124300000D02*
X45250000Y-125100000D01*
X44650000Y-124700000D02*
X45250000Y-124300000D01*
X44650000Y-124700000D02*
X44650000Y-125250000D01*
X44650000Y-124700000D02*
X44650000Y-124150000D01*
X44250000Y-124700000D02*
X44650000Y-124700000D01*
%TO.C,D21*%
X71250000Y-124700000D02*
X71750000Y-124700000D01*
X71250000Y-125100000D02*
X70650000Y-124700000D01*
X71250000Y-124300000D02*
X71250000Y-125100000D01*
X70650000Y-124700000D02*
X71250000Y-124300000D01*
X70650000Y-124700000D02*
X70650000Y-125250000D01*
X70650000Y-124700000D02*
X70650000Y-124150000D01*
X70250000Y-124700000D02*
X70650000Y-124700000D01*
%TO.C,D22*%
X90250000Y-124700000D02*
X90750000Y-124700000D01*
X90250000Y-125100000D02*
X89650000Y-124700000D01*
X90250000Y-124300000D02*
X90250000Y-125100000D01*
X89650000Y-124700000D02*
X90250000Y-124300000D01*
X89650000Y-124700000D02*
X89650000Y-125250000D01*
X89650000Y-124700000D02*
X89650000Y-124150000D01*
X89250000Y-124700000D02*
X89650000Y-124700000D01*
%TO.C,D23*%
X109250000Y-124700000D02*
X109750000Y-124700000D01*
X109250000Y-125100000D02*
X108650000Y-124700000D01*
X109250000Y-124300000D02*
X109250000Y-125100000D01*
X108650000Y-124700000D02*
X109250000Y-124300000D01*
X108650000Y-124700000D02*
X108650000Y-125250000D01*
X108650000Y-124700000D02*
X108650000Y-124150000D01*
X108250000Y-124700000D02*
X108650000Y-124700000D01*
%TO.C,D24*%
X128250000Y-124700000D02*
X128750000Y-124700000D01*
X128250000Y-125100000D02*
X127650000Y-124700000D01*
X128250000Y-124300000D02*
X128250000Y-125100000D01*
X127650000Y-124700000D02*
X128250000Y-124300000D01*
X127650000Y-124700000D02*
X127650000Y-125250000D01*
X127650000Y-124700000D02*
X127650000Y-124150000D01*
X127250000Y-124700000D02*
X127650000Y-124700000D01*
%TO.C,D25*%
X147250000Y-124700000D02*
X147750000Y-124700000D01*
X147250000Y-125100000D02*
X146650000Y-124700000D01*
X147250000Y-124300000D02*
X147250000Y-125100000D01*
X146650000Y-124700000D02*
X147250000Y-124300000D01*
X146650000Y-124700000D02*
X146650000Y-125250000D01*
X146650000Y-124700000D02*
X146650000Y-124150000D01*
X146250000Y-124700000D02*
X146650000Y-124700000D01*
%TO.C,D26*%
X49750000Y-143700000D02*
X50250000Y-143700000D01*
X49750000Y-144100000D02*
X49150000Y-143700000D01*
X49750000Y-143300000D02*
X49750000Y-144100000D01*
X49150000Y-143700000D02*
X49750000Y-143300000D01*
X49150000Y-143700000D02*
X49150000Y-144250000D01*
X49150000Y-143700000D02*
X49150000Y-143150000D01*
X48750000Y-143700000D02*
X49150000Y-143700000D01*
%TO.C,D27*%
X80250000Y-143700000D02*
X80750000Y-143700000D01*
X80250000Y-144100000D02*
X79650000Y-143700000D01*
X80250000Y-143300000D02*
X80250000Y-144100000D01*
X79650000Y-143700000D02*
X80250000Y-143300000D01*
X79650000Y-143700000D02*
X79650000Y-144250000D01*
X79650000Y-143700000D02*
X79650000Y-143150000D01*
X79250000Y-143700000D02*
X79650000Y-143700000D01*
%TO.C,D28*%
X99250000Y-143700000D02*
X99750000Y-143700000D01*
X99250000Y-144100000D02*
X98650000Y-143700000D01*
X99250000Y-143300000D02*
X99250000Y-144100000D01*
X98650000Y-143700000D02*
X99250000Y-143300000D01*
X98650000Y-143700000D02*
X98650000Y-144250000D01*
X98650000Y-143700000D02*
X98650000Y-143150000D01*
X98250000Y-143700000D02*
X98650000Y-143700000D01*
%TO.C,D29*%
X118250000Y-143700000D02*
X118750000Y-143700000D01*
X118250000Y-144100000D02*
X117650000Y-143700000D01*
X118250000Y-143300000D02*
X118250000Y-144100000D01*
X117650000Y-143700000D02*
X118250000Y-143300000D01*
X117650000Y-143700000D02*
X117650000Y-144250000D01*
X117650000Y-143700000D02*
X117650000Y-143150000D01*
X117250000Y-143700000D02*
X117650000Y-143700000D01*
%TO.C,D30*%
X137250000Y-143700000D02*
X137750000Y-143700000D01*
X137250000Y-144100000D02*
X136650000Y-143700000D01*
X137250000Y-143300000D02*
X137250000Y-144100000D01*
X136650000Y-143700000D02*
X137250000Y-143300000D01*
X136650000Y-143700000D02*
X136650000Y-144250000D01*
X136650000Y-143700000D02*
X136650000Y-143150000D01*
X136250000Y-143700000D02*
X136650000Y-143700000D01*
%TO.C,D31*%
X156250000Y-143700000D02*
X156750000Y-143700000D01*
X156250000Y-144100000D02*
X155650000Y-143700000D01*
X156250000Y-143300000D02*
X156250000Y-144100000D01*
X155650000Y-143700000D02*
X156250000Y-143300000D01*
X155650000Y-143700000D02*
X155650000Y-144250000D01*
X155650000Y-143700000D02*
X155650000Y-143150000D01*
X155250000Y-143700000D02*
X155650000Y-143700000D01*
%TO.C,D32*%
X40500000Y-162700000D02*
X41000000Y-162700000D01*
X40500000Y-163100000D02*
X39900000Y-162700000D01*
X40500000Y-162300000D02*
X40500000Y-163100000D01*
X39900000Y-162700000D02*
X40500000Y-162300000D01*
X39900000Y-162700000D02*
X39900000Y-163250000D01*
X39900000Y-162700000D02*
X39900000Y-162150000D01*
X39500000Y-162700000D02*
X39900000Y-162700000D01*
%TO.C,D33*%
X64000000Y-162700000D02*
X64500000Y-162700000D01*
X64000000Y-163100000D02*
X63400000Y-162700000D01*
X64000000Y-162300000D02*
X64000000Y-163100000D01*
X63400000Y-162700000D02*
X64000000Y-162300000D01*
X63400000Y-162700000D02*
X63400000Y-163250000D01*
X63400000Y-162700000D02*
X63400000Y-162150000D01*
X63000000Y-162700000D02*
X63400000Y-162700000D01*
%TO.C,D34*%
X87500000Y-162700000D02*
X88000000Y-162700000D01*
X87500000Y-163100000D02*
X86900000Y-162700000D01*
X87500000Y-162300000D02*
X87500000Y-163100000D01*
X86900000Y-162700000D02*
X87500000Y-162300000D01*
X86900000Y-162700000D02*
X86900000Y-163250000D01*
X86900000Y-162700000D02*
X86900000Y-162150000D01*
X86500000Y-162700000D02*
X86900000Y-162700000D01*
%TO.C,D35*%
X134750000Y-162700000D02*
X135250000Y-162700000D01*
X134750000Y-163100000D02*
X134150000Y-162700000D01*
X134750000Y-162300000D02*
X134750000Y-163100000D01*
X134150000Y-162700000D02*
X134750000Y-162300000D01*
X134150000Y-162700000D02*
X134150000Y-163250000D01*
X134150000Y-162700000D02*
X134150000Y-162150000D01*
X133750000Y-162700000D02*
X134150000Y-162700000D01*
%TO.C,D36*%
X379500000Y-162700000D02*
X380000000Y-162700000D01*
X379500000Y-163100000D02*
X378900000Y-162700000D01*
X379500000Y-162300000D02*
X379500000Y-163100000D01*
X378900000Y-162700000D02*
X379500000Y-162300000D01*
X378900000Y-162700000D02*
X378900000Y-163250000D01*
X378900000Y-162700000D02*
X378900000Y-162150000D01*
X378500000Y-162700000D02*
X378900000Y-162700000D01*
%TO.C,D37*%
X356000000Y-162700000D02*
X356500000Y-162700000D01*
X356000000Y-163100000D02*
X355400000Y-162700000D01*
X356000000Y-162300000D02*
X356000000Y-163100000D01*
X355400000Y-162700000D02*
X356000000Y-162300000D01*
X355400000Y-162700000D02*
X355400000Y-163250000D01*
X355400000Y-162700000D02*
X355400000Y-162150000D01*
X355000000Y-162700000D02*
X355400000Y-162700000D01*
%TO.C,D38*%
X332500000Y-162700000D02*
X333000000Y-162700000D01*
X332500000Y-163100000D02*
X331900000Y-162700000D01*
X332500000Y-162300000D02*
X332500000Y-163100000D01*
X331900000Y-162700000D02*
X332500000Y-162300000D01*
X331900000Y-162700000D02*
X331900000Y-163250000D01*
X331900000Y-162700000D02*
X331900000Y-162150000D01*
X331500000Y-162700000D02*
X331900000Y-162700000D01*
%TO.C,D39*%
X309000000Y-162700000D02*
X309500000Y-162700000D01*
X309000000Y-163100000D02*
X308400000Y-162700000D01*
X309000000Y-162300000D02*
X309000000Y-163100000D01*
X308400000Y-162700000D02*
X309000000Y-162300000D01*
X308400000Y-162700000D02*
X308400000Y-163250000D01*
X308400000Y-162700000D02*
X308400000Y-162150000D01*
X308000000Y-162700000D02*
X308400000Y-162700000D01*
%TO.C,D40*%
X261750000Y-162700000D02*
X262250000Y-162700000D01*
X261750000Y-163100000D02*
X261150000Y-162700000D01*
X261750000Y-162300000D02*
X261750000Y-163100000D01*
X261150000Y-162700000D02*
X261750000Y-162300000D01*
X261150000Y-162700000D02*
X261150000Y-163250000D01*
X261150000Y-162700000D02*
X261150000Y-162150000D01*
X260750000Y-162700000D02*
X261150000Y-162700000D01*
%TO.C,D41*%
X365250000Y-143700000D02*
X365750000Y-143700000D01*
X365250000Y-144100000D02*
X364650000Y-143700000D01*
X365250000Y-143300000D02*
X365250000Y-144100000D01*
X364650000Y-143700000D02*
X365250000Y-143300000D01*
X364650000Y-143700000D02*
X364650000Y-144250000D01*
X364650000Y-143700000D02*
X364650000Y-143150000D01*
X364250000Y-143700000D02*
X364650000Y-143700000D01*
%TO.C,D42*%
X329750000Y-143700000D02*
X330250000Y-143700000D01*
X329750000Y-144100000D02*
X329150000Y-143700000D01*
X329750000Y-143300000D02*
X329750000Y-144100000D01*
X329150000Y-143700000D02*
X329750000Y-143300000D01*
X329150000Y-143700000D02*
X329150000Y-144250000D01*
X329150000Y-143700000D02*
X329150000Y-143150000D01*
X328750000Y-143700000D02*
X329150000Y-143700000D01*
%TO.C,D43*%
X310750000Y-143700000D02*
X311250000Y-143700000D01*
X310750000Y-144100000D02*
X310150000Y-143700000D01*
X310750000Y-143300000D02*
X310750000Y-144100000D01*
X310150000Y-143700000D02*
X310750000Y-143300000D01*
X310150000Y-143700000D02*
X310150000Y-144250000D01*
X310150000Y-143700000D02*
X310150000Y-143150000D01*
X309750000Y-143700000D02*
X310150000Y-143700000D01*
%TO.C,D44*%
X291750000Y-143700000D02*
X292250000Y-143700000D01*
X291750000Y-144100000D02*
X291150000Y-143700000D01*
X291750000Y-143300000D02*
X291750000Y-144100000D01*
X291150000Y-143700000D02*
X291750000Y-143300000D01*
X291150000Y-143700000D02*
X291150000Y-144250000D01*
X291150000Y-143700000D02*
X291150000Y-143150000D01*
X290750000Y-143700000D02*
X291150000Y-143700000D01*
%TO.C,D45*%
X272750000Y-143700000D02*
X273250000Y-143700000D01*
X272750000Y-144100000D02*
X272150000Y-143700000D01*
X272750000Y-143300000D02*
X272750000Y-144100000D01*
X272150000Y-143700000D02*
X272750000Y-143300000D01*
X272150000Y-143700000D02*
X272150000Y-144250000D01*
X272150000Y-143700000D02*
X272150000Y-143150000D01*
X271750000Y-143700000D02*
X272150000Y-143700000D01*
%TO.C,D46*%
X253750000Y-143700000D02*
X254250000Y-143700000D01*
X253750000Y-144100000D02*
X253150000Y-143700000D01*
X253750000Y-143300000D02*
X253750000Y-144100000D01*
X253150000Y-143700000D02*
X253750000Y-143300000D01*
X253150000Y-143700000D02*
X253150000Y-144250000D01*
X253150000Y-143700000D02*
X253150000Y-143150000D01*
X252750000Y-143700000D02*
X253150000Y-143700000D01*
%TO.C,D47*%
X234750000Y-143700000D02*
X235250000Y-143700000D01*
X234750000Y-144100000D02*
X234150000Y-143700000D01*
X234750000Y-143300000D02*
X234750000Y-144100000D01*
X234150000Y-143700000D02*
X234750000Y-143300000D01*
X234150000Y-143700000D02*
X234150000Y-144250000D01*
X234150000Y-143700000D02*
X234150000Y-143150000D01*
X233750000Y-143700000D02*
X234150000Y-143700000D01*
%TO.C,D48*%
X370250000Y-124700000D02*
X370750000Y-124700000D01*
X370250000Y-125100000D02*
X369650000Y-124700000D01*
X370250000Y-124300000D02*
X370250000Y-125100000D01*
X369650000Y-124700000D02*
X370250000Y-124300000D01*
X369650000Y-124700000D02*
X369650000Y-125250000D01*
X369650000Y-124700000D02*
X369650000Y-124150000D01*
X369250000Y-124700000D02*
X369650000Y-124700000D01*
%TO.C,D49*%
X339750000Y-124700000D02*
X340250000Y-124700000D01*
X339750000Y-125100000D02*
X339150000Y-124700000D01*
X339750000Y-124300000D02*
X339750000Y-125100000D01*
X339150000Y-124700000D02*
X339750000Y-124300000D01*
X339150000Y-124700000D02*
X339150000Y-125250000D01*
X339150000Y-124700000D02*
X339150000Y-124150000D01*
X338750000Y-124700000D02*
X339150000Y-124700000D01*
%TO.C,D50*%
X320750000Y-124700000D02*
X321250000Y-124700000D01*
X320750000Y-125100000D02*
X320150000Y-124700000D01*
X320750000Y-124300000D02*
X320750000Y-125100000D01*
X320150000Y-124700000D02*
X320750000Y-124300000D01*
X320150000Y-124700000D02*
X320150000Y-125250000D01*
X320150000Y-124700000D02*
X320150000Y-124150000D01*
X319750000Y-124700000D02*
X320150000Y-124700000D01*
%TO.C,D51*%
X301750000Y-124700000D02*
X302250000Y-124700000D01*
X301750000Y-125100000D02*
X301150000Y-124700000D01*
X301750000Y-124300000D02*
X301750000Y-125100000D01*
X301150000Y-124700000D02*
X301750000Y-124300000D01*
X301150000Y-124700000D02*
X301150000Y-125250000D01*
X301150000Y-124700000D02*
X301150000Y-124150000D01*
X300750000Y-124700000D02*
X301150000Y-124700000D01*
%TO.C,D52*%
X282750000Y-124700000D02*
X283250000Y-124700000D01*
X282750000Y-125100000D02*
X282150000Y-124700000D01*
X282750000Y-124300000D02*
X282750000Y-125100000D01*
X282150000Y-124700000D02*
X282750000Y-124300000D01*
X282150000Y-124700000D02*
X282150000Y-125250000D01*
X282150000Y-124700000D02*
X282150000Y-124150000D01*
X281750000Y-124700000D02*
X282150000Y-124700000D01*
%TO.C,D53*%
X263750000Y-124700000D02*
X264250000Y-124700000D01*
X263750000Y-125100000D02*
X263150000Y-124700000D01*
X263750000Y-124300000D02*
X263750000Y-125100000D01*
X263150000Y-124700000D02*
X263750000Y-124300000D01*
X263150000Y-124700000D02*
X263150000Y-125250000D01*
X263150000Y-124700000D02*
X263150000Y-124150000D01*
X262750000Y-124700000D02*
X263150000Y-124700000D01*
%TO.C,D54*%
X244750000Y-124700000D02*
X245250000Y-124700000D01*
X244750000Y-125100000D02*
X244150000Y-124700000D01*
X244750000Y-124300000D02*
X244750000Y-125100000D01*
X244150000Y-124700000D02*
X244750000Y-124300000D01*
X244150000Y-124700000D02*
X244150000Y-125250000D01*
X244150000Y-124700000D02*
X244150000Y-124150000D01*
X243750000Y-124700000D02*
X244150000Y-124700000D01*
%TO.C,D55*%
X377000000Y-105700000D02*
X377500000Y-105700000D01*
X377000000Y-106100000D02*
X376400000Y-105700000D01*
X377000000Y-105300000D02*
X377000000Y-106100000D01*
X376400000Y-105700000D02*
X377000000Y-105300000D01*
X376400000Y-105700000D02*
X376400000Y-106250000D01*
X376400000Y-105700000D02*
X376400000Y-105150000D01*
X376000000Y-105700000D02*
X376400000Y-105700000D01*
%TO.C,D56*%
X353250000Y-105700000D02*
X353750000Y-105700000D01*
X353250000Y-106100000D02*
X352650000Y-105700000D01*
X353250000Y-105300000D02*
X353250000Y-106100000D01*
X352650000Y-105700000D02*
X353250000Y-105300000D01*
X352650000Y-105700000D02*
X352650000Y-106250000D01*
X352650000Y-105700000D02*
X352650000Y-105150000D01*
X352250000Y-105700000D02*
X352650000Y-105700000D01*
%TO.C,D57*%
X334250000Y-105700000D02*
X334750000Y-105700000D01*
X334250000Y-106100000D02*
X333650000Y-105700000D01*
X334250000Y-105300000D02*
X334250000Y-106100000D01*
X333650000Y-105700000D02*
X334250000Y-105300000D01*
X333650000Y-105700000D02*
X333650000Y-106250000D01*
X333650000Y-105700000D02*
X333650000Y-105150000D01*
X333250000Y-105700000D02*
X333650000Y-105700000D01*
%TO.C,D58*%
X315250000Y-105700000D02*
X315750000Y-105700000D01*
X315250000Y-106100000D02*
X314650000Y-105700000D01*
X315250000Y-105300000D02*
X315250000Y-106100000D01*
X314650000Y-105700000D02*
X315250000Y-105300000D01*
X314650000Y-105700000D02*
X314650000Y-106250000D01*
X314650000Y-105700000D02*
X314650000Y-105150000D01*
X314250000Y-105700000D02*
X314650000Y-105700000D01*
%TO.C,D59*%
X296250000Y-105700000D02*
X296750000Y-105700000D01*
X296250000Y-106100000D02*
X295650000Y-105700000D01*
X296250000Y-105300000D02*
X296250000Y-106100000D01*
X295650000Y-105700000D02*
X296250000Y-105300000D01*
X295650000Y-105700000D02*
X295650000Y-106250000D01*
X295650000Y-105700000D02*
X295650000Y-105150000D01*
X295250000Y-105700000D02*
X295650000Y-105700000D01*
%TO.C,D60*%
X277250000Y-105700000D02*
X277750000Y-105700000D01*
X277250000Y-106100000D02*
X276650000Y-105700000D01*
X277250000Y-105300000D02*
X277250000Y-106100000D01*
X276650000Y-105700000D02*
X277250000Y-105300000D01*
X276650000Y-105700000D02*
X276650000Y-106250000D01*
X276650000Y-105700000D02*
X276650000Y-105150000D01*
X276250000Y-105700000D02*
X276650000Y-105700000D01*
%TO.C,D61*%
X258250000Y-105700000D02*
X258750000Y-105700000D01*
X258250000Y-106100000D02*
X257650000Y-105700000D01*
X258250000Y-105300000D02*
X258250000Y-106100000D01*
X257650000Y-105700000D02*
X258250000Y-105300000D01*
X257650000Y-105700000D02*
X257650000Y-106250000D01*
X257650000Y-105700000D02*
X257650000Y-105150000D01*
X257250000Y-105700000D02*
X257650000Y-105700000D01*
%TO.C,D62*%
X239250000Y-105700000D02*
X239750000Y-105700000D01*
X239250000Y-106100000D02*
X238650000Y-105700000D01*
X239250000Y-105300000D02*
X239250000Y-106100000D01*
X238650000Y-105700000D02*
X239250000Y-105300000D01*
X238650000Y-105700000D02*
X238650000Y-106250000D01*
X238650000Y-105700000D02*
X238650000Y-105150000D01*
X238250000Y-105700000D02*
X238650000Y-105700000D01*
%TO.C,D63*%
X372250000Y-86700000D02*
X372750000Y-86700000D01*
X372250000Y-87100000D02*
X371650000Y-86700000D01*
X372250000Y-86300000D02*
X372250000Y-87100000D01*
X371650000Y-86700000D02*
X372250000Y-86300000D01*
X371650000Y-86700000D02*
X371650000Y-87250000D01*
X371650000Y-86700000D02*
X371650000Y-86150000D01*
X371250000Y-86700000D02*
X371650000Y-86700000D01*
%TO.C,D64*%
X343750000Y-86700000D02*
X344250000Y-86700000D01*
X343750000Y-87100000D02*
X343150000Y-86700000D01*
X343750000Y-86300000D02*
X343750000Y-87100000D01*
X343150000Y-86700000D02*
X343750000Y-86300000D01*
X343150000Y-86700000D02*
X343150000Y-87250000D01*
X343150000Y-86700000D02*
X343150000Y-86150000D01*
X342750000Y-86700000D02*
X343150000Y-86700000D01*
%TO.C,D65*%
X324750000Y-86700000D02*
X325250000Y-86700000D01*
X324750000Y-87100000D02*
X324150000Y-86700000D01*
X324750000Y-86300000D02*
X324750000Y-87100000D01*
X324150000Y-86700000D02*
X324750000Y-86300000D01*
X324150000Y-86700000D02*
X324150000Y-87250000D01*
X324150000Y-86700000D02*
X324150000Y-86150000D01*
X323750000Y-86700000D02*
X324150000Y-86700000D01*
%TO.C,D66*%
X305750000Y-86700000D02*
X306250000Y-86700000D01*
X305750000Y-87100000D02*
X305150000Y-86700000D01*
X305750000Y-86300000D02*
X305750000Y-87100000D01*
X305150000Y-86700000D02*
X305750000Y-86300000D01*
X305150000Y-86700000D02*
X305150000Y-87250000D01*
X305150000Y-86700000D02*
X305150000Y-86150000D01*
X304750000Y-86700000D02*
X305150000Y-86700000D01*
%TO.C,D67*%
X286750000Y-86700000D02*
X287250000Y-86700000D01*
X286750000Y-87100000D02*
X286150000Y-86700000D01*
X286750000Y-86300000D02*
X286750000Y-87100000D01*
X286150000Y-86700000D02*
X286750000Y-86300000D01*
X286150000Y-86700000D02*
X286150000Y-87250000D01*
X286150000Y-86700000D02*
X286150000Y-86150000D01*
X285750000Y-86700000D02*
X286150000Y-86700000D01*
%TO.C,D68*%
X267750000Y-86700000D02*
X268250000Y-86700000D01*
X267750000Y-87100000D02*
X267150000Y-86700000D01*
X267750000Y-86300000D02*
X267750000Y-87100000D01*
X267150000Y-86700000D02*
X267750000Y-86300000D01*
X267150000Y-86700000D02*
X267150000Y-87250000D01*
X267150000Y-86700000D02*
X267150000Y-86150000D01*
X266750000Y-86700000D02*
X267150000Y-86700000D01*
%TO.C,D69*%
X248750000Y-86700000D02*
X249250000Y-86700000D01*
X248750000Y-87100000D02*
X248150000Y-86700000D01*
X248750000Y-86300000D02*
X248750000Y-87100000D01*
X248150000Y-86700000D02*
X248750000Y-86300000D01*
X248150000Y-86700000D02*
X248150000Y-87250000D01*
X248150000Y-86700000D02*
X248150000Y-86150000D01*
X247750000Y-86700000D02*
X248150000Y-86700000D01*
%TO.C,D70*%
X381750000Y-62000000D02*
X382250000Y-62000000D01*
X381750000Y-62400000D02*
X381150000Y-62000000D01*
X381750000Y-61600000D02*
X381750000Y-62400000D01*
X381150000Y-62000000D02*
X381750000Y-61600000D01*
X381150000Y-62000000D02*
X381150000Y-62550000D01*
X381150000Y-62000000D02*
X381150000Y-61450000D01*
X380750000Y-62000000D02*
X381150000Y-62000000D01*
%TO.C,D71*%
X362750000Y-62000000D02*
X363250000Y-62000000D01*
X362750000Y-62400000D02*
X362150000Y-62000000D01*
X362750000Y-61600000D02*
X362750000Y-62400000D01*
X362150000Y-62000000D02*
X362750000Y-61600000D01*
X362150000Y-62000000D02*
X362150000Y-62550000D01*
X362150000Y-62000000D02*
X362150000Y-61450000D01*
X361750000Y-62000000D02*
X362150000Y-62000000D01*
%TO.C,D72*%
X343750000Y-62000000D02*
X344250000Y-62000000D01*
X343750000Y-62400000D02*
X343150000Y-62000000D01*
X343750000Y-61600000D02*
X343750000Y-62400000D01*
X343150000Y-62000000D02*
X343750000Y-61600000D01*
X343150000Y-62000000D02*
X343150000Y-62550000D01*
X343150000Y-62000000D02*
X343150000Y-61450000D01*
X342750000Y-62000000D02*
X343150000Y-62000000D01*
%TO.C,D73*%
X324750000Y-62000000D02*
X325250000Y-62000000D01*
X324750000Y-62400000D02*
X324150000Y-62000000D01*
X324750000Y-61600000D02*
X324750000Y-62400000D01*
X324150000Y-62000000D02*
X324750000Y-61600000D01*
X324150000Y-62000000D02*
X324150000Y-62550000D01*
X324150000Y-62000000D02*
X324150000Y-61450000D01*
X323750000Y-62000000D02*
X324150000Y-62000000D01*
%TO.C,D74*%
X296250000Y-62000000D02*
X296750000Y-62000000D01*
X296250000Y-62400000D02*
X295650000Y-62000000D01*
X296250000Y-61600000D02*
X296250000Y-62400000D01*
X295650000Y-62000000D02*
X296250000Y-61600000D01*
X295650000Y-62000000D02*
X295650000Y-62550000D01*
X295650000Y-62000000D02*
X295650000Y-61450000D01*
X295250000Y-62000000D02*
X295650000Y-62000000D01*
%TO.C,D75*%
X277250000Y-62000000D02*
X277750000Y-62000000D01*
X277250000Y-62400000D02*
X276650000Y-62000000D01*
X277250000Y-61600000D02*
X277250000Y-62400000D01*
X276650000Y-62000000D02*
X277250000Y-61600000D01*
X276650000Y-62000000D02*
X276650000Y-62550000D01*
X276650000Y-62000000D02*
X276650000Y-61450000D01*
X276250000Y-62000000D02*
X276650000Y-62000000D01*
%TO.C,D76*%
X258250000Y-62000000D02*
X258750000Y-62000000D01*
X258250000Y-62400000D02*
X257650000Y-62000000D01*
X258250000Y-61600000D02*
X258250000Y-62400000D01*
X257650000Y-62000000D02*
X258250000Y-61600000D01*
X257650000Y-62000000D02*
X257650000Y-62550000D01*
X257650000Y-62000000D02*
X257650000Y-61450000D01*
X257250000Y-62000000D02*
X257650000Y-62000000D01*
%TO.C,D77*%
X239250000Y-62000000D02*
X239750000Y-62000000D01*
X239250000Y-62400000D02*
X238650000Y-62000000D01*
X239250000Y-61600000D02*
X239250000Y-62400000D01*
X238650000Y-62000000D02*
X239250000Y-61600000D01*
X238650000Y-62000000D02*
X238650000Y-62550000D01*
X238650000Y-62000000D02*
X238650000Y-61450000D01*
X238250000Y-62000000D02*
X238650000Y-62000000D01*
D10*
%TO.C,RST1*%
X188650000Y-55900000D02*
X188900000Y-55900000D01*
X188900000Y-55900000D02*
X188900000Y-61900000D01*
X188900000Y-61900000D02*
X188650000Y-61900000D01*
X185650000Y-61900000D02*
X185400000Y-61900000D01*
X185400000Y-61900000D02*
X185400000Y-55900000D01*
X185400000Y-55900000D02*
X185650000Y-55900000D01*
%TO.C,RST2*%
X205350000Y-55900000D02*
X205600000Y-55900000D01*
X205600000Y-55900000D02*
X205600000Y-61900000D01*
X205600000Y-61900000D02*
X205350000Y-61900000D01*
X202350000Y-61900000D02*
X202100000Y-61900000D01*
X202100000Y-61900000D02*
X202100000Y-55900000D01*
X202100000Y-55900000D02*
X202350000Y-55900000D01*
D12*
%TO.C,PWR1*%
X185725000Y-50800000D02*
X185725000Y-51000000D01*
X187565000Y-52850000D02*
X186775000Y-52850000D01*
X186775000Y-45950000D02*
X187565000Y-45950000D01*
X185725000Y-47800000D02*
X185725000Y-49500000D01*
X188575000Y-46550000D02*
X188575000Y-52250000D01*
%TO.C,PWR2*%
X205275000Y-48000000D02*
X205275000Y-47800000D01*
X203435000Y-45950000D02*
X204225000Y-45950000D01*
X204225000Y-52850000D02*
X203435000Y-52850000D01*
X205275000Y-51000000D02*
X205275000Y-49300000D01*
X202425000Y-52250000D02*
X202425000Y-46550000D01*
D11*
%TO.C,JST1*%
X172150000Y-49000000D02*
X172150000Y-48000000D01*
X172150000Y-46000000D02*
X172150000Y-47000000D01*
X172650000Y-46500000D02*
X171650000Y-46500000D01*
D12*
X181010000Y-45440000D02*
X181010000Y-44440000D01*
X181010000Y-44440000D02*
X180010000Y-44440000D01*
X181010000Y-49640000D02*
X181010000Y-50560000D01*
X181010000Y-50560000D02*
X180010000Y-50560000D01*
X173190000Y-45360000D02*
X173190000Y-44440000D01*
X173190000Y-44440000D02*
X174190000Y-44440000D01*
X173190000Y-49640000D02*
X173190000Y-50560000D01*
X173190000Y-50560000D02*
X174190000Y-50560000D01*
D11*
%TO.C,JST2*%
X218850000Y-46000000D02*
X218850000Y-47000000D01*
X218850000Y-49000000D02*
X218850000Y-48000000D01*
X218350000Y-48500000D02*
X219350000Y-48500000D01*
D12*
X209990000Y-49560000D02*
X209990000Y-50560000D01*
X209990000Y-50560000D02*
X210990000Y-50560000D01*
X209990000Y-45360000D02*
X209990000Y-44440000D01*
X209990000Y-44440000D02*
X210990000Y-44440000D01*
X217810000Y-49640000D02*
X217810000Y-50560000D01*
X217810000Y-50560000D02*
X216810000Y-50560000D01*
X217810000Y-45360000D02*
X217810000Y-44440000D01*
X217810000Y-44440000D02*
X216810000Y-44440000D01*
%TD*%
D13*
%TO.C,MCU1*%
X168130000Y-54430000D03*
D14*
X168130000Y-56970000D03*
X168130000Y-59510000D03*
X168130000Y-62050000D03*
X168130000Y-64590000D03*
X168130000Y-67130000D03*
X168130000Y-69670000D03*
X168130000Y-72210000D03*
X168130000Y-74750000D03*
X168130000Y-77290000D03*
X168130000Y-79830000D03*
X168130000Y-82370000D03*
X183370000Y-54430000D03*
X183370000Y-56970000D03*
X183370000Y-59510000D03*
X183370000Y-62050000D03*
X183370000Y-64590000D03*
X183370000Y-67130000D03*
X183370000Y-69670000D03*
X183370000Y-72210000D03*
X183370000Y-74750000D03*
X183370000Y-77290000D03*
X183370000Y-79830000D03*
X183370000Y-82370000D03*
%TD*%
D13*
%TO.C,MCU2*%
X207630000Y-54430000D03*
D14*
X207630000Y-56970000D03*
X207630000Y-59510000D03*
X207630000Y-62050000D03*
X207630000Y-64590000D03*
X207630000Y-67130000D03*
X207630000Y-69670000D03*
X207630000Y-72210000D03*
X207630000Y-74750000D03*
X207630000Y-77290000D03*
X207630000Y-79830000D03*
X207630000Y-82370000D03*
X222870000Y-54430000D03*
X222870000Y-56970000D03*
X222870000Y-59510000D03*
X222870000Y-62050000D03*
X222870000Y-64590000D03*
X222870000Y-67130000D03*
X222870000Y-69670000D03*
X222870000Y-72210000D03*
X222870000Y-74750000D03*
X222870000Y-77290000D03*
X222870000Y-79830000D03*
X222870000Y-82370000D03*
%TD*%
M02*
