%TF.GenerationSoftware,KiCad,Pcbnew,9.0.2*%
%TF.CreationDate,2025-05-23T00:15:24+09:00*%
%TF.ProjectId,jjongkbd,6a6a6f6e-676b-4626-942e-6b696361645f,0.1*%
%TF.SameCoordinates,Original*%
%TF.FileFunction,Legend,Top*%
%TF.FilePolarity,Positive*%
%FSLAX46Y46*%
G04 Gerber Fmt 4.6, Leading zero omitted, Abs format (unit mm)*
G04 Created by KiCad (PCBNEW 9.0.2) date 2025-05-23 00:15:24*
%MOMM*%
%LPD*%
G01*
G04 APERTURE LIST*
%ADD10C,0.150000*%
%ADD11R,1.752600X1.752600*%
%ADD12C,1.752600*%
G04 APERTURE END LIST*
D10*
X179119047Y-111954819D02*
X179119047Y-112669104D01*
X179119047Y-112669104D02*
X179071428Y-112811961D01*
X179071428Y-112811961D02*
X178976190Y-112907200D01*
X178976190Y-112907200D02*
X178833333Y-112954819D01*
X178833333Y-112954819D02*
X178738095Y-112954819D01*
X179595238Y-112954819D02*
X179595238Y-112288152D01*
X179595238Y-111954819D02*
X179547619Y-112002438D01*
X179547619Y-112002438D02*
X179595238Y-112050057D01*
X179595238Y-112050057D02*
X179642857Y-112002438D01*
X179642857Y-112002438D02*
X179595238Y-111954819D01*
X179595238Y-111954819D02*
X179595238Y-112050057D01*
X179976190Y-112288152D02*
X180214285Y-112954819D01*
X180452380Y-112288152D02*
X180214285Y-112954819D01*
X180214285Y-112954819D02*
X180119047Y-113192914D01*
X180119047Y-113192914D02*
X180071428Y-113240533D01*
X180071428Y-113240533D02*
X179976190Y-113288152D01*
X180976190Y-112954819D02*
X180880952Y-112907200D01*
X180880952Y-112907200D02*
X180833333Y-112859580D01*
X180833333Y-112859580D02*
X180785714Y-112764342D01*
X180785714Y-112764342D02*
X180785714Y-112478628D01*
X180785714Y-112478628D02*
X180833333Y-112383390D01*
X180833333Y-112383390D02*
X180880952Y-112335771D01*
X180880952Y-112335771D02*
X180976190Y-112288152D01*
X180976190Y-112288152D02*
X181119047Y-112288152D01*
X181119047Y-112288152D02*
X181214285Y-112335771D01*
X181214285Y-112335771D02*
X181261904Y-112383390D01*
X181261904Y-112383390D02*
X181309523Y-112478628D01*
X181309523Y-112478628D02*
X181309523Y-112764342D01*
X181309523Y-112764342D02*
X181261904Y-112859580D01*
X181261904Y-112859580D02*
X181214285Y-112907200D01*
X181214285Y-112907200D02*
X181119047Y-112954819D01*
X181119047Y-112954819D02*
X180976190Y-112954819D01*
X181738095Y-112288152D02*
X181738095Y-112954819D01*
X181738095Y-112383390D02*
X181785714Y-112335771D01*
X181785714Y-112335771D02*
X181880952Y-112288152D01*
X181880952Y-112288152D02*
X182023809Y-112288152D01*
X182023809Y-112288152D02*
X182119047Y-112335771D01*
X182119047Y-112335771D02*
X182166666Y-112431009D01*
X182166666Y-112431009D02*
X182166666Y-112954819D01*
X183071428Y-112288152D02*
X183071428Y-113097676D01*
X183071428Y-113097676D02*
X183023809Y-113192914D01*
X183023809Y-113192914D02*
X182976190Y-113240533D01*
X182976190Y-113240533D02*
X182880952Y-113288152D01*
X182880952Y-113288152D02*
X182738095Y-113288152D01*
X182738095Y-113288152D02*
X182642857Y-113240533D01*
X183071428Y-112907200D02*
X182976190Y-112954819D01*
X182976190Y-112954819D02*
X182785714Y-112954819D01*
X182785714Y-112954819D02*
X182690476Y-112907200D01*
X182690476Y-112907200D02*
X182642857Y-112859580D01*
X182642857Y-112859580D02*
X182595238Y-112764342D01*
X182595238Y-112764342D02*
X182595238Y-112478628D01*
X182595238Y-112478628D02*
X182642857Y-112383390D01*
X182642857Y-112383390D02*
X182690476Y-112335771D01*
X182690476Y-112335771D02*
X182785714Y-112288152D01*
X182785714Y-112288152D02*
X182976190Y-112288152D01*
X182976190Y-112288152D02*
X183071428Y-112335771D01*
X184309524Y-112954819D02*
X184309524Y-111954819D01*
X184309524Y-111954819D02*
X184690476Y-111954819D01*
X184690476Y-111954819D02*
X184785714Y-112002438D01*
X184785714Y-112002438D02*
X184833333Y-112050057D01*
X184833333Y-112050057D02*
X184880952Y-112145295D01*
X184880952Y-112145295D02*
X184880952Y-112288152D01*
X184880952Y-112288152D02*
X184833333Y-112383390D01*
X184833333Y-112383390D02*
X184785714Y-112431009D01*
X184785714Y-112431009D02*
X184690476Y-112478628D01*
X184690476Y-112478628D02*
X184309524Y-112478628D01*
X185738095Y-112954819D02*
X185738095Y-112431009D01*
X185738095Y-112431009D02*
X185690476Y-112335771D01*
X185690476Y-112335771D02*
X185595238Y-112288152D01*
X185595238Y-112288152D02*
X185404762Y-112288152D01*
X185404762Y-112288152D02*
X185309524Y-112335771D01*
X185738095Y-112907200D02*
X185642857Y-112954819D01*
X185642857Y-112954819D02*
X185404762Y-112954819D01*
X185404762Y-112954819D02*
X185309524Y-112907200D01*
X185309524Y-112907200D02*
X185261905Y-112811961D01*
X185261905Y-112811961D02*
X185261905Y-112716723D01*
X185261905Y-112716723D02*
X185309524Y-112621485D01*
X185309524Y-112621485D02*
X185404762Y-112573866D01*
X185404762Y-112573866D02*
X185642857Y-112573866D01*
X185642857Y-112573866D02*
X185738095Y-112526247D01*
X186214286Y-112954819D02*
X186214286Y-112288152D01*
X186214286Y-112478628D02*
X186261905Y-112383390D01*
X186261905Y-112383390D02*
X186309524Y-112335771D01*
X186309524Y-112335771D02*
X186404762Y-112288152D01*
X186404762Y-112288152D02*
X186500000Y-112288152D01*
X186833334Y-112954819D02*
X186833334Y-111954819D01*
X186928572Y-112573866D02*
X187214286Y-112954819D01*
X187214286Y-112288152D02*
X186833334Y-112669104D01*
X203119047Y-111454819D02*
X203119047Y-112169104D01*
X203119047Y-112169104D02*
X203071428Y-112311961D01*
X203071428Y-112311961D02*
X202976190Y-112407200D01*
X202976190Y-112407200D02*
X202833333Y-112454819D01*
X202833333Y-112454819D02*
X202738095Y-112454819D01*
X203595238Y-112454819D02*
X203595238Y-111788152D01*
X203595238Y-111454819D02*
X203547619Y-111502438D01*
X203547619Y-111502438D02*
X203595238Y-111550057D01*
X203595238Y-111550057D02*
X203642857Y-111502438D01*
X203642857Y-111502438D02*
X203595238Y-111454819D01*
X203595238Y-111454819D02*
X203595238Y-111550057D01*
X203976190Y-111788152D02*
X204214285Y-112454819D01*
X204452380Y-111788152D02*
X204214285Y-112454819D01*
X204214285Y-112454819D02*
X204119047Y-112692914D01*
X204119047Y-112692914D02*
X204071428Y-112740533D01*
X204071428Y-112740533D02*
X203976190Y-112788152D01*
X204976190Y-112454819D02*
X204880952Y-112407200D01*
X204880952Y-112407200D02*
X204833333Y-112359580D01*
X204833333Y-112359580D02*
X204785714Y-112264342D01*
X204785714Y-112264342D02*
X204785714Y-111978628D01*
X204785714Y-111978628D02*
X204833333Y-111883390D01*
X204833333Y-111883390D02*
X204880952Y-111835771D01*
X204880952Y-111835771D02*
X204976190Y-111788152D01*
X204976190Y-111788152D02*
X205119047Y-111788152D01*
X205119047Y-111788152D02*
X205214285Y-111835771D01*
X205214285Y-111835771D02*
X205261904Y-111883390D01*
X205261904Y-111883390D02*
X205309523Y-111978628D01*
X205309523Y-111978628D02*
X205309523Y-112264342D01*
X205309523Y-112264342D02*
X205261904Y-112359580D01*
X205261904Y-112359580D02*
X205214285Y-112407200D01*
X205214285Y-112407200D02*
X205119047Y-112454819D01*
X205119047Y-112454819D02*
X204976190Y-112454819D01*
X205738095Y-111788152D02*
X205738095Y-112454819D01*
X205738095Y-111883390D02*
X205785714Y-111835771D01*
X205785714Y-111835771D02*
X205880952Y-111788152D01*
X205880952Y-111788152D02*
X206023809Y-111788152D01*
X206023809Y-111788152D02*
X206119047Y-111835771D01*
X206119047Y-111835771D02*
X206166666Y-111931009D01*
X206166666Y-111931009D02*
X206166666Y-112454819D01*
X207071428Y-111788152D02*
X207071428Y-112597676D01*
X207071428Y-112597676D02*
X207023809Y-112692914D01*
X207023809Y-112692914D02*
X206976190Y-112740533D01*
X206976190Y-112740533D02*
X206880952Y-112788152D01*
X206880952Y-112788152D02*
X206738095Y-112788152D01*
X206738095Y-112788152D02*
X206642857Y-112740533D01*
X207071428Y-112407200D02*
X206976190Y-112454819D01*
X206976190Y-112454819D02*
X206785714Y-112454819D01*
X206785714Y-112454819D02*
X206690476Y-112407200D01*
X206690476Y-112407200D02*
X206642857Y-112359580D01*
X206642857Y-112359580D02*
X206595238Y-112264342D01*
X206595238Y-112264342D02*
X206595238Y-111978628D01*
X206595238Y-111978628D02*
X206642857Y-111883390D01*
X206642857Y-111883390D02*
X206690476Y-111835771D01*
X206690476Y-111835771D02*
X206785714Y-111788152D01*
X206785714Y-111788152D02*
X206976190Y-111788152D01*
X206976190Y-111788152D02*
X207071428Y-111835771D01*
X208309524Y-112454819D02*
X208309524Y-111454819D01*
X208309524Y-111454819D02*
X208690476Y-111454819D01*
X208690476Y-111454819D02*
X208785714Y-111502438D01*
X208785714Y-111502438D02*
X208833333Y-111550057D01*
X208833333Y-111550057D02*
X208880952Y-111645295D01*
X208880952Y-111645295D02*
X208880952Y-111788152D01*
X208880952Y-111788152D02*
X208833333Y-111883390D01*
X208833333Y-111883390D02*
X208785714Y-111931009D01*
X208785714Y-111931009D02*
X208690476Y-111978628D01*
X208690476Y-111978628D02*
X208309524Y-111978628D01*
X209738095Y-112454819D02*
X209738095Y-111931009D01*
X209738095Y-111931009D02*
X209690476Y-111835771D01*
X209690476Y-111835771D02*
X209595238Y-111788152D01*
X209595238Y-111788152D02*
X209404762Y-111788152D01*
X209404762Y-111788152D02*
X209309524Y-111835771D01*
X209738095Y-112407200D02*
X209642857Y-112454819D01*
X209642857Y-112454819D02*
X209404762Y-112454819D01*
X209404762Y-112454819D02*
X209309524Y-112407200D01*
X209309524Y-112407200D02*
X209261905Y-112311961D01*
X209261905Y-112311961D02*
X209261905Y-112216723D01*
X209261905Y-112216723D02*
X209309524Y-112121485D01*
X209309524Y-112121485D02*
X209404762Y-112073866D01*
X209404762Y-112073866D02*
X209642857Y-112073866D01*
X209642857Y-112073866D02*
X209738095Y-112026247D01*
X210214286Y-112454819D02*
X210214286Y-111788152D01*
X210214286Y-111978628D02*
X210261905Y-111883390D01*
X210261905Y-111883390D02*
X210309524Y-111835771D01*
X210309524Y-111835771D02*
X210404762Y-111788152D01*
X210404762Y-111788152D02*
X210500000Y-111788152D01*
X210833334Y-112454819D02*
X210833334Y-111454819D01*
X210928572Y-112073866D02*
X211214286Y-112454819D01*
X211214286Y-111788152D02*
X210833334Y-112169104D01*
X170397619Y-54792295D02*
X170130952Y-54411342D01*
X169940476Y-54792295D02*
X169940476Y-53992295D01*
X169940476Y-53992295D02*
X170245238Y-53992295D01*
X170245238Y-53992295D02*
X170321428Y-54030390D01*
X170321428Y-54030390D02*
X170359523Y-54068485D01*
X170359523Y-54068485D02*
X170397619Y-54144676D01*
X170397619Y-54144676D02*
X170397619Y-54258961D01*
X170397619Y-54258961D02*
X170359523Y-54335152D01*
X170359523Y-54335152D02*
X170321428Y-54373247D01*
X170321428Y-54373247D02*
X170245238Y-54411342D01*
X170245238Y-54411342D02*
X169940476Y-54411342D01*
X170702380Y-54563723D02*
X171083333Y-54563723D01*
X170626190Y-54792295D02*
X170892857Y-53992295D01*
X170892857Y-53992295D02*
X171159523Y-54792295D01*
X171349999Y-53992295D02*
X171540475Y-54792295D01*
X171540475Y-54792295D02*
X171692856Y-54220866D01*
X171692856Y-54220866D02*
X171845237Y-54792295D01*
X171845237Y-54792295D02*
X172035714Y-53992295D01*
X170340476Y-56570390D02*
X170264286Y-56532295D01*
X170264286Y-56532295D02*
X170150000Y-56532295D01*
X170150000Y-56532295D02*
X170035714Y-56570390D01*
X170035714Y-56570390D02*
X169959524Y-56646580D01*
X169959524Y-56646580D02*
X169921429Y-56722771D01*
X169921429Y-56722771D02*
X169883333Y-56875152D01*
X169883333Y-56875152D02*
X169883333Y-56989438D01*
X169883333Y-56989438D02*
X169921429Y-57141819D01*
X169921429Y-57141819D02*
X169959524Y-57218009D01*
X169959524Y-57218009D02*
X170035714Y-57294200D01*
X170035714Y-57294200D02*
X170150000Y-57332295D01*
X170150000Y-57332295D02*
X170226191Y-57332295D01*
X170226191Y-57332295D02*
X170340476Y-57294200D01*
X170340476Y-57294200D02*
X170378572Y-57256104D01*
X170378572Y-57256104D02*
X170378572Y-56989438D01*
X170378572Y-56989438D02*
X170226191Y-56989438D01*
X170721429Y-57332295D02*
X170721429Y-56532295D01*
X170721429Y-56532295D02*
X171178572Y-57332295D01*
X171178572Y-57332295D02*
X171178572Y-56532295D01*
X171559524Y-57332295D02*
X171559524Y-56532295D01*
X171559524Y-56532295D02*
X171750000Y-56532295D01*
X171750000Y-56532295D02*
X171864286Y-56570390D01*
X171864286Y-56570390D02*
X171940476Y-56646580D01*
X171940476Y-56646580D02*
X171978571Y-56722771D01*
X171978571Y-56722771D02*
X172016667Y-56875152D01*
X172016667Y-56875152D02*
X172016667Y-56989438D01*
X172016667Y-56989438D02*
X171978571Y-57141819D01*
X171978571Y-57141819D02*
X171940476Y-57218009D01*
X171940476Y-57218009D02*
X171864286Y-57294200D01*
X171864286Y-57294200D02*
X171750000Y-57332295D01*
X171750000Y-57332295D02*
X171559524Y-57332295D01*
X170511905Y-59872295D02*
X170245238Y-59491342D01*
X170054762Y-59872295D02*
X170054762Y-59072295D01*
X170054762Y-59072295D02*
X170359524Y-59072295D01*
X170359524Y-59072295D02*
X170435714Y-59110390D01*
X170435714Y-59110390D02*
X170473809Y-59148485D01*
X170473809Y-59148485D02*
X170511905Y-59224676D01*
X170511905Y-59224676D02*
X170511905Y-59338961D01*
X170511905Y-59338961D02*
X170473809Y-59415152D01*
X170473809Y-59415152D02*
X170435714Y-59453247D01*
X170435714Y-59453247D02*
X170359524Y-59491342D01*
X170359524Y-59491342D02*
X170054762Y-59491342D01*
X170816666Y-59834200D02*
X170930952Y-59872295D01*
X170930952Y-59872295D02*
X171121428Y-59872295D01*
X171121428Y-59872295D02*
X171197619Y-59834200D01*
X171197619Y-59834200D02*
X171235714Y-59796104D01*
X171235714Y-59796104D02*
X171273809Y-59719914D01*
X171273809Y-59719914D02*
X171273809Y-59643723D01*
X171273809Y-59643723D02*
X171235714Y-59567533D01*
X171235714Y-59567533D02*
X171197619Y-59529438D01*
X171197619Y-59529438D02*
X171121428Y-59491342D01*
X171121428Y-59491342D02*
X170969047Y-59453247D01*
X170969047Y-59453247D02*
X170892857Y-59415152D01*
X170892857Y-59415152D02*
X170854762Y-59377057D01*
X170854762Y-59377057D02*
X170816666Y-59300866D01*
X170816666Y-59300866D02*
X170816666Y-59224676D01*
X170816666Y-59224676D02*
X170854762Y-59148485D01*
X170854762Y-59148485D02*
X170892857Y-59110390D01*
X170892857Y-59110390D02*
X170969047Y-59072295D01*
X170969047Y-59072295D02*
X171159524Y-59072295D01*
X171159524Y-59072295D02*
X171273809Y-59110390D01*
X171502381Y-59072295D02*
X171959524Y-59072295D01*
X171730952Y-59872295D02*
X171730952Y-59072295D01*
X169883333Y-61612295D02*
X170150000Y-62412295D01*
X170150000Y-62412295D02*
X170416666Y-61612295D01*
X171140476Y-62336104D02*
X171102380Y-62374200D01*
X171102380Y-62374200D02*
X170988095Y-62412295D01*
X170988095Y-62412295D02*
X170911904Y-62412295D01*
X170911904Y-62412295D02*
X170797618Y-62374200D01*
X170797618Y-62374200D02*
X170721428Y-62298009D01*
X170721428Y-62298009D02*
X170683333Y-62221819D01*
X170683333Y-62221819D02*
X170645237Y-62069438D01*
X170645237Y-62069438D02*
X170645237Y-61955152D01*
X170645237Y-61955152D02*
X170683333Y-61802771D01*
X170683333Y-61802771D02*
X170721428Y-61726580D01*
X170721428Y-61726580D02*
X170797618Y-61650390D01*
X170797618Y-61650390D02*
X170911904Y-61612295D01*
X170911904Y-61612295D02*
X170988095Y-61612295D01*
X170988095Y-61612295D02*
X171102380Y-61650390D01*
X171102380Y-61650390D02*
X171140476Y-61688485D01*
X171940476Y-62336104D02*
X171902380Y-62374200D01*
X171902380Y-62374200D02*
X171788095Y-62412295D01*
X171788095Y-62412295D02*
X171711904Y-62412295D01*
X171711904Y-62412295D02*
X171597618Y-62374200D01*
X171597618Y-62374200D02*
X171521428Y-62298009D01*
X171521428Y-62298009D02*
X171483333Y-62221819D01*
X171483333Y-62221819D02*
X171445237Y-62069438D01*
X171445237Y-62069438D02*
X171445237Y-61955152D01*
X171445237Y-61955152D02*
X171483333Y-61802771D01*
X171483333Y-61802771D02*
X171521428Y-61726580D01*
X171521428Y-61726580D02*
X171597618Y-61650390D01*
X171597618Y-61650390D02*
X171711904Y-61612295D01*
X171711904Y-61612295D02*
X171788095Y-61612295D01*
X171788095Y-61612295D02*
X171902380Y-61650390D01*
X171902380Y-61650390D02*
X171940476Y-61688485D01*
X169978571Y-64952295D02*
X169978571Y-64152295D01*
X169978571Y-64152295D02*
X170283333Y-64152295D01*
X170283333Y-64152295D02*
X170359523Y-64190390D01*
X170359523Y-64190390D02*
X170397618Y-64228485D01*
X170397618Y-64228485D02*
X170435714Y-64304676D01*
X170435714Y-64304676D02*
X170435714Y-64418961D01*
X170435714Y-64418961D02*
X170397618Y-64495152D01*
X170397618Y-64495152D02*
X170359523Y-64533247D01*
X170359523Y-64533247D02*
X170283333Y-64571342D01*
X170283333Y-64571342D02*
X169978571Y-64571342D01*
X170740475Y-64228485D02*
X170778571Y-64190390D01*
X170778571Y-64190390D02*
X170854761Y-64152295D01*
X170854761Y-64152295D02*
X171045237Y-64152295D01*
X171045237Y-64152295D02*
X171121428Y-64190390D01*
X171121428Y-64190390D02*
X171159523Y-64228485D01*
X171159523Y-64228485D02*
X171197618Y-64304676D01*
X171197618Y-64304676D02*
X171197618Y-64380866D01*
X171197618Y-64380866D02*
X171159523Y-64495152D01*
X171159523Y-64495152D02*
X170702380Y-64952295D01*
X170702380Y-64952295D02*
X171197618Y-64952295D01*
X171959523Y-64952295D02*
X171502380Y-64952295D01*
X171730952Y-64952295D02*
X171730952Y-64152295D01*
X171730952Y-64152295D02*
X171654761Y-64266580D01*
X171654761Y-64266580D02*
X171578571Y-64342771D01*
X171578571Y-64342771D02*
X171502380Y-64380866D01*
X169978571Y-67492295D02*
X169978571Y-66692295D01*
X169978571Y-66692295D02*
X170283333Y-66692295D01*
X170283333Y-66692295D02*
X170359523Y-66730390D01*
X170359523Y-66730390D02*
X170397618Y-66768485D01*
X170397618Y-66768485D02*
X170435714Y-66844676D01*
X170435714Y-66844676D02*
X170435714Y-66958961D01*
X170435714Y-66958961D02*
X170397618Y-67035152D01*
X170397618Y-67035152D02*
X170359523Y-67073247D01*
X170359523Y-67073247D02*
X170283333Y-67111342D01*
X170283333Y-67111342D02*
X169978571Y-67111342D01*
X170740475Y-66768485D02*
X170778571Y-66730390D01*
X170778571Y-66730390D02*
X170854761Y-66692295D01*
X170854761Y-66692295D02*
X171045237Y-66692295D01*
X171045237Y-66692295D02*
X171121428Y-66730390D01*
X171121428Y-66730390D02*
X171159523Y-66768485D01*
X171159523Y-66768485D02*
X171197618Y-66844676D01*
X171197618Y-66844676D02*
X171197618Y-66920866D01*
X171197618Y-66920866D02*
X171159523Y-67035152D01*
X171159523Y-67035152D02*
X170702380Y-67492295D01*
X170702380Y-67492295D02*
X171197618Y-67492295D01*
X171692857Y-66692295D02*
X171769047Y-66692295D01*
X171769047Y-66692295D02*
X171845238Y-66730390D01*
X171845238Y-66730390D02*
X171883333Y-66768485D01*
X171883333Y-66768485D02*
X171921428Y-66844676D01*
X171921428Y-66844676D02*
X171959523Y-66997057D01*
X171959523Y-66997057D02*
X171959523Y-67187533D01*
X171959523Y-67187533D02*
X171921428Y-67339914D01*
X171921428Y-67339914D02*
X171883333Y-67416104D01*
X171883333Y-67416104D02*
X171845238Y-67454200D01*
X171845238Y-67454200D02*
X171769047Y-67492295D01*
X171769047Y-67492295D02*
X171692857Y-67492295D01*
X171692857Y-67492295D02*
X171616666Y-67454200D01*
X171616666Y-67454200D02*
X171578571Y-67416104D01*
X171578571Y-67416104D02*
X171540476Y-67339914D01*
X171540476Y-67339914D02*
X171502380Y-67187533D01*
X171502380Y-67187533D02*
X171502380Y-66997057D01*
X171502380Y-66997057D02*
X171540476Y-66844676D01*
X171540476Y-66844676D02*
X171578571Y-66768485D01*
X171578571Y-66768485D02*
X171616666Y-66730390D01*
X171616666Y-66730390D02*
X171692857Y-66692295D01*
X169978571Y-70032295D02*
X169978571Y-69232295D01*
X169978571Y-69232295D02*
X170283333Y-69232295D01*
X170283333Y-69232295D02*
X170359523Y-69270390D01*
X170359523Y-69270390D02*
X170397618Y-69308485D01*
X170397618Y-69308485D02*
X170435714Y-69384676D01*
X170435714Y-69384676D02*
X170435714Y-69498961D01*
X170435714Y-69498961D02*
X170397618Y-69575152D01*
X170397618Y-69575152D02*
X170359523Y-69613247D01*
X170359523Y-69613247D02*
X170283333Y-69651342D01*
X170283333Y-69651342D02*
X169978571Y-69651342D01*
X171197618Y-70032295D02*
X170740475Y-70032295D01*
X170969047Y-70032295D02*
X170969047Y-69232295D01*
X170969047Y-69232295D02*
X170892856Y-69346580D01*
X170892856Y-69346580D02*
X170816666Y-69422771D01*
X170816666Y-69422771D02*
X170740475Y-69460866D01*
X171578571Y-70032295D02*
X171730952Y-70032295D01*
X171730952Y-70032295D02*
X171807142Y-69994200D01*
X171807142Y-69994200D02*
X171845238Y-69956104D01*
X171845238Y-69956104D02*
X171921428Y-69841819D01*
X171921428Y-69841819D02*
X171959523Y-69689438D01*
X171959523Y-69689438D02*
X171959523Y-69384676D01*
X171959523Y-69384676D02*
X171921428Y-69308485D01*
X171921428Y-69308485D02*
X171883333Y-69270390D01*
X171883333Y-69270390D02*
X171807142Y-69232295D01*
X171807142Y-69232295D02*
X171654761Y-69232295D01*
X171654761Y-69232295D02*
X171578571Y-69270390D01*
X171578571Y-69270390D02*
X171540476Y-69308485D01*
X171540476Y-69308485D02*
X171502380Y-69384676D01*
X171502380Y-69384676D02*
X171502380Y-69575152D01*
X171502380Y-69575152D02*
X171540476Y-69651342D01*
X171540476Y-69651342D02*
X171578571Y-69689438D01*
X171578571Y-69689438D02*
X171654761Y-69727533D01*
X171654761Y-69727533D02*
X171807142Y-69727533D01*
X171807142Y-69727533D02*
X171883333Y-69689438D01*
X171883333Y-69689438D02*
X171921428Y-69651342D01*
X171921428Y-69651342D02*
X171959523Y-69575152D01*
X169978571Y-72572295D02*
X169978571Y-71772295D01*
X169978571Y-71772295D02*
X170283333Y-71772295D01*
X170283333Y-71772295D02*
X170359523Y-71810390D01*
X170359523Y-71810390D02*
X170397618Y-71848485D01*
X170397618Y-71848485D02*
X170435714Y-71924676D01*
X170435714Y-71924676D02*
X170435714Y-72038961D01*
X170435714Y-72038961D02*
X170397618Y-72115152D01*
X170397618Y-72115152D02*
X170359523Y-72153247D01*
X170359523Y-72153247D02*
X170283333Y-72191342D01*
X170283333Y-72191342D02*
X169978571Y-72191342D01*
X171197618Y-72572295D02*
X170740475Y-72572295D01*
X170969047Y-72572295D02*
X170969047Y-71772295D01*
X170969047Y-71772295D02*
X170892856Y-71886580D01*
X170892856Y-71886580D02*
X170816666Y-71962771D01*
X170816666Y-71962771D02*
X170740475Y-72000866D01*
X171654761Y-72115152D02*
X171578571Y-72077057D01*
X171578571Y-72077057D02*
X171540476Y-72038961D01*
X171540476Y-72038961D02*
X171502380Y-71962771D01*
X171502380Y-71962771D02*
X171502380Y-71924676D01*
X171502380Y-71924676D02*
X171540476Y-71848485D01*
X171540476Y-71848485D02*
X171578571Y-71810390D01*
X171578571Y-71810390D02*
X171654761Y-71772295D01*
X171654761Y-71772295D02*
X171807142Y-71772295D01*
X171807142Y-71772295D02*
X171883333Y-71810390D01*
X171883333Y-71810390D02*
X171921428Y-71848485D01*
X171921428Y-71848485D02*
X171959523Y-71924676D01*
X171959523Y-71924676D02*
X171959523Y-71962771D01*
X171959523Y-71962771D02*
X171921428Y-72038961D01*
X171921428Y-72038961D02*
X171883333Y-72077057D01*
X171883333Y-72077057D02*
X171807142Y-72115152D01*
X171807142Y-72115152D02*
X171654761Y-72115152D01*
X171654761Y-72115152D02*
X171578571Y-72153247D01*
X171578571Y-72153247D02*
X171540476Y-72191342D01*
X171540476Y-72191342D02*
X171502380Y-72267533D01*
X171502380Y-72267533D02*
X171502380Y-72419914D01*
X171502380Y-72419914D02*
X171540476Y-72496104D01*
X171540476Y-72496104D02*
X171578571Y-72534200D01*
X171578571Y-72534200D02*
X171654761Y-72572295D01*
X171654761Y-72572295D02*
X171807142Y-72572295D01*
X171807142Y-72572295D02*
X171883333Y-72534200D01*
X171883333Y-72534200D02*
X171921428Y-72496104D01*
X171921428Y-72496104D02*
X171959523Y-72419914D01*
X171959523Y-72419914D02*
X171959523Y-72267533D01*
X171959523Y-72267533D02*
X171921428Y-72191342D01*
X171921428Y-72191342D02*
X171883333Y-72153247D01*
X171883333Y-72153247D02*
X171807142Y-72115152D01*
X169978571Y-75112295D02*
X169978571Y-74312295D01*
X169978571Y-74312295D02*
X170283333Y-74312295D01*
X170283333Y-74312295D02*
X170359523Y-74350390D01*
X170359523Y-74350390D02*
X170397618Y-74388485D01*
X170397618Y-74388485D02*
X170435714Y-74464676D01*
X170435714Y-74464676D02*
X170435714Y-74578961D01*
X170435714Y-74578961D02*
X170397618Y-74655152D01*
X170397618Y-74655152D02*
X170359523Y-74693247D01*
X170359523Y-74693247D02*
X170283333Y-74731342D01*
X170283333Y-74731342D02*
X169978571Y-74731342D01*
X171197618Y-75112295D02*
X170740475Y-75112295D01*
X170969047Y-75112295D02*
X170969047Y-74312295D01*
X170969047Y-74312295D02*
X170892856Y-74426580D01*
X170892856Y-74426580D02*
X170816666Y-74502771D01*
X170816666Y-74502771D02*
X170740475Y-74540866D01*
X171921428Y-74312295D02*
X171540476Y-74312295D01*
X171540476Y-74312295D02*
X171502380Y-74693247D01*
X171502380Y-74693247D02*
X171540476Y-74655152D01*
X171540476Y-74655152D02*
X171616666Y-74617057D01*
X171616666Y-74617057D02*
X171807142Y-74617057D01*
X171807142Y-74617057D02*
X171883333Y-74655152D01*
X171883333Y-74655152D02*
X171921428Y-74693247D01*
X171921428Y-74693247D02*
X171959523Y-74769438D01*
X171959523Y-74769438D02*
X171959523Y-74959914D01*
X171959523Y-74959914D02*
X171921428Y-75036104D01*
X171921428Y-75036104D02*
X171883333Y-75074200D01*
X171883333Y-75074200D02*
X171807142Y-75112295D01*
X171807142Y-75112295D02*
X171616666Y-75112295D01*
X171616666Y-75112295D02*
X171540476Y-75074200D01*
X171540476Y-75074200D02*
X171502380Y-75036104D01*
X169978571Y-77652295D02*
X169978571Y-76852295D01*
X169978571Y-76852295D02*
X170283333Y-76852295D01*
X170283333Y-76852295D02*
X170359523Y-76890390D01*
X170359523Y-76890390D02*
X170397618Y-76928485D01*
X170397618Y-76928485D02*
X170435714Y-77004676D01*
X170435714Y-77004676D02*
X170435714Y-77118961D01*
X170435714Y-77118961D02*
X170397618Y-77195152D01*
X170397618Y-77195152D02*
X170359523Y-77233247D01*
X170359523Y-77233247D02*
X170283333Y-77271342D01*
X170283333Y-77271342D02*
X169978571Y-77271342D01*
X171197618Y-77652295D02*
X170740475Y-77652295D01*
X170969047Y-77652295D02*
X170969047Y-76852295D01*
X170969047Y-76852295D02*
X170892856Y-76966580D01*
X170892856Y-76966580D02*
X170816666Y-77042771D01*
X170816666Y-77042771D02*
X170740475Y-77080866D01*
X171883333Y-77118961D02*
X171883333Y-77652295D01*
X171692857Y-76814200D02*
X171502380Y-77385628D01*
X171502380Y-77385628D02*
X171997619Y-77385628D01*
X169978571Y-80192295D02*
X169978571Y-79392295D01*
X169978571Y-79392295D02*
X170283333Y-79392295D01*
X170283333Y-79392295D02*
X170359523Y-79430390D01*
X170359523Y-79430390D02*
X170397618Y-79468485D01*
X170397618Y-79468485D02*
X170435714Y-79544676D01*
X170435714Y-79544676D02*
X170435714Y-79658961D01*
X170435714Y-79658961D02*
X170397618Y-79735152D01*
X170397618Y-79735152D02*
X170359523Y-79773247D01*
X170359523Y-79773247D02*
X170283333Y-79811342D01*
X170283333Y-79811342D02*
X169978571Y-79811342D01*
X171197618Y-80192295D02*
X170740475Y-80192295D01*
X170969047Y-80192295D02*
X170969047Y-79392295D01*
X170969047Y-79392295D02*
X170892856Y-79506580D01*
X170892856Y-79506580D02*
X170816666Y-79582771D01*
X170816666Y-79582771D02*
X170740475Y-79620866D01*
X171883333Y-79392295D02*
X171730952Y-79392295D01*
X171730952Y-79392295D02*
X171654761Y-79430390D01*
X171654761Y-79430390D02*
X171616666Y-79468485D01*
X171616666Y-79468485D02*
X171540476Y-79582771D01*
X171540476Y-79582771D02*
X171502380Y-79735152D01*
X171502380Y-79735152D02*
X171502380Y-80039914D01*
X171502380Y-80039914D02*
X171540476Y-80116104D01*
X171540476Y-80116104D02*
X171578571Y-80154200D01*
X171578571Y-80154200D02*
X171654761Y-80192295D01*
X171654761Y-80192295D02*
X171807142Y-80192295D01*
X171807142Y-80192295D02*
X171883333Y-80154200D01*
X171883333Y-80154200D02*
X171921428Y-80116104D01*
X171921428Y-80116104D02*
X171959523Y-80039914D01*
X171959523Y-80039914D02*
X171959523Y-79849438D01*
X171959523Y-79849438D02*
X171921428Y-79773247D01*
X171921428Y-79773247D02*
X171883333Y-79735152D01*
X171883333Y-79735152D02*
X171807142Y-79697057D01*
X171807142Y-79697057D02*
X171654761Y-79697057D01*
X171654761Y-79697057D02*
X171578571Y-79735152D01*
X171578571Y-79735152D02*
X171540476Y-79773247D01*
X171540476Y-79773247D02*
X171502380Y-79849438D01*
X169978571Y-82732295D02*
X169978571Y-81932295D01*
X169978571Y-81932295D02*
X170283333Y-81932295D01*
X170283333Y-81932295D02*
X170359523Y-81970390D01*
X170359523Y-81970390D02*
X170397618Y-82008485D01*
X170397618Y-82008485D02*
X170435714Y-82084676D01*
X170435714Y-82084676D02*
X170435714Y-82198961D01*
X170435714Y-82198961D02*
X170397618Y-82275152D01*
X170397618Y-82275152D02*
X170359523Y-82313247D01*
X170359523Y-82313247D02*
X170283333Y-82351342D01*
X170283333Y-82351342D02*
X169978571Y-82351342D01*
X171197618Y-82732295D02*
X170740475Y-82732295D01*
X170969047Y-82732295D02*
X170969047Y-81932295D01*
X170969047Y-81932295D02*
X170892856Y-82046580D01*
X170892856Y-82046580D02*
X170816666Y-82122771D01*
X170816666Y-82122771D02*
X170740475Y-82160866D01*
X171692857Y-81932295D02*
X171769047Y-81932295D01*
X171769047Y-81932295D02*
X171845238Y-81970390D01*
X171845238Y-81970390D02*
X171883333Y-82008485D01*
X171883333Y-82008485D02*
X171921428Y-82084676D01*
X171921428Y-82084676D02*
X171959523Y-82237057D01*
X171959523Y-82237057D02*
X171959523Y-82427533D01*
X171959523Y-82427533D02*
X171921428Y-82579914D01*
X171921428Y-82579914D02*
X171883333Y-82656104D01*
X171883333Y-82656104D02*
X171845238Y-82694200D01*
X171845238Y-82694200D02*
X171769047Y-82732295D01*
X171769047Y-82732295D02*
X171692857Y-82732295D01*
X171692857Y-82732295D02*
X171616666Y-82694200D01*
X171616666Y-82694200D02*
X171578571Y-82656104D01*
X171578571Y-82656104D02*
X171540476Y-82579914D01*
X171540476Y-82579914D02*
X171502380Y-82427533D01*
X171502380Y-82427533D02*
X171502380Y-82237057D01*
X171502380Y-82237057D02*
X171540476Y-82084676D01*
X171540476Y-82084676D02*
X171578571Y-82008485D01*
X171578571Y-82008485D02*
X171616666Y-81970390D01*
X171616666Y-81970390D02*
X171692857Y-81932295D01*
X179578571Y-54792295D02*
X179578571Y-53992295D01*
X179578571Y-53992295D02*
X179883333Y-53992295D01*
X179883333Y-53992295D02*
X179959523Y-54030390D01*
X179959523Y-54030390D02*
X179997618Y-54068485D01*
X179997618Y-54068485D02*
X180035714Y-54144676D01*
X180035714Y-54144676D02*
X180035714Y-54258961D01*
X180035714Y-54258961D02*
X179997618Y-54335152D01*
X179997618Y-54335152D02*
X179959523Y-54373247D01*
X179959523Y-54373247D02*
X179883333Y-54411342D01*
X179883333Y-54411342D02*
X179578571Y-54411342D01*
X180530952Y-53992295D02*
X180607142Y-53992295D01*
X180607142Y-53992295D02*
X180683333Y-54030390D01*
X180683333Y-54030390D02*
X180721428Y-54068485D01*
X180721428Y-54068485D02*
X180759523Y-54144676D01*
X180759523Y-54144676D02*
X180797618Y-54297057D01*
X180797618Y-54297057D02*
X180797618Y-54487533D01*
X180797618Y-54487533D02*
X180759523Y-54639914D01*
X180759523Y-54639914D02*
X180721428Y-54716104D01*
X180721428Y-54716104D02*
X180683333Y-54754200D01*
X180683333Y-54754200D02*
X180607142Y-54792295D01*
X180607142Y-54792295D02*
X180530952Y-54792295D01*
X180530952Y-54792295D02*
X180454761Y-54754200D01*
X180454761Y-54754200D02*
X180416666Y-54716104D01*
X180416666Y-54716104D02*
X180378571Y-54639914D01*
X180378571Y-54639914D02*
X180340475Y-54487533D01*
X180340475Y-54487533D02*
X180340475Y-54297057D01*
X180340475Y-54297057D02*
X180378571Y-54144676D01*
X180378571Y-54144676D02*
X180416666Y-54068485D01*
X180416666Y-54068485D02*
X180454761Y-54030390D01*
X180454761Y-54030390D02*
X180530952Y-53992295D01*
X181559523Y-54792295D02*
X181102380Y-54792295D01*
X181330952Y-54792295D02*
X181330952Y-53992295D01*
X181330952Y-53992295D02*
X181254761Y-54106580D01*
X181254761Y-54106580D02*
X181178571Y-54182771D01*
X181178571Y-54182771D02*
X181102380Y-54220866D01*
X179578571Y-57332295D02*
X179578571Y-56532295D01*
X179578571Y-56532295D02*
X179883333Y-56532295D01*
X179883333Y-56532295D02*
X179959523Y-56570390D01*
X179959523Y-56570390D02*
X179997618Y-56608485D01*
X179997618Y-56608485D02*
X180035714Y-56684676D01*
X180035714Y-56684676D02*
X180035714Y-56798961D01*
X180035714Y-56798961D02*
X179997618Y-56875152D01*
X179997618Y-56875152D02*
X179959523Y-56913247D01*
X179959523Y-56913247D02*
X179883333Y-56951342D01*
X179883333Y-56951342D02*
X179578571Y-56951342D01*
X180530952Y-56532295D02*
X180607142Y-56532295D01*
X180607142Y-56532295D02*
X180683333Y-56570390D01*
X180683333Y-56570390D02*
X180721428Y-56608485D01*
X180721428Y-56608485D02*
X180759523Y-56684676D01*
X180759523Y-56684676D02*
X180797618Y-56837057D01*
X180797618Y-56837057D02*
X180797618Y-57027533D01*
X180797618Y-57027533D02*
X180759523Y-57179914D01*
X180759523Y-57179914D02*
X180721428Y-57256104D01*
X180721428Y-57256104D02*
X180683333Y-57294200D01*
X180683333Y-57294200D02*
X180607142Y-57332295D01*
X180607142Y-57332295D02*
X180530952Y-57332295D01*
X180530952Y-57332295D02*
X180454761Y-57294200D01*
X180454761Y-57294200D02*
X180416666Y-57256104D01*
X180416666Y-57256104D02*
X180378571Y-57179914D01*
X180378571Y-57179914D02*
X180340475Y-57027533D01*
X180340475Y-57027533D02*
X180340475Y-56837057D01*
X180340475Y-56837057D02*
X180378571Y-56684676D01*
X180378571Y-56684676D02*
X180416666Y-56608485D01*
X180416666Y-56608485D02*
X180454761Y-56570390D01*
X180454761Y-56570390D02*
X180530952Y-56532295D01*
X181292857Y-56532295D02*
X181369047Y-56532295D01*
X181369047Y-56532295D02*
X181445238Y-56570390D01*
X181445238Y-56570390D02*
X181483333Y-56608485D01*
X181483333Y-56608485D02*
X181521428Y-56684676D01*
X181521428Y-56684676D02*
X181559523Y-56837057D01*
X181559523Y-56837057D02*
X181559523Y-57027533D01*
X181559523Y-57027533D02*
X181521428Y-57179914D01*
X181521428Y-57179914D02*
X181483333Y-57256104D01*
X181483333Y-57256104D02*
X181445238Y-57294200D01*
X181445238Y-57294200D02*
X181369047Y-57332295D01*
X181369047Y-57332295D02*
X181292857Y-57332295D01*
X181292857Y-57332295D02*
X181216666Y-57294200D01*
X181216666Y-57294200D02*
X181178571Y-57256104D01*
X181178571Y-57256104D02*
X181140476Y-57179914D01*
X181140476Y-57179914D02*
X181102380Y-57027533D01*
X181102380Y-57027533D02*
X181102380Y-56837057D01*
X181102380Y-56837057D02*
X181140476Y-56684676D01*
X181140476Y-56684676D02*
X181178571Y-56608485D01*
X181178571Y-56608485D02*
X181216666Y-56570390D01*
X181216666Y-56570390D02*
X181292857Y-56532295D01*
X179940476Y-59110390D02*
X179864286Y-59072295D01*
X179864286Y-59072295D02*
X179750000Y-59072295D01*
X179750000Y-59072295D02*
X179635714Y-59110390D01*
X179635714Y-59110390D02*
X179559524Y-59186580D01*
X179559524Y-59186580D02*
X179521429Y-59262771D01*
X179521429Y-59262771D02*
X179483333Y-59415152D01*
X179483333Y-59415152D02*
X179483333Y-59529438D01*
X179483333Y-59529438D02*
X179521429Y-59681819D01*
X179521429Y-59681819D02*
X179559524Y-59758009D01*
X179559524Y-59758009D02*
X179635714Y-59834200D01*
X179635714Y-59834200D02*
X179750000Y-59872295D01*
X179750000Y-59872295D02*
X179826191Y-59872295D01*
X179826191Y-59872295D02*
X179940476Y-59834200D01*
X179940476Y-59834200D02*
X179978572Y-59796104D01*
X179978572Y-59796104D02*
X179978572Y-59529438D01*
X179978572Y-59529438D02*
X179826191Y-59529438D01*
X180321429Y-59872295D02*
X180321429Y-59072295D01*
X180321429Y-59072295D02*
X180778572Y-59872295D01*
X180778572Y-59872295D02*
X180778572Y-59072295D01*
X181159524Y-59872295D02*
X181159524Y-59072295D01*
X181159524Y-59072295D02*
X181350000Y-59072295D01*
X181350000Y-59072295D02*
X181464286Y-59110390D01*
X181464286Y-59110390D02*
X181540476Y-59186580D01*
X181540476Y-59186580D02*
X181578571Y-59262771D01*
X181578571Y-59262771D02*
X181616667Y-59415152D01*
X181616667Y-59415152D02*
X181616667Y-59529438D01*
X181616667Y-59529438D02*
X181578571Y-59681819D01*
X181578571Y-59681819D02*
X181540476Y-59758009D01*
X181540476Y-59758009D02*
X181464286Y-59834200D01*
X181464286Y-59834200D02*
X181350000Y-59872295D01*
X181350000Y-59872295D02*
X181159524Y-59872295D01*
X179940476Y-61650390D02*
X179864286Y-61612295D01*
X179864286Y-61612295D02*
X179750000Y-61612295D01*
X179750000Y-61612295D02*
X179635714Y-61650390D01*
X179635714Y-61650390D02*
X179559524Y-61726580D01*
X179559524Y-61726580D02*
X179521429Y-61802771D01*
X179521429Y-61802771D02*
X179483333Y-61955152D01*
X179483333Y-61955152D02*
X179483333Y-62069438D01*
X179483333Y-62069438D02*
X179521429Y-62221819D01*
X179521429Y-62221819D02*
X179559524Y-62298009D01*
X179559524Y-62298009D02*
X179635714Y-62374200D01*
X179635714Y-62374200D02*
X179750000Y-62412295D01*
X179750000Y-62412295D02*
X179826191Y-62412295D01*
X179826191Y-62412295D02*
X179940476Y-62374200D01*
X179940476Y-62374200D02*
X179978572Y-62336104D01*
X179978572Y-62336104D02*
X179978572Y-62069438D01*
X179978572Y-62069438D02*
X179826191Y-62069438D01*
X180321429Y-62412295D02*
X180321429Y-61612295D01*
X180321429Y-61612295D02*
X180778572Y-62412295D01*
X180778572Y-62412295D02*
X180778572Y-61612295D01*
X181159524Y-62412295D02*
X181159524Y-61612295D01*
X181159524Y-61612295D02*
X181350000Y-61612295D01*
X181350000Y-61612295D02*
X181464286Y-61650390D01*
X181464286Y-61650390D02*
X181540476Y-61726580D01*
X181540476Y-61726580D02*
X181578571Y-61802771D01*
X181578571Y-61802771D02*
X181616667Y-61955152D01*
X181616667Y-61955152D02*
X181616667Y-62069438D01*
X181616667Y-62069438D02*
X181578571Y-62221819D01*
X181578571Y-62221819D02*
X181540476Y-62298009D01*
X181540476Y-62298009D02*
X181464286Y-62374200D01*
X181464286Y-62374200D02*
X181350000Y-62412295D01*
X181350000Y-62412295D02*
X181159524Y-62412295D01*
X179578571Y-64952295D02*
X179578571Y-64152295D01*
X179578571Y-64152295D02*
X179883333Y-64152295D01*
X179883333Y-64152295D02*
X179959523Y-64190390D01*
X179959523Y-64190390D02*
X179997618Y-64228485D01*
X179997618Y-64228485D02*
X180035714Y-64304676D01*
X180035714Y-64304676D02*
X180035714Y-64418961D01*
X180035714Y-64418961D02*
X179997618Y-64495152D01*
X179997618Y-64495152D02*
X179959523Y-64533247D01*
X179959523Y-64533247D02*
X179883333Y-64571342D01*
X179883333Y-64571342D02*
X179578571Y-64571342D01*
X180530952Y-64152295D02*
X180607142Y-64152295D01*
X180607142Y-64152295D02*
X180683333Y-64190390D01*
X180683333Y-64190390D02*
X180721428Y-64228485D01*
X180721428Y-64228485D02*
X180759523Y-64304676D01*
X180759523Y-64304676D02*
X180797618Y-64457057D01*
X180797618Y-64457057D02*
X180797618Y-64647533D01*
X180797618Y-64647533D02*
X180759523Y-64799914D01*
X180759523Y-64799914D02*
X180721428Y-64876104D01*
X180721428Y-64876104D02*
X180683333Y-64914200D01*
X180683333Y-64914200D02*
X180607142Y-64952295D01*
X180607142Y-64952295D02*
X180530952Y-64952295D01*
X180530952Y-64952295D02*
X180454761Y-64914200D01*
X180454761Y-64914200D02*
X180416666Y-64876104D01*
X180416666Y-64876104D02*
X180378571Y-64799914D01*
X180378571Y-64799914D02*
X180340475Y-64647533D01*
X180340475Y-64647533D02*
X180340475Y-64457057D01*
X180340475Y-64457057D02*
X180378571Y-64304676D01*
X180378571Y-64304676D02*
X180416666Y-64228485D01*
X180416666Y-64228485D02*
X180454761Y-64190390D01*
X180454761Y-64190390D02*
X180530952Y-64152295D01*
X181102380Y-64228485D02*
X181140476Y-64190390D01*
X181140476Y-64190390D02*
X181216666Y-64152295D01*
X181216666Y-64152295D02*
X181407142Y-64152295D01*
X181407142Y-64152295D02*
X181483333Y-64190390D01*
X181483333Y-64190390D02*
X181521428Y-64228485D01*
X181521428Y-64228485D02*
X181559523Y-64304676D01*
X181559523Y-64304676D02*
X181559523Y-64380866D01*
X181559523Y-64380866D02*
X181521428Y-64495152D01*
X181521428Y-64495152D02*
X181064285Y-64952295D01*
X181064285Y-64952295D02*
X181559523Y-64952295D01*
X179578571Y-67492295D02*
X179578571Y-66692295D01*
X179578571Y-66692295D02*
X179883333Y-66692295D01*
X179883333Y-66692295D02*
X179959523Y-66730390D01*
X179959523Y-66730390D02*
X179997618Y-66768485D01*
X179997618Y-66768485D02*
X180035714Y-66844676D01*
X180035714Y-66844676D02*
X180035714Y-66958961D01*
X180035714Y-66958961D02*
X179997618Y-67035152D01*
X179997618Y-67035152D02*
X179959523Y-67073247D01*
X179959523Y-67073247D02*
X179883333Y-67111342D01*
X179883333Y-67111342D02*
X179578571Y-67111342D01*
X180530952Y-66692295D02*
X180607142Y-66692295D01*
X180607142Y-66692295D02*
X180683333Y-66730390D01*
X180683333Y-66730390D02*
X180721428Y-66768485D01*
X180721428Y-66768485D02*
X180759523Y-66844676D01*
X180759523Y-66844676D02*
X180797618Y-66997057D01*
X180797618Y-66997057D02*
X180797618Y-67187533D01*
X180797618Y-67187533D02*
X180759523Y-67339914D01*
X180759523Y-67339914D02*
X180721428Y-67416104D01*
X180721428Y-67416104D02*
X180683333Y-67454200D01*
X180683333Y-67454200D02*
X180607142Y-67492295D01*
X180607142Y-67492295D02*
X180530952Y-67492295D01*
X180530952Y-67492295D02*
X180454761Y-67454200D01*
X180454761Y-67454200D02*
X180416666Y-67416104D01*
X180416666Y-67416104D02*
X180378571Y-67339914D01*
X180378571Y-67339914D02*
X180340475Y-67187533D01*
X180340475Y-67187533D02*
X180340475Y-66997057D01*
X180340475Y-66997057D02*
X180378571Y-66844676D01*
X180378571Y-66844676D02*
X180416666Y-66768485D01*
X180416666Y-66768485D02*
X180454761Y-66730390D01*
X180454761Y-66730390D02*
X180530952Y-66692295D01*
X181064285Y-66692295D02*
X181559523Y-66692295D01*
X181559523Y-66692295D02*
X181292857Y-66997057D01*
X181292857Y-66997057D02*
X181407142Y-66997057D01*
X181407142Y-66997057D02*
X181483333Y-67035152D01*
X181483333Y-67035152D02*
X181521428Y-67073247D01*
X181521428Y-67073247D02*
X181559523Y-67149438D01*
X181559523Y-67149438D02*
X181559523Y-67339914D01*
X181559523Y-67339914D02*
X181521428Y-67416104D01*
X181521428Y-67416104D02*
X181483333Y-67454200D01*
X181483333Y-67454200D02*
X181407142Y-67492295D01*
X181407142Y-67492295D02*
X181178571Y-67492295D01*
X181178571Y-67492295D02*
X181102380Y-67454200D01*
X181102380Y-67454200D02*
X181064285Y-67416104D01*
X179578571Y-70032295D02*
X179578571Y-69232295D01*
X179578571Y-69232295D02*
X179883333Y-69232295D01*
X179883333Y-69232295D02*
X179959523Y-69270390D01*
X179959523Y-69270390D02*
X179997618Y-69308485D01*
X179997618Y-69308485D02*
X180035714Y-69384676D01*
X180035714Y-69384676D02*
X180035714Y-69498961D01*
X180035714Y-69498961D02*
X179997618Y-69575152D01*
X179997618Y-69575152D02*
X179959523Y-69613247D01*
X179959523Y-69613247D02*
X179883333Y-69651342D01*
X179883333Y-69651342D02*
X179578571Y-69651342D01*
X180530952Y-69232295D02*
X180607142Y-69232295D01*
X180607142Y-69232295D02*
X180683333Y-69270390D01*
X180683333Y-69270390D02*
X180721428Y-69308485D01*
X180721428Y-69308485D02*
X180759523Y-69384676D01*
X180759523Y-69384676D02*
X180797618Y-69537057D01*
X180797618Y-69537057D02*
X180797618Y-69727533D01*
X180797618Y-69727533D02*
X180759523Y-69879914D01*
X180759523Y-69879914D02*
X180721428Y-69956104D01*
X180721428Y-69956104D02*
X180683333Y-69994200D01*
X180683333Y-69994200D02*
X180607142Y-70032295D01*
X180607142Y-70032295D02*
X180530952Y-70032295D01*
X180530952Y-70032295D02*
X180454761Y-69994200D01*
X180454761Y-69994200D02*
X180416666Y-69956104D01*
X180416666Y-69956104D02*
X180378571Y-69879914D01*
X180378571Y-69879914D02*
X180340475Y-69727533D01*
X180340475Y-69727533D02*
X180340475Y-69537057D01*
X180340475Y-69537057D02*
X180378571Y-69384676D01*
X180378571Y-69384676D02*
X180416666Y-69308485D01*
X180416666Y-69308485D02*
X180454761Y-69270390D01*
X180454761Y-69270390D02*
X180530952Y-69232295D01*
X181483333Y-69498961D02*
X181483333Y-70032295D01*
X181292857Y-69194200D02*
X181102380Y-69765628D01*
X181102380Y-69765628D02*
X181597619Y-69765628D01*
X179578571Y-72572295D02*
X179578571Y-71772295D01*
X179578571Y-71772295D02*
X179883333Y-71772295D01*
X179883333Y-71772295D02*
X179959523Y-71810390D01*
X179959523Y-71810390D02*
X179997618Y-71848485D01*
X179997618Y-71848485D02*
X180035714Y-71924676D01*
X180035714Y-71924676D02*
X180035714Y-72038961D01*
X180035714Y-72038961D02*
X179997618Y-72115152D01*
X179997618Y-72115152D02*
X179959523Y-72153247D01*
X179959523Y-72153247D02*
X179883333Y-72191342D01*
X179883333Y-72191342D02*
X179578571Y-72191342D01*
X180530952Y-71772295D02*
X180607142Y-71772295D01*
X180607142Y-71772295D02*
X180683333Y-71810390D01*
X180683333Y-71810390D02*
X180721428Y-71848485D01*
X180721428Y-71848485D02*
X180759523Y-71924676D01*
X180759523Y-71924676D02*
X180797618Y-72077057D01*
X180797618Y-72077057D02*
X180797618Y-72267533D01*
X180797618Y-72267533D02*
X180759523Y-72419914D01*
X180759523Y-72419914D02*
X180721428Y-72496104D01*
X180721428Y-72496104D02*
X180683333Y-72534200D01*
X180683333Y-72534200D02*
X180607142Y-72572295D01*
X180607142Y-72572295D02*
X180530952Y-72572295D01*
X180530952Y-72572295D02*
X180454761Y-72534200D01*
X180454761Y-72534200D02*
X180416666Y-72496104D01*
X180416666Y-72496104D02*
X180378571Y-72419914D01*
X180378571Y-72419914D02*
X180340475Y-72267533D01*
X180340475Y-72267533D02*
X180340475Y-72077057D01*
X180340475Y-72077057D02*
X180378571Y-71924676D01*
X180378571Y-71924676D02*
X180416666Y-71848485D01*
X180416666Y-71848485D02*
X180454761Y-71810390D01*
X180454761Y-71810390D02*
X180530952Y-71772295D01*
X181521428Y-71772295D02*
X181140476Y-71772295D01*
X181140476Y-71772295D02*
X181102380Y-72153247D01*
X181102380Y-72153247D02*
X181140476Y-72115152D01*
X181140476Y-72115152D02*
X181216666Y-72077057D01*
X181216666Y-72077057D02*
X181407142Y-72077057D01*
X181407142Y-72077057D02*
X181483333Y-72115152D01*
X181483333Y-72115152D02*
X181521428Y-72153247D01*
X181521428Y-72153247D02*
X181559523Y-72229438D01*
X181559523Y-72229438D02*
X181559523Y-72419914D01*
X181559523Y-72419914D02*
X181521428Y-72496104D01*
X181521428Y-72496104D02*
X181483333Y-72534200D01*
X181483333Y-72534200D02*
X181407142Y-72572295D01*
X181407142Y-72572295D02*
X181216666Y-72572295D01*
X181216666Y-72572295D02*
X181140476Y-72534200D01*
X181140476Y-72534200D02*
X181102380Y-72496104D01*
X179578571Y-75112295D02*
X179578571Y-74312295D01*
X179578571Y-74312295D02*
X179883333Y-74312295D01*
X179883333Y-74312295D02*
X179959523Y-74350390D01*
X179959523Y-74350390D02*
X179997618Y-74388485D01*
X179997618Y-74388485D02*
X180035714Y-74464676D01*
X180035714Y-74464676D02*
X180035714Y-74578961D01*
X180035714Y-74578961D02*
X179997618Y-74655152D01*
X179997618Y-74655152D02*
X179959523Y-74693247D01*
X179959523Y-74693247D02*
X179883333Y-74731342D01*
X179883333Y-74731342D02*
X179578571Y-74731342D01*
X180530952Y-74312295D02*
X180607142Y-74312295D01*
X180607142Y-74312295D02*
X180683333Y-74350390D01*
X180683333Y-74350390D02*
X180721428Y-74388485D01*
X180721428Y-74388485D02*
X180759523Y-74464676D01*
X180759523Y-74464676D02*
X180797618Y-74617057D01*
X180797618Y-74617057D02*
X180797618Y-74807533D01*
X180797618Y-74807533D02*
X180759523Y-74959914D01*
X180759523Y-74959914D02*
X180721428Y-75036104D01*
X180721428Y-75036104D02*
X180683333Y-75074200D01*
X180683333Y-75074200D02*
X180607142Y-75112295D01*
X180607142Y-75112295D02*
X180530952Y-75112295D01*
X180530952Y-75112295D02*
X180454761Y-75074200D01*
X180454761Y-75074200D02*
X180416666Y-75036104D01*
X180416666Y-75036104D02*
X180378571Y-74959914D01*
X180378571Y-74959914D02*
X180340475Y-74807533D01*
X180340475Y-74807533D02*
X180340475Y-74617057D01*
X180340475Y-74617057D02*
X180378571Y-74464676D01*
X180378571Y-74464676D02*
X180416666Y-74388485D01*
X180416666Y-74388485D02*
X180454761Y-74350390D01*
X180454761Y-74350390D02*
X180530952Y-74312295D01*
X181483333Y-74312295D02*
X181330952Y-74312295D01*
X181330952Y-74312295D02*
X181254761Y-74350390D01*
X181254761Y-74350390D02*
X181216666Y-74388485D01*
X181216666Y-74388485D02*
X181140476Y-74502771D01*
X181140476Y-74502771D02*
X181102380Y-74655152D01*
X181102380Y-74655152D02*
X181102380Y-74959914D01*
X181102380Y-74959914D02*
X181140476Y-75036104D01*
X181140476Y-75036104D02*
X181178571Y-75074200D01*
X181178571Y-75074200D02*
X181254761Y-75112295D01*
X181254761Y-75112295D02*
X181407142Y-75112295D01*
X181407142Y-75112295D02*
X181483333Y-75074200D01*
X181483333Y-75074200D02*
X181521428Y-75036104D01*
X181521428Y-75036104D02*
X181559523Y-74959914D01*
X181559523Y-74959914D02*
X181559523Y-74769438D01*
X181559523Y-74769438D02*
X181521428Y-74693247D01*
X181521428Y-74693247D02*
X181483333Y-74655152D01*
X181483333Y-74655152D02*
X181407142Y-74617057D01*
X181407142Y-74617057D02*
X181254761Y-74617057D01*
X181254761Y-74617057D02*
X181178571Y-74655152D01*
X181178571Y-74655152D02*
X181140476Y-74693247D01*
X181140476Y-74693247D02*
X181102380Y-74769438D01*
X179578571Y-77652295D02*
X179578571Y-76852295D01*
X179578571Y-76852295D02*
X179883333Y-76852295D01*
X179883333Y-76852295D02*
X179959523Y-76890390D01*
X179959523Y-76890390D02*
X179997618Y-76928485D01*
X179997618Y-76928485D02*
X180035714Y-77004676D01*
X180035714Y-77004676D02*
X180035714Y-77118961D01*
X180035714Y-77118961D02*
X179997618Y-77195152D01*
X179997618Y-77195152D02*
X179959523Y-77233247D01*
X179959523Y-77233247D02*
X179883333Y-77271342D01*
X179883333Y-77271342D02*
X179578571Y-77271342D01*
X180530952Y-76852295D02*
X180607142Y-76852295D01*
X180607142Y-76852295D02*
X180683333Y-76890390D01*
X180683333Y-76890390D02*
X180721428Y-76928485D01*
X180721428Y-76928485D02*
X180759523Y-77004676D01*
X180759523Y-77004676D02*
X180797618Y-77157057D01*
X180797618Y-77157057D02*
X180797618Y-77347533D01*
X180797618Y-77347533D02*
X180759523Y-77499914D01*
X180759523Y-77499914D02*
X180721428Y-77576104D01*
X180721428Y-77576104D02*
X180683333Y-77614200D01*
X180683333Y-77614200D02*
X180607142Y-77652295D01*
X180607142Y-77652295D02*
X180530952Y-77652295D01*
X180530952Y-77652295D02*
X180454761Y-77614200D01*
X180454761Y-77614200D02*
X180416666Y-77576104D01*
X180416666Y-77576104D02*
X180378571Y-77499914D01*
X180378571Y-77499914D02*
X180340475Y-77347533D01*
X180340475Y-77347533D02*
X180340475Y-77157057D01*
X180340475Y-77157057D02*
X180378571Y-77004676D01*
X180378571Y-77004676D02*
X180416666Y-76928485D01*
X180416666Y-76928485D02*
X180454761Y-76890390D01*
X180454761Y-76890390D02*
X180530952Y-76852295D01*
X181064285Y-76852295D02*
X181597619Y-76852295D01*
X181597619Y-76852295D02*
X181254761Y-77652295D01*
X179578571Y-80192295D02*
X179578571Y-79392295D01*
X179578571Y-79392295D02*
X179883333Y-79392295D01*
X179883333Y-79392295D02*
X179959523Y-79430390D01*
X179959523Y-79430390D02*
X179997618Y-79468485D01*
X179997618Y-79468485D02*
X180035714Y-79544676D01*
X180035714Y-79544676D02*
X180035714Y-79658961D01*
X180035714Y-79658961D02*
X179997618Y-79735152D01*
X179997618Y-79735152D02*
X179959523Y-79773247D01*
X179959523Y-79773247D02*
X179883333Y-79811342D01*
X179883333Y-79811342D02*
X179578571Y-79811342D01*
X180530952Y-79392295D02*
X180607142Y-79392295D01*
X180607142Y-79392295D02*
X180683333Y-79430390D01*
X180683333Y-79430390D02*
X180721428Y-79468485D01*
X180721428Y-79468485D02*
X180759523Y-79544676D01*
X180759523Y-79544676D02*
X180797618Y-79697057D01*
X180797618Y-79697057D02*
X180797618Y-79887533D01*
X180797618Y-79887533D02*
X180759523Y-80039914D01*
X180759523Y-80039914D02*
X180721428Y-80116104D01*
X180721428Y-80116104D02*
X180683333Y-80154200D01*
X180683333Y-80154200D02*
X180607142Y-80192295D01*
X180607142Y-80192295D02*
X180530952Y-80192295D01*
X180530952Y-80192295D02*
X180454761Y-80154200D01*
X180454761Y-80154200D02*
X180416666Y-80116104D01*
X180416666Y-80116104D02*
X180378571Y-80039914D01*
X180378571Y-80039914D02*
X180340475Y-79887533D01*
X180340475Y-79887533D02*
X180340475Y-79697057D01*
X180340475Y-79697057D02*
X180378571Y-79544676D01*
X180378571Y-79544676D02*
X180416666Y-79468485D01*
X180416666Y-79468485D02*
X180454761Y-79430390D01*
X180454761Y-79430390D02*
X180530952Y-79392295D01*
X181254761Y-79735152D02*
X181178571Y-79697057D01*
X181178571Y-79697057D02*
X181140476Y-79658961D01*
X181140476Y-79658961D02*
X181102380Y-79582771D01*
X181102380Y-79582771D02*
X181102380Y-79544676D01*
X181102380Y-79544676D02*
X181140476Y-79468485D01*
X181140476Y-79468485D02*
X181178571Y-79430390D01*
X181178571Y-79430390D02*
X181254761Y-79392295D01*
X181254761Y-79392295D02*
X181407142Y-79392295D01*
X181407142Y-79392295D02*
X181483333Y-79430390D01*
X181483333Y-79430390D02*
X181521428Y-79468485D01*
X181521428Y-79468485D02*
X181559523Y-79544676D01*
X181559523Y-79544676D02*
X181559523Y-79582771D01*
X181559523Y-79582771D02*
X181521428Y-79658961D01*
X181521428Y-79658961D02*
X181483333Y-79697057D01*
X181483333Y-79697057D02*
X181407142Y-79735152D01*
X181407142Y-79735152D02*
X181254761Y-79735152D01*
X181254761Y-79735152D02*
X181178571Y-79773247D01*
X181178571Y-79773247D02*
X181140476Y-79811342D01*
X181140476Y-79811342D02*
X181102380Y-79887533D01*
X181102380Y-79887533D02*
X181102380Y-80039914D01*
X181102380Y-80039914D02*
X181140476Y-80116104D01*
X181140476Y-80116104D02*
X181178571Y-80154200D01*
X181178571Y-80154200D02*
X181254761Y-80192295D01*
X181254761Y-80192295D02*
X181407142Y-80192295D01*
X181407142Y-80192295D02*
X181483333Y-80154200D01*
X181483333Y-80154200D02*
X181521428Y-80116104D01*
X181521428Y-80116104D02*
X181559523Y-80039914D01*
X181559523Y-80039914D02*
X181559523Y-79887533D01*
X181559523Y-79887533D02*
X181521428Y-79811342D01*
X181521428Y-79811342D02*
X181483333Y-79773247D01*
X181483333Y-79773247D02*
X181407142Y-79735152D01*
X179578571Y-82732295D02*
X179578571Y-81932295D01*
X179578571Y-81932295D02*
X179883333Y-81932295D01*
X179883333Y-81932295D02*
X179959523Y-81970390D01*
X179959523Y-81970390D02*
X179997618Y-82008485D01*
X179997618Y-82008485D02*
X180035714Y-82084676D01*
X180035714Y-82084676D02*
X180035714Y-82198961D01*
X180035714Y-82198961D02*
X179997618Y-82275152D01*
X179997618Y-82275152D02*
X179959523Y-82313247D01*
X179959523Y-82313247D02*
X179883333Y-82351342D01*
X179883333Y-82351342D02*
X179578571Y-82351342D01*
X180530952Y-81932295D02*
X180607142Y-81932295D01*
X180607142Y-81932295D02*
X180683333Y-81970390D01*
X180683333Y-81970390D02*
X180721428Y-82008485D01*
X180721428Y-82008485D02*
X180759523Y-82084676D01*
X180759523Y-82084676D02*
X180797618Y-82237057D01*
X180797618Y-82237057D02*
X180797618Y-82427533D01*
X180797618Y-82427533D02*
X180759523Y-82579914D01*
X180759523Y-82579914D02*
X180721428Y-82656104D01*
X180721428Y-82656104D02*
X180683333Y-82694200D01*
X180683333Y-82694200D02*
X180607142Y-82732295D01*
X180607142Y-82732295D02*
X180530952Y-82732295D01*
X180530952Y-82732295D02*
X180454761Y-82694200D01*
X180454761Y-82694200D02*
X180416666Y-82656104D01*
X180416666Y-82656104D02*
X180378571Y-82579914D01*
X180378571Y-82579914D02*
X180340475Y-82427533D01*
X180340475Y-82427533D02*
X180340475Y-82237057D01*
X180340475Y-82237057D02*
X180378571Y-82084676D01*
X180378571Y-82084676D02*
X180416666Y-82008485D01*
X180416666Y-82008485D02*
X180454761Y-81970390D01*
X180454761Y-81970390D02*
X180530952Y-81932295D01*
X181178571Y-82732295D02*
X181330952Y-82732295D01*
X181330952Y-82732295D02*
X181407142Y-82694200D01*
X181407142Y-82694200D02*
X181445238Y-82656104D01*
X181445238Y-82656104D02*
X181521428Y-82541819D01*
X181521428Y-82541819D02*
X181559523Y-82389438D01*
X181559523Y-82389438D02*
X181559523Y-82084676D01*
X181559523Y-82084676D02*
X181521428Y-82008485D01*
X181521428Y-82008485D02*
X181483333Y-81970390D01*
X181483333Y-81970390D02*
X181407142Y-81932295D01*
X181407142Y-81932295D02*
X181254761Y-81932295D01*
X181254761Y-81932295D02*
X181178571Y-81970390D01*
X181178571Y-81970390D02*
X181140476Y-82008485D01*
X181140476Y-82008485D02*
X181102380Y-82084676D01*
X181102380Y-82084676D02*
X181102380Y-82275152D01*
X181102380Y-82275152D02*
X181140476Y-82351342D01*
X181140476Y-82351342D02*
X181178571Y-82389438D01*
X181178571Y-82389438D02*
X181254761Y-82427533D01*
X181254761Y-82427533D02*
X181407142Y-82427533D01*
X181407142Y-82427533D02*
X181483333Y-82389438D01*
X181483333Y-82389438D02*
X181521428Y-82351342D01*
X181521428Y-82351342D02*
X181559523Y-82275152D01*
X209897619Y-54792295D02*
X209630952Y-54411342D01*
X209440476Y-54792295D02*
X209440476Y-53992295D01*
X209440476Y-53992295D02*
X209745238Y-53992295D01*
X209745238Y-53992295D02*
X209821428Y-54030390D01*
X209821428Y-54030390D02*
X209859523Y-54068485D01*
X209859523Y-54068485D02*
X209897619Y-54144676D01*
X209897619Y-54144676D02*
X209897619Y-54258961D01*
X209897619Y-54258961D02*
X209859523Y-54335152D01*
X209859523Y-54335152D02*
X209821428Y-54373247D01*
X209821428Y-54373247D02*
X209745238Y-54411342D01*
X209745238Y-54411342D02*
X209440476Y-54411342D01*
X210202380Y-54563723D02*
X210583333Y-54563723D01*
X210126190Y-54792295D02*
X210392857Y-53992295D01*
X210392857Y-53992295D02*
X210659523Y-54792295D01*
X210849999Y-53992295D02*
X211040475Y-54792295D01*
X211040475Y-54792295D02*
X211192856Y-54220866D01*
X211192856Y-54220866D02*
X211345237Y-54792295D01*
X211345237Y-54792295D02*
X211535714Y-53992295D01*
X209840476Y-56570390D02*
X209764286Y-56532295D01*
X209764286Y-56532295D02*
X209650000Y-56532295D01*
X209650000Y-56532295D02*
X209535714Y-56570390D01*
X209535714Y-56570390D02*
X209459524Y-56646580D01*
X209459524Y-56646580D02*
X209421429Y-56722771D01*
X209421429Y-56722771D02*
X209383333Y-56875152D01*
X209383333Y-56875152D02*
X209383333Y-56989438D01*
X209383333Y-56989438D02*
X209421429Y-57141819D01*
X209421429Y-57141819D02*
X209459524Y-57218009D01*
X209459524Y-57218009D02*
X209535714Y-57294200D01*
X209535714Y-57294200D02*
X209650000Y-57332295D01*
X209650000Y-57332295D02*
X209726191Y-57332295D01*
X209726191Y-57332295D02*
X209840476Y-57294200D01*
X209840476Y-57294200D02*
X209878572Y-57256104D01*
X209878572Y-57256104D02*
X209878572Y-56989438D01*
X209878572Y-56989438D02*
X209726191Y-56989438D01*
X210221429Y-57332295D02*
X210221429Y-56532295D01*
X210221429Y-56532295D02*
X210678572Y-57332295D01*
X210678572Y-57332295D02*
X210678572Y-56532295D01*
X211059524Y-57332295D02*
X211059524Y-56532295D01*
X211059524Y-56532295D02*
X211250000Y-56532295D01*
X211250000Y-56532295D02*
X211364286Y-56570390D01*
X211364286Y-56570390D02*
X211440476Y-56646580D01*
X211440476Y-56646580D02*
X211478571Y-56722771D01*
X211478571Y-56722771D02*
X211516667Y-56875152D01*
X211516667Y-56875152D02*
X211516667Y-56989438D01*
X211516667Y-56989438D02*
X211478571Y-57141819D01*
X211478571Y-57141819D02*
X211440476Y-57218009D01*
X211440476Y-57218009D02*
X211364286Y-57294200D01*
X211364286Y-57294200D02*
X211250000Y-57332295D01*
X211250000Y-57332295D02*
X211059524Y-57332295D01*
X210011905Y-59872295D02*
X209745238Y-59491342D01*
X209554762Y-59872295D02*
X209554762Y-59072295D01*
X209554762Y-59072295D02*
X209859524Y-59072295D01*
X209859524Y-59072295D02*
X209935714Y-59110390D01*
X209935714Y-59110390D02*
X209973809Y-59148485D01*
X209973809Y-59148485D02*
X210011905Y-59224676D01*
X210011905Y-59224676D02*
X210011905Y-59338961D01*
X210011905Y-59338961D02*
X209973809Y-59415152D01*
X209973809Y-59415152D02*
X209935714Y-59453247D01*
X209935714Y-59453247D02*
X209859524Y-59491342D01*
X209859524Y-59491342D02*
X209554762Y-59491342D01*
X210316666Y-59834200D02*
X210430952Y-59872295D01*
X210430952Y-59872295D02*
X210621428Y-59872295D01*
X210621428Y-59872295D02*
X210697619Y-59834200D01*
X210697619Y-59834200D02*
X210735714Y-59796104D01*
X210735714Y-59796104D02*
X210773809Y-59719914D01*
X210773809Y-59719914D02*
X210773809Y-59643723D01*
X210773809Y-59643723D02*
X210735714Y-59567533D01*
X210735714Y-59567533D02*
X210697619Y-59529438D01*
X210697619Y-59529438D02*
X210621428Y-59491342D01*
X210621428Y-59491342D02*
X210469047Y-59453247D01*
X210469047Y-59453247D02*
X210392857Y-59415152D01*
X210392857Y-59415152D02*
X210354762Y-59377057D01*
X210354762Y-59377057D02*
X210316666Y-59300866D01*
X210316666Y-59300866D02*
X210316666Y-59224676D01*
X210316666Y-59224676D02*
X210354762Y-59148485D01*
X210354762Y-59148485D02*
X210392857Y-59110390D01*
X210392857Y-59110390D02*
X210469047Y-59072295D01*
X210469047Y-59072295D02*
X210659524Y-59072295D01*
X210659524Y-59072295D02*
X210773809Y-59110390D01*
X211002381Y-59072295D02*
X211459524Y-59072295D01*
X211230952Y-59872295D02*
X211230952Y-59072295D01*
X209383333Y-61612295D02*
X209650000Y-62412295D01*
X209650000Y-62412295D02*
X209916666Y-61612295D01*
X210640476Y-62336104D02*
X210602380Y-62374200D01*
X210602380Y-62374200D02*
X210488095Y-62412295D01*
X210488095Y-62412295D02*
X210411904Y-62412295D01*
X210411904Y-62412295D02*
X210297618Y-62374200D01*
X210297618Y-62374200D02*
X210221428Y-62298009D01*
X210221428Y-62298009D02*
X210183333Y-62221819D01*
X210183333Y-62221819D02*
X210145237Y-62069438D01*
X210145237Y-62069438D02*
X210145237Y-61955152D01*
X210145237Y-61955152D02*
X210183333Y-61802771D01*
X210183333Y-61802771D02*
X210221428Y-61726580D01*
X210221428Y-61726580D02*
X210297618Y-61650390D01*
X210297618Y-61650390D02*
X210411904Y-61612295D01*
X210411904Y-61612295D02*
X210488095Y-61612295D01*
X210488095Y-61612295D02*
X210602380Y-61650390D01*
X210602380Y-61650390D02*
X210640476Y-61688485D01*
X211440476Y-62336104D02*
X211402380Y-62374200D01*
X211402380Y-62374200D02*
X211288095Y-62412295D01*
X211288095Y-62412295D02*
X211211904Y-62412295D01*
X211211904Y-62412295D02*
X211097618Y-62374200D01*
X211097618Y-62374200D02*
X211021428Y-62298009D01*
X211021428Y-62298009D02*
X210983333Y-62221819D01*
X210983333Y-62221819D02*
X210945237Y-62069438D01*
X210945237Y-62069438D02*
X210945237Y-61955152D01*
X210945237Y-61955152D02*
X210983333Y-61802771D01*
X210983333Y-61802771D02*
X211021428Y-61726580D01*
X211021428Y-61726580D02*
X211097618Y-61650390D01*
X211097618Y-61650390D02*
X211211904Y-61612295D01*
X211211904Y-61612295D02*
X211288095Y-61612295D01*
X211288095Y-61612295D02*
X211402380Y-61650390D01*
X211402380Y-61650390D02*
X211440476Y-61688485D01*
X209478571Y-64952295D02*
X209478571Y-64152295D01*
X209478571Y-64152295D02*
X209783333Y-64152295D01*
X209783333Y-64152295D02*
X209859523Y-64190390D01*
X209859523Y-64190390D02*
X209897618Y-64228485D01*
X209897618Y-64228485D02*
X209935714Y-64304676D01*
X209935714Y-64304676D02*
X209935714Y-64418961D01*
X209935714Y-64418961D02*
X209897618Y-64495152D01*
X209897618Y-64495152D02*
X209859523Y-64533247D01*
X209859523Y-64533247D02*
X209783333Y-64571342D01*
X209783333Y-64571342D02*
X209478571Y-64571342D01*
X210240475Y-64228485D02*
X210278571Y-64190390D01*
X210278571Y-64190390D02*
X210354761Y-64152295D01*
X210354761Y-64152295D02*
X210545237Y-64152295D01*
X210545237Y-64152295D02*
X210621428Y-64190390D01*
X210621428Y-64190390D02*
X210659523Y-64228485D01*
X210659523Y-64228485D02*
X210697618Y-64304676D01*
X210697618Y-64304676D02*
X210697618Y-64380866D01*
X210697618Y-64380866D02*
X210659523Y-64495152D01*
X210659523Y-64495152D02*
X210202380Y-64952295D01*
X210202380Y-64952295D02*
X210697618Y-64952295D01*
X211459523Y-64952295D02*
X211002380Y-64952295D01*
X211230952Y-64952295D02*
X211230952Y-64152295D01*
X211230952Y-64152295D02*
X211154761Y-64266580D01*
X211154761Y-64266580D02*
X211078571Y-64342771D01*
X211078571Y-64342771D02*
X211002380Y-64380866D01*
X209478571Y-67492295D02*
X209478571Y-66692295D01*
X209478571Y-66692295D02*
X209783333Y-66692295D01*
X209783333Y-66692295D02*
X209859523Y-66730390D01*
X209859523Y-66730390D02*
X209897618Y-66768485D01*
X209897618Y-66768485D02*
X209935714Y-66844676D01*
X209935714Y-66844676D02*
X209935714Y-66958961D01*
X209935714Y-66958961D02*
X209897618Y-67035152D01*
X209897618Y-67035152D02*
X209859523Y-67073247D01*
X209859523Y-67073247D02*
X209783333Y-67111342D01*
X209783333Y-67111342D02*
X209478571Y-67111342D01*
X210240475Y-66768485D02*
X210278571Y-66730390D01*
X210278571Y-66730390D02*
X210354761Y-66692295D01*
X210354761Y-66692295D02*
X210545237Y-66692295D01*
X210545237Y-66692295D02*
X210621428Y-66730390D01*
X210621428Y-66730390D02*
X210659523Y-66768485D01*
X210659523Y-66768485D02*
X210697618Y-66844676D01*
X210697618Y-66844676D02*
X210697618Y-66920866D01*
X210697618Y-66920866D02*
X210659523Y-67035152D01*
X210659523Y-67035152D02*
X210202380Y-67492295D01*
X210202380Y-67492295D02*
X210697618Y-67492295D01*
X211192857Y-66692295D02*
X211269047Y-66692295D01*
X211269047Y-66692295D02*
X211345238Y-66730390D01*
X211345238Y-66730390D02*
X211383333Y-66768485D01*
X211383333Y-66768485D02*
X211421428Y-66844676D01*
X211421428Y-66844676D02*
X211459523Y-66997057D01*
X211459523Y-66997057D02*
X211459523Y-67187533D01*
X211459523Y-67187533D02*
X211421428Y-67339914D01*
X211421428Y-67339914D02*
X211383333Y-67416104D01*
X211383333Y-67416104D02*
X211345238Y-67454200D01*
X211345238Y-67454200D02*
X211269047Y-67492295D01*
X211269047Y-67492295D02*
X211192857Y-67492295D01*
X211192857Y-67492295D02*
X211116666Y-67454200D01*
X211116666Y-67454200D02*
X211078571Y-67416104D01*
X211078571Y-67416104D02*
X211040476Y-67339914D01*
X211040476Y-67339914D02*
X211002380Y-67187533D01*
X211002380Y-67187533D02*
X211002380Y-66997057D01*
X211002380Y-66997057D02*
X211040476Y-66844676D01*
X211040476Y-66844676D02*
X211078571Y-66768485D01*
X211078571Y-66768485D02*
X211116666Y-66730390D01*
X211116666Y-66730390D02*
X211192857Y-66692295D01*
X209478571Y-70032295D02*
X209478571Y-69232295D01*
X209478571Y-69232295D02*
X209783333Y-69232295D01*
X209783333Y-69232295D02*
X209859523Y-69270390D01*
X209859523Y-69270390D02*
X209897618Y-69308485D01*
X209897618Y-69308485D02*
X209935714Y-69384676D01*
X209935714Y-69384676D02*
X209935714Y-69498961D01*
X209935714Y-69498961D02*
X209897618Y-69575152D01*
X209897618Y-69575152D02*
X209859523Y-69613247D01*
X209859523Y-69613247D02*
X209783333Y-69651342D01*
X209783333Y-69651342D02*
X209478571Y-69651342D01*
X210697618Y-70032295D02*
X210240475Y-70032295D01*
X210469047Y-70032295D02*
X210469047Y-69232295D01*
X210469047Y-69232295D02*
X210392856Y-69346580D01*
X210392856Y-69346580D02*
X210316666Y-69422771D01*
X210316666Y-69422771D02*
X210240475Y-69460866D01*
X211078571Y-70032295D02*
X211230952Y-70032295D01*
X211230952Y-70032295D02*
X211307142Y-69994200D01*
X211307142Y-69994200D02*
X211345238Y-69956104D01*
X211345238Y-69956104D02*
X211421428Y-69841819D01*
X211421428Y-69841819D02*
X211459523Y-69689438D01*
X211459523Y-69689438D02*
X211459523Y-69384676D01*
X211459523Y-69384676D02*
X211421428Y-69308485D01*
X211421428Y-69308485D02*
X211383333Y-69270390D01*
X211383333Y-69270390D02*
X211307142Y-69232295D01*
X211307142Y-69232295D02*
X211154761Y-69232295D01*
X211154761Y-69232295D02*
X211078571Y-69270390D01*
X211078571Y-69270390D02*
X211040476Y-69308485D01*
X211040476Y-69308485D02*
X211002380Y-69384676D01*
X211002380Y-69384676D02*
X211002380Y-69575152D01*
X211002380Y-69575152D02*
X211040476Y-69651342D01*
X211040476Y-69651342D02*
X211078571Y-69689438D01*
X211078571Y-69689438D02*
X211154761Y-69727533D01*
X211154761Y-69727533D02*
X211307142Y-69727533D01*
X211307142Y-69727533D02*
X211383333Y-69689438D01*
X211383333Y-69689438D02*
X211421428Y-69651342D01*
X211421428Y-69651342D02*
X211459523Y-69575152D01*
X209478571Y-72572295D02*
X209478571Y-71772295D01*
X209478571Y-71772295D02*
X209783333Y-71772295D01*
X209783333Y-71772295D02*
X209859523Y-71810390D01*
X209859523Y-71810390D02*
X209897618Y-71848485D01*
X209897618Y-71848485D02*
X209935714Y-71924676D01*
X209935714Y-71924676D02*
X209935714Y-72038961D01*
X209935714Y-72038961D02*
X209897618Y-72115152D01*
X209897618Y-72115152D02*
X209859523Y-72153247D01*
X209859523Y-72153247D02*
X209783333Y-72191342D01*
X209783333Y-72191342D02*
X209478571Y-72191342D01*
X210697618Y-72572295D02*
X210240475Y-72572295D01*
X210469047Y-72572295D02*
X210469047Y-71772295D01*
X210469047Y-71772295D02*
X210392856Y-71886580D01*
X210392856Y-71886580D02*
X210316666Y-71962771D01*
X210316666Y-71962771D02*
X210240475Y-72000866D01*
X211154761Y-72115152D02*
X211078571Y-72077057D01*
X211078571Y-72077057D02*
X211040476Y-72038961D01*
X211040476Y-72038961D02*
X211002380Y-71962771D01*
X211002380Y-71962771D02*
X211002380Y-71924676D01*
X211002380Y-71924676D02*
X211040476Y-71848485D01*
X211040476Y-71848485D02*
X211078571Y-71810390D01*
X211078571Y-71810390D02*
X211154761Y-71772295D01*
X211154761Y-71772295D02*
X211307142Y-71772295D01*
X211307142Y-71772295D02*
X211383333Y-71810390D01*
X211383333Y-71810390D02*
X211421428Y-71848485D01*
X211421428Y-71848485D02*
X211459523Y-71924676D01*
X211459523Y-71924676D02*
X211459523Y-71962771D01*
X211459523Y-71962771D02*
X211421428Y-72038961D01*
X211421428Y-72038961D02*
X211383333Y-72077057D01*
X211383333Y-72077057D02*
X211307142Y-72115152D01*
X211307142Y-72115152D02*
X211154761Y-72115152D01*
X211154761Y-72115152D02*
X211078571Y-72153247D01*
X211078571Y-72153247D02*
X211040476Y-72191342D01*
X211040476Y-72191342D02*
X211002380Y-72267533D01*
X211002380Y-72267533D02*
X211002380Y-72419914D01*
X211002380Y-72419914D02*
X211040476Y-72496104D01*
X211040476Y-72496104D02*
X211078571Y-72534200D01*
X211078571Y-72534200D02*
X211154761Y-72572295D01*
X211154761Y-72572295D02*
X211307142Y-72572295D01*
X211307142Y-72572295D02*
X211383333Y-72534200D01*
X211383333Y-72534200D02*
X211421428Y-72496104D01*
X211421428Y-72496104D02*
X211459523Y-72419914D01*
X211459523Y-72419914D02*
X211459523Y-72267533D01*
X211459523Y-72267533D02*
X211421428Y-72191342D01*
X211421428Y-72191342D02*
X211383333Y-72153247D01*
X211383333Y-72153247D02*
X211307142Y-72115152D01*
X209478571Y-75112295D02*
X209478571Y-74312295D01*
X209478571Y-74312295D02*
X209783333Y-74312295D01*
X209783333Y-74312295D02*
X209859523Y-74350390D01*
X209859523Y-74350390D02*
X209897618Y-74388485D01*
X209897618Y-74388485D02*
X209935714Y-74464676D01*
X209935714Y-74464676D02*
X209935714Y-74578961D01*
X209935714Y-74578961D02*
X209897618Y-74655152D01*
X209897618Y-74655152D02*
X209859523Y-74693247D01*
X209859523Y-74693247D02*
X209783333Y-74731342D01*
X209783333Y-74731342D02*
X209478571Y-74731342D01*
X210697618Y-75112295D02*
X210240475Y-75112295D01*
X210469047Y-75112295D02*
X210469047Y-74312295D01*
X210469047Y-74312295D02*
X210392856Y-74426580D01*
X210392856Y-74426580D02*
X210316666Y-74502771D01*
X210316666Y-74502771D02*
X210240475Y-74540866D01*
X211421428Y-74312295D02*
X211040476Y-74312295D01*
X211040476Y-74312295D02*
X211002380Y-74693247D01*
X211002380Y-74693247D02*
X211040476Y-74655152D01*
X211040476Y-74655152D02*
X211116666Y-74617057D01*
X211116666Y-74617057D02*
X211307142Y-74617057D01*
X211307142Y-74617057D02*
X211383333Y-74655152D01*
X211383333Y-74655152D02*
X211421428Y-74693247D01*
X211421428Y-74693247D02*
X211459523Y-74769438D01*
X211459523Y-74769438D02*
X211459523Y-74959914D01*
X211459523Y-74959914D02*
X211421428Y-75036104D01*
X211421428Y-75036104D02*
X211383333Y-75074200D01*
X211383333Y-75074200D02*
X211307142Y-75112295D01*
X211307142Y-75112295D02*
X211116666Y-75112295D01*
X211116666Y-75112295D02*
X211040476Y-75074200D01*
X211040476Y-75074200D02*
X211002380Y-75036104D01*
X209478571Y-77652295D02*
X209478571Y-76852295D01*
X209478571Y-76852295D02*
X209783333Y-76852295D01*
X209783333Y-76852295D02*
X209859523Y-76890390D01*
X209859523Y-76890390D02*
X209897618Y-76928485D01*
X209897618Y-76928485D02*
X209935714Y-77004676D01*
X209935714Y-77004676D02*
X209935714Y-77118961D01*
X209935714Y-77118961D02*
X209897618Y-77195152D01*
X209897618Y-77195152D02*
X209859523Y-77233247D01*
X209859523Y-77233247D02*
X209783333Y-77271342D01*
X209783333Y-77271342D02*
X209478571Y-77271342D01*
X210697618Y-77652295D02*
X210240475Y-77652295D01*
X210469047Y-77652295D02*
X210469047Y-76852295D01*
X210469047Y-76852295D02*
X210392856Y-76966580D01*
X210392856Y-76966580D02*
X210316666Y-77042771D01*
X210316666Y-77042771D02*
X210240475Y-77080866D01*
X211383333Y-77118961D02*
X211383333Y-77652295D01*
X211192857Y-76814200D02*
X211002380Y-77385628D01*
X211002380Y-77385628D02*
X211497619Y-77385628D01*
X209478571Y-80192295D02*
X209478571Y-79392295D01*
X209478571Y-79392295D02*
X209783333Y-79392295D01*
X209783333Y-79392295D02*
X209859523Y-79430390D01*
X209859523Y-79430390D02*
X209897618Y-79468485D01*
X209897618Y-79468485D02*
X209935714Y-79544676D01*
X209935714Y-79544676D02*
X209935714Y-79658961D01*
X209935714Y-79658961D02*
X209897618Y-79735152D01*
X209897618Y-79735152D02*
X209859523Y-79773247D01*
X209859523Y-79773247D02*
X209783333Y-79811342D01*
X209783333Y-79811342D02*
X209478571Y-79811342D01*
X210697618Y-80192295D02*
X210240475Y-80192295D01*
X210469047Y-80192295D02*
X210469047Y-79392295D01*
X210469047Y-79392295D02*
X210392856Y-79506580D01*
X210392856Y-79506580D02*
X210316666Y-79582771D01*
X210316666Y-79582771D02*
X210240475Y-79620866D01*
X211383333Y-79392295D02*
X211230952Y-79392295D01*
X211230952Y-79392295D02*
X211154761Y-79430390D01*
X211154761Y-79430390D02*
X211116666Y-79468485D01*
X211116666Y-79468485D02*
X211040476Y-79582771D01*
X211040476Y-79582771D02*
X211002380Y-79735152D01*
X211002380Y-79735152D02*
X211002380Y-80039914D01*
X211002380Y-80039914D02*
X211040476Y-80116104D01*
X211040476Y-80116104D02*
X211078571Y-80154200D01*
X211078571Y-80154200D02*
X211154761Y-80192295D01*
X211154761Y-80192295D02*
X211307142Y-80192295D01*
X211307142Y-80192295D02*
X211383333Y-80154200D01*
X211383333Y-80154200D02*
X211421428Y-80116104D01*
X211421428Y-80116104D02*
X211459523Y-80039914D01*
X211459523Y-80039914D02*
X211459523Y-79849438D01*
X211459523Y-79849438D02*
X211421428Y-79773247D01*
X211421428Y-79773247D02*
X211383333Y-79735152D01*
X211383333Y-79735152D02*
X211307142Y-79697057D01*
X211307142Y-79697057D02*
X211154761Y-79697057D01*
X211154761Y-79697057D02*
X211078571Y-79735152D01*
X211078571Y-79735152D02*
X211040476Y-79773247D01*
X211040476Y-79773247D02*
X211002380Y-79849438D01*
X209478571Y-82732295D02*
X209478571Y-81932295D01*
X209478571Y-81932295D02*
X209783333Y-81932295D01*
X209783333Y-81932295D02*
X209859523Y-81970390D01*
X209859523Y-81970390D02*
X209897618Y-82008485D01*
X209897618Y-82008485D02*
X209935714Y-82084676D01*
X209935714Y-82084676D02*
X209935714Y-82198961D01*
X209935714Y-82198961D02*
X209897618Y-82275152D01*
X209897618Y-82275152D02*
X209859523Y-82313247D01*
X209859523Y-82313247D02*
X209783333Y-82351342D01*
X209783333Y-82351342D02*
X209478571Y-82351342D01*
X210697618Y-82732295D02*
X210240475Y-82732295D01*
X210469047Y-82732295D02*
X210469047Y-81932295D01*
X210469047Y-81932295D02*
X210392856Y-82046580D01*
X210392856Y-82046580D02*
X210316666Y-82122771D01*
X210316666Y-82122771D02*
X210240475Y-82160866D01*
X211192857Y-81932295D02*
X211269047Y-81932295D01*
X211269047Y-81932295D02*
X211345238Y-81970390D01*
X211345238Y-81970390D02*
X211383333Y-82008485D01*
X211383333Y-82008485D02*
X211421428Y-82084676D01*
X211421428Y-82084676D02*
X211459523Y-82237057D01*
X211459523Y-82237057D02*
X211459523Y-82427533D01*
X211459523Y-82427533D02*
X211421428Y-82579914D01*
X211421428Y-82579914D02*
X211383333Y-82656104D01*
X211383333Y-82656104D02*
X211345238Y-82694200D01*
X211345238Y-82694200D02*
X211269047Y-82732295D01*
X211269047Y-82732295D02*
X211192857Y-82732295D01*
X211192857Y-82732295D02*
X211116666Y-82694200D01*
X211116666Y-82694200D02*
X211078571Y-82656104D01*
X211078571Y-82656104D02*
X211040476Y-82579914D01*
X211040476Y-82579914D02*
X211002380Y-82427533D01*
X211002380Y-82427533D02*
X211002380Y-82237057D01*
X211002380Y-82237057D02*
X211040476Y-82084676D01*
X211040476Y-82084676D02*
X211078571Y-82008485D01*
X211078571Y-82008485D02*
X211116666Y-81970390D01*
X211116666Y-81970390D02*
X211192857Y-81932295D01*
X219078571Y-54792295D02*
X219078571Y-53992295D01*
X219078571Y-53992295D02*
X219383333Y-53992295D01*
X219383333Y-53992295D02*
X219459523Y-54030390D01*
X219459523Y-54030390D02*
X219497618Y-54068485D01*
X219497618Y-54068485D02*
X219535714Y-54144676D01*
X219535714Y-54144676D02*
X219535714Y-54258961D01*
X219535714Y-54258961D02*
X219497618Y-54335152D01*
X219497618Y-54335152D02*
X219459523Y-54373247D01*
X219459523Y-54373247D02*
X219383333Y-54411342D01*
X219383333Y-54411342D02*
X219078571Y-54411342D01*
X220030952Y-53992295D02*
X220107142Y-53992295D01*
X220107142Y-53992295D02*
X220183333Y-54030390D01*
X220183333Y-54030390D02*
X220221428Y-54068485D01*
X220221428Y-54068485D02*
X220259523Y-54144676D01*
X220259523Y-54144676D02*
X220297618Y-54297057D01*
X220297618Y-54297057D02*
X220297618Y-54487533D01*
X220297618Y-54487533D02*
X220259523Y-54639914D01*
X220259523Y-54639914D02*
X220221428Y-54716104D01*
X220221428Y-54716104D02*
X220183333Y-54754200D01*
X220183333Y-54754200D02*
X220107142Y-54792295D01*
X220107142Y-54792295D02*
X220030952Y-54792295D01*
X220030952Y-54792295D02*
X219954761Y-54754200D01*
X219954761Y-54754200D02*
X219916666Y-54716104D01*
X219916666Y-54716104D02*
X219878571Y-54639914D01*
X219878571Y-54639914D02*
X219840475Y-54487533D01*
X219840475Y-54487533D02*
X219840475Y-54297057D01*
X219840475Y-54297057D02*
X219878571Y-54144676D01*
X219878571Y-54144676D02*
X219916666Y-54068485D01*
X219916666Y-54068485D02*
X219954761Y-54030390D01*
X219954761Y-54030390D02*
X220030952Y-53992295D01*
X221059523Y-54792295D02*
X220602380Y-54792295D01*
X220830952Y-54792295D02*
X220830952Y-53992295D01*
X220830952Y-53992295D02*
X220754761Y-54106580D01*
X220754761Y-54106580D02*
X220678571Y-54182771D01*
X220678571Y-54182771D02*
X220602380Y-54220866D01*
X219078571Y-57332295D02*
X219078571Y-56532295D01*
X219078571Y-56532295D02*
X219383333Y-56532295D01*
X219383333Y-56532295D02*
X219459523Y-56570390D01*
X219459523Y-56570390D02*
X219497618Y-56608485D01*
X219497618Y-56608485D02*
X219535714Y-56684676D01*
X219535714Y-56684676D02*
X219535714Y-56798961D01*
X219535714Y-56798961D02*
X219497618Y-56875152D01*
X219497618Y-56875152D02*
X219459523Y-56913247D01*
X219459523Y-56913247D02*
X219383333Y-56951342D01*
X219383333Y-56951342D02*
X219078571Y-56951342D01*
X220030952Y-56532295D02*
X220107142Y-56532295D01*
X220107142Y-56532295D02*
X220183333Y-56570390D01*
X220183333Y-56570390D02*
X220221428Y-56608485D01*
X220221428Y-56608485D02*
X220259523Y-56684676D01*
X220259523Y-56684676D02*
X220297618Y-56837057D01*
X220297618Y-56837057D02*
X220297618Y-57027533D01*
X220297618Y-57027533D02*
X220259523Y-57179914D01*
X220259523Y-57179914D02*
X220221428Y-57256104D01*
X220221428Y-57256104D02*
X220183333Y-57294200D01*
X220183333Y-57294200D02*
X220107142Y-57332295D01*
X220107142Y-57332295D02*
X220030952Y-57332295D01*
X220030952Y-57332295D02*
X219954761Y-57294200D01*
X219954761Y-57294200D02*
X219916666Y-57256104D01*
X219916666Y-57256104D02*
X219878571Y-57179914D01*
X219878571Y-57179914D02*
X219840475Y-57027533D01*
X219840475Y-57027533D02*
X219840475Y-56837057D01*
X219840475Y-56837057D02*
X219878571Y-56684676D01*
X219878571Y-56684676D02*
X219916666Y-56608485D01*
X219916666Y-56608485D02*
X219954761Y-56570390D01*
X219954761Y-56570390D02*
X220030952Y-56532295D01*
X220792857Y-56532295D02*
X220869047Y-56532295D01*
X220869047Y-56532295D02*
X220945238Y-56570390D01*
X220945238Y-56570390D02*
X220983333Y-56608485D01*
X220983333Y-56608485D02*
X221021428Y-56684676D01*
X221021428Y-56684676D02*
X221059523Y-56837057D01*
X221059523Y-56837057D02*
X221059523Y-57027533D01*
X221059523Y-57027533D02*
X221021428Y-57179914D01*
X221021428Y-57179914D02*
X220983333Y-57256104D01*
X220983333Y-57256104D02*
X220945238Y-57294200D01*
X220945238Y-57294200D02*
X220869047Y-57332295D01*
X220869047Y-57332295D02*
X220792857Y-57332295D01*
X220792857Y-57332295D02*
X220716666Y-57294200D01*
X220716666Y-57294200D02*
X220678571Y-57256104D01*
X220678571Y-57256104D02*
X220640476Y-57179914D01*
X220640476Y-57179914D02*
X220602380Y-57027533D01*
X220602380Y-57027533D02*
X220602380Y-56837057D01*
X220602380Y-56837057D02*
X220640476Y-56684676D01*
X220640476Y-56684676D02*
X220678571Y-56608485D01*
X220678571Y-56608485D02*
X220716666Y-56570390D01*
X220716666Y-56570390D02*
X220792857Y-56532295D01*
X219440476Y-59110390D02*
X219364286Y-59072295D01*
X219364286Y-59072295D02*
X219250000Y-59072295D01*
X219250000Y-59072295D02*
X219135714Y-59110390D01*
X219135714Y-59110390D02*
X219059524Y-59186580D01*
X219059524Y-59186580D02*
X219021429Y-59262771D01*
X219021429Y-59262771D02*
X218983333Y-59415152D01*
X218983333Y-59415152D02*
X218983333Y-59529438D01*
X218983333Y-59529438D02*
X219021429Y-59681819D01*
X219021429Y-59681819D02*
X219059524Y-59758009D01*
X219059524Y-59758009D02*
X219135714Y-59834200D01*
X219135714Y-59834200D02*
X219250000Y-59872295D01*
X219250000Y-59872295D02*
X219326191Y-59872295D01*
X219326191Y-59872295D02*
X219440476Y-59834200D01*
X219440476Y-59834200D02*
X219478572Y-59796104D01*
X219478572Y-59796104D02*
X219478572Y-59529438D01*
X219478572Y-59529438D02*
X219326191Y-59529438D01*
X219821429Y-59872295D02*
X219821429Y-59072295D01*
X219821429Y-59072295D02*
X220278572Y-59872295D01*
X220278572Y-59872295D02*
X220278572Y-59072295D01*
X220659524Y-59872295D02*
X220659524Y-59072295D01*
X220659524Y-59072295D02*
X220850000Y-59072295D01*
X220850000Y-59072295D02*
X220964286Y-59110390D01*
X220964286Y-59110390D02*
X221040476Y-59186580D01*
X221040476Y-59186580D02*
X221078571Y-59262771D01*
X221078571Y-59262771D02*
X221116667Y-59415152D01*
X221116667Y-59415152D02*
X221116667Y-59529438D01*
X221116667Y-59529438D02*
X221078571Y-59681819D01*
X221078571Y-59681819D02*
X221040476Y-59758009D01*
X221040476Y-59758009D02*
X220964286Y-59834200D01*
X220964286Y-59834200D02*
X220850000Y-59872295D01*
X220850000Y-59872295D02*
X220659524Y-59872295D01*
X219440476Y-61650390D02*
X219364286Y-61612295D01*
X219364286Y-61612295D02*
X219250000Y-61612295D01*
X219250000Y-61612295D02*
X219135714Y-61650390D01*
X219135714Y-61650390D02*
X219059524Y-61726580D01*
X219059524Y-61726580D02*
X219021429Y-61802771D01*
X219021429Y-61802771D02*
X218983333Y-61955152D01*
X218983333Y-61955152D02*
X218983333Y-62069438D01*
X218983333Y-62069438D02*
X219021429Y-62221819D01*
X219021429Y-62221819D02*
X219059524Y-62298009D01*
X219059524Y-62298009D02*
X219135714Y-62374200D01*
X219135714Y-62374200D02*
X219250000Y-62412295D01*
X219250000Y-62412295D02*
X219326191Y-62412295D01*
X219326191Y-62412295D02*
X219440476Y-62374200D01*
X219440476Y-62374200D02*
X219478572Y-62336104D01*
X219478572Y-62336104D02*
X219478572Y-62069438D01*
X219478572Y-62069438D02*
X219326191Y-62069438D01*
X219821429Y-62412295D02*
X219821429Y-61612295D01*
X219821429Y-61612295D02*
X220278572Y-62412295D01*
X220278572Y-62412295D02*
X220278572Y-61612295D01*
X220659524Y-62412295D02*
X220659524Y-61612295D01*
X220659524Y-61612295D02*
X220850000Y-61612295D01*
X220850000Y-61612295D02*
X220964286Y-61650390D01*
X220964286Y-61650390D02*
X221040476Y-61726580D01*
X221040476Y-61726580D02*
X221078571Y-61802771D01*
X221078571Y-61802771D02*
X221116667Y-61955152D01*
X221116667Y-61955152D02*
X221116667Y-62069438D01*
X221116667Y-62069438D02*
X221078571Y-62221819D01*
X221078571Y-62221819D02*
X221040476Y-62298009D01*
X221040476Y-62298009D02*
X220964286Y-62374200D01*
X220964286Y-62374200D02*
X220850000Y-62412295D01*
X220850000Y-62412295D02*
X220659524Y-62412295D01*
X219078571Y-64952295D02*
X219078571Y-64152295D01*
X219078571Y-64152295D02*
X219383333Y-64152295D01*
X219383333Y-64152295D02*
X219459523Y-64190390D01*
X219459523Y-64190390D02*
X219497618Y-64228485D01*
X219497618Y-64228485D02*
X219535714Y-64304676D01*
X219535714Y-64304676D02*
X219535714Y-64418961D01*
X219535714Y-64418961D02*
X219497618Y-64495152D01*
X219497618Y-64495152D02*
X219459523Y-64533247D01*
X219459523Y-64533247D02*
X219383333Y-64571342D01*
X219383333Y-64571342D02*
X219078571Y-64571342D01*
X220030952Y-64152295D02*
X220107142Y-64152295D01*
X220107142Y-64152295D02*
X220183333Y-64190390D01*
X220183333Y-64190390D02*
X220221428Y-64228485D01*
X220221428Y-64228485D02*
X220259523Y-64304676D01*
X220259523Y-64304676D02*
X220297618Y-64457057D01*
X220297618Y-64457057D02*
X220297618Y-64647533D01*
X220297618Y-64647533D02*
X220259523Y-64799914D01*
X220259523Y-64799914D02*
X220221428Y-64876104D01*
X220221428Y-64876104D02*
X220183333Y-64914200D01*
X220183333Y-64914200D02*
X220107142Y-64952295D01*
X220107142Y-64952295D02*
X220030952Y-64952295D01*
X220030952Y-64952295D02*
X219954761Y-64914200D01*
X219954761Y-64914200D02*
X219916666Y-64876104D01*
X219916666Y-64876104D02*
X219878571Y-64799914D01*
X219878571Y-64799914D02*
X219840475Y-64647533D01*
X219840475Y-64647533D02*
X219840475Y-64457057D01*
X219840475Y-64457057D02*
X219878571Y-64304676D01*
X219878571Y-64304676D02*
X219916666Y-64228485D01*
X219916666Y-64228485D02*
X219954761Y-64190390D01*
X219954761Y-64190390D02*
X220030952Y-64152295D01*
X220602380Y-64228485D02*
X220640476Y-64190390D01*
X220640476Y-64190390D02*
X220716666Y-64152295D01*
X220716666Y-64152295D02*
X220907142Y-64152295D01*
X220907142Y-64152295D02*
X220983333Y-64190390D01*
X220983333Y-64190390D02*
X221021428Y-64228485D01*
X221021428Y-64228485D02*
X221059523Y-64304676D01*
X221059523Y-64304676D02*
X221059523Y-64380866D01*
X221059523Y-64380866D02*
X221021428Y-64495152D01*
X221021428Y-64495152D02*
X220564285Y-64952295D01*
X220564285Y-64952295D02*
X221059523Y-64952295D01*
X219078571Y-67492295D02*
X219078571Y-66692295D01*
X219078571Y-66692295D02*
X219383333Y-66692295D01*
X219383333Y-66692295D02*
X219459523Y-66730390D01*
X219459523Y-66730390D02*
X219497618Y-66768485D01*
X219497618Y-66768485D02*
X219535714Y-66844676D01*
X219535714Y-66844676D02*
X219535714Y-66958961D01*
X219535714Y-66958961D02*
X219497618Y-67035152D01*
X219497618Y-67035152D02*
X219459523Y-67073247D01*
X219459523Y-67073247D02*
X219383333Y-67111342D01*
X219383333Y-67111342D02*
X219078571Y-67111342D01*
X220030952Y-66692295D02*
X220107142Y-66692295D01*
X220107142Y-66692295D02*
X220183333Y-66730390D01*
X220183333Y-66730390D02*
X220221428Y-66768485D01*
X220221428Y-66768485D02*
X220259523Y-66844676D01*
X220259523Y-66844676D02*
X220297618Y-66997057D01*
X220297618Y-66997057D02*
X220297618Y-67187533D01*
X220297618Y-67187533D02*
X220259523Y-67339914D01*
X220259523Y-67339914D02*
X220221428Y-67416104D01*
X220221428Y-67416104D02*
X220183333Y-67454200D01*
X220183333Y-67454200D02*
X220107142Y-67492295D01*
X220107142Y-67492295D02*
X220030952Y-67492295D01*
X220030952Y-67492295D02*
X219954761Y-67454200D01*
X219954761Y-67454200D02*
X219916666Y-67416104D01*
X219916666Y-67416104D02*
X219878571Y-67339914D01*
X219878571Y-67339914D02*
X219840475Y-67187533D01*
X219840475Y-67187533D02*
X219840475Y-66997057D01*
X219840475Y-66997057D02*
X219878571Y-66844676D01*
X219878571Y-66844676D02*
X219916666Y-66768485D01*
X219916666Y-66768485D02*
X219954761Y-66730390D01*
X219954761Y-66730390D02*
X220030952Y-66692295D01*
X220564285Y-66692295D02*
X221059523Y-66692295D01*
X221059523Y-66692295D02*
X220792857Y-66997057D01*
X220792857Y-66997057D02*
X220907142Y-66997057D01*
X220907142Y-66997057D02*
X220983333Y-67035152D01*
X220983333Y-67035152D02*
X221021428Y-67073247D01*
X221021428Y-67073247D02*
X221059523Y-67149438D01*
X221059523Y-67149438D02*
X221059523Y-67339914D01*
X221059523Y-67339914D02*
X221021428Y-67416104D01*
X221021428Y-67416104D02*
X220983333Y-67454200D01*
X220983333Y-67454200D02*
X220907142Y-67492295D01*
X220907142Y-67492295D02*
X220678571Y-67492295D01*
X220678571Y-67492295D02*
X220602380Y-67454200D01*
X220602380Y-67454200D02*
X220564285Y-67416104D01*
X219078571Y-70032295D02*
X219078571Y-69232295D01*
X219078571Y-69232295D02*
X219383333Y-69232295D01*
X219383333Y-69232295D02*
X219459523Y-69270390D01*
X219459523Y-69270390D02*
X219497618Y-69308485D01*
X219497618Y-69308485D02*
X219535714Y-69384676D01*
X219535714Y-69384676D02*
X219535714Y-69498961D01*
X219535714Y-69498961D02*
X219497618Y-69575152D01*
X219497618Y-69575152D02*
X219459523Y-69613247D01*
X219459523Y-69613247D02*
X219383333Y-69651342D01*
X219383333Y-69651342D02*
X219078571Y-69651342D01*
X220030952Y-69232295D02*
X220107142Y-69232295D01*
X220107142Y-69232295D02*
X220183333Y-69270390D01*
X220183333Y-69270390D02*
X220221428Y-69308485D01*
X220221428Y-69308485D02*
X220259523Y-69384676D01*
X220259523Y-69384676D02*
X220297618Y-69537057D01*
X220297618Y-69537057D02*
X220297618Y-69727533D01*
X220297618Y-69727533D02*
X220259523Y-69879914D01*
X220259523Y-69879914D02*
X220221428Y-69956104D01*
X220221428Y-69956104D02*
X220183333Y-69994200D01*
X220183333Y-69994200D02*
X220107142Y-70032295D01*
X220107142Y-70032295D02*
X220030952Y-70032295D01*
X220030952Y-70032295D02*
X219954761Y-69994200D01*
X219954761Y-69994200D02*
X219916666Y-69956104D01*
X219916666Y-69956104D02*
X219878571Y-69879914D01*
X219878571Y-69879914D02*
X219840475Y-69727533D01*
X219840475Y-69727533D02*
X219840475Y-69537057D01*
X219840475Y-69537057D02*
X219878571Y-69384676D01*
X219878571Y-69384676D02*
X219916666Y-69308485D01*
X219916666Y-69308485D02*
X219954761Y-69270390D01*
X219954761Y-69270390D02*
X220030952Y-69232295D01*
X220983333Y-69498961D02*
X220983333Y-70032295D01*
X220792857Y-69194200D02*
X220602380Y-69765628D01*
X220602380Y-69765628D02*
X221097619Y-69765628D01*
X219078571Y-72572295D02*
X219078571Y-71772295D01*
X219078571Y-71772295D02*
X219383333Y-71772295D01*
X219383333Y-71772295D02*
X219459523Y-71810390D01*
X219459523Y-71810390D02*
X219497618Y-71848485D01*
X219497618Y-71848485D02*
X219535714Y-71924676D01*
X219535714Y-71924676D02*
X219535714Y-72038961D01*
X219535714Y-72038961D02*
X219497618Y-72115152D01*
X219497618Y-72115152D02*
X219459523Y-72153247D01*
X219459523Y-72153247D02*
X219383333Y-72191342D01*
X219383333Y-72191342D02*
X219078571Y-72191342D01*
X220030952Y-71772295D02*
X220107142Y-71772295D01*
X220107142Y-71772295D02*
X220183333Y-71810390D01*
X220183333Y-71810390D02*
X220221428Y-71848485D01*
X220221428Y-71848485D02*
X220259523Y-71924676D01*
X220259523Y-71924676D02*
X220297618Y-72077057D01*
X220297618Y-72077057D02*
X220297618Y-72267533D01*
X220297618Y-72267533D02*
X220259523Y-72419914D01*
X220259523Y-72419914D02*
X220221428Y-72496104D01*
X220221428Y-72496104D02*
X220183333Y-72534200D01*
X220183333Y-72534200D02*
X220107142Y-72572295D01*
X220107142Y-72572295D02*
X220030952Y-72572295D01*
X220030952Y-72572295D02*
X219954761Y-72534200D01*
X219954761Y-72534200D02*
X219916666Y-72496104D01*
X219916666Y-72496104D02*
X219878571Y-72419914D01*
X219878571Y-72419914D02*
X219840475Y-72267533D01*
X219840475Y-72267533D02*
X219840475Y-72077057D01*
X219840475Y-72077057D02*
X219878571Y-71924676D01*
X219878571Y-71924676D02*
X219916666Y-71848485D01*
X219916666Y-71848485D02*
X219954761Y-71810390D01*
X219954761Y-71810390D02*
X220030952Y-71772295D01*
X221021428Y-71772295D02*
X220640476Y-71772295D01*
X220640476Y-71772295D02*
X220602380Y-72153247D01*
X220602380Y-72153247D02*
X220640476Y-72115152D01*
X220640476Y-72115152D02*
X220716666Y-72077057D01*
X220716666Y-72077057D02*
X220907142Y-72077057D01*
X220907142Y-72077057D02*
X220983333Y-72115152D01*
X220983333Y-72115152D02*
X221021428Y-72153247D01*
X221021428Y-72153247D02*
X221059523Y-72229438D01*
X221059523Y-72229438D02*
X221059523Y-72419914D01*
X221059523Y-72419914D02*
X221021428Y-72496104D01*
X221021428Y-72496104D02*
X220983333Y-72534200D01*
X220983333Y-72534200D02*
X220907142Y-72572295D01*
X220907142Y-72572295D02*
X220716666Y-72572295D01*
X220716666Y-72572295D02*
X220640476Y-72534200D01*
X220640476Y-72534200D02*
X220602380Y-72496104D01*
X219078571Y-75112295D02*
X219078571Y-74312295D01*
X219078571Y-74312295D02*
X219383333Y-74312295D01*
X219383333Y-74312295D02*
X219459523Y-74350390D01*
X219459523Y-74350390D02*
X219497618Y-74388485D01*
X219497618Y-74388485D02*
X219535714Y-74464676D01*
X219535714Y-74464676D02*
X219535714Y-74578961D01*
X219535714Y-74578961D02*
X219497618Y-74655152D01*
X219497618Y-74655152D02*
X219459523Y-74693247D01*
X219459523Y-74693247D02*
X219383333Y-74731342D01*
X219383333Y-74731342D02*
X219078571Y-74731342D01*
X220030952Y-74312295D02*
X220107142Y-74312295D01*
X220107142Y-74312295D02*
X220183333Y-74350390D01*
X220183333Y-74350390D02*
X220221428Y-74388485D01*
X220221428Y-74388485D02*
X220259523Y-74464676D01*
X220259523Y-74464676D02*
X220297618Y-74617057D01*
X220297618Y-74617057D02*
X220297618Y-74807533D01*
X220297618Y-74807533D02*
X220259523Y-74959914D01*
X220259523Y-74959914D02*
X220221428Y-75036104D01*
X220221428Y-75036104D02*
X220183333Y-75074200D01*
X220183333Y-75074200D02*
X220107142Y-75112295D01*
X220107142Y-75112295D02*
X220030952Y-75112295D01*
X220030952Y-75112295D02*
X219954761Y-75074200D01*
X219954761Y-75074200D02*
X219916666Y-75036104D01*
X219916666Y-75036104D02*
X219878571Y-74959914D01*
X219878571Y-74959914D02*
X219840475Y-74807533D01*
X219840475Y-74807533D02*
X219840475Y-74617057D01*
X219840475Y-74617057D02*
X219878571Y-74464676D01*
X219878571Y-74464676D02*
X219916666Y-74388485D01*
X219916666Y-74388485D02*
X219954761Y-74350390D01*
X219954761Y-74350390D02*
X220030952Y-74312295D01*
X220983333Y-74312295D02*
X220830952Y-74312295D01*
X220830952Y-74312295D02*
X220754761Y-74350390D01*
X220754761Y-74350390D02*
X220716666Y-74388485D01*
X220716666Y-74388485D02*
X220640476Y-74502771D01*
X220640476Y-74502771D02*
X220602380Y-74655152D01*
X220602380Y-74655152D02*
X220602380Y-74959914D01*
X220602380Y-74959914D02*
X220640476Y-75036104D01*
X220640476Y-75036104D02*
X220678571Y-75074200D01*
X220678571Y-75074200D02*
X220754761Y-75112295D01*
X220754761Y-75112295D02*
X220907142Y-75112295D01*
X220907142Y-75112295D02*
X220983333Y-75074200D01*
X220983333Y-75074200D02*
X221021428Y-75036104D01*
X221021428Y-75036104D02*
X221059523Y-74959914D01*
X221059523Y-74959914D02*
X221059523Y-74769438D01*
X221059523Y-74769438D02*
X221021428Y-74693247D01*
X221021428Y-74693247D02*
X220983333Y-74655152D01*
X220983333Y-74655152D02*
X220907142Y-74617057D01*
X220907142Y-74617057D02*
X220754761Y-74617057D01*
X220754761Y-74617057D02*
X220678571Y-74655152D01*
X220678571Y-74655152D02*
X220640476Y-74693247D01*
X220640476Y-74693247D02*
X220602380Y-74769438D01*
X219078571Y-77652295D02*
X219078571Y-76852295D01*
X219078571Y-76852295D02*
X219383333Y-76852295D01*
X219383333Y-76852295D02*
X219459523Y-76890390D01*
X219459523Y-76890390D02*
X219497618Y-76928485D01*
X219497618Y-76928485D02*
X219535714Y-77004676D01*
X219535714Y-77004676D02*
X219535714Y-77118961D01*
X219535714Y-77118961D02*
X219497618Y-77195152D01*
X219497618Y-77195152D02*
X219459523Y-77233247D01*
X219459523Y-77233247D02*
X219383333Y-77271342D01*
X219383333Y-77271342D02*
X219078571Y-77271342D01*
X220030952Y-76852295D02*
X220107142Y-76852295D01*
X220107142Y-76852295D02*
X220183333Y-76890390D01*
X220183333Y-76890390D02*
X220221428Y-76928485D01*
X220221428Y-76928485D02*
X220259523Y-77004676D01*
X220259523Y-77004676D02*
X220297618Y-77157057D01*
X220297618Y-77157057D02*
X220297618Y-77347533D01*
X220297618Y-77347533D02*
X220259523Y-77499914D01*
X220259523Y-77499914D02*
X220221428Y-77576104D01*
X220221428Y-77576104D02*
X220183333Y-77614200D01*
X220183333Y-77614200D02*
X220107142Y-77652295D01*
X220107142Y-77652295D02*
X220030952Y-77652295D01*
X220030952Y-77652295D02*
X219954761Y-77614200D01*
X219954761Y-77614200D02*
X219916666Y-77576104D01*
X219916666Y-77576104D02*
X219878571Y-77499914D01*
X219878571Y-77499914D02*
X219840475Y-77347533D01*
X219840475Y-77347533D02*
X219840475Y-77157057D01*
X219840475Y-77157057D02*
X219878571Y-77004676D01*
X219878571Y-77004676D02*
X219916666Y-76928485D01*
X219916666Y-76928485D02*
X219954761Y-76890390D01*
X219954761Y-76890390D02*
X220030952Y-76852295D01*
X220564285Y-76852295D02*
X221097619Y-76852295D01*
X221097619Y-76852295D02*
X220754761Y-77652295D01*
X219078571Y-80192295D02*
X219078571Y-79392295D01*
X219078571Y-79392295D02*
X219383333Y-79392295D01*
X219383333Y-79392295D02*
X219459523Y-79430390D01*
X219459523Y-79430390D02*
X219497618Y-79468485D01*
X219497618Y-79468485D02*
X219535714Y-79544676D01*
X219535714Y-79544676D02*
X219535714Y-79658961D01*
X219535714Y-79658961D02*
X219497618Y-79735152D01*
X219497618Y-79735152D02*
X219459523Y-79773247D01*
X219459523Y-79773247D02*
X219383333Y-79811342D01*
X219383333Y-79811342D02*
X219078571Y-79811342D01*
X220030952Y-79392295D02*
X220107142Y-79392295D01*
X220107142Y-79392295D02*
X220183333Y-79430390D01*
X220183333Y-79430390D02*
X220221428Y-79468485D01*
X220221428Y-79468485D02*
X220259523Y-79544676D01*
X220259523Y-79544676D02*
X220297618Y-79697057D01*
X220297618Y-79697057D02*
X220297618Y-79887533D01*
X220297618Y-79887533D02*
X220259523Y-80039914D01*
X220259523Y-80039914D02*
X220221428Y-80116104D01*
X220221428Y-80116104D02*
X220183333Y-80154200D01*
X220183333Y-80154200D02*
X220107142Y-80192295D01*
X220107142Y-80192295D02*
X220030952Y-80192295D01*
X220030952Y-80192295D02*
X219954761Y-80154200D01*
X219954761Y-80154200D02*
X219916666Y-80116104D01*
X219916666Y-80116104D02*
X219878571Y-80039914D01*
X219878571Y-80039914D02*
X219840475Y-79887533D01*
X219840475Y-79887533D02*
X219840475Y-79697057D01*
X219840475Y-79697057D02*
X219878571Y-79544676D01*
X219878571Y-79544676D02*
X219916666Y-79468485D01*
X219916666Y-79468485D02*
X219954761Y-79430390D01*
X219954761Y-79430390D02*
X220030952Y-79392295D01*
X220754761Y-79735152D02*
X220678571Y-79697057D01*
X220678571Y-79697057D02*
X220640476Y-79658961D01*
X220640476Y-79658961D02*
X220602380Y-79582771D01*
X220602380Y-79582771D02*
X220602380Y-79544676D01*
X220602380Y-79544676D02*
X220640476Y-79468485D01*
X220640476Y-79468485D02*
X220678571Y-79430390D01*
X220678571Y-79430390D02*
X220754761Y-79392295D01*
X220754761Y-79392295D02*
X220907142Y-79392295D01*
X220907142Y-79392295D02*
X220983333Y-79430390D01*
X220983333Y-79430390D02*
X221021428Y-79468485D01*
X221021428Y-79468485D02*
X221059523Y-79544676D01*
X221059523Y-79544676D02*
X221059523Y-79582771D01*
X221059523Y-79582771D02*
X221021428Y-79658961D01*
X221021428Y-79658961D02*
X220983333Y-79697057D01*
X220983333Y-79697057D02*
X220907142Y-79735152D01*
X220907142Y-79735152D02*
X220754761Y-79735152D01*
X220754761Y-79735152D02*
X220678571Y-79773247D01*
X220678571Y-79773247D02*
X220640476Y-79811342D01*
X220640476Y-79811342D02*
X220602380Y-79887533D01*
X220602380Y-79887533D02*
X220602380Y-80039914D01*
X220602380Y-80039914D02*
X220640476Y-80116104D01*
X220640476Y-80116104D02*
X220678571Y-80154200D01*
X220678571Y-80154200D02*
X220754761Y-80192295D01*
X220754761Y-80192295D02*
X220907142Y-80192295D01*
X220907142Y-80192295D02*
X220983333Y-80154200D01*
X220983333Y-80154200D02*
X221021428Y-80116104D01*
X221021428Y-80116104D02*
X221059523Y-80039914D01*
X221059523Y-80039914D02*
X221059523Y-79887533D01*
X221059523Y-79887533D02*
X221021428Y-79811342D01*
X221021428Y-79811342D02*
X220983333Y-79773247D01*
X220983333Y-79773247D02*
X220907142Y-79735152D01*
X219078571Y-82732295D02*
X219078571Y-81932295D01*
X219078571Y-81932295D02*
X219383333Y-81932295D01*
X219383333Y-81932295D02*
X219459523Y-81970390D01*
X219459523Y-81970390D02*
X219497618Y-82008485D01*
X219497618Y-82008485D02*
X219535714Y-82084676D01*
X219535714Y-82084676D02*
X219535714Y-82198961D01*
X219535714Y-82198961D02*
X219497618Y-82275152D01*
X219497618Y-82275152D02*
X219459523Y-82313247D01*
X219459523Y-82313247D02*
X219383333Y-82351342D01*
X219383333Y-82351342D02*
X219078571Y-82351342D01*
X220030952Y-81932295D02*
X220107142Y-81932295D01*
X220107142Y-81932295D02*
X220183333Y-81970390D01*
X220183333Y-81970390D02*
X220221428Y-82008485D01*
X220221428Y-82008485D02*
X220259523Y-82084676D01*
X220259523Y-82084676D02*
X220297618Y-82237057D01*
X220297618Y-82237057D02*
X220297618Y-82427533D01*
X220297618Y-82427533D02*
X220259523Y-82579914D01*
X220259523Y-82579914D02*
X220221428Y-82656104D01*
X220221428Y-82656104D02*
X220183333Y-82694200D01*
X220183333Y-82694200D02*
X220107142Y-82732295D01*
X220107142Y-82732295D02*
X220030952Y-82732295D01*
X220030952Y-82732295D02*
X219954761Y-82694200D01*
X219954761Y-82694200D02*
X219916666Y-82656104D01*
X219916666Y-82656104D02*
X219878571Y-82579914D01*
X219878571Y-82579914D02*
X219840475Y-82427533D01*
X219840475Y-82427533D02*
X219840475Y-82237057D01*
X219840475Y-82237057D02*
X219878571Y-82084676D01*
X219878571Y-82084676D02*
X219916666Y-82008485D01*
X219916666Y-82008485D02*
X219954761Y-81970390D01*
X219954761Y-81970390D02*
X220030952Y-81932295D01*
X220678571Y-82732295D02*
X220830952Y-82732295D01*
X220830952Y-82732295D02*
X220907142Y-82694200D01*
X220907142Y-82694200D02*
X220945238Y-82656104D01*
X220945238Y-82656104D02*
X221021428Y-82541819D01*
X221021428Y-82541819D02*
X221059523Y-82389438D01*
X221059523Y-82389438D02*
X221059523Y-82084676D01*
X221059523Y-82084676D02*
X221021428Y-82008485D01*
X221021428Y-82008485D02*
X220983333Y-81970390D01*
X220983333Y-81970390D02*
X220907142Y-81932295D01*
X220907142Y-81932295D02*
X220754761Y-81932295D01*
X220754761Y-81932295D02*
X220678571Y-81970390D01*
X220678571Y-81970390D02*
X220640476Y-82008485D01*
X220640476Y-82008485D02*
X220602380Y-82084676D01*
X220602380Y-82084676D02*
X220602380Y-82275152D01*
X220602380Y-82275152D02*
X220640476Y-82351342D01*
X220640476Y-82351342D02*
X220678571Y-82389438D01*
X220678571Y-82389438D02*
X220754761Y-82427533D01*
X220754761Y-82427533D02*
X220907142Y-82427533D01*
X220907142Y-82427533D02*
X220983333Y-82389438D01*
X220983333Y-82389438D02*
X221021428Y-82351342D01*
X221021428Y-82351342D02*
X221059523Y-82275152D01*
%TO.C,MCU1*%
X166860000Y-50620000D02*
X166860000Y-83640000D01*
X166860000Y-83640000D02*
X184640000Y-83640000D01*
X184640000Y-83640000D02*
X184640000Y-50620000D01*
X184640000Y-50620000D02*
X166860000Y-50620000D01*
X169400000Y-53160000D02*
X169400000Y-55700000D01*
X169400000Y-53160000D02*
X166860000Y-53160000D01*
X169400000Y-55700000D02*
X166860000Y-55700000D01*
%TO.C,MCU2*%
X206360000Y-50620000D02*
X206360000Y-83640000D01*
X206360000Y-83640000D02*
X224140000Y-83640000D01*
X224140000Y-83640000D02*
X224140000Y-50620000D01*
X224140000Y-50620000D02*
X206360000Y-50620000D01*
X208900000Y-53160000D02*
X208900000Y-55700000D01*
X208900000Y-53160000D02*
X206360000Y-53160000D01*
X208900000Y-55700000D02*
X206360000Y-55700000D01*
%TD*%
D11*
%TO.C,MCU1*%
X168130000Y-54430000D03*
D12*
X168130000Y-56970000D03*
X168130000Y-59510000D03*
X168130000Y-62050000D03*
X168130000Y-64590000D03*
X168130000Y-67130000D03*
X168130000Y-69670000D03*
X168130000Y-72210000D03*
X168130000Y-74750000D03*
X168130000Y-77290000D03*
X168130000Y-79830000D03*
X168130000Y-82370000D03*
X183370000Y-54430000D03*
X183370000Y-56970000D03*
X183370000Y-59510000D03*
X183370000Y-62050000D03*
X183370000Y-64590000D03*
X183370000Y-67130000D03*
X183370000Y-69670000D03*
X183370000Y-72210000D03*
X183370000Y-74750000D03*
X183370000Y-77290000D03*
X183370000Y-79830000D03*
X183370000Y-82370000D03*
%TD*%
D11*
%TO.C,MCU2*%
X207630000Y-54430000D03*
D12*
X207630000Y-56970000D03*
X207630000Y-59510000D03*
X207630000Y-62050000D03*
X207630000Y-64590000D03*
X207630000Y-67130000D03*
X207630000Y-69670000D03*
X207630000Y-72210000D03*
X207630000Y-74750000D03*
X207630000Y-77290000D03*
X207630000Y-79830000D03*
X207630000Y-82370000D03*
X222870000Y-54430000D03*
X222870000Y-56970000D03*
X222870000Y-59510000D03*
X222870000Y-62050000D03*
X222870000Y-64590000D03*
X222870000Y-67130000D03*
X222870000Y-69670000D03*
X222870000Y-72210000D03*
X222870000Y-74750000D03*
X222870000Y-77290000D03*
X222870000Y-79830000D03*
X222870000Y-82370000D03*
%TD*%
M02*
