%TF.GenerationSoftware,KiCad,Pcbnew,9.0.2*%
%TF.CreationDate,2025-05-23T00:15:25+09:00*%
%TF.ProjectId,jjongkbd,6a6a6f6e-676b-4626-942e-6b696361645f,0.1*%
%TF.SameCoordinates,Original*%
%TF.FileFunction,Soldermask,Bot*%
%TF.FilePolarity,Negative*%
%FSLAX46Y46*%
G04 Gerber Fmt 4.6, Leading zero omitted, Abs format (unit mm)*
G04 Created by KiCad (PCBNEW 9.0.2) date 2025-05-23 00:15:25*
%MOMM*%
%LPD*%
G01*
G04 APERTURE LIST*
G04 Aperture macros list*
%AMRoundRect*
0 Rectangle with rounded corners*
0 $1 Rounding radius*
0 $2 $3 $4 $5 $6 $7 $8 $9 X,Y pos of 4 corners*
0 Add a 4 corners polygon primitive as box body*
4,1,4,$2,$3,$4,$5,$6,$7,$8,$9,$2,$3,0*
0 Add four circle primitives for the rounded corners*
1,1,$1+$1,$2,$3*
1,1,$1+$1,$4,$5*
1,1,$1+$1,$6,$7*
1,1,$1+$1,$8,$9*
0 Add four rect primitives between the rounded corners*
20,1,$1+$1,$2,$3,$4,$5,0*
20,1,$1+$1,$4,$5,$6,$7,0*
20,1,$1+$1,$6,$7,$8,$9,0*
20,1,$1+$1,$8,$9,$2,$3,0*%
G04 Aperture macros list end*
%ADD10C,4.087800*%
%ADD11C,1.801800*%
%ADD12C,3.100000*%
%ADD13RoundRect,0.050000X-1.275000X-1.250000X1.275000X-1.250000X1.275000X1.250000X-1.275000X1.250000X0*%
%ADD14RoundRect,0.050000X-0.450000X-0.600000X0.450000X-0.600000X0.450000X0.600000X-0.450000X0.600000X0*%
%ADD15RoundRect,0.050000X-0.889000X-0.889000X0.889000X-0.889000X0.889000X0.889000X-0.889000X0.889000X0*%
%ADD16C,2.005000*%
%ADD17C,1.800000*%
%ADD18RoundRect,0.050000X-0.400000X0.500000X-0.400000X-0.500000X0.400000X-0.500000X0.400000X0.500000X0*%
%ADD19RoundRect,0.050000X-0.750000X0.350000X-0.750000X-0.350000X0.750000X-0.350000X0.750000X0.350000X0*%
%ADD20C,1.000000*%
%ADD21RoundRect,0.050000X0.400000X-0.500000X0.400000X0.500000X-0.400000X0.500000X-0.400000X-0.500000X0*%
%ADD22RoundRect,0.050000X0.750000X-0.350000X0.750000X0.350000X-0.750000X0.350000X-0.750000X-0.350000X0*%
%ADD23RoundRect,0.260000X-0.665000X0.390000X-0.665000X-0.390000X0.665000X-0.390000X0.665000X0.390000X0*%
%ADD24O,1.850000X1.300000*%
%ADD25RoundRect,0.260000X0.665000X-0.390000X0.665000X0.390000X-0.665000X0.390000X-0.665000X-0.390000X0*%
%ADD26RoundRect,0.050000X-0.876300X0.876300X-0.876300X-0.876300X0.876300X-0.876300X0.876300X0.876300X0*%
%ADD27C,1.852600*%
%ADD28C,2.300000*%
G04 APERTURE END LIST*
D10*
%TO.C,S1*%
X38000000Y-57000000D03*
D11*
X43080000Y-57000000D03*
X32920000Y-57000000D03*
D12*
X40540000Y-51920000D03*
X34190000Y-54460000D03*
D13*
X30915000Y-54460000D03*
X43842000Y-51920000D03*
%TD*%
D10*
%TO.C,S2*%
X76000000Y-57000000D03*
D11*
X81080000Y-57000000D03*
X70920000Y-57000000D03*
D12*
X78540000Y-51920000D03*
X72190000Y-54460000D03*
D13*
X68915000Y-54460000D03*
X81842000Y-51920000D03*
%TD*%
D10*
%TO.C,S3*%
X95000000Y-57000000D03*
D11*
X100080000Y-57000000D03*
X89920000Y-57000000D03*
D12*
X97540000Y-51920000D03*
X91190000Y-54460000D03*
D13*
X87915000Y-54460000D03*
X100842000Y-51920000D03*
%TD*%
D10*
%TO.C,S4*%
X114000000Y-57000000D03*
D11*
X119080000Y-57000000D03*
X108920000Y-57000000D03*
D12*
X116540000Y-51920000D03*
X110190000Y-54460000D03*
D13*
X106915000Y-54460000D03*
X119842000Y-51920000D03*
%TD*%
D10*
%TO.C,S5*%
X133000000Y-57000000D03*
D11*
X138080000Y-57000000D03*
X127920000Y-57000000D03*
D12*
X135540000Y-51920000D03*
X129190000Y-54460000D03*
D13*
X125915000Y-54460000D03*
X138842000Y-51920000D03*
%TD*%
D10*
%TO.C,S6*%
X152000000Y-57000000D03*
D11*
X157080000Y-57000000D03*
X146920000Y-57000000D03*
D12*
X154540000Y-51920000D03*
X148190000Y-54460000D03*
D13*
X144915000Y-54460000D03*
X157842000Y-51920000D03*
%TD*%
D10*
%TO.C,S7*%
X38000000Y-81700000D03*
D11*
X43080000Y-81700000D03*
X32920000Y-81700000D03*
D12*
X40540000Y-76620000D03*
X34190000Y-79160000D03*
D13*
X30915000Y-79160000D03*
X43842000Y-76620000D03*
%TD*%
D10*
%TO.C,S8*%
X57000000Y-81700000D03*
D11*
X62080000Y-81700000D03*
X51920000Y-81700000D03*
D12*
X59540000Y-76620000D03*
X53190000Y-79160000D03*
D13*
X49915000Y-79160000D03*
X62842000Y-76620000D03*
%TD*%
D10*
%TO.C,S9*%
X76000000Y-81700000D03*
D11*
X81080000Y-81700000D03*
X70920000Y-81700000D03*
D12*
X78540000Y-76620000D03*
X72190000Y-79160000D03*
D13*
X68915000Y-79160000D03*
X81842000Y-76620000D03*
%TD*%
D10*
%TO.C,S10*%
X95000000Y-81700000D03*
D11*
X100080000Y-81700000D03*
X89920000Y-81700000D03*
D12*
X97540000Y-76620000D03*
X91190000Y-79160000D03*
D13*
X87915000Y-79160000D03*
X100842000Y-76620000D03*
%TD*%
D10*
%TO.C,S11*%
X114000000Y-81700000D03*
D11*
X119080000Y-81700000D03*
X108920000Y-81700000D03*
D12*
X116540000Y-76620000D03*
X110190000Y-79160000D03*
D13*
X106915000Y-79160000D03*
X119842000Y-76620000D03*
%TD*%
D10*
%TO.C,S12*%
X133000000Y-81700000D03*
D11*
X138080000Y-81700000D03*
X127920000Y-81700000D03*
D12*
X135540000Y-76620000D03*
X129190000Y-79160000D03*
D13*
X125915000Y-79160000D03*
X138842000Y-76620000D03*
%TD*%
D10*
%TO.C,S13*%
X152000000Y-81700000D03*
D11*
X157080000Y-81700000D03*
X146920000Y-81700000D03*
D12*
X154540000Y-76620000D03*
X148190000Y-79160000D03*
D13*
X144915000Y-79160000D03*
X157842000Y-76620000D03*
%TD*%
D10*
%TO.C,S14*%
X42750000Y-100700000D03*
D11*
X47830000Y-100700000D03*
X37670000Y-100700000D03*
D12*
X45290000Y-95620000D03*
X38940000Y-98160000D03*
D13*
X35665000Y-98160000D03*
X48592000Y-95620000D03*
%TD*%
D10*
%TO.C,S15*%
X66500000Y-100700000D03*
D11*
X71580000Y-100700000D03*
X61420000Y-100700000D03*
D12*
X69040000Y-95620000D03*
X62690000Y-98160000D03*
D13*
X59415000Y-98160000D03*
X72342000Y-95620000D03*
%TD*%
D10*
%TO.C,S16*%
X85500000Y-100700000D03*
D11*
X90580000Y-100700000D03*
X80420000Y-100700000D03*
D12*
X88040000Y-95620000D03*
X81690000Y-98160000D03*
D13*
X78415000Y-98160000D03*
X91342000Y-95620000D03*
%TD*%
D10*
%TO.C,S17*%
X104500000Y-100700000D03*
D11*
X109580000Y-100700000D03*
X99420000Y-100700000D03*
D12*
X107040000Y-95620000D03*
X100690000Y-98160000D03*
D13*
X97415000Y-98160000D03*
X110342000Y-95620000D03*
%TD*%
D10*
%TO.C,S18*%
X123500000Y-100700000D03*
D11*
X128580000Y-100700000D03*
X118420000Y-100700000D03*
D12*
X126040000Y-95620000D03*
X119690000Y-98160000D03*
D13*
X116415000Y-98160000D03*
X129342000Y-95620000D03*
%TD*%
D10*
%TO.C,S19*%
X142500000Y-100700000D03*
D11*
X147580000Y-100700000D03*
X137420000Y-100700000D03*
D12*
X145040000Y-95620000D03*
X138690000Y-98160000D03*
D13*
X135415000Y-98160000D03*
X148342000Y-95620000D03*
%TD*%
D10*
%TO.C,S20*%
X45000000Y-119700000D03*
D11*
X50080000Y-119700000D03*
X39920000Y-119700000D03*
D12*
X47540000Y-114620000D03*
X41190000Y-117160000D03*
D13*
X37915000Y-117160000D03*
X50842000Y-114620000D03*
%TD*%
D10*
%TO.C,S21*%
X71000000Y-119700000D03*
D11*
X76080000Y-119700000D03*
X65920000Y-119700000D03*
D12*
X73540000Y-114620000D03*
X67190000Y-117160000D03*
D13*
X63915000Y-117160000D03*
X76842000Y-114620000D03*
%TD*%
D10*
%TO.C,S22*%
X90000000Y-119700000D03*
D11*
X95080000Y-119700000D03*
X84920000Y-119700000D03*
D12*
X92540000Y-114620000D03*
X86190000Y-117160000D03*
D13*
X82915000Y-117160000D03*
X95842000Y-114620000D03*
%TD*%
D10*
%TO.C,S23*%
X109000000Y-119700000D03*
D11*
X114080000Y-119700000D03*
X103920000Y-119700000D03*
D12*
X111540000Y-114620000D03*
X105190000Y-117160000D03*
D13*
X101915000Y-117160000D03*
X114842000Y-114620000D03*
%TD*%
D10*
%TO.C,S24*%
X128000000Y-119700000D03*
D11*
X133080000Y-119700000D03*
X122920000Y-119700000D03*
D12*
X130540000Y-114620000D03*
X124190000Y-117160000D03*
D13*
X120915000Y-117160000D03*
X133842000Y-114620000D03*
%TD*%
D10*
%TO.C,S25*%
X147000000Y-119700000D03*
D11*
X152080000Y-119700000D03*
X141920000Y-119700000D03*
D12*
X149540000Y-114620000D03*
X143190000Y-117160000D03*
D13*
X139915000Y-117160000D03*
X152842000Y-114620000D03*
%TD*%
D10*
%TO.C,S26*%
X49500000Y-138700000D03*
D11*
X54580000Y-138700000D03*
X44420000Y-138700000D03*
D12*
X52040000Y-133620000D03*
X45690000Y-136160000D03*
D13*
X42415000Y-136160000D03*
X55342000Y-133620000D03*
%TD*%
D10*
%TO.C,S27*%
X80000000Y-138700000D03*
D11*
X85080000Y-138700000D03*
X74920000Y-138700000D03*
D12*
X82540000Y-133620000D03*
X76190000Y-136160000D03*
D13*
X72915000Y-136160000D03*
X85842000Y-133620000D03*
%TD*%
D10*
%TO.C,S28*%
X99000000Y-138700000D03*
D11*
X104080000Y-138700000D03*
X93920000Y-138700000D03*
D12*
X101540000Y-133620000D03*
X95190000Y-136160000D03*
D13*
X91915000Y-136160000D03*
X104842000Y-133620000D03*
%TD*%
D10*
%TO.C,S29*%
X118000000Y-138700000D03*
D11*
X123080000Y-138700000D03*
X112920000Y-138700000D03*
D12*
X120540000Y-133620000D03*
X114190000Y-136160000D03*
D13*
X110915000Y-136160000D03*
X123842000Y-133620000D03*
%TD*%
D10*
%TO.C,S30*%
X137000000Y-138700000D03*
D11*
X142080000Y-138700000D03*
X131920000Y-138700000D03*
D12*
X139540000Y-133620000D03*
X133190000Y-136160000D03*
D13*
X129915000Y-136160000D03*
X142842000Y-133620000D03*
%TD*%
D10*
%TO.C,S31*%
X156000000Y-138700000D03*
D11*
X161080000Y-138700000D03*
X150920000Y-138700000D03*
D12*
X158540000Y-133620000D03*
X152190000Y-136160000D03*
D13*
X148915000Y-136160000D03*
X161842000Y-133620000D03*
%TD*%
D10*
%TO.C,S32*%
X40250000Y-157700000D03*
D11*
X45330000Y-157700000D03*
X35170000Y-157700000D03*
D12*
X42790000Y-152620000D03*
X36440000Y-155160000D03*
D13*
X33165000Y-155160000D03*
X46092000Y-152620000D03*
%TD*%
D10*
%TO.C,S33*%
X63750000Y-157700000D03*
D11*
X68830000Y-157700000D03*
X58670000Y-157700000D03*
D12*
X66290000Y-152620000D03*
X59940000Y-155160000D03*
D13*
X56665000Y-155160000D03*
X69592000Y-152620000D03*
%TD*%
D10*
%TO.C,S34*%
X87250000Y-157700000D03*
D11*
X92330000Y-157700000D03*
X82170000Y-157700000D03*
D12*
X89790000Y-152620000D03*
X83440000Y-155160000D03*
D13*
X80165000Y-155160000D03*
X93092000Y-152620000D03*
%TD*%
D10*
%TO.C,S35*%
X134500000Y-157700000D03*
D11*
X139580000Y-157700000D03*
X129420000Y-157700000D03*
D12*
X137040000Y-152620000D03*
X130690000Y-155160000D03*
D13*
X127415000Y-155160000D03*
X140342000Y-152620000D03*
%TD*%
D10*
%TO.C,S36*%
X379250000Y-157700000D03*
D11*
X384330000Y-157700000D03*
X374170000Y-157700000D03*
D12*
X381790000Y-152620000D03*
X375440000Y-155160000D03*
D13*
X372165000Y-155160000D03*
X385092000Y-152620000D03*
%TD*%
D10*
%TO.C,S37*%
X355750000Y-157700000D03*
D11*
X360830000Y-157700000D03*
X350670000Y-157700000D03*
D12*
X358290000Y-152620000D03*
X351940000Y-155160000D03*
D13*
X348665000Y-155160000D03*
X361592000Y-152620000D03*
%TD*%
D10*
%TO.C,S38*%
X332250000Y-157700000D03*
D11*
X337330000Y-157700000D03*
X327170000Y-157700000D03*
D12*
X334790000Y-152620000D03*
X328440000Y-155160000D03*
D13*
X325165000Y-155160000D03*
X338092000Y-152620000D03*
%TD*%
D10*
%TO.C,S39*%
X308750000Y-157700000D03*
D11*
X313830000Y-157700000D03*
X303670000Y-157700000D03*
D12*
X311290000Y-152620000D03*
X304940000Y-155160000D03*
D13*
X301665000Y-155160000D03*
X314592000Y-152620000D03*
%TD*%
D10*
%TO.C,S40*%
X261500000Y-157700000D03*
D11*
X266580000Y-157700000D03*
X256420000Y-157700000D03*
D12*
X264040000Y-152620000D03*
X257690000Y-155160000D03*
D13*
X254415000Y-155160000D03*
X267342000Y-152620000D03*
%TD*%
D10*
%TO.C,S41*%
X365000000Y-138700000D03*
D11*
X370080000Y-138700000D03*
X359920000Y-138700000D03*
D12*
X367540000Y-133620000D03*
X361190000Y-136160000D03*
D13*
X357915000Y-136160000D03*
X370842000Y-133620000D03*
%TD*%
D10*
%TO.C,S42*%
X329500000Y-138700000D03*
D11*
X334580000Y-138700000D03*
X324420000Y-138700000D03*
D12*
X332040000Y-133620000D03*
X325690000Y-136160000D03*
D13*
X322415000Y-136160000D03*
X335342000Y-133620000D03*
%TD*%
D10*
%TO.C,S43*%
X310500000Y-138700000D03*
D11*
X315580000Y-138700000D03*
X305420000Y-138700000D03*
D12*
X313040000Y-133620000D03*
X306690000Y-136160000D03*
D13*
X303415000Y-136160000D03*
X316342000Y-133620000D03*
%TD*%
D10*
%TO.C,S44*%
X291500000Y-138700000D03*
D11*
X296580000Y-138700000D03*
X286420000Y-138700000D03*
D12*
X294040000Y-133620000D03*
X287690000Y-136160000D03*
D13*
X284415000Y-136160000D03*
X297342000Y-133620000D03*
%TD*%
D10*
%TO.C,S45*%
X272500000Y-138700000D03*
D11*
X277580000Y-138700000D03*
X267420000Y-138700000D03*
D12*
X275040000Y-133620000D03*
X268690000Y-136160000D03*
D13*
X265415000Y-136160000D03*
X278342000Y-133620000D03*
%TD*%
D10*
%TO.C,S46*%
X253500000Y-138700000D03*
D11*
X258580000Y-138700000D03*
X248420000Y-138700000D03*
D12*
X256040000Y-133620000D03*
X249690000Y-136160000D03*
D13*
X246415000Y-136160000D03*
X259342000Y-133620000D03*
%TD*%
D10*
%TO.C,S47*%
X234500000Y-138700000D03*
D11*
X239580000Y-138700000D03*
X229420000Y-138700000D03*
D12*
X237040000Y-133620000D03*
X230690000Y-136160000D03*
D13*
X227415000Y-136160000D03*
X240342000Y-133620000D03*
%TD*%
D10*
%TO.C,S48*%
X370000000Y-119700000D03*
D11*
X375080000Y-119700000D03*
X364920000Y-119700000D03*
D12*
X372540000Y-114620000D03*
X366190000Y-117160000D03*
D13*
X362915000Y-117160000D03*
X375842000Y-114620000D03*
%TD*%
D10*
%TO.C,S49*%
X339500000Y-119700000D03*
D11*
X344580000Y-119700000D03*
X334420000Y-119700000D03*
D12*
X342040000Y-114620000D03*
X335690000Y-117160000D03*
D13*
X332415000Y-117160000D03*
X345342000Y-114620000D03*
%TD*%
D10*
%TO.C,S50*%
X320500000Y-119700000D03*
D11*
X325580000Y-119700000D03*
X315420000Y-119700000D03*
D12*
X323040000Y-114620000D03*
X316690000Y-117160000D03*
D13*
X313415000Y-117160000D03*
X326342000Y-114620000D03*
%TD*%
D10*
%TO.C,S51*%
X301500000Y-119700000D03*
D11*
X306580000Y-119700000D03*
X296420000Y-119700000D03*
D12*
X304040000Y-114620000D03*
X297690000Y-117160000D03*
D13*
X294415000Y-117160000D03*
X307342000Y-114620000D03*
%TD*%
D10*
%TO.C,S52*%
X282500000Y-119700000D03*
D11*
X287580000Y-119700000D03*
X277420000Y-119700000D03*
D12*
X285040000Y-114620000D03*
X278690000Y-117160000D03*
D13*
X275415000Y-117160000D03*
X288342000Y-114620000D03*
%TD*%
D10*
%TO.C,S53*%
X263500000Y-119700000D03*
D11*
X268580000Y-119700000D03*
X258420000Y-119700000D03*
D12*
X266040000Y-114620000D03*
X259690000Y-117160000D03*
D13*
X256415000Y-117160000D03*
X269342000Y-114620000D03*
%TD*%
D10*
%TO.C,S54*%
X244500000Y-119700000D03*
D11*
X249580000Y-119700000D03*
X239420000Y-119700000D03*
D12*
X247040000Y-114620000D03*
X240690000Y-117160000D03*
D13*
X237415000Y-117160000D03*
X250342000Y-114620000D03*
%TD*%
D10*
%TO.C,S55*%
X376750000Y-100700000D03*
D11*
X381830000Y-100700000D03*
X371670000Y-100700000D03*
D12*
X379290000Y-95620000D03*
X372940000Y-98160000D03*
D13*
X369665000Y-98160000D03*
X382592000Y-95620000D03*
%TD*%
D10*
%TO.C,S56*%
X353000000Y-100700000D03*
D11*
X358080000Y-100700000D03*
X347920000Y-100700000D03*
D12*
X355540000Y-95620000D03*
X349190000Y-98160000D03*
D13*
X345915000Y-98160000D03*
X358842000Y-95620000D03*
%TD*%
D10*
%TO.C,S57*%
X334000000Y-100700000D03*
D11*
X339080000Y-100700000D03*
X328920000Y-100700000D03*
D12*
X336540000Y-95620000D03*
X330190000Y-98160000D03*
D13*
X326915000Y-98160000D03*
X339842000Y-95620000D03*
%TD*%
D10*
%TO.C,S58*%
X315000000Y-100700000D03*
D11*
X320080000Y-100700000D03*
X309920000Y-100700000D03*
D12*
X317540000Y-95620000D03*
X311190000Y-98160000D03*
D13*
X307915000Y-98160000D03*
X320842000Y-95620000D03*
%TD*%
D10*
%TO.C,S59*%
X296000000Y-100700000D03*
D11*
X301080000Y-100700000D03*
X290920000Y-100700000D03*
D12*
X298540000Y-95620000D03*
X292190000Y-98160000D03*
D13*
X288915000Y-98160000D03*
X301842000Y-95620000D03*
%TD*%
D10*
%TO.C,S60*%
X277000000Y-100700000D03*
D11*
X282080000Y-100700000D03*
X271920000Y-100700000D03*
D12*
X279540000Y-95620000D03*
X273190000Y-98160000D03*
D13*
X269915000Y-98160000D03*
X282842000Y-95620000D03*
%TD*%
D10*
%TO.C,S61*%
X258000000Y-100700000D03*
D11*
X263080000Y-100700000D03*
X252920000Y-100700000D03*
D12*
X260540000Y-95620000D03*
X254190000Y-98160000D03*
D13*
X250915000Y-98160000D03*
X263842000Y-95620000D03*
%TD*%
D10*
%TO.C,S62*%
X239000000Y-100700000D03*
D11*
X244080000Y-100700000D03*
X233920000Y-100700000D03*
D12*
X241540000Y-95620000D03*
X235190000Y-98160000D03*
D13*
X231915000Y-98160000D03*
X244842000Y-95620000D03*
%TD*%
D10*
%TO.C,S63*%
X372000000Y-81700000D03*
D11*
X377080000Y-81700000D03*
X366920000Y-81700000D03*
D12*
X374540000Y-76620000D03*
X368190000Y-79160000D03*
D13*
X364915000Y-79160000D03*
X377842000Y-76620000D03*
%TD*%
D10*
%TO.C,S64*%
X343500000Y-81700000D03*
D11*
X348580000Y-81700000D03*
X338420000Y-81700000D03*
D12*
X346040000Y-76620000D03*
X339690000Y-79160000D03*
D13*
X336415000Y-79160000D03*
X349342000Y-76620000D03*
%TD*%
D10*
%TO.C,S65*%
X324500000Y-81700000D03*
D11*
X329580000Y-81700000D03*
X319420000Y-81700000D03*
D12*
X327040000Y-76620000D03*
X320690000Y-79160000D03*
D13*
X317415000Y-79160000D03*
X330342000Y-76620000D03*
%TD*%
D10*
%TO.C,S66*%
X305500000Y-81700000D03*
D11*
X310580000Y-81700000D03*
X300420000Y-81700000D03*
D12*
X308040000Y-76620000D03*
X301690000Y-79160000D03*
D13*
X298415000Y-79160000D03*
X311342000Y-76620000D03*
%TD*%
D10*
%TO.C,S67*%
X286500000Y-81700000D03*
D11*
X291580000Y-81700000D03*
X281420000Y-81700000D03*
D12*
X289040000Y-76620000D03*
X282690000Y-79160000D03*
D13*
X279415000Y-79160000D03*
X292342000Y-76620000D03*
%TD*%
D10*
%TO.C,S68*%
X267500000Y-81700000D03*
D11*
X272580000Y-81700000D03*
X262420000Y-81700000D03*
D12*
X270040000Y-76620000D03*
X263690000Y-79160000D03*
D13*
X260415000Y-79160000D03*
X273342000Y-76620000D03*
%TD*%
D10*
%TO.C,S69*%
X248500000Y-81700000D03*
D11*
X253580000Y-81700000D03*
X243420000Y-81700000D03*
D12*
X251040000Y-76620000D03*
X244690000Y-79160000D03*
D13*
X241415000Y-79160000D03*
X254342000Y-76620000D03*
%TD*%
D10*
%TO.C,S70*%
X381500000Y-57000000D03*
D11*
X386580000Y-57000000D03*
X376420000Y-57000000D03*
D12*
X384040000Y-51920000D03*
X377690000Y-54460000D03*
D13*
X374415000Y-54460000D03*
X387342000Y-51920000D03*
%TD*%
D10*
%TO.C,S71*%
X362500000Y-57000000D03*
D11*
X367580000Y-57000000D03*
X357420000Y-57000000D03*
D12*
X365040000Y-51920000D03*
X358690000Y-54460000D03*
D13*
X355415000Y-54460000D03*
X368342000Y-51920000D03*
%TD*%
D10*
%TO.C,S72*%
X343500000Y-57000000D03*
D11*
X348580000Y-57000000D03*
X338420000Y-57000000D03*
D12*
X346040000Y-51920000D03*
X339690000Y-54460000D03*
D13*
X336415000Y-54460000D03*
X349342000Y-51920000D03*
%TD*%
D10*
%TO.C,S73*%
X324500000Y-57000000D03*
D11*
X329580000Y-57000000D03*
X319420000Y-57000000D03*
D12*
X327040000Y-51920000D03*
X320690000Y-54460000D03*
D13*
X317415000Y-54460000D03*
X330342000Y-51920000D03*
%TD*%
D10*
%TO.C,S74*%
X296000000Y-57000000D03*
D11*
X301080000Y-57000000D03*
X290920000Y-57000000D03*
D12*
X298540000Y-51920000D03*
X292190000Y-54460000D03*
D13*
X288915000Y-54460000D03*
X301842000Y-51920000D03*
%TD*%
D10*
%TO.C,S75*%
X277000000Y-57000000D03*
D11*
X282080000Y-57000000D03*
X271920000Y-57000000D03*
D12*
X279540000Y-51920000D03*
X273190000Y-54460000D03*
D13*
X269915000Y-54460000D03*
X282842000Y-51920000D03*
%TD*%
D10*
%TO.C,S76*%
X258000000Y-57000000D03*
D11*
X263080000Y-57000000D03*
X252920000Y-57000000D03*
D12*
X260540000Y-51920000D03*
X254190000Y-54460000D03*
D13*
X250915000Y-54460000D03*
X263842000Y-51920000D03*
%TD*%
D10*
%TO.C,S77*%
X239000000Y-57000000D03*
D11*
X244080000Y-57000000D03*
X233920000Y-57000000D03*
D12*
X241540000Y-51920000D03*
X235190000Y-54460000D03*
D13*
X231915000Y-54460000D03*
X244842000Y-51920000D03*
%TD*%
D14*
%TO.C,D1*%
X36350000Y-62000000D03*
X39650000Y-62000000D03*
D15*
X34190000Y-62000000D03*
D16*
X41810000Y-62000000D03*
%TD*%
D14*
%TO.C,D2*%
X74350000Y-62000000D03*
X77650000Y-62000000D03*
D15*
X72190000Y-62000000D03*
D16*
X79810000Y-62000000D03*
%TD*%
D14*
%TO.C,D3*%
X93350000Y-62000000D03*
X96650000Y-62000000D03*
D15*
X91190000Y-62000000D03*
D16*
X98810000Y-62000000D03*
%TD*%
D14*
%TO.C,D4*%
X112350000Y-62000000D03*
X115650000Y-62000000D03*
D15*
X110190000Y-62000000D03*
D16*
X117810000Y-62000000D03*
%TD*%
D14*
%TO.C,D5*%
X131350000Y-62000000D03*
X134650000Y-62000000D03*
D15*
X129190000Y-62000000D03*
D16*
X136810000Y-62000000D03*
%TD*%
D14*
%TO.C,D6*%
X150350000Y-62000000D03*
X153650000Y-62000000D03*
D15*
X148190000Y-62000000D03*
D16*
X155810000Y-62000000D03*
%TD*%
D14*
%TO.C,D7*%
X36350000Y-86700000D03*
X39650000Y-86700000D03*
D15*
X34190000Y-86700000D03*
D16*
X41810000Y-86700000D03*
%TD*%
D14*
%TO.C,D8*%
X55350000Y-86700000D03*
X58650000Y-86700000D03*
D15*
X53190000Y-86700000D03*
D16*
X60810000Y-86700000D03*
%TD*%
D14*
%TO.C,D9*%
X74350000Y-86700000D03*
X77650000Y-86700000D03*
D15*
X72190000Y-86700000D03*
D16*
X79810000Y-86700000D03*
%TD*%
D14*
%TO.C,D10*%
X93350000Y-86700000D03*
X96650000Y-86700000D03*
D15*
X91190000Y-86700000D03*
D16*
X98810000Y-86700000D03*
%TD*%
D14*
%TO.C,D11*%
X112350000Y-86700000D03*
X115650000Y-86700000D03*
D15*
X110190000Y-86700000D03*
D16*
X117810000Y-86700000D03*
%TD*%
D14*
%TO.C,D12*%
X131350000Y-86700000D03*
X134650000Y-86700000D03*
D15*
X129190000Y-86700000D03*
D16*
X136810000Y-86700000D03*
%TD*%
D14*
%TO.C,D13*%
X150350000Y-86700000D03*
X153650000Y-86700000D03*
D15*
X148190000Y-86700000D03*
D16*
X155810000Y-86700000D03*
%TD*%
D14*
%TO.C,D14*%
X41100000Y-105700000D03*
X44400000Y-105700000D03*
D15*
X38940000Y-105700000D03*
D16*
X46560000Y-105700000D03*
%TD*%
D14*
%TO.C,D15*%
X64850000Y-105700000D03*
X68150000Y-105700000D03*
D15*
X62690000Y-105700000D03*
D16*
X70310000Y-105700000D03*
%TD*%
D14*
%TO.C,D16*%
X83850000Y-105700000D03*
X87150000Y-105700000D03*
D15*
X81690000Y-105700000D03*
D16*
X89310000Y-105700000D03*
%TD*%
D14*
%TO.C,D17*%
X102850000Y-105700000D03*
X106150000Y-105700000D03*
D15*
X100690000Y-105700000D03*
D16*
X108310000Y-105700000D03*
%TD*%
D14*
%TO.C,D18*%
X121850000Y-105700000D03*
X125150000Y-105700000D03*
D15*
X119690000Y-105700000D03*
D16*
X127310000Y-105700000D03*
%TD*%
D14*
%TO.C,D19*%
X140850000Y-105700000D03*
X144150000Y-105700000D03*
D15*
X138690000Y-105700000D03*
D16*
X146310000Y-105700000D03*
%TD*%
D14*
%TO.C,D20*%
X43350000Y-124700000D03*
X46650000Y-124700000D03*
D15*
X41190000Y-124700000D03*
D16*
X48810000Y-124700000D03*
%TD*%
D14*
%TO.C,D21*%
X69350000Y-124700000D03*
X72650000Y-124700000D03*
D15*
X67190000Y-124700000D03*
D16*
X74810000Y-124700000D03*
%TD*%
D14*
%TO.C,D22*%
X88350000Y-124700000D03*
X91650000Y-124700000D03*
D15*
X86190000Y-124700000D03*
D16*
X93810000Y-124700000D03*
%TD*%
D14*
%TO.C,D23*%
X107350000Y-124700000D03*
X110650000Y-124700000D03*
D15*
X105190000Y-124700000D03*
D16*
X112810000Y-124700000D03*
%TD*%
D14*
%TO.C,D24*%
X126350000Y-124700000D03*
X129650000Y-124700000D03*
D15*
X124190000Y-124700000D03*
D16*
X131810000Y-124700000D03*
%TD*%
D14*
%TO.C,D25*%
X145350000Y-124700000D03*
X148650000Y-124700000D03*
D15*
X143190000Y-124700000D03*
D16*
X150810000Y-124700000D03*
%TD*%
D14*
%TO.C,D26*%
X47850000Y-143700000D03*
X51150000Y-143700000D03*
D15*
X45690000Y-143700000D03*
D16*
X53310000Y-143700000D03*
%TD*%
D14*
%TO.C,D27*%
X78350000Y-143700000D03*
X81650000Y-143700000D03*
D15*
X76190000Y-143700000D03*
D16*
X83810000Y-143700000D03*
%TD*%
D14*
%TO.C,D28*%
X97350000Y-143700000D03*
X100650000Y-143700000D03*
D15*
X95190000Y-143700000D03*
D16*
X102810000Y-143700000D03*
%TD*%
D14*
%TO.C,D29*%
X116350000Y-143700000D03*
X119650000Y-143700000D03*
D15*
X114190000Y-143700000D03*
D16*
X121810000Y-143700000D03*
%TD*%
D14*
%TO.C,D30*%
X135350000Y-143700000D03*
X138650000Y-143700000D03*
D15*
X133190000Y-143700000D03*
D16*
X140810000Y-143700000D03*
%TD*%
D14*
%TO.C,D31*%
X154350000Y-143700000D03*
X157650000Y-143700000D03*
D15*
X152190000Y-143700000D03*
D16*
X159810000Y-143700000D03*
%TD*%
D14*
%TO.C,D32*%
X38600000Y-162700000D03*
X41900000Y-162700000D03*
D15*
X36440000Y-162700000D03*
D16*
X44060000Y-162700000D03*
%TD*%
D14*
%TO.C,D33*%
X62100000Y-162700000D03*
X65400000Y-162700000D03*
D15*
X59940000Y-162700000D03*
D16*
X67560000Y-162700000D03*
%TD*%
D14*
%TO.C,D34*%
X85600000Y-162700000D03*
X88900000Y-162700000D03*
D15*
X83440000Y-162700000D03*
D16*
X91060000Y-162700000D03*
%TD*%
D14*
%TO.C,D35*%
X132850000Y-162700000D03*
X136150000Y-162700000D03*
D15*
X130690000Y-162700000D03*
D16*
X138310000Y-162700000D03*
%TD*%
D14*
%TO.C,D36*%
X377600000Y-162700000D03*
X380900000Y-162700000D03*
D15*
X375440000Y-162700000D03*
D16*
X383060000Y-162700000D03*
%TD*%
D14*
%TO.C,D37*%
X354100000Y-162700000D03*
X357400000Y-162700000D03*
D15*
X351940000Y-162700000D03*
D16*
X359560000Y-162700000D03*
%TD*%
D14*
%TO.C,D38*%
X330600000Y-162700000D03*
X333900000Y-162700000D03*
D15*
X328440000Y-162700000D03*
D16*
X336060000Y-162700000D03*
%TD*%
D14*
%TO.C,D39*%
X307100000Y-162700000D03*
X310400000Y-162700000D03*
D15*
X304940000Y-162700000D03*
D16*
X312560000Y-162700000D03*
%TD*%
D14*
%TO.C,D40*%
X259850000Y-162700000D03*
X263150000Y-162700000D03*
D15*
X257690000Y-162700000D03*
D16*
X265310000Y-162700000D03*
%TD*%
D14*
%TO.C,D41*%
X363350000Y-143700000D03*
X366650000Y-143700000D03*
D15*
X361190000Y-143700000D03*
D16*
X368810000Y-143700000D03*
%TD*%
D14*
%TO.C,D42*%
X327850000Y-143700000D03*
X331150000Y-143700000D03*
D15*
X325690000Y-143700000D03*
D16*
X333310000Y-143700000D03*
%TD*%
D14*
%TO.C,D43*%
X308850000Y-143700000D03*
X312150000Y-143700000D03*
D15*
X306690000Y-143700000D03*
D16*
X314310000Y-143700000D03*
%TD*%
D14*
%TO.C,D44*%
X289850000Y-143700000D03*
X293150000Y-143700000D03*
D15*
X287690000Y-143700000D03*
D16*
X295310000Y-143700000D03*
%TD*%
D14*
%TO.C,D45*%
X270850000Y-143700000D03*
X274150000Y-143700000D03*
D15*
X268690000Y-143700000D03*
D16*
X276310000Y-143700000D03*
%TD*%
D14*
%TO.C,D46*%
X251850000Y-143700000D03*
X255150000Y-143700000D03*
D15*
X249690000Y-143700000D03*
D16*
X257310000Y-143700000D03*
%TD*%
D14*
%TO.C,D47*%
X232850000Y-143700000D03*
X236150000Y-143700000D03*
D15*
X230690000Y-143700000D03*
D16*
X238310000Y-143700000D03*
%TD*%
D14*
%TO.C,D48*%
X368350000Y-124700000D03*
X371650000Y-124700000D03*
D15*
X366190000Y-124700000D03*
D16*
X373810000Y-124700000D03*
%TD*%
D14*
%TO.C,D49*%
X337850000Y-124700000D03*
X341150000Y-124700000D03*
D15*
X335690000Y-124700000D03*
D16*
X343310000Y-124700000D03*
%TD*%
D14*
%TO.C,D50*%
X318850000Y-124700000D03*
X322150000Y-124700000D03*
D15*
X316690000Y-124700000D03*
D16*
X324310000Y-124700000D03*
%TD*%
D14*
%TO.C,D51*%
X299850000Y-124700000D03*
X303150000Y-124700000D03*
D15*
X297690000Y-124700000D03*
D16*
X305310000Y-124700000D03*
%TD*%
D14*
%TO.C,D52*%
X280850000Y-124700000D03*
X284150000Y-124700000D03*
D15*
X278690000Y-124700000D03*
D16*
X286310000Y-124700000D03*
%TD*%
D14*
%TO.C,D53*%
X261850000Y-124700000D03*
X265150000Y-124700000D03*
D15*
X259690000Y-124700000D03*
D16*
X267310000Y-124700000D03*
%TD*%
D14*
%TO.C,D54*%
X242850000Y-124700000D03*
X246150000Y-124700000D03*
D15*
X240690000Y-124700000D03*
D16*
X248310000Y-124700000D03*
%TD*%
D14*
%TO.C,D55*%
X375100000Y-105700000D03*
X378400000Y-105700000D03*
D15*
X372940000Y-105700000D03*
D16*
X380560000Y-105700000D03*
%TD*%
D14*
%TO.C,D56*%
X351350000Y-105700000D03*
X354650000Y-105700000D03*
D15*
X349190000Y-105700000D03*
D16*
X356810000Y-105700000D03*
%TD*%
D14*
%TO.C,D57*%
X332350000Y-105700000D03*
X335650000Y-105700000D03*
D15*
X330190000Y-105700000D03*
D16*
X337810000Y-105700000D03*
%TD*%
D14*
%TO.C,D58*%
X313350000Y-105700000D03*
X316650000Y-105700000D03*
D15*
X311190000Y-105700000D03*
D16*
X318810000Y-105700000D03*
%TD*%
D14*
%TO.C,D59*%
X294350000Y-105700000D03*
X297650000Y-105700000D03*
D15*
X292190000Y-105700000D03*
D16*
X299810000Y-105700000D03*
%TD*%
D14*
%TO.C,D60*%
X275350000Y-105700000D03*
X278650000Y-105700000D03*
D15*
X273190000Y-105700000D03*
D16*
X280810000Y-105700000D03*
%TD*%
D14*
%TO.C,D61*%
X256350000Y-105700000D03*
X259650000Y-105700000D03*
D15*
X254190000Y-105700000D03*
D16*
X261810000Y-105700000D03*
%TD*%
D14*
%TO.C,D62*%
X237350000Y-105700000D03*
X240650000Y-105700000D03*
D15*
X235190000Y-105700000D03*
D16*
X242810000Y-105700000D03*
%TD*%
D14*
%TO.C,D63*%
X370350000Y-86700000D03*
X373650000Y-86700000D03*
D15*
X368190000Y-86700000D03*
D16*
X375810000Y-86700000D03*
%TD*%
D14*
%TO.C,D64*%
X341850000Y-86700000D03*
X345150000Y-86700000D03*
D15*
X339690000Y-86700000D03*
D16*
X347310000Y-86700000D03*
%TD*%
D14*
%TO.C,D65*%
X322850000Y-86700000D03*
X326150000Y-86700000D03*
D15*
X320690000Y-86700000D03*
D16*
X328310000Y-86700000D03*
%TD*%
D14*
%TO.C,D66*%
X303850000Y-86700000D03*
X307150000Y-86700000D03*
D15*
X301690000Y-86700000D03*
D16*
X309310000Y-86700000D03*
%TD*%
D14*
%TO.C,D67*%
X284850000Y-86700000D03*
X288150000Y-86700000D03*
D15*
X282690000Y-86700000D03*
D16*
X290310000Y-86700000D03*
%TD*%
D14*
%TO.C,D68*%
X265850000Y-86700000D03*
X269150000Y-86700000D03*
D15*
X263690000Y-86700000D03*
D16*
X271310000Y-86700000D03*
%TD*%
D14*
%TO.C,D69*%
X246850000Y-86700000D03*
X250150000Y-86700000D03*
D15*
X244690000Y-86700000D03*
D16*
X252310000Y-86700000D03*
%TD*%
D14*
%TO.C,D70*%
X379850000Y-62000000D03*
X383150000Y-62000000D03*
D15*
X377690000Y-62000000D03*
D16*
X385310000Y-62000000D03*
%TD*%
D14*
%TO.C,D71*%
X360850000Y-62000000D03*
X364150000Y-62000000D03*
D15*
X358690000Y-62000000D03*
D16*
X366310000Y-62000000D03*
%TD*%
D14*
%TO.C,D72*%
X341850000Y-62000000D03*
X345150000Y-62000000D03*
D15*
X339690000Y-62000000D03*
D16*
X347310000Y-62000000D03*
%TD*%
D14*
%TO.C,D73*%
X322850000Y-62000000D03*
X326150000Y-62000000D03*
D15*
X320690000Y-62000000D03*
D16*
X328310000Y-62000000D03*
%TD*%
D14*
%TO.C,D74*%
X294350000Y-62000000D03*
X297650000Y-62000000D03*
D15*
X292190000Y-62000000D03*
D16*
X299810000Y-62000000D03*
%TD*%
D14*
%TO.C,D75*%
X275350000Y-62000000D03*
X278650000Y-62000000D03*
D15*
X273190000Y-62000000D03*
D16*
X280810000Y-62000000D03*
%TD*%
D14*
%TO.C,D76*%
X256350000Y-62000000D03*
X259650000Y-62000000D03*
D15*
X254190000Y-62000000D03*
D16*
X261810000Y-62000000D03*
%TD*%
D14*
%TO.C,D77*%
X237350000Y-62000000D03*
X240650000Y-62000000D03*
D15*
X235190000Y-62000000D03*
D16*
X242810000Y-62000000D03*
%TD*%
D17*
%TO.C,RST1*%
X187150000Y-62150000D03*
X187150000Y-55650000D03*
%TD*%
%TO.C,RST2*%
X203850000Y-62150000D03*
X203850000Y-55650000D03*
%TD*%
D18*
%TO.C,PWR1*%
X186065000Y-45750000D03*
X188275000Y-45750000D03*
X186065000Y-53050000D03*
X188275000Y-53050000D03*
D19*
X185415000Y-47150000D03*
X185415000Y-50150000D03*
X185415000Y-51650000D03*
D20*
X187175000Y-47900000D03*
X187175000Y-50900000D03*
%TD*%
D21*
%TO.C,PWR2*%
X204935000Y-53050000D03*
X202725000Y-53050000D03*
X204935000Y-45750000D03*
X202725000Y-45750000D03*
D22*
X205585000Y-51650000D03*
X205585000Y-48650000D03*
X205585000Y-47150000D03*
D20*
X203825000Y-50900000D03*
X203825000Y-47900000D03*
%TD*%
D23*
%TO.C,JST1*%
X179550000Y-48500000D03*
D24*
X179550000Y-46500000D03*
%TD*%
D25*
%TO.C,JST2*%
X211450000Y-46500000D03*
D24*
X211450000Y-48500000D03*
%TD*%
D26*
%TO.C,MCU1*%
X168130000Y-54430000D03*
D27*
X168130000Y-56970000D03*
X168130000Y-59510000D03*
X168130000Y-62050000D03*
X168130000Y-64590000D03*
X168130000Y-67130000D03*
X168130000Y-69670000D03*
X168130000Y-72210000D03*
X168130000Y-74750000D03*
X168130000Y-77290000D03*
X168130000Y-79830000D03*
X168130000Y-82370000D03*
X183370000Y-54430000D03*
X183370000Y-56970000D03*
X183370000Y-59510000D03*
X183370000Y-62050000D03*
X183370000Y-64590000D03*
X183370000Y-67130000D03*
X183370000Y-69670000D03*
X183370000Y-72210000D03*
X183370000Y-74750000D03*
X183370000Y-77290000D03*
X183370000Y-79830000D03*
X183370000Y-82370000D03*
%TD*%
D26*
%TO.C,MCU2*%
X207630000Y-54430000D03*
D27*
X207630000Y-56970000D03*
X207630000Y-59510000D03*
X207630000Y-62050000D03*
X207630000Y-64590000D03*
X207630000Y-67130000D03*
X207630000Y-69670000D03*
X207630000Y-72210000D03*
X207630000Y-74750000D03*
X207630000Y-77290000D03*
X207630000Y-79830000D03*
X207630000Y-82370000D03*
X222870000Y-54430000D03*
X222870000Y-56970000D03*
X222870000Y-59510000D03*
X222870000Y-62050000D03*
X222870000Y-64590000D03*
X222870000Y-67130000D03*
X222870000Y-69670000D03*
X222870000Y-72210000D03*
X222870000Y-74750000D03*
X222870000Y-77290000D03*
X222870000Y-79830000D03*
X222870000Y-82370000D03*
%TD*%
D28*
%TO.C,MH1*%
X47500000Y-62700000D03*
%TD*%
%TO.C,MH2*%
X142500000Y-62700000D03*
%TD*%
%TO.C,MH3*%
X49750000Y-163400000D03*
%TD*%
%TO.C,MH4*%
X144000000Y-163400000D03*
%TD*%
%TO.C,MH5*%
X99500000Y-125400000D03*
%TD*%
%TO.C,MH6*%
X248500000Y-62700000D03*
%TD*%
%TO.C,MH7*%
X372000000Y-62700000D03*
%TD*%
%TO.C,MH8*%
X252000000Y-163400000D03*
%TD*%
%TO.C,MH9*%
X369750000Y-163400000D03*
%TD*%
%TO.C,MH10*%
X292000000Y-125400000D03*
%TD*%
M02*
