M48
; DRILL file {KiCad 9.0.2} date 2025-05-23T00:15:23+0900
; FORMAT={-:-/ absolute / metric / decimal}
; #@! TF.CreationDate,2025-05-23T00:15:23+09:00
; #@! TF.GenerationSoftware,Kicad,Pcbnew,9.0.2
; #@! TF.FileFunction,Plated,1,2,PTH
FMAT,2
METRIC
; #@! TA.AperFunction,Plated,PTH,ComponentDrill
T1C0.750
; #@! TA.AperFunction,Plated,PTH,ComponentDrill
T2C0.991
; #@! TA.AperFunction,Plated,PTH,ComponentDrill
T3C1.000
; #@! TA.AperFunction,Plated,PTH,ComponentDrill
T4C1.092
%
G90
G05
T1
X179.55Y-46.5
X179.55Y-48.5
X211.45Y-46.5
X211.45Y-48.5
T2
X34.19Y-62.0
X34.19Y-86.7
X36.44Y-162.7
X38.94Y-105.7
X41.19Y-124.7
X41.81Y-62.0
X41.81Y-86.7
X44.06Y-162.7
X45.69Y-143.7
X46.56Y-105.7
X48.81Y-124.7
X53.19Y-86.7
X53.31Y-143.7
X59.94Y-162.7
X60.81Y-86.7
X62.69Y-105.7
X67.19Y-124.7
X67.56Y-162.7
X70.31Y-105.7
X72.19Y-62.0
X72.19Y-86.7
X74.81Y-124.7
X76.19Y-143.7
X79.81Y-62.0
X79.81Y-86.7
X81.69Y-105.7
X83.44Y-162.7
X83.81Y-143.7
X86.19Y-124.7
X89.31Y-105.7
X91.06Y-162.7
X91.19Y-62.0
X91.19Y-86.7
X93.81Y-124.7
X95.19Y-143.7
X98.81Y-62.0
X98.81Y-86.7
X100.69Y-105.7
X102.81Y-143.7
X105.19Y-124.7
X108.31Y-105.7
X110.19Y-62.0
X110.19Y-86.7
X112.81Y-124.7
X114.19Y-143.7
X117.81Y-62.0
X117.81Y-86.7
X119.69Y-105.7
X121.81Y-143.7
X124.19Y-124.7
X127.31Y-105.7
X129.19Y-62.0
X129.19Y-86.7
X130.69Y-162.7
X131.81Y-124.7
X133.19Y-143.7
X136.81Y-62.0
X136.81Y-86.7
X138.31Y-162.7
X138.69Y-105.7
X140.81Y-143.7
X143.19Y-124.7
X146.31Y-105.7
X148.19Y-62.0
X148.19Y-86.7
X150.81Y-124.7
X152.19Y-143.7
X155.81Y-62.0
X155.81Y-86.7
X159.81Y-143.7
X230.69Y-143.7
X235.19Y-62.0
X235.19Y-105.7
X238.31Y-143.7
X240.69Y-124.7
X242.81Y-62.0
X242.81Y-105.7
X244.69Y-86.7
X248.31Y-124.7
X249.69Y-143.7
X252.31Y-86.7
X254.19Y-62.0
X254.19Y-105.7
X257.31Y-143.7
X257.69Y-162.7
X259.69Y-124.7
X261.81Y-62.0
X261.81Y-105.7
X263.69Y-86.7
X265.31Y-162.7
X267.31Y-124.7
X268.69Y-143.7
X271.31Y-86.7
X273.19Y-62.0
X273.19Y-105.7
X276.31Y-143.7
X278.69Y-124.7
X280.81Y-62.0
X280.81Y-105.7
X282.69Y-86.7
X286.31Y-124.7
X287.69Y-143.7
X290.31Y-86.7
X292.19Y-62.0
X292.19Y-105.7
X295.31Y-143.7
X297.69Y-124.7
X299.81Y-62.0
X299.81Y-105.7
X301.69Y-86.7
X304.94Y-162.7
X305.31Y-124.7
X306.69Y-143.7
X309.31Y-86.7
X311.19Y-105.7
X312.56Y-162.7
X314.31Y-143.7
X316.69Y-124.7
X318.81Y-105.7
X320.69Y-62.0
X320.69Y-86.7
X324.31Y-124.7
X325.69Y-143.7
X328.31Y-62.0
X328.31Y-86.7
X328.44Y-162.7
X330.19Y-105.7
X333.31Y-143.7
X335.69Y-124.7
X336.06Y-162.7
X337.81Y-105.7
X339.69Y-62.0
X339.69Y-86.7
X343.31Y-124.7
X347.31Y-62.0
X347.31Y-86.7
X349.19Y-105.7
X351.94Y-162.7
X356.81Y-105.7
X358.69Y-62.0
X359.56Y-162.7
X361.19Y-143.7
X366.19Y-124.7
X366.31Y-62.0
X368.19Y-86.7
X368.81Y-143.7
X372.94Y-105.7
X373.81Y-124.7
X375.44Y-162.7
X375.81Y-86.7
X377.69Y-62.0
X380.56Y-105.7
X383.06Y-162.7
X385.31Y-62.0
T3
X187.15Y-55.65
X187.15Y-62.15
X203.85Y-55.65
X203.85Y-62.15
T4
X168.13Y-54.43
X168.13Y-56.97
X168.13Y-59.51
X168.13Y-62.05
X168.13Y-64.59
X168.13Y-67.13
X168.13Y-69.67
X168.13Y-72.21
X168.13Y-74.75
X168.13Y-77.29
X168.13Y-79.83
X168.13Y-82.37
X183.37Y-54.43
X183.37Y-56.97
X183.37Y-59.51
X183.37Y-62.05
X183.37Y-64.59
X183.37Y-67.13
X183.37Y-69.67
X183.37Y-72.21
X183.37Y-74.75
X183.37Y-77.29
X183.37Y-79.83
X183.37Y-82.37
X207.63Y-54.43
X207.63Y-56.97
X207.63Y-59.51
X207.63Y-62.05
X207.63Y-64.59
X207.63Y-67.13
X207.63Y-69.67
X207.63Y-72.21
X207.63Y-74.75
X207.63Y-77.29
X207.63Y-79.83
X207.63Y-82.37
X222.87Y-54.43
X222.87Y-56.97
X222.87Y-59.51
X222.87Y-62.05
X222.87Y-64.59
X222.87Y-67.13
X222.87Y-69.67
X222.87Y-72.21
X222.87Y-74.75
X222.87Y-77.29
X222.87Y-79.83
X222.87Y-82.37
M30
