%TF.GenerationSoftware,KiCad,Pcbnew,9.0.2*%
%TF.CreationDate,2025-05-23T00:15:24+09:00*%
%TF.ProjectId,jjongkbd,6a6a6f6e-676b-4626-942e-6b696361645f,0.1*%
%TF.SameCoordinates,Original*%
%TF.FileFunction,Paste,Bot*%
%TF.FilePolarity,Positive*%
%FSLAX46Y46*%
G04 Gerber Fmt 4.6, Leading zero omitted, Abs format (unit mm)*
G04 Created by KiCad (PCBNEW 9.0.2) date 2025-05-23 00:15:24*
%MOMM*%
%LPD*%
G01*
G04 APERTURE LIST*
%ADD10R,2.550000X2.500000*%
%ADD11R,0.900000X1.200000*%
%ADD12R,0.800000X1.000000*%
%ADD13R,1.500000X0.700000*%
G04 APERTURE END LIST*
D10*
%TO.C,S1*%
X30915000Y-54460000D03*
X43842000Y-51920000D03*
%TD*%
%TO.C,S2*%
X68915000Y-54460000D03*
X81842000Y-51920000D03*
%TD*%
%TO.C,S3*%
X87915000Y-54460000D03*
X100842000Y-51920000D03*
%TD*%
%TO.C,S4*%
X106915000Y-54460000D03*
X119842000Y-51920000D03*
%TD*%
%TO.C,S5*%
X125915000Y-54460000D03*
X138842000Y-51920000D03*
%TD*%
%TO.C,S6*%
X144915000Y-54460000D03*
X157842000Y-51920000D03*
%TD*%
%TO.C,S7*%
X30915000Y-79160000D03*
X43842000Y-76620000D03*
%TD*%
%TO.C,S8*%
X49915000Y-79160000D03*
X62842000Y-76620000D03*
%TD*%
%TO.C,S9*%
X68915000Y-79160000D03*
X81842000Y-76620000D03*
%TD*%
%TO.C,S10*%
X87915000Y-79160000D03*
X100842000Y-76620000D03*
%TD*%
%TO.C,S11*%
X106915000Y-79160000D03*
X119842000Y-76620000D03*
%TD*%
%TO.C,S12*%
X125915000Y-79160000D03*
X138842000Y-76620000D03*
%TD*%
%TO.C,S13*%
X144915000Y-79160000D03*
X157842000Y-76620000D03*
%TD*%
%TO.C,S14*%
X35665000Y-98160000D03*
X48592000Y-95620000D03*
%TD*%
%TO.C,S15*%
X59415000Y-98160000D03*
X72342000Y-95620000D03*
%TD*%
%TO.C,S16*%
X78415000Y-98160000D03*
X91342000Y-95620000D03*
%TD*%
%TO.C,S17*%
X97415000Y-98160000D03*
X110342000Y-95620000D03*
%TD*%
%TO.C,S18*%
X116415000Y-98160000D03*
X129342000Y-95620000D03*
%TD*%
%TO.C,S19*%
X135415000Y-98160000D03*
X148342000Y-95620000D03*
%TD*%
%TO.C,S20*%
X37915000Y-117160000D03*
X50842000Y-114620000D03*
%TD*%
%TO.C,S21*%
X63915000Y-117160000D03*
X76842000Y-114620000D03*
%TD*%
%TO.C,S22*%
X82915000Y-117160000D03*
X95842000Y-114620000D03*
%TD*%
%TO.C,S23*%
X101915000Y-117160000D03*
X114842000Y-114620000D03*
%TD*%
%TO.C,S24*%
X120915000Y-117160000D03*
X133842000Y-114620000D03*
%TD*%
%TO.C,S25*%
X139915000Y-117160000D03*
X152842000Y-114620000D03*
%TD*%
%TO.C,S26*%
X42415000Y-136160000D03*
X55342000Y-133620000D03*
%TD*%
%TO.C,S27*%
X72915000Y-136160000D03*
X85842000Y-133620000D03*
%TD*%
%TO.C,S28*%
X91915000Y-136160000D03*
X104842000Y-133620000D03*
%TD*%
%TO.C,S29*%
X110915000Y-136160000D03*
X123842000Y-133620000D03*
%TD*%
%TO.C,S30*%
X129915000Y-136160000D03*
X142842000Y-133620000D03*
%TD*%
%TO.C,S31*%
X148915000Y-136160000D03*
X161842000Y-133620000D03*
%TD*%
%TO.C,S32*%
X33165000Y-155160000D03*
X46092000Y-152620000D03*
%TD*%
%TO.C,S33*%
X56665000Y-155160000D03*
X69592000Y-152620000D03*
%TD*%
%TO.C,S34*%
X80165000Y-155160000D03*
X93092000Y-152620000D03*
%TD*%
%TO.C,S35*%
X127415000Y-155160000D03*
X140342000Y-152620000D03*
%TD*%
%TO.C,S36*%
X372165000Y-155160000D03*
X385092000Y-152620000D03*
%TD*%
%TO.C,S37*%
X348665000Y-155160000D03*
X361592000Y-152620000D03*
%TD*%
%TO.C,S38*%
X325165000Y-155160000D03*
X338092000Y-152620000D03*
%TD*%
%TO.C,S39*%
X301665000Y-155160000D03*
X314592000Y-152620000D03*
%TD*%
%TO.C,S40*%
X254415000Y-155160000D03*
X267342000Y-152620000D03*
%TD*%
%TO.C,S41*%
X357915000Y-136160000D03*
X370842000Y-133620000D03*
%TD*%
%TO.C,S42*%
X322415000Y-136160000D03*
X335342000Y-133620000D03*
%TD*%
%TO.C,S43*%
X303415000Y-136160000D03*
X316342000Y-133620000D03*
%TD*%
%TO.C,S44*%
X284415000Y-136160000D03*
X297342000Y-133620000D03*
%TD*%
%TO.C,S45*%
X265415000Y-136160000D03*
X278342000Y-133620000D03*
%TD*%
%TO.C,S46*%
X246415000Y-136160000D03*
X259342000Y-133620000D03*
%TD*%
%TO.C,S47*%
X227415000Y-136160000D03*
X240342000Y-133620000D03*
%TD*%
%TO.C,S48*%
X362915000Y-117160000D03*
X375842000Y-114620000D03*
%TD*%
%TO.C,S49*%
X332415000Y-117160000D03*
X345342000Y-114620000D03*
%TD*%
%TO.C,S50*%
X313415000Y-117160000D03*
X326342000Y-114620000D03*
%TD*%
%TO.C,S51*%
X294415000Y-117160000D03*
X307342000Y-114620000D03*
%TD*%
%TO.C,S52*%
X275415000Y-117160000D03*
X288342000Y-114620000D03*
%TD*%
%TO.C,S53*%
X256415000Y-117160000D03*
X269342000Y-114620000D03*
%TD*%
%TO.C,S54*%
X237415000Y-117160000D03*
X250342000Y-114620000D03*
%TD*%
%TO.C,S55*%
X369665000Y-98160000D03*
X382592000Y-95620000D03*
%TD*%
%TO.C,S56*%
X345915000Y-98160000D03*
X358842000Y-95620000D03*
%TD*%
%TO.C,S57*%
X326915000Y-98160000D03*
X339842000Y-95620000D03*
%TD*%
%TO.C,S58*%
X307915000Y-98160000D03*
X320842000Y-95620000D03*
%TD*%
%TO.C,S59*%
X288915000Y-98160000D03*
X301842000Y-95620000D03*
%TD*%
%TO.C,S60*%
X269915000Y-98160000D03*
X282842000Y-95620000D03*
%TD*%
%TO.C,S61*%
X250915000Y-98160000D03*
X263842000Y-95620000D03*
%TD*%
%TO.C,S62*%
X231915000Y-98160000D03*
X244842000Y-95620000D03*
%TD*%
%TO.C,S63*%
X364915000Y-79160000D03*
X377842000Y-76620000D03*
%TD*%
%TO.C,S64*%
X336415000Y-79160000D03*
X349342000Y-76620000D03*
%TD*%
%TO.C,S65*%
X317415000Y-79160000D03*
X330342000Y-76620000D03*
%TD*%
%TO.C,S66*%
X298415000Y-79160000D03*
X311342000Y-76620000D03*
%TD*%
%TO.C,S67*%
X279415000Y-79160000D03*
X292342000Y-76620000D03*
%TD*%
%TO.C,S68*%
X260415000Y-79160000D03*
X273342000Y-76620000D03*
%TD*%
%TO.C,S69*%
X241415000Y-79160000D03*
X254342000Y-76620000D03*
%TD*%
%TO.C,S70*%
X374415000Y-54460000D03*
X387342000Y-51920000D03*
%TD*%
%TO.C,S71*%
X355415000Y-54460000D03*
X368342000Y-51920000D03*
%TD*%
%TO.C,S72*%
X336415000Y-54460000D03*
X349342000Y-51920000D03*
%TD*%
%TO.C,S73*%
X317415000Y-54460000D03*
X330342000Y-51920000D03*
%TD*%
%TO.C,S74*%
X288915000Y-54460000D03*
X301842000Y-51920000D03*
%TD*%
%TO.C,S75*%
X269915000Y-54460000D03*
X282842000Y-51920000D03*
%TD*%
%TO.C,S76*%
X250915000Y-54460000D03*
X263842000Y-51920000D03*
%TD*%
%TO.C,S77*%
X231915000Y-54460000D03*
X244842000Y-51920000D03*
%TD*%
D11*
%TO.C,D1*%
X36350000Y-62000000D03*
X39650000Y-62000000D03*
%TD*%
%TO.C,D2*%
X74350000Y-62000000D03*
X77650000Y-62000000D03*
%TD*%
%TO.C,D3*%
X93350000Y-62000000D03*
X96650000Y-62000000D03*
%TD*%
%TO.C,D4*%
X112350000Y-62000000D03*
X115650000Y-62000000D03*
%TD*%
%TO.C,D5*%
X131350000Y-62000000D03*
X134650000Y-62000000D03*
%TD*%
%TO.C,D6*%
X150350000Y-62000000D03*
X153650000Y-62000000D03*
%TD*%
%TO.C,D7*%
X36350000Y-86700000D03*
X39650000Y-86700000D03*
%TD*%
%TO.C,D8*%
X55350000Y-86700000D03*
X58650000Y-86700000D03*
%TD*%
%TO.C,D9*%
X74350000Y-86700000D03*
X77650000Y-86700000D03*
%TD*%
%TO.C,D10*%
X93350000Y-86700000D03*
X96650000Y-86700000D03*
%TD*%
%TO.C,D11*%
X112350000Y-86700000D03*
X115650000Y-86700000D03*
%TD*%
%TO.C,D12*%
X131350000Y-86700000D03*
X134650000Y-86700000D03*
%TD*%
%TO.C,D13*%
X150350000Y-86700000D03*
X153650000Y-86700000D03*
%TD*%
%TO.C,D14*%
X41100000Y-105700000D03*
X44400000Y-105700000D03*
%TD*%
%TO.C,D15*%
X64850000Y-105700000D03*
X68150000Y-105700000D03*
%TD*%
%TO.C,D16*%
X83850000Y-105700000D03*
X87150000Y-105700000D03*
%TD*%
%TO.C,D17*%
X102850000Y-105700000D03*
X106150000Y-105700000D03*
%TD*%
%TO.C,D18*%
X121850000Y-105700000D03*
X125150000Y-105700000D03*
%TD*%
%TO.C,D19*%
X140850000Y-105700000D03*
X144150000Y-105700000D03*
%TD*%
%TO.C,D20*%
X43350000Y-124700000D03*
X46650000Y-124700000D03*
%TD*%
%TO.C,D21*%
X69350000Y-124700000D03*
X72650000Y-124700000D03*
%TD*%
%TO.C,D22*%
X88350000Y-124700000D03*
X91650000Y-124700000D03*
%TD*%
%TO.C,D23*%
X107350000Y-124700000D03*
X110650000Y-124700000D03*
%TD*%
%TO.C,D24*%
X126350000Y-124700000D03*
X129650000Y-124700000D03*
%TD*%
%TO.C,D25*%
X145350000Y-124700000D03*
X148650000Y-124700000D03*
%TD*%
%TO.C,D26*%
X47850000Y-143700000D03*
X51150000Y-143700000D03*
%TD*%
%TO.C,D27*%
X78350000Y-143700000D03*
X81650000Y-143700000D03*
%TD*%
%TO.C,D28*%
X97350000Y-143700000D03*
X100650000Y-143700000D03*
%TD*%
%TO.C,D29*%
X116350000Y-143700000D03*
X119650000Y-143700000D03*
%TD*%
%TO.C,D30*%
X135350000Y-143700000D03*
X138650000Y-143700000D03*
%TD*%
%TO.C,D31*%
X154350000Y-143700000D03*
X157650000Y-143700000D03*
%TD*%
%TO.C,D32*%
X38600000Y-162700000D03*
X41900000Y-162700000D03*
%TD*%
%TO.C,D33*%
X62100000Y-162700000D03*
X65400000Y-162700000D03*
%TD*%
%TO.C,D34*%
X85600000Y-162700000D03*
X88900000Y-162700000D03*
%TD*%
%TO.C,D35*%
X132850000Y-162700000D03*
X136150000Y-162700000D03*
%TD*%
%TO.C,D36*%
X377600000Y-162700000D03*
X380900000Y-162700000D03*
%TD*%
%TO.C,D37*%
X354100000Y-162700000D03*
X357400000Y-162700000D03*
%TD*%
%TO.C,D38*%
X330600000Y-162700000D03*
X333900000Y-162700000D03*
%TD*%
%TO.C,D39*%
X307100000Y-162700000D03*
X310400000Y-162700000D03*
%TD*%
%TO.C,D40*%
X259850000Y-162700000D03*
X263150000Y-162700000D03*
%TD*%
%TO.C,D41*%
X363350000Y-143700000D03*
X366650000Y-143700000D03*
%TD*%
%TO.C,D42*%
X327850000Y-143700000D03*
X331150000Y-143700000D03*
%TD*%
%TO.C,D43*%
X308850000Y-143700000D03*
X312150000Y-143700000D03*
%TD*%
%TO.C,D44*%
X289850000Y-143700000D03*
X293150000Y-143700000D03*
%TD*%
%TO.C,D45*%
X270850000Y-143700000D03*
X274150000Y-143700000D03*
%TD*%
%TO.C,D46*%
X251850000Y-143700000D03*
X255150000Y-143700000D03*
%TD*%
%TO.C,D47*%
X232850000Y-143700000D03*
X236150000Y-143700000D03*
%TD*%
%TO.C,D48*%
X368350000Y-124700000D03*
X371650000Y-124700000D03*
%TD*%
%TO.C,D49*%
X337850000Y-124700000D03*
X341150000Y-124700000D03*
%TD*%
%TO.C,D50*%
X318850000Y-124700000D03*
X322150000Y-124700000D03*
%TD*%
%TO.C,D51*%
X299850000Y-124700000D03*
X303150000Y-124700000D03*
%TD*%
%TO.C,D52*%
X280850000Y-124700000D03*
X284150000Y-124700000D03*
%TD*%
%TO.C,D53*%
X261850000Y-124700000D03*
X265150000Y-124700000D03*
%TD*%
%TO.C,D54*%
X242850000Y-124700000D03*
X246150000Y-124700000D03*
%TD*%
%TO.C,D55*%
X375100000Y-105700000D03*
X378400000Y-105700000D03*
%TD*%
%TO.C,D56*%
X351350000Y-105700000D03*
X354650000Y-105700000D03*
%TD*%
%TO.C,D57*%
X332350000Y-105700000D03*
X335650000Y-105700000D03*
%TD*%
%TO.C,D58*%
X313350000Y-105700000D03*
X316650000Y-105700000D03*
%TD*%
%TO.C,D59*%
X294350000Y-105700000D03*
X297650000Y-105700000D03*
%TD*%
%TO.C,D60*%
X275350000Y-105700000D03*
X278650000Y-105700000D03*
%TD*%
%TO.C,D61*%
X256350000Y-105700000D03*
X259650000Y-105700000D03*
%TD*%
%TO.C,D62*%
X237350000Y-105700000D03*
X240650000Y-105700000D03*
%TD*%
%TO.C,D63*%
X370350000Y-86700000D03*
X373650000Y-86700000D03*
%TD*%
%TO.C,D64*%
X341850000Y-86700000D03*
X345150000Y-86700000D03*
%TD*%
%TO.C,D65*%
X322850000Y-86700000D03*
X326150000Y-86700000D03*
%TD*%
%TO.C,D66*%
X303850000Y-86700000D03*
X307150000Y-86700000D03*
%TD*%
%TO.C,D67*%
X284850000Y-86700000D03*
X288150000Y-86700000D03*
%TD*%
%TO.C,D68*%
X265850000Y-86700000D03*
X269150000Y-86700000D03*
%TD*%
%TO.C,D69*%
X246850000Y-86700000D03*
X250150000Y-86700000D03*
%TD*%
%TO.C,D70*%
X379850000Y-62000000D03*
X383150000Y-62000000D03*
%TD*%
%TO.C,D71*%
X360850000Y-62000000D03*
X364150000Y-62000000D03*
%TD*%
%TO.C,D72*%
X341850000Y-62000000D03*
X345150000Y-62000000D03*
%TD*%
%TO.C,D73*%
X322850000Y-62000000D03*
X326150000Y-62000000D03*
%TD*%
%TO.C,D74*%
X294350000Y-62000000D03*
X297650000Y-62000000D03*
%TD*%
%TO.C,D75*%
X275350000Y-62000000D03*
X278650000Y-62000000D03*
%TD*%
%TO.C,D76*%
X256350000Y-62000000D03*
X259650000Y-62000000D03*
%TD*%
%TO.C,D77*%
X237350000Y-62000000D03*
X240650000Y-62000000D03*
%TD*%
D12*
%TO.C,PWR1*%
X186065000Y-45750000D03*
X188275000Y-45750000D03*
X186065000Y-53050000D03*
X188275000Y-53050000D03*
D13*
X185415000Y-47150000D03*
X185415000Y-50150000D03*
X185415000Y-51650000D03*
%TD*%
D12*
%TO.C,PWR2*%
X204935000Y-53050000D03*
X202725000Y-53050000D03*
X204935000Y-45750000D03*
X202725000Y-45750000D03*
D13*
X205585000Y-51650000D03*
X205585000Y-48650000D03*
X205585000Y-47150000D03*
%TD*%
M02*
