M48
; DRILL file {KiCad 9.0.2} date 2025-05-23T00:15:23+0900
; FORMAT={-:-/ absolute / metric / decimal}
; #@! TF.CreationDate,2025-05-23T00:15:23+09:00
; #@! TF.GenerationSoftware,Kicad,Pcbnew,9.0.2
; #@! TF.FileFunction,NonPlated,1,2,NPTH
FMAT,2
METRIC
; #@! TA.AperFunction,NonPlated,NPTH,ComponentDrill
T1C0.900
; #@! TA.AperFunction,NonPlated,NPTH,ComponentDrill
T2C1.702
; #@! TA.AperFunction,NonPlated,NPTH,ComponentDrill
T3C2.200
; #@! TA.AperFunction,NonPlated,NPTH,ComponentDrill
T4C3.000
; #@! TA.AperFunction,NonPlated,NPTH,ComponentDrill
T5C3.988
%
G90
G05
T1
X187.175Y-47.9
X187.175Y-50.9
X203.825Y-47.9
X203.825Y-50.9
T2
X32.92Y-57.0
X32.92Y-81.7
X35.17Y-157.7
X37.67Y-100.7
X39.92Y-119.7
X43.08Y-57.0
X43.08Y-81.7
X44.42Y-138.7
X45.33Y-157.7
X47.83Y-100.7
X50.08Y-119.7
X51.92Y-81.7
X54.58Y-138.7
X58.67Y-157.7
X61.42Y-100.7
X62.08Y-81.7
X65.92Y-119.7
X68.83Y-157.7
X70.92Y-57.0
X70.92Y-81.7
X71.58Y-100.7
X74.92Y-138.7
X76.08Y-119.7
X80.42Y-100.7
X81.08Y-57.0
X81.08Y-81.7
X82.17Y-157.7
X84.92Y-119.7
X85.08Y-138.7
X89.92Y-57.0
X89.92Y-81.7
X90.58Y-100.7
X92.33Y-157.7
X93.92Y-138.7
X95.08Y-119.7
X99.42Y-100.7
X100.08Y-57.0
X100.08Y-81.7
X103.92Y-119.7
X104.08Y-138.7
X108.92Y-57.0
X108.92Y-81.7
X109.58Y-100.7
X112.92Y-138.7
X114.08Y-119.7
X118.42Y-100.7
X119.08Y-57.0
X119.08Y-81.7
X122.92Y-119.7
X123.08Y-138.7
X127.92Y-57.0
X127.92Y-81.7
X128.58Y-100.7
X129.42Y-157.7
X131.92Y-138.7
X133.08Y-119.7
X137.42Y-100.7
X138.08Y-57.0
X138.08Y-81.7
X139.58Y-157.7
X141.92Y-119.7
X142.08Y-138.7
X146.92Y-57.0
X146.92Y-81.7
X147.58Y-100.7
X150.92Y-138.7
X152.08Y-119.7
X157.08Y-57.0
X157.08Y-81.7
X161.08Y-138.7
X229.42Y-138.7
X233.92Y-57.0
X233.92Y-100.7
X239.42Y-119.7
X239.58Y-138.7
X243.42Y-81.7
X244.08Y-57.0
X244.08Y-100.7
X248.42Y-138.7
X249.58Y-119.7
X252.92Y-57.0
X252.92Y-100.7
X253.58Y-81.7
X256.42Y-157.7
X258.42Y-119.7
X258.58Y-138.7
X262.42Y-81.7
X263.08Y-57.0
X263.08Y-100.7
X266.58Y-157.7
X267.42Y-138.7
X268.58Y-119.7
X271.92Y-57.0
X271.92Y-100.7
X272.58Y-81.7
X277.42Y-119.7
X277.58Y-138.7
X281.42Y-81.7
X282.08Y-57.0
X282.08Y-100.7
X286.42Y-138.7
X287.58Y-119.7
X290.92Y-57.0
X290.92Y-100.7
X291.58Y-81.7
X296.42Y-119.7
X296.58Y-138.7
X300.42Y-81.7
X301.08Y-57.0
X301.08Y-100.7
X303.67Y-157.7
X305.42Y-138.7
X306.58Y-119.7
X309.92Y-100.7
X310.58Y-81.7
X313.83Y-157.7
X315.42Y-119.7
X315.58Y-138.7
X319.42Y-57.0
X319.42Y-81.7
X320.08Y-100.7
X324.42Y-138.7
X325.58Y-119.7
X327.17Y-157.7
X328.92Y-100.7
X329.58Y-57.0
X329.58Y-81.7
X334.42Y-119.7
X334.58Y-138.7
X337.33Y-157.7
X338.42Y-57.0
X338.42Y-81.7
X339.08Y-100.7
X344.58Y-119.7
X347.92Y-100.7
X348.58Y-57.0
X348.58Y-81.7
X350.67Y-157.7
X357.42Y-57.0
X358.08Y-100.7
X359.92Y-138.7
X360.83Y-157.7
X364.92Y-119.7
X366.92Y-81.7
X367.58Y-57.0
X370.08Y-138.7
X371.67Y-100.7
X374.17Y-157.7
X375.08Y-119.7
X376.42Y-57.0
X377.08Y-81.7
X381.83Y-100.7
X384.33Y-157.7
X386.58Y-57.0
T3
X47.5Y-62.7
X49.75Y-163.4
X99.5Y-125.4
X142.5Y-62.7
X144.0Y-163.4
X248.5Y-62.7
X252.0Y-163.4
X292.0Y-125.4
X369.75Y-163.4
X372.0Y-62.7
T4
X34.19Y-54.46
X34.19Y-79.16
X36.44Y-155.16
X38.94Y-98.16
X40.54Y-51.92
X40.54Y-76.62
X41.19Y-117.16
X42.79Y-152.62
X45.29Y-95.62
X45.69Y-136.16
X47.54Y-114.62
X52.04Y-133.62
X53.19Y-79.16
X59.54Y-76.62
X59.94Y-155.16
X62.69Y-98.16
X66.29Y-152.62
X67.19Y-117.16
X69.04Y-95.62
X72.19Y-54.46
X72.19Y-79.16
X73.54Y-114.62
X76.19Y-136.16
X78.54Y-51.92
X78.54Y-76.62
X81.69Y-98.16
X82.54Y-133.62
X83.44Y-155.16
X86.19Y-117.16
X88.04Y-95.62
X89.79Y-152.62
X91.19Y-54.46
X91.19Y-79.16
X92.54Y-114.62
X95.19Y-136.16
X97.54Y-51.92
X97.54Y-76.62
X100.69Y-98.16
X101.54Y-133.62
X105.19Y-117.16
X107.04Y-95.62
X110.19Y-54.46
X110.19Y-79.16
X111.54Y-114.62
X114.19Y-136.16
X116.54Y-51.92
X116.54Y-76.62
X119.69Y-98.16
X120.54Y-133.62
X124.19Y-117.16
X126.04Y-95.62
X129.19Y-54.46
X129.19Y-79.16
X130.54Y-114.62
X130.69Y-155.16
X133.19Y-136.16
X135.54Y-51.92
X135.54Y-76.62
X137.04Y-152.62
X138.69Y-98.16
X139.54Y-133.62
X143.19Y-117.16
X145.04Y-95.62
X148.19Y-54.46
X148.19Y-79.16
X149.54Y-114.62
X152.19Y-136.16
X154.54Y-51.92
X154.54Y-76.62
X158.54Y-133.62
X230.69Y-136.16
X235.19Y-54.46
X235.19Y-98.16
X237.04Y-133.62
X240.69Y-117.16
X241.54Y-51.92
X241.54Y-95.62
X244.69Y-79.16
X247.04Y-114.62
X249.69Y-136.16
X251.04Y-76.62
X254.19Y-54.46
X254.19Y-98.16
X256.04Y-133.62
X257.69Y-155.16
X259.69Y-117.16
X260.54Y-51.92
X260.54Y-95.62
X263.69Y-79.16
X264.04Y-152.62
X266.04Y-114.62
X268.69Y-136.16
X270.04Y-76.62
X273.19Y-54.46
X273.19Y-98.16
X275.04Y-133.62
X278.69Y-117.16
X279.54Y-51.92
X279.54Y-95.62
X282.69Y-79.16
X285.04Y-114.62
X287.69Y-136.16
X289.04Y-76.62
X292.19Y-54.46
X292.19Y-98.16
X294.04Y-133.62
X297.69Y-117.16
X298.54Y-51.92
X298.54Y-95.62
X301.69Y-79.16
X304.04Y-114.62
X304.94Y-155.16
X306.69Y-136.16
X308.04Y-76.62
X311.19Y-98.16
X311.29Y-152.62
X313.04Y-133.62
X316.69Y-117.16
X317.54Y-95.62
X320.69Y-54.46
X320.69Y-79.16
X323.04Y-114.62
X325.69Y-136.16
X327.04Y-51.92
X327.04Y-76.62
X328.44Y-155.16
X330.19Y-98.16
X332.04Y-133.62
X334.79Y-152.62
X335.69Y-117.16
X336.54Y-95.62
X339.69Y-54.46
X339.69Y-79.16
X342.04Y-114.62
X346.04Y-51.92
X346.04Y-76.62
X349.19Y-98.16
X351.94Y-155.16
X355.54Y-95.62
X358.29Y-152.62
X358.69Y-54.46
X361.19Y-136.16
X365.04Y-51.92
X366.19Y-117.16
X367.54Y-133.62
X368.19Y-79.16
X372.54Y-114.62
X372.94Y-98.16
X374.54Y-76.62
X375.44Y-155.16
X377.69Y-54.46
X379.29Y-95.62
X381.79Y-152.62
X384.04Y-51.92
T5
X38.0Y-57.0
X38.0Y-81.7
X40.25Y-157.7
X42.75Y-100.7
X45.0Y-119.7
X49.5Y-138.7
X57.0Y-81.7
X63.75Y-157.7
X66.5Y-100.7
X71.0Y-119.7
X76.0Y-57.0
X76.0Y-81.7
X80.0Y-138.7
X85.5Y-100.7
X87.25Y-157.7
X90.0Y-119.7
X95.0Y-57.0
X95.0Y-81.7
X99.0Y-138.7
X104.5Y-100.7
X109.0Y-119.7
X114.0Y-57.0
X114.0Y-81.7
X118.0Y-138.7
X123.5Y-100.7
X128.0Y-119.7
X133.0Y-57.0
X133.0Y-81.7
X134.5Y-157.7
X137.0Y-138.7
X142.5Y-100.7
X147.0Y-119.7
X152.0Y-57.0
X152.0Y-81.7
X156.0Y-138.7
X234.5Y-138.7
X239.0Y-57.0
X239.0Y-100.7
X244.5Y-119.7
X248.5Y-81.7
X253.5Y-138.7
X258.0Y-57.0
X258.0Y-100.7
X261.5Y-157.7
X263.5Y-119.7
X267.5Y-81.7
X272.5Y-138.7
X277.0Y-57.0
X277.0Y-100.7
X282.5Y-119.7
X286.5Y-81.7
X291.5Y-138.7
X296.0Y-57.0
X296.0Y-100.7
X301.5Y-119.7
X305.5Y-81.7
X308.75Y-157.7
X310.5Y-138.7
X315.0Y-100.7
X320.5Y-119.7
X324.5Y-57.0
X324.5Y-81.7
X329.5Y-138.7
X332.25Y-157.7
X334.0Y-100.7
X339.5Y-119.7
X343.5Y-57.0
X343.5Y-81.7
X353.0Y-100.7
X355.75Y-157.7
X362.5Y-57.0
X365.0Y-138.7
X370.0Y-119.7
X372.0Y-81.7
X376.75Y-100.7
X379.25Y-157.7
X381.5Y-57.0
M30
