%TF.GenerationSoftware,KiCad,Pcbnew,9.0.2*%
%TF.CreationDate,2025-05-23T00:15:24+09:00*%
%TF.ProjectId,jjongkbd,6a6a6f6e-676b-4626-942e-6b696361645f,0.1*%
%TF.SameCoordinates,Original*%
%TF.FileFunction,Copper,L1,Top*%
%TF.FilePolarity,Positive*%
%FSLAX46Y46*%
G04 Gerber Fmt 4.6, Leading zero omitted, Abs format (unit mm)*
G04 Created by KiCad (PCBNEW 9.0.2) date 2025-05-23 00:15:24*
%MOMM*%
%LPD*%
G01*
G04 APERTURE LIST*
G04 Aperture macros list*
%AMRoundRect*
0 Rectangle with rounded corners*
0 $1 Rounding radius*
0 $2 $3 $4 $5 $6 $7 $8 $9 X,Y pos of 4 corners*
0 Add a 4 corners polygon primitive as box body*
4,1,4,$2,$3,$4,$5,$6,$7,$8,$9,$2,$3,0*
0 Add four circle primitives for the rounded corners*
1,1,$1+$1,$2,$3*
1,1,$1+$1,$4,$5*
1,1,$1+$1,$6,$7*
1,1,$1+$1,$8,$9*
0 Add four rect primitives between the rounded corners*
20,1,$1+$1,$2,$3,$4,$5,0*
20,1,$1+$1,$4,$5,$6,$7,0*
20,1,$1+$1,$6,$7,$8,$9,0*
20,1,$1+$1,$8,$9,$2,$3,0*%
G04 Aperture macros list end*
%TA.AperFunction,ComponentPad*%
%ADD10R,1.778000X1.778000*%
%TD*%
%TA.AperFunction,ComponentPad*%
%ADD11C,1.905000*%
%TD*%
%TA.AperFunction,ComponentPad*%
%ADD12C,1.700000*%
%TD*%
%TA.AperFunction,ComponentPad*%
%ADD13RoundRect,0.240000X-0.635000X0.360000X-0.635000X-0.360000X0.635000X-0.360000X0.635000X0.360000X0*%
%TD*%
%TA.AperFunction,ComponentPad*%
%ADD14O,1.750000X1.200000*%
%TD*%
%TA.AperFunction,ComponentPad*%
%ADD15RoundRect,0.240000X0.635000X-0.360000X0.635000X0.360000X-0.635000X0.360000X-0.635000X-0.360000X0*%
%TD*%
%TA.AperFunction,ComponentPad*%
%ADD16R,1.752600X1.752600*%
%TD*%
%TA.AperFunction,ComponentPad*%
%ADD17C,1.752600*%
%TD*%
%TA.AperFunction,Conductor*%
%ADD18C,0.250000*%
%TD*%
G04 APERTURE END LIST*
D10*
%TO.P,D1,1*%
%TO.N,LR1*%
X34190000Y-62000000D03*
D11*
%TO.P,D1,2*%
%TO.N,function_esc*%
X41810000Y-62000000D03*
%TD*%
D10*
%TO.P,D2,1*%
%TO.N,LR1*%
X72190000Y-62000000D03*
D11*
%TO.P,D2,2*%
%TO.N,function_f1*%
X79810000Y-62000000D03*
%TD*%
D10*
%TO.P,D3,1*%
%TO.N,LR1*%
X91190000Y-62000000D03*
D11*
%TO.P,D3,2*%
%TO.N,function_f2*%
X98810000Y-62000000D03*
%TD*%
D10*
%TO.P,D4,1*%
%TO.N,LR1*%
X110190000Y-62000000D03*
D11*
%TO.P,D4,2*%
%TO.N,function_f3*%
X117810000Y-62000000D03*
%TD*%
D10*
%TO.P,D5,1*%
%TO.N,LR1*%
X129190000Y-62000000D03*
D11*
%TO.P,D5,2*%
%TO.N,function_f4*%
X136810000Y-62000000D03*
%TD*%
D10*
%TO.P,D6,1*%
%TO.N,LR1*%
X148190000Y-62000000D03*
D11*
%TO.P,D6,2*%
%TO.N,function_f5*%
X155810000Y-62000000D03*
%TD*%
D10*
%TO.P,D7,1*%
%TO.N,LR2*%
X34190000Y-86700000D03*
D11*
%TO.P,D7,2*%
%TO.N,num_tilda*%
X41810000Y-86700000D03*
%TD*%
D10*
%TO.P,D8,1*%
%TO.N,LR2*%
X53190000Y-86700000D03*
D11*
%TO.P,D8,2*%
%TO.N,num_one*%
X60810000Y-86700000D03*
%TD*%
D10*
%TO.P,D9,1*%
%TO.N,LR2*%
X72190000Y-86700000D03*
D11*
%TO.P,D9,2*%
%TO.N,num_two*%
X79810000Y-86700000D03*
%TD*%
D10*
%TO.P,D10,1*%
%TO.N,LR2*%
X91190000Y-86700000D03*
D11*
%TO.P,D10,2*%
%TO.N,num_three*%
X98810000Y-86700000D03*
%TD*%
D10*
%TO.P,D11,1*%
%TO.N,LR2*%
X110190000Y-86700000D03*
D11*
%TO.P,D11,2*%
%TO.N,num_four*%
X117810000Y-86700000D03*
%TD*%
D10*
%TO.P,D12,1*%
%TO.N,LR2*%
X129190000Y-86700000D03*
D11*
%TO.P,D12,2*%
%TO.N,num_five*%
X136810000Y-86700000D03*
%TD*%
D10*
%TO.P,D13,1*%
%TO.N,LR2*%
X148190000Y-86700000D03*
D11*
%TO.P,D13,2*%
%TO.N,num_six*%
X155810000Y-86700000D03*
%TD*%
D10*
%TO.P,D14,1*%
%TO.N,LR3*%
X38940000Y-105700000D03*
D11*
%TO.P,D14,2*%
%TO.N,top_tab*%
X46560000Y-105700000D03*
%TD*%
D10*
%TO.P,D15,1*%
%TO.N,LR3*%
X62690000Y-105700000D03*
D11*
%TO.P,D15,2*%
%TO.N,top_q*%
X70310000Y-105700000D03*
%TD*%
D10*
%TO.P,D16,1*%
%TO.N,LR3*%
X81690000Y-105700000D03*
D11*
%TO.P,D16,2*%
%TO.N,top_w*%
X89310000Y-105700000D03*
%TD*%
D10*
%TO.P,D17,1*%
%TO.N,LR3*%
X100690000Y-105700000D03*
D11*
%TO.P,D17,2*%
%TO.N,top_e*%
X108310000Y-105700000D03*
%TD*%
D10*
%TO.P,D18,1*%
%TO.N,LR3*%
X119690000Y-105700000D03*
D11*
%TO.P,D18,2*%
%TO.N,top_r*%
X127310000Y-105700000D03*
%TD*%
D10*
%TO.P,D19,1*%
%TO.N,LR3*%
X138690000Y-105700000D03*
D11*
%TO.P,D19,2*%
%TO.N,top_t*%
X146310000Y-105700000D03*
%TD*%
D10*
%TO.P,D20,1*%
%TO.N,LR4*%
X41190000Y-124700000D03*
D11*
%TO.P,D20,2*%
%TO.N,mid_caps*%
X48810000Y-124700000D03*
%TD*%
D10*
%TO.P,D21,1*%
%TO.N,LR4*%
X67190000Y-124700000D03*
D11*
%TO.P,D21,2*%
%TO.N,mid_a*%
X74810000Y-124700000D03*
%TD*%
D10*
%TO.P,D22,1*%
%TO.N,LR4*%
X86190000Y-124700000D03*
D11*
%TO.P,D22,2*%
%TO.N,mid_s*%
X93810000Y-124700000D03*
%TD*%
D10*
%TO.P,D23,1*%
%TO.N,LR4*%
X105190000Y-124700000D03*
D11*
%TO.P,D23,2*%
%TO.N,mid_d*%
X112810000Y-124700000D03*
%TD*%
D10*
%TO.P,D24,1*%
%TO.N,LR4*%
X124190000Y-124700000D03*
D11*
%TO.P,D24,2*%
%TO.N,mid_f*%
X131810000Y-124700000D03*
%TD*%
D10*
%TO.P,D25,1*%
%TO.N,LR4*%
X143190000Y-124700000D03*
D11*
%TO.P,D25,2*%
%TO.N,mid_g*%
X150810000Y-124700000D03*
%TD*%
D10*
%TO.P,D26,1*%
%TO.N,LR5*%
X45690000Y-143700000D03*
D11*
%TO.P,D26,2*%
%TO.N,bottom_shift*%
X53310000Y-143700000D03*
%TD*%
D10*
%TO.P,D27,1*%
%TO.N,LR5*%
X76190000Y-143700000D03*
D11*
%TO.P,D27,2*%
%TO.N,bottom_z*%
X83810000Y-143700000D03*
%TD*%
D10*
%TO.P,D28,1*%
%TO.N,LR5*%
X95190000Y-143700000D03*
D11*
%TO.P,D28,2*%
%TO.N,bottom_x*%
X102810000Y-143700000D03*
%TD*%
D10*
%TO.P,D29,1*%
%TO.N,LR5*%
X114190000Y-143700000D03*
D11*
%TO.P,D29,2*%
%TO.N,bottom_c*%
X121810000Y-143700000D03*
%TD*%
D10*
%TO.P,D30,1*%
%TO.N,LR5*%
X133190000Y-143700000D03*
D11*
%TO.P,D30,2*%
%TO.N,bottom_v*%
X140810000Y-143700000D03*
%TD*%
D10*
%TO.P,D31,1*%
%TO.N,LR5*%
X152190000Y-143700000D03*
D11*
%TO.P,D31,2*%
%TO.N,bottom_b*%
X159810000Y-143700000D03*
%TD*%
D10*
%TO.P,D32,1*%
%TO.N,LR6*%
X36440000Y-162700000D03*
D11*
%TO.P,D32,2*%
%TO.N,meta_ctrl*%
X44060000Y-162700000D03*
%TD*%
D10*
%TO.P,D33,1*%
%TO.N,LR6*%
X59940000Y-162700000D03*
D11*
%TO.P,D33,2*%
%TO.N,meta_win*%
X67560000Y-162700000D03*
%TD*%
D10*
%TO.P,D34,1*%
%TO.N,LR6*%
X83440000Y-162700000D03*
D11*
%TO.P,D34,2*%
%TO.N,meta_alt*%
X91060000Y-162700000D03*
%TD*%
D10*
%TO.P,D35,1*%
%TO.N,LR6*%
X130690000Y-162700000D03*
D11*
%TO.P,D35,2*%
%TO.N,meta_space*%
X138310000Y-162700000D03*
%TD*%
D10*
%TO.P,D36,1*%
%TO.N,RR6*%
X375440000Y-162700000D03*
D11*
%TO.P,D36,2*%
%TO.N,meta_ctrl_r*%
X383060000Y-162700000D03*
%TD*%
D10*
%TO.P,D37,1*%
%TO.N,RR6*%
X351940000Y-162700000D03*
D11*
%TO.P,D37,2*%
%TO.N,meta_meta*%
X359560000Y-162700000D03*
%TD*%
D10*
%TO.P,D38,1*%
%TO.N,RR6*%
X328440000Y-162700000D03*
D11*
%TO.P,D38,2*%
%TO.N,meta_fn*%
X336060000Y-162700000D03*
%TD*%
D10*
%TO.P,D39,1*%
%TO.N,RR6*%
X304940000Y-162700000D03*
D11*
%TO.P,D39,2*%
%TO.N,meta_alt_r*%
X312560000Y-162700000D03*
%TD*%
D10*
%TO.P,D40,1*%
%TO.N,RR6*%
X257690000Y-162700000D03*
D11*
%TO.P,D40,2*%
%TO.N,meta_space_r*%
X265310000Y-162700000D03*
%TD*%
D10*
%TO.P,D41,1*%
%TO.N,RR5*%
X361190000Y-143700000D03*
D11*
%TO.P,D41,2*%
%TO.N,bottom_shift_r*%
X368810000Y-143700000D03*
%TD*%
D10*
%TO.P,D42,1*%
%TO.N,RR5*%
X325690000Y-143700000D03*
D11*
%TO.P,D42,2*%
%TO.N,bottom_slash*%
X333310000Y-143700000D03*
%TD*%
D10*
%TO.P,D43,1*%
%TO.N,RR5*%
X306690000Y-143700000D03*
D11*
%TO.P,D43,2*%
%TO.N,bottom_period*%
X314310000Y-143700000D03*
%TD*%
D10*
%TO.P,D44,1*%
%TO.N,RR5*%
X287690000Y-143700000D03*
D11*
%TO.P,D44,2*%
%TO.N,bottom_comma*%
X295310000Y-143700000D03*
%TD*%
D10*
%TO.P,D45,1*%
%TO.N,RR5*%
X268690000Y-143700000D03*
D11*
%TO.P,D45,2*%
%TO.N,bottom_m*%
X276310000Y-143700000D03*
%TD*%
D10*
%TO.P,D46,1*%
%TO.N,RR5*%
X249690000Y-143700000D03*
D11*
%TO.P,D46,2*%
%TO.N,bottom_n*%
X257310000Y-143700000D03*
%TD*%
D10*
%TO.P,D47,1*%
%TO.N,RR5*%
X230690000Y-143700000D03*
D11*
%TO.P,D47,2*%
%TO.N,bottom_b_r*%
X238310000Y-143700000D03*
%TD*%
D10*
%TO.P,D48,1*%
%TO.N,RR4*%
X366190000Y-124700000D03*
D11*
%TO.P,D48,2*%
%TO.N,mid_enter*%
X373810000Y-124700000D03*
%TD*%
D10*
%TO.P,D49,1*%
%TO.N,RR4*%
X335690000Y-124700000D03*
D11*
%TO.P,D49,2*%
%TO.N,mid_quote*%
X343310000Y-124700000D03*
%TD*%
D10*
%TO.P,D50,1*%
%TO.N,RR4*%
X316690000Y-124700000D03*
D11*
%TO.P,D50,2*%
%TO.N,mid_colon*%
X324310000Y-124700000D03*
%TD*%
D10*
%TO.P,D51,1*%
%TO.N,RR4*%
X297690000Y-124700000D03*
D11*
%TO.P,D51,2*%
%TO.N,mid_l*%
X305310000Y-124700000D03*
%TD*%
D10*
%TO.P,D52,1*%
%TO.N,RR4*%
X278690000Y-124700000D03*
D11*
%TO.P,D52,2*%
%TO.N,mid_k*%
X286310000Y-124700000D03*
%TD*%
D10*
%TO.P,D53,1*%
%TO.N,RR4*%
X259690000Y-124700000D03*
D11*
%TO.P,D53,2*%
%TO.N,mid_j*%
X267310000Y-124700000D03*
%TD*%
D10*
%TO.P,D54,1*%
%TO.N,RR4*%
X240690000Y-124700000D03*
D11*
%TO.P,D54,2*%
%TO.N,mid_h*%
X248310000Y-124700000D03*
%TD*%
D10*
%TO.P,D55,1*%
%TO.N,RR3*%
X372940000Y-105700000D03*
D11*
%TO.P,D55,2*%
%TO.N,top_pipe*%
X380560000Y-105700000D03*
%TD*%
D10*
%TO.P,D56,1*%
%TO.N,RR3*%
X349190000Y-105700000D03*
D11*
%TO.P,D56,2*%
%TO.N,top_right_paren*%
X356810000Y-105700000D03*
%TD*%
D10*
%TO.P,D57,1*%
%TO.N,RR3*%
X330190000Y-105700000D03*
D11*
%TO.P,D57,2*%
%TO.N,top_left_paren*%
X337810000Y-105700000D03*
%TD*%
D10*
%TO.P,D58,1*%
%TO.N,RR3*%
X311190000Y-105700000D03*
D11*
%TO.P,D58,2*%
%TO.N,top_p*%
X318810000Y-105700000D03*
%TD*%
D10*
%TO.P,D59,1*%
%TO.N,RR3*%
X292190000Y-105700000D03*
D11*
%TO.P,D59,2*%
%TO.N,top_o*%
X299810000Y-105700000D03*
%TD*%
D10*
%TO.P,D60,1*%
%TO.N,RR3*%
X273190000Y-105700000D03*
D11*
%TO.P,D60,2*%
%TO.N,top_i*%
X280810000Y-105700000D03*
%TD*%
D10*
%TO.P,D61,1*%
%TO.N,RR3*%
X254190000Y-105700000D03*
D11*
%TO.P,D61,2*%
%TO.N,top_u*%
X261810000Y-105700000D03*
%TD*%
D10*
%TO.P,D62,1*%
%TO.N,RR3*%
X235190000Y-105700000D03*
D11*
%TO.P,D62,2*%
%TO.N,top_y*%
X242810000Y-105700000D03*
%TD*%
D10*
%TO.P,D63,1*%
%TO.N,RR2*%
X368190000Y-86700000D03*
D11*
%TO.P,D63,2*%
%TO.N,num_backspace*%
X375810000Y-86700000D03*
%TD*%
D10*
%TO.P,D64,1*%
%TO.N,RR2*%
X339690000Y-86700000D03*
D11*
%TO.P,D64,2*%
%TO.N,num_plus*%
X347310000Y-86700000D03*
%TD*%
D10*
%TO.P,D65,1*%
%TO.N,RR2*%
X320690000Y-86700000D03*
D11*
%TO.P,D65,2*%
%TO.N,num_minus*%
X328310000Y-86700000D03*
%TD*%
D10*
%TO.P,D66,1*%
%TO.N,RR2*%
X301690000Y-86700000D03*
D11*
%TO.P,D66,2*%
%TO.N,num_zero*%
X309310000Y-86700000D03*
%TD*%
D10*
%TO.P,D67,1*%
%TO.N,RR2*%
X282690000Y-86700000D03*
D11*
%TO.P,D67,2*%
%TO.N,num_nine*%
X290310000Y-86700000D03*
%TD*%
D10*
%TO.P,D68,1*%
%TO.N,RR2*%
X263690000Y-86700000D03*
D11*
%TO.P,D68,2*%
%TO.N,num_eight*%
X271310000Y-86700000D03*
%TD*%
D10*
%TO.P,D69,1*%
%TO.N,RR2*%
X244690000Y-86700000D03*
D11*
%TO.P,D69,2*%
%TO.N,num_seven*%
X252310000Y-86700000D03*
%TD*%
D10*
%TO.P,D70,1*%
%TO.N,RR1*%
X377690000Y-62000000D03*
D11*
%TO.P,D70,2*%
%TO.N,function_f12*%
X385310000Y-62000000D03*
%TD*%
D10*
%TO.P,D71,1*%
%TO.N,RR1*%
X358690000Y-62000000D03*
D11*
%TO.P,D71,2*%
%TO.N,function_f11*%
X366310000Y-62000000D03*
%TD*%
D10*
%TO.P,D72,1*%
%TO.N,RR1*%
X339690000Y-62000000D03*
D11*
%TO.P,D72,2*%
%TO.N,function_f10*%
X347310000Y-62000000D03*
%TD*%
D10*
%TO.P,D73,1*%
%TO.N,RR1*%
X320690000Y-62000000D03*
D11*
%TO.P,D73,2*%
%TO.N,function_f9*%
X328310000Y-62000000D03*
%TD*%
D10*
%TO.P,D74,1*%
%TO.N,RR1*%
X292190000Y-62000000D03*
D11*
%TO.P,D74,2*%
%TO.N,function_f8*%
X299810000Y-62000000D03*
%TD*%
D10*
%TO.P,D75,1*%
%TO.N,RR1*%
X273190000Y-62000000D03*
D11*
%TO.P,D75,2*%
%TO.N,function_f7*%
X280810000Y-62000000D03*
%TD*%
D10*
%TO.P,D76,1*%
%TO.N,RR1*%
X254190000Y-62000000D03*
D11*
%TO.P,D76,2*%
%TO.N,function_f6*%
X261810000Y-62000000D03*
%TD*%
D10*
%TO.P,D77,1*%
%TO.N,RR1*%
X235190000Y-62000000D03*
D11*
%TO.P,D77,2*%
%TO.N,function_f5_r*%
X242810000Y-62000000D03*
%TD*%
D12*
%TO.P,RST1,2*%
%TO.N,LGND*%
X187150000Y-62150000D03*
%TO.P,RST1,1*%
%TO.N,LRST*%
X187150000Y-55650000D03*
%TD*%
%TO.P,RST2,2*%
%TO.N,RGND*%
X203850000Y-62150000D03*
%TO.P,RST2,1*%
%TO.N,RRST*%
X203850000Y-55650000D03*
%TD*%
D13*
%TO.P,JST1,1*%
%TO.N,LGND*%
X179550000Y-48500000D03*
D14*
%TO.P,JST1,2*%
%TO.N,LBAT*%
X179550000Y-46500000D03*
%TD*%
D15*
%TO.P,JST2,1*%
%TO.N,RGND*%
X211450000Y-46500000D03*
D14*
%TO.P,JST2,2*%
%TO.N,RBAT*%
X211450000Y-48500000D03*
%TD*%
D16*
%TO.P,MCU1,1*%
%TO.N,LRAW*%
X168130000Y-54430000D03*
D17*
%TO.P,MCU1,2*%
%TO.N,LGND*%
X168130000Y-56970000D03*
%TO.P,MCU1,3*%
%TO.N,LRST*%
X168130000Y-59510000D03*
%TO.P,MCU1,4*%
%TO.N,LVCC*%
X168130000Y-62050000D03*
%TO.P,MCU1,5*%
%TO.N,LP21*%
X168130000Y-64590000D03*
%TO.P,MCU1,6*%
%TO.N,LP20*%
X168130000Y-67130000D03*
%TO.P,MCU1,7*%
%TO.N,LR6*%
X168130000Y-69670000D03*
%TO.P,MCU1,8*%
%TO.N,LR5*%
X168130000Y-72210000D03*
%TO.P,MCU1,9*%
%TO.N,LR4*%
X168130000Y-74750000D03*
%TO.P,MCU1,10*%
%TO.N,LR3*%
X168130000Y-77290000D03*
%TO.P,MCU1,11*%
%TO.N,LR2*%
X168130000Y-79830000D03*
%TO.P,MCU1,12*%
%TO.N,LR1*%
X168130000Y-82370000D03*
%TO.P,MCU1,13*%
%TO.N,LP1*%
X183370000Y-54430000D03*
%TO.P,MCU1,14*%
%TO.N,LP0*%
X183370000Y-56970000D03*
%TO.P,MCU1,15*%
%TO.N,LGND*%
X183370000Y-59510000D03*
%TO.P,MCU1,16*%
X183370000Y-62050000D03*
%TO.P,MCU1,17*%
%TO.N,LP2*%
X183370000Y-64590000D03*
%TO.P,MCU1,18*%
%TO.N,LC7*%
X183370000Y-67130000D03*
%TO.P,MCU1,19*%
%TO.N,LC6*%
X183370000Y-69670000D03*
%TO.P,MCU1,20*%
%TO.N,LC5*%
X183370000Y-72210000D03*
%TO.P,MCU1,21*%
%TO.N,LC4*%
X183370000Y-74750000D03*
%TO.P,MCU1,22*%
%TO.N,LC3*%
X183370000Y-77290000D03*
%TO.P,MCU1,23*%
%TO.N,LC2*%
X183370000Y-79830000D03*
%TO.P,MCU1,24*%
%TO.N,LC1*%
X183370000Y-82370000D03*
%TD*%
D16*
%TO.P,MCU2,1*%
%TO.N,RRAW*%
X207630000Y-54430000D03*
D17*
%TO.P,MCU2,2*%
%TO.N,RGND*%
X207630000Y-56970000D03*
%TO.P,MCU2,3*%
%TO.N,RRST*%
X207630000Y-59510000D03*
%TO.P,MCU2,4*%
%TO.N,RVCC*%
X207630000Y-62050000D03*
%TO.P,MCU2,5*%
%TO.N,RC1*%
X207630000Y-64590000D03*
%TO.P,MCU2,6*%
%TO.N,RC2*%
X207630000Y-67130000D03*
%TO.P,MCU2,7*%
%TO.N,RC3*%
X207630000Y-69670000D03*
%TO.P,MCU2,8*%
%TO.N,RC4*%
X207630000Y-72210000D03*
%TO.P,MCU2,9*%
%TO.N,RC5*%
X207630000Y-74750000D03*
%TO.P,MCU2,10*%
%TO.N,RC6*%
X207630000Y-77290000D03*
%TO.P,MCU2,11*%
%TO.N,RC7*%
X207630000Y-79830000D03*
%TO.P,MCU2,12*%
%TO.N,RC8*%
X207630000Y-82370000D03*
%TO.P,MCU2,13*%
%TO.N,RP1*%
X222870000Y-54430000D03*
%TO.P,MCU2,14*%
%TO.N,RP0*%
X222870000Y-56970000D03*
%TO.P,MCU2,15*%
%TO.N,RGND*%
X222870000Y-59510000D03*
%TO.P,MCU2,16*%
X222870000Y-62050000D03*
%TO.P,MCU2,17*%
%TO.N,RP2*%
X222870000Y-64590000D03*
%TO.P,MCU2,18*%
%TO.N,RP3*%
X222870000Y-67130000D03*
%TO.P,MCU2,19*%
%TO.N,RR6*%
X222870000Y-69670000D03*
%TO.P,MCU2,20*%
%TO.N,RR5*%
X222870000Y-72210000D03*
%TO.P,MCU2,21*%
%TO.N,RR4*%
X222870000Y-74750000D03*
%TO.P,MCU2,22*%
%TO.N,RR3*%
X222870000Y-77290000D03*
%TO.P,MCU2,23*%
%TO.N,RR2*%
X222870000Y-79830000D03*
%TO.P,MCU2,24*%
%TO.N,RR1*%
X222870000Y-82370000D03*
%TD*%
D18*
%TO.N,RR1*%
X235190000Y-62000000D02*
X235190000Y-62310000D01*
X235190000Y-62310000D02*
X233500000Y-64000000D01*
X228598000Y-64902000D02*
X228598000Y-124126380D01*
X228077380Y-124647000D02*
X227147000Y-124647000D01*
X229500000Y-64000000D02*
X228598000Y-64902000D01*
X228598000Y-124126380D02*
X228077380Y-124647000D01*
X226755000Y-104065950D02*
X219853000Y-97163950D01*
X227147000Y-124647000D02*
X226755000Y-124255000D01*
X221130000Y-82370000D02*
X222870000Y-82370000D01*
X226755000Y-124255000D02*
X226755000Y-104065950D01*
X219853000Y-97163950D02*
X219853000Y-83647000D01*
X233500000Y-64000000D02*
X229500000Y-64000000D01*
X219853000Y-83647000D02*
X221130000Y-82370000D01*
%TO.N,RR3*%
X222870000Y-77290000D02*
X220210000Y-77290000D01*
X229500000Y-108000000D02*
X230500000Y-107000000D01*
X233890000Y-107000000D02*
X235190000Y-105700000D01*
X218951000Y-78549000D02*
X218951000Y-97537570D01*
X220210000Y-77290000D02*
X218951000Y-78549000D01*
X225853000Y-104439570D02*
X225853000Y-124715190D01*
X225853000Y-124715190D02*
X226686810Y-125549000D01*
X226686810Y-125549000D02*
X228451000Y-125549000D01*
X218951000Y-97537570D02*
X225853000Y-104439570D01*
X228451000Y-125549000D02*
X229500000Y-124500000D01*
X229500000Y-124500000D02*
X229500000Y-108000000D01*
X230500000Y-107000000D02*
X233890000Y-107000000D01*
%TO.N,RR2*%
X222870000Y-79830000D02*
X220494971Y-79830000D01*
X226304000Y-124528380D02*
X226873620Y-125098000D01*
X226873620Y-125098000D02*
X228264190Y-125098000D01*
X219402000Y-97350760D02*
X226304000Y-104252760D01*
X226304000Y-104252760D02*
X226304000Y-124528380D01*
X220494971Y-79830000D02*
X219402000Y-80922971D01*
X228264190Y-125098000D02*
X229049000Y-124313190D01*
X229049000Y-124313190D02*
X229049000Y-89451000D01*
X229049000Y-89451000D02*
X230500000Y-88000000D01*
X219402000Y-80922971D02*
X219402000Y-97350760D01*
X230500000Y-88000000D02*
X243390000Y-88000000D01*
X243390000Y-88000000D02*
X244690000Y-86700000D01*
%TO.N,RR4*%
X222870000Y-74750000D02*
X220250000Y-74750000D01*
X220250000Y-74750000D02*
X218451000Y-76549000D01*
X218451000Y-76549000D02*
X218451000Y-97675380D01*
X218451000Y-97675380D02*
X225402000Y-104626380D01*
X225402000Y-104626380D02*
X225402000Y-124902000D01*
X225402000Y-124902000D02*
X226500000Y-126000000D01*
X226500000Y-126000000D02*
X239390000Y-126000000D01*
X239390000Y-126000000D02*
X240690000Y-124700000D01*
%TO.N,RR5*%
X229390000Y-145000000D02*
X226500000Y-145000000D01*
X226500000Y-145000000D02*
X224951000Y-143451000D01*
X224951000Y-143451000D02*
X224951000Y-104813190D01*
X218000000Y-97862190D02*
X218000000Y-74500000D01*
X224951000Y-104813190D02*
X218000000Y-97862190D01*
X230690000Y-143700000D02*
X229390000Y-145000000D01*
X218000000Y-74500000D02*
X220290000Y-72210000D01*
X220290000Y-72210000D02*
X222870000Y-72210000D01*
%TO.N,RR6*%
X222870000Y-69670000D02*
X220330000Y-69670000D01*
X217500000Y-72500000D02*
X217500000Y-98000000D01*
X220330000Y-69670000D02*
X217500000Y-72500000D01*
X225876000Y-164876000D02*
X255514000Y-164876000D01*
X224500000Y-105000000D02*
X224500000Y-163500000D01*
X255514000Y-164876000D02*
X257690000Y-162700000D01*
X217500000Y-98000000D02*
X224500000Y-105000000D01*
X224500000Y-163500000D02*
X225876000Y-164876000D01*
%TO.N,RR1*%
X222630000Y-82370000D02*
X222500000Y-82500000D01*
%TO.N,RR6*%
X351940000Y-162700000D02*
X354116000Y-164876000D01*
X354116000Y-164876000D02*
X373264000Y-164876000D01*
X373264000Y-164876000D02*
X375440000Y-162700000D01*
X328440000Y-162700000D02*
X329718500Y-163978500D01*
X329718500Y-163978500D02*
X350661500Y-163978500D01*
X350661500Y-163978500D02*
X351940000Y-162700000D01*
X304940000Y-162700000D02*
X306218500Y-163978500D01*
X306218500Y-163978500D02*
X327161500Y-163978500D01*
X327161500Y-163978500D02*
X328440000Y-162700000D01*
X257690000Y-162700000D02*
X258990000Y-164000000D01*
X258990000Y-164000000D02*
X303640000Y-164000000D01*
X303640000Y-164000000D02*
X304940000Y-162700000D01*
%TO.N,RR5*%
X325690000Y-143700000D02*
X326968500Y-144978500D01*
X326968500Y-144978500D02*
X359911500Y-144978500D01*
X359911500Y-144978500D02*
X361190000Y-143700000D01*
X306690000Y-143700000D02*
X307968500Y-144978500D01*
X324411500Y-144978500D02*
X325690000Y-143700000D01*
X307968500Y-144978500D02*
X324411500Y-144978500D01*
X287690000Y-143700000D02*
X288968500Y-144978500D01*
X288968500Y-144978500D02*
X305411500Y-144978500D01*
X305411500Y-144978500D02*
X306690000Y-143700000D01*
X268690000Y-143700000D02*
X269968500Y-144978500D01*
X286411500Y-144978500D02*
X287690000Y-143700000D01*
X269968500Y-144978500D02*
X286411500Y-144978500D01*
X249690000Y-143700000D02*
X250968500Y-144978500D01*
X267411500Y-144978500D02*
X268690000Y-143700000D01*
X250968500Y-144978500D02*
X267411500Y-144978500D01*
X230690000Y-143700000D02*
X231990000Y-145000000D01*
X231990000Y-145000000D02*
X248390000Y-145000000D01*
X248390000Y-145000000D02*
X249690000Y-143700000D01*
%TO.N,RR4*%
X278690000Y-124700000D02*
X280866000Y-126876000D01*
X280866000Y-126876000D02*
X295514000Y-126876000D01*
X295514000Y-126876000D02*
X297690000Y-124700000D01*
X259690000Y-124700000D02*
X260968500Y-125978500D01*
X260968500Y-125978500D02*
X277411500Y-125978500D01*
X277411500Y-125978500D02*
X278690000Y-124700000D01*
X259690000Y-124700000D02*
X258411500Y-125978500D01*
X258411500Y-125978500D02*
X241968500Y-125978500D01*
X241968500Y-125978500D02*
X240690000Y-124700000D01*
X297690000Y-124700000D02*
X298968500Y-125978500D01*
X298968500Y-125978500D02*
X315411500Y-125978500D01*
X315411500Y-125978500D02*
X316690000Y-124700000D01*
X316690000Y-124700000D02*
X317990000Y-126000000D01*
X317990000Y-126000000D02*
X334390000Y-126000000D01*
X334390000Y-126000000D02*
X335690000Y-124700000D01*
X335690000Y-124700000D02*
X336968500Y-125978500D01*
X336968500Y-125978500D02*
X364911500Y-125978500D01*
X364911500Y-125978500D02*
X366190000Y-124700000D01*
%TO.N,RR3*%
X349190000Y-105700000D02*
X350468500Y-106978500D01*
X350468500Y-106978500D02*
X371661500Y-106978500D01*
X371661500Y-106978500D02*
X372940000Y-105700000D01*
X330190000Y-105700000D02*
X331468500Y-106978500D01*
X331468500Y-106978500D02*
X347911500Y-106978500D01*
X347911500Y-106978500D02*
X349190000Y-105700000D01*
X311190000Y-105700000D02*
X312468500Y-106978500D01*
X312468500Y-106978500D02*
X328911500Y-106978500D01*
X328911500Y-106978500D02*
X330190000Y-105700000D01*
X292190000Y-105700000D02*
X293468500Y-106978500D01*
X293468500Y-106978500D02*
X309911500Y-106978500D01*
X309911500Y-106978500D02*
X311190000Y-105700000D01*
X273190000Y-105700000D02*
X274468500Y-106978500D01*
X274468500Y-106978500D02*
X290911500Y-106978500D01*
X290911500Y-106978500D02*
X292190000Y-105700000D01*
X254190000Y-105700000D02*
X255468500Y-106978500D01*
X255468500Y-106978500D02*
X271911500Y-106978500D01*
X271911500Y-106978500D02*
X273190000Y-105700000D01*
X235190000Y-105700000D02*
X236468500Y-106978500D01*
X236468500Y-106978500D02*
X252911500Y-106978500D01*
X252911500Y-106978500D02*
X254190000Y-105700000D01*
%TO.N,RR2*%
X263690000Y-86700000D02*
X262411500Y-87978500D01*
X262411500Y-87978500D02*
X245968500Y-87978500D01*
X245968500Y-87978500D02*
X244690000Y-86700000D01*
X282690000Y-86700000D02*
X281411500Y-87978500D01*
X281411500Y-87978500D02*
X264968500Y-87978500D01*
X264968500Y-87978500D02*
X263690000Y-86700000D01*
X301690000Y-86700000D02*
X300411500Y-87978500D01*
X283968500Y-87978500D02*
X282690000Y-86700000D01*
X300411500Y-87978500D02*
X283968500Y-87978500D01*
X320690000Y-86700000D02*
X319411500Y-87978500D01*
X319411500Y-87978500D02*
X302968500Y-87978500D01*
X302968500Y-87978500D02*
X301690000Y-86700000D01*
X339690000Y-86700000D02*
X338411500Y-87978500D01*
X338411500Y-87978500D02*
X321968500Y-87978500D01*
X321968500Y-87978500D02*
X320690000Y-86700000D01*
X368190000Y-86700000D02*
X366911500Y-87978500D01*
X366911500Y-87978500D02*
X340968500Y-87978500D01*
X340968500Y-87978500D02*
X339690000Y-86700000D01*
%TO.N,RR1*%
X358690000Y-62000000D02*
X360866000Y-64176000D01*
X360866000Y-64176000D02*
X375514000Y-64176000D01*
X375514000Y-64176000D02*
X377690000Y-62000000D01*
X339690000Y-62000000D02*
X340968500Y-63278500D01*
X340968500Y-63278500D02*
X357411500Y-63278500D01*
X357411500Y-63278500D02*
X358690000Y-62000000D01*
X320690000Y-62000000D02*
X321968500Y-63278500D01*
X321968500Y-63278500D02*
X338411500Y-63278500D01*
X338411500Y-63278500D02*
X339690000Y-62000000D01*
X292190000Y-62000000D02*
X293468500Y-63278500D01*
X293468500Y-63278500D02*
X319411500Y-63278500D01*
X319411500Y-63278500D02*
X320690000Y-62000000D01*
X273190000Y-62000000D02*
X274468500Y-63278500D01*
X274468500Y-63278500D02*
X290911500Y-63278500D01*
X290911500Y-63278500D02*
X292190000Y-62000000D01*
X254190000Y-62000000D02*
X255468500Y-63278500D01*
X255468500Y-63278500D02*
X271911500Y-63278500D01*
X271911500Y-63278500D02*
X273190000Y-62000000D01*
X235190000Y-62000000D02*
X237366000Y-64176000D01*
X237366000Y-64176000D02*
X252014000Y-64176000D01*
X252014000Y-64176000D02*
X254190000Y-62000000D01*
%TO.N,LR1*%
X165245000Y-123341570D02*
X165245000Y-105065950D01*
X158500000Y-63500000D02*
X160451000Y-65451000D01*
X160451000Y-122922620D02*
X162175380Y-124647000D01*
X148190000Y-62000000D02*
X149690000Y-63500000D01*
X160451000Y-65451000D02*
X160451000Y-122922620D01*
X162175380Y-124647000D02*
X163939570Y-124647000D01*
X163939570Y-124647000D02*
X165245000Y-123341570D01*
X149690000Y-63500000D02*
X158500000Y-63500000D01*
X171745000Y-98565950D02*
X171745000Y-83745000D01*
X170370000Y-82370000D02*
X168130000Y-82370000D01*
X165245000Y-105065950D02*
X171745000Y-98565950D01*
X171745000Y-83745000D02*
X170370000Y-82370000D01*
%TO.N,LR6*%
X83440000Y-162700000D02*
X84718500Y-163978500D01*
X84718500Y-163978500D02*
X129411500Y-163978500D01*
X129411500Y-163978500D02*
X130690000Y-162700000D01*
X59940000Y-162700000D02*
X61218500Y-163978500D01*
X61218500Y-163978500D02*
X82161500Y-163978500D01*
X82161500Y-163978500D02*
X83440000Y-162700000D01*
X36440000Y-162700000D02*
X38616000Y-164876000D01*
X57764000Y-164876000D02*
X59940000Y-162700000D01*
X38616000Y-164876000D02*
X57764000Y-164876000D01*
%TO.N,LR5*%
X45690000Y-143700000D02*
X46968500Y-144978500D01*
X46968500Y-144978500D02*
X74911500Y-144978500D01*
X74911500Y-144978500D02*
X76190000Y-143700000D01*
X76190000Y-143700000D02*
X77468500Y-144978500D01*
X77468500Y-144978500D02*
X93911500Y-144978500D01*
X93911500Y-144978500D02*
X95190000Y-143700000D01*
X95190000Y-143700000D02*
X96990000Y-145500000D01*
X112390000Y-145500000D02*
X114190000Y-143700000D01*
X96990000Y-145500000D02*
X112390000Y-145500000D01*
X114190000Y-143700000D02*
X115468500Y-144978500D01*
X115468500Y-144978500D02*
X131911500Y-144978500D01*
X131911500Y-144978500D02*
X133190000Y-143700000D01*
X133190000Y-143700000D02*
X134468500Y-144978500D01*
X134468500Y-144978500D02*
X150911500Y-144978500D01*
X150911500Y-144978500D02*
X152190000Y-143700000D01*
%TO.N,LR4*%
X41190000Y-124700000D02*
X42468500Y-125978500D01*
X42468500Y-125978500D02*
X65911500Y-125978500D01*
X65911500Y-125978500D02*
X67190000Y-124700000D01*
X67190000Y-124700000D02*
X68468500Y-125978500D01*
X84911500Y-125978500D02*
X86190000Y-124700000D01*
X68468500Y-125978500D02*
X84911500Y-125978500D01*
X86190000Y-124700000D02*
X88366000Y-126876000D01*
X88366000Y-126876000D02*
X103014000Y-126876000D01*
X103014000Y-126876000D02*
X105190000Y-124700000D01*
X105190000Y-124700000D02*
X106990000Y-126500000D01*
X106990000Y-126500000D02*
X122390000Y-126500000D01*
X122390000Y-126500000D02*
X124190000Y-124700000D01*
X124190000Y-124700000D02*
X125468500Y-125978500D01*
X125468500Y-125978500D02*
X141911500Y-125978500D01*
X141911500Y-125978500D02*
X143190000Y-124700000D01*
%TO.N,LR3*%
X38940000Y-105700000D02*
X40218500Y-106978500D01*
X40218500Y-106978500D02*
X61411500Y-106978500D01*
X61411500Y-106978500D02*
X62690000Y-105700000D01*
X62690000Y-105700000D02*
X63968500Y-106978500D01*
X63968500Y-106978500D02*
X80411500Y-106978500D01*
X80411500Y-106978500D02*
X81690000Y-105700000D01*
X81690000Y-105700000D02*
X82968500Y-106978500D01*
X99411500Y-106978500D02*
X100690000Y-105700000D01*
X82968500Y-106978500D02*
X99411500Y-106978500D01*
X100690000Y-105700000D02*
X101990000Y-107000000D01*
X101990000Y-107000000D02*
X118390000Y-107000000D01*
X118390000Y-107000000D02*
X119690000Y-105700000D01*
%TO.N,LR2*%
X34190000Y-86700000D02*
X35490000Y-88000000D01*
X35490000Y-88000000D02*
X51890000Y-88000000D01*
X51890000Y-88000000D02*
X53190000Y-86700000D01*
X53190000Y-86700000D02*
X54468500Y-87978500D01*
X54468500Y-87978500D02*
X70911500Y-87978500D01*
X70911500Y-87978500D02*
X72190000Y-86700000D01*
X72190000Y-86700000D02*
X73468500Y-87978500D01*
X73468500Y-87978500D02*
X89911500Y-87978500D01*
X89911500Y-87978500D02*
X91190000Y-86700000D01*
%TO.N,LR1*%
X72190000Y-62000000D02*
X73690000Y-63500000D01*
X89690000Y-63500000D02*
X91190000Y-62000000D01*
X73690000Y-63500000D02*
X89690000Y-63500000D01*
X34190000Y-62000000D02*
X36366000Y-64176000D01*
X70014000Y-64176000D02*
X72190000Y-62000000D01*
X36366000Y-64176000D02*
X70014000Y-64176000D01*
%TO.N,LR2*%
X110190000Y-86700000D02*
X111468500Y-87978500D01*
X111468500Y-87978500D02*
X127911500Y-87978500D01*
X127911500Y-87978500D02*
X129190000Y-86700000D01*
X91190000Y-86700000D02*
X92468500Y-87978500D01*
X108911500Y-87978500D02*
X110190000Y-86700000D01*
X92468500Y-87978500D02*
X108911500Y-87978500D01*
%TO.N,LR1*%
X91190000Y-62000000D02*
X92468500Y-63278500D01*
X92468500Y-63278500D02*
X108911500Y-63278500D01*
X108911500Y-63278500D02*
X110190000Y-62000000D01*
X110190000Y-62000000D02*
X111468500Y-63278500D01*
X111468500Y-63278500D02*
X127911500Y-63278500D01*
X127911500Y-63278500D02*
X129190000Y-62000000D01*
X129190000Y-62000000D02*
X129000000Y-62000000D01*
X131176000Y-64176000D02*
X146014000Y-64176000D01*
X129000000Y-62000000D02*
X131176000Y-64176000D01*
X146014000Y-64176000D02*
X148190000Y-62000000D01*
%TO.N,LR6*%
X130690000Y-162700000D02*
X132866000Y-164876000D01*
X132866000Y-164876000D02*
X166124000Y-164876000D01*
X167500000Y-163500000D02*
X167500000Y-106000000D01*
X166124000Y-164876000D02*
X167500000Y-163500000D01*
X167500000Y-106000000D02*
X174000000Y-99500000D01*
X174000000Y-99500000D02*
X174000000Y-73000000D01*
X174000000Y-73000000D02*
X170670000Y-69670000D01*
X170670000Y-69670000D02*
X168130000Y-69670000D01*
%TO.N,LR2*%
X150000000Y-88500000D02*
X158000000Y-88500000D01*
X158000000Y-88500000D02*
X160000000Y-90500000D01*
X148190000Y-86700000D02*
X148200000Y-86700000D01*
X160000000Y-123109430D02*
X161988570Y-125098000D01*
X164126380Y-125098000D02*
X165696000Y-123528380D01*
X160000000Y-90500000D02*
X160000000Y-123109430D01*
X161988570Y-125098000D02*
X164126380Y-125098000D01*
X165696000Y-123528380D02*
X165696000Y-105252760D01*
X165696000Y-105252760D02*
X172196000Y-98752760D01*
X172196000Y-98752760D02*
X172196000Y-81196000D01*
X148200000Y-86700000D02*
X150000000Y-88500000D01*
X172196000Y-81196000D02*
X170830000Y-79830000D01*
X170830000Y-79830000D02*
X168130000Y-79830000D01*
%TO.N,LR3*%
X138690000Y-105700000D02*
X139968500Y-106978500D01*
X158133385Y-106978500D02*
X159549000Y-108394115D01*
X139968500Y-106978500D02*
X158133385Y-106978500D01*
X161801760Y-125549000D02*
X164313190Y-125549000D01*
X159549000Y-108394115D02*
X159549000Y-123296240D01*
X170790000Y-77290000D02*
X168130000Y-77290000D01*
X164313190Y-125549000D02*
X166147000Y-123715190D01*
X172647000Y-98939570D02*
X172647000Y-79147000D01*
X166147000Y-105439570D02*
X172647000Y-98939570D01*
X172647000Y-79147000D02*
X170790000Y-77290000D01*
X159549000Y-123296240D02*
X161801760Y-125549000D01*
X166147000Y-123715190D02*
X166147000Y-105439570D01*
X119690000Y-105700000D02*
X120968500Y-106978500D01*
X120968500Y-106978500D02*
X137411500Y-106978500D01*
X137411500Y-106978500D02*
X138690000Y-105700000D01*
%TO.N,LR2*%
X148190000Y-86700000D02*
X146390000Y-88500000D01*
X146390000Y-88500000D02*
X130990000Y-88500000D01*
X130990000Y-88500000D02*
X129190000Y-86700000D01*
%TO.N,LR4*%
X143190000Y-124700000D02*
X144490000Y-126000000D01*
X144490000Y-126000000D02*
X164500000Y-126000000D01*
X166598000Y-123902000D02*
X166598000Y-105626380D01*
X164500000Y-126000000D02*
X166598000Y-123902000D01*
X166598000Y-105626380D02*
X173098000Y-99126380D01*
X173098000Y-99126380D02*
X173098000Y-77098000D01*
X173098000Y-77098000D02*
X170750000Y-74750000D01*
X170750000Y-74750000D02*
X168130000Y-74750000D01*
%TO.N,LR5*%
X152190000Y-143700000D02*
X152200000Y-143700000D01*
X173549000Y-99313190D02*
X173549000Y-75049000D01*
X170710000Y-72210000D02*
X168130000Y-72210000D01*
X152200000Y-143700000D02*
X153500000Y-145000000D01*
X165000000Y-145000000D02*
X167049000Y-142951000D01*
X153500000Y-145000000D02*
X165000000Y-145000000D01*
X167049000Y-142951000D02*
X167049000Y-105813190D01*
X167049000Y-105813190D02*
X173549000Y-99313190D01*
X173549000Y-75049000D02*
X170710000Y-72210000D01*
%TD*%
M02*
