%TF.GenerationSoftware,KiCad,Pcbnew,9.0.2*%
%TF.CreationDate,2025-05-23T00:15:23+09:00*%
%TF.ProjectId,jjongkbd,6a6a6f6e-676b-4626-942e-6b696361645f,0.1*%
%TF.SameCoordinates,Original*%
%TF.FileFunction,Drillmap*%
%TF.FilePolarity,Positive*%
%FSLAX45Y45*%
G04 Gerber Fmt 4.5, Leading zero omitted, Abs format (unit mm)*
G04 Created by KiCad (PCBNEW 9.0.2) date 2025-05-23 00:15:23*
%MOMM*%
%LPD*%
G01*
G04 APERTURE LIST*
%ADD10C,0.150000*%
%ADD11C,0.200000*%
%ADD12C,0.100000*%
%ADD13C,0.170180*%
%ADD14C,0.220000*%
%ADD15C,0.300000*%
%ADD16C,0.398780*%
G04 APERTURE END LIST*
D10*
X2470000Y-16800000D02*
X2470000Y-4670000D01*
X2770000Y-4370000D02*
X18700000Y-4370000D01*
X19000000Y-4670000D02*
X19000000Y-11100000D01*
X18700000Y-11400000D02*
X17400000Y-11400000D01*
X17100000Y-11700000D02*
X17100000Y-16800000D01*
X16800000Y-17100000D02*
X2770000Y-17100000D01*
X2470000Y-4670000D02*
G75*
G02*
X2770000Y-4370000I300000J0D01*
G01*
X18700000Y-4370000D02*
G75*
G02*
X19000000Y-4670000I0J-300000D01*
G01*
X19000000Y-11100000D02*
G75*
G02*
X18700000Y-11400000I-300000J0D01*
G01*
X17100000Y-11700000D02*
G75*
G02*
X17400000Y-11400000I300000J0D01*
G01*
X17100000Y-16800000D02*
G75*
G02*
X16800000Y-17100000I-300000J0D01*
G01*
X2770000Y-17100000D02*
G75*
G02*
X2470000Y-16800000I0J300000D01*
G01*
X20400000Y-4370000D02*
X39180000Y-4370000D01*
X39480000Y-4670000D02*
X39480000Y-16800000D01*
X39180000Y-17100000D02*
X22300000Y-17100000D01*
X22000000Y-16800000D02*
X22000000Y-11700000D01*
X21700000Y-11400000D02*
X20400000Y-11400000D01*
X20100000Y-11100000D02*
X20100000Y-4670000D01*
X39180000Y-4370000D02*
G75*
G02*
X39480000Y-4670000I0J-300000D01*
G01*
X39480000Y-16800000D02*
G75*
G02*
X39180000Y-17100000I-300000J0D01*
G01*
X22300000Y-17100000D02*
G75*
G02*
X22000000Y-16800000I0J300000D01*
G01*
X21700000Y-11400000D02*
G75*
G02*
X22000000Y-11700000I0J-300000D01*
G01*
X20400000Y-11400000D02*
G75*
G02*
X20100000Y-11100000I0J300000D01*
G01*
X20100000Y-4670000D02*
G75*
G02*
X20400000Y-4370000I300000J0D01*
G01*
D11*
D12*
X18672500Y-4745000D02*
X18762500Y-4835000D01*
X18762500Y-4745000D02*
X18672500Y-4835000D01*
X18672500Y-5045000D02*
X18762500Y-5135000D01*
X18762500Y-5045000D02*
X18672500Y-5135000D01*
X20337500Y-4745000D02*
X20427500Y-4835000D01*
X20427500Y-4745000D02*
X20337500Y-4835000D01*
X20337500Y-5045000D02*
X20427500Y-5135000D01*
X20427500Y-5045000D02*
X20337500Y-5135000D01*
D13*
X3377090Y-5700000D02*
G75*
G02*
X3206910Y-5700000I-85090J0D01*
G01*
X3206910Y-5700000D02*
G75*
G02*
X3377090Y-5700000I85090J0D01*
G01*
X3377090Y-8170000D02*
G75*
G02*
X3206910Y-8170000I-85090J0D01*
G01*
X3206910Y-8170000D02*
G75*
G02*
X3377090Y-8170000I85090J0D01*
G01*
X3602090Y-15770000D02*
G75*
G02*
X3431910Y-15770000I-85090J0D01*
G01*
X3431910Y-15770000D02*
G75*
G02*
X3602090Y-15770000I85090J0D01*
G01*
X3852090Y-10070000D02*
G75*
G02*
X3681910Y-10070000I-85090J0D01*
G01*
X3681910Y-10070000D02*
G75*
G02*
X3852090Y-10070000I85090J0D01*
G01*
X4077090Y-11970000D02*
G75*
G02*
X3906910Y-11970000I-85090J0D01*
G01*
X3906910Y-11970000D02*
G75*
G02*
X4077090Y-11970000I85090J0D01*
G01*
X4393090Y-5700000D02*
G75*
G02*
X4222910Y-5700000I-85090J0D01*
G01*
X4222910Y-5700000D02*
G75*
G02*
X4393090Y-5700000I85090J0D01*
G01*
X4393090Y-8170000D02*
G75*
G02*
X4222910Y-8170000I-85090J0D01*
G01*
X4222910Y-8170000D02*
G75*
G02*
X4393090Y-8170000I85090J0D01*
G01*
X4527090Y-13870000D02*
G75*
G02*
X4356910Y-13870000I-85090J0D01*
G01*
X4356910Y-13870000D02*
G75*
G02*
X4527090Y-13870000I85090J0D01*
G01*
X4618090Y-15770000D02*
G75*
G02*
X4447910Y-15770000I-85090J0D01*
G01*
X4447910Y-15770000D02*
G75*
G02*
X4618090Y-15770000I85090J0D01*
G01*
X4868090Y-10070000D02*
G75*
G02*
X4697910Y-10070000I-85090J0D01*
G01*
X4697910Y-10070000D02*
G75*
G02*
X4868090Y-10070000I85090J0D01*
G01*
X5093090Y-11970000D02*
G75*
G02*
X4922910Y-11970000I-85090J0D01*
G01*
X4922910Y-11970000D02*
G75*
G02*
X5093090Y-11970000I85090J0D01*
G01*
X5277090Y-8170000D02*
G75*
G02*
X5106910Y-8170000I-85090J0D01*
G01*
X5106910Y-8170000D02*
G75*
G02*
X5277090Y-8170000I85090J0D01*
G01*
X5543090Y-13870000D02*
G75*
G02*
X5372910Y-13870000I-85090J0D01*
G01*
X5372910Y-13870000D02*
G75*
G02*
X5543090Y-13870000I85090J0D01*
G01*
X5952090Y-15770000D02*
G75*
G02*
X5781910Y-15770000I-85090J0D01*
G01*
X5781910Y-15770000D02*
G75*
G02*
X5952090Y-15770000I85090J0D01*
G01*
X6227090Y-10070000D02*
G75*
G02*
X6056910Y-10070000I-85090J0D01*
G01*
X6056910Y-10070000D02*
G75*
G02*
X6227090Y-10070000I85090J0D01*
G01*
X6293090Y-8170000D02*
G75*
G02*
X6122910Y-8170000I-85090J0D01*
G01*
X6122910Y-8170000D02*
G75*
G02*
X6293090Y-8170000I85090J0D01*
G01*
X6677090Y-11970000D02*
G75*
G02*
X6506910Y-11970000I-85090J0D01*
G01*
X6506910Y-11970000D02*
G75*
G02*
X6677090Y-11970000I85090J0D01*
G01*
X6968090Y-15770000D02*
G75*
G02*
X6797910Y-15770000I-85090J0D01*
G01*
X6797910Y-15770000D02*
G75*
G02*
X6968090Y-15770000I85090J0D01*
G01*
X7177090Y-5700000D02*
G75*
G02*
X7006910Y-5700000I-85090J0D01*
G01*
X7006910Y-5700000D02*
G75*
G02*
X7177090Y-5700000I85090J0D01*
G01*
X7177090Y-8170000D02*
G75*
G02*
X7006910Y-8170000I-85090J0D01*
G01*
X7006910Y-8170000D02*
G75*
G02*
X7177090Y-8170000I85090J0D01*
G01*
X7243090Y-10070000D02*
G75*
G02*
X7072910Y-10070000I-85090J0D01*
G01*
X7072910Y-10070000D02*
G75*
G02*
X7243090Y-10070000I85090J0D01*
G01*
X7577090Y-13870000D02*
G75*
G02*
X7406910Y-13870000I-85090J0D01*
G01*
X7406910Y-13870000D02*
G75*
G02*
X7577090Y-13870000I85090J0D01*
G01*
X7693090Y-11970000D02*
G75*
G02*
X7522910Y-11970000I-85090J0D01*
G01*
X7522910Y-11970000D02*
G75*
G02*
X7693090Y-11970000I85090J0D01*
G01*
X8127090Y-10070000D02*
G75*
G02*
X7956910Y-10070000I-85090J0D01*
G01*
X7956910Y-10070000D02*
G75*
G02*
X8127090Y-10070000I85090J0D01*
G01*
X8193090Y-5700000D02*
G75*
G02*
X8022910Y-5700000I-85090J0D01*
G01*
X8022910Y-5700000D02*
G75*
G02*
X8193090Y-5700000I85090J0D01*
G01*
X8193090Y-8170000D02*
G75*
G02*
X8022910Y-8170000I-85090J0D01*
G01*
X8022910Y-8170000D02*
G75*
G02*
X8193090Y-8170000I85090J0D01*
G01*
X8302090Y-15770000D02*
G75*
G02*
X8131910Y-15770000I-85090J0D01*
G01*
X8131910Y-15770000D02*
G75*
G02*
X8302090Y-15770000I85090J0D01*
G01*
X8577090Y-11970000D02*
G75*
G02*
X8406910Y-11970000I-85090J0D01*
G01*
X8406910Y-11970000D02*
G75*
G02*
X8577090Y-11970000I85090J0D01*
G01*
X8593090Y-13870000D02*
G75*
G02*
X8422910Y-13870000I-85090J0D01*
G01*
X8422910Y-13870000D02*
G75*
G02*
X8593090Y-13870000I85090J0D01*
G01*
X9077090Y-5700000D02*
G75*
G02*
X8906910Y-5700000I-85090J0D01*
G01*
X8906910Y-5700000D02*
G75*
G02*
X9077090Y-5700000I85090J0D01*
G01*
X9077090Y-8170000D02*
G75*
G02*
X8906910Y-8170000I-85090J0D01*
G01*
X8906910Y-8170000D02*
G75*
G02*
X9077090Y-8170000I85090J0D01*
G01*
X9143090Y-10070000D02*
G75*
G02*
X8972910Y-10070000I-85090J0D01*
G01*
X8972910Y-10070000D02*
G75*
G02*
X9143090Y-10070000I85090J0D01*
G01*
X9318090Y-15770000D02*
G75*
G02*
X9147910Y-15770000I-85090J0D01*
G01*
X9147910Y-15770000D02*
G75*
G02*
X9318090Y-15770000I85090J0D01*
G01*
X9477090Y-13870000D02*
G75*
G02*
X9306910Y-13870000I-85090J0D01*
G01*
X9306910Y-13870000D02*
G75*
G02*
X9477090Y-13870000I85090J0D01*
G01*
X9593090Y-11970000D02*
G75*
G02*
X9422910Y-11970000I-85090J0D01*
G01*
X9422910Y-11970000D02*
G75*
G02*
X9593090Y-11970000I85090J0D01*
G01*
X10027090Y-10070000D02*
G75*
G02*
X9856910Y-10070000I-85090J0D01*
G01*
X9856910Y-10070000D02*
G75*
G02*
X10027090Y-10070000I85090J0D01*
G01*
X10093090Y-5700000D02*
G75*
G02*
X9922910Y-5700000I-85090J0D01*
G01*
X9922910Y-5700000D02*
G75*
G02*
X10093090Y-5700000I85090J0D01*
G01*
X10093090Y-8170000D02*
G75*
G02*
X9922910Y-8170000I-85090J0D01*
G01*
X9922910Y-8170000D02*
G75*
G02*
X10093090Y-8170000I85090J0D01*
G01*
X10477090Y-11970000D02*
G75*
G02*
X10306910Y-11970000I-85090J0D01*
G01*
X10306910Y-11970000D02*
G75*
G02*
X10477090Y-11970000I85090J0D01*
G01*
X10493090Y-13870000D02*
G75*
G02*
X10322910Y-13870000I-85090J0D01*
G01*
X10322910Y-13870000D02*
G75*
G02*
X10493090Y-13870000I85090J0D01*
G01*
X10977090Y-5700000D02*
G75*
G02*
X10806910Y-5700000I-85090J0D01*
G01*
X10806910Y-5700000D02*
G75*
G02*
X10977090Y-5700000I85090J0D01*
G01*
X10977090Y-8170000D02*
G75*
G02*
X10806910Y-8170000I-85090J0D01*
G01*
X10806910Y-8170000D02*
G75*
G02*
X10977090Y-8170000I85090J0D01*
G01*
X11043090Y-10070000D02*
G75*
G02*
X10872910Y-10070000I-85090J0D01*
G01*
X10872910Y-10070000D02*
G75*
G02*
X11043090Y-10070000I85090J0D01*
G01*
X11377090Y-13870000D02*
G75*
G02*
X11206910Y-13870000I-85090J0D01*
G01*
X11206910Y-13870000D02*
G75*
G02*
X11377090Y-13870000I85090J0D01*
G01*
X11493090Y-11970000D02*
G75*
G02*
X11322910Y-11970000I-85090J0D01*
G01*
X11322910Y-11970000D02*
G75*
G02*
X11493090Y-11970000I85090J0D01*
G01*
X11927090Y-10070000D02*
G75*
G02*
X11756910Y-10070000I-85090J0D01*
G01*
X11756910Y-10070000D02*
G75*
G02*
X11927090Y-10070000I85090J0D01*
G01*
X11993090Y-5700000D02*
G75*
G02*
X11822910Y-5700000I-85090J0D01*
G01*
X11822910Y-5700000D02*
G75*
G02*
X11993090Y-5700000I85090J0D01*
G01*
X11993090Y-8170000D02*
G75*
G02*
X11822910Y-8170000I-85090J0D01*
G01*
X11822910Y-8170000D02*
G75*
G02*
X11993090Y-8170000I85090J0D01*
G01*
X12377090Y-11970000D02*
G75*
G02*
X12206910Y-11970000I-85090J0D01*
G01*
X12206910Y-11970000D02*
G75*
G02*
X12377090Y-11970000I85090J0D01*
G01*
X12393090Y-13870000D02*
G75*
G02*
X12222910Y-13870000I-85090J0D01*
G01*
X12222910Y-13870000D02*
G75*
G02*
X12393090Y-13870000I85090J0D01*
G01*
X12877090Y-5700000D02*
G75*
G02*
X12706910Y-5700000I-85090J0D01*
G01*
X12706910Y-5700000D02*
G75*
G02*
X12877090Y-5700000I85090J0D01*
G01*
X12877090Y-8170000D02*
G75*
G02*
X12706910Y-8170000I-85090J0D01*
G01*
X12706910Y-8170000D02*
G75*
G02*
X12877090Y-8170000I85090J0D01*
G01*
X12943090Y-10070000D02*
G75*
G02*
X12772910Y-10070000I-85090J0D01*
G01*
X12772910Y-10070000D02*
G75*
G02*
X12943090Y-10070000I85090J0D01*
G01*
X13027090Y-15770000D02*
G75*
G02*
X12856910Y-15770000I-85090J0D01*
G01*
X12856910Y-15770000D02*
G75*
G02*
X13027090Y-15770000I85090J0D01*
G01*
X13277090Y-13870000D02*
G75*
G02*
X13106910Y-13870000I-85090J0D01*
G01*
X13106910Y-13870000D02*
G75*
G02*
X13277090Y-13870000I85090J0D01*
G01*
X13393090Y-11970000D02*
G75*
G02*
X13222910Y-11970000I-85090J0D01*
G01*
X13222910Y-11970000D02*
G75*
G02*
X13393090Y-11970000I85090J0D01*
G01*
X13827090Y-10070000D02*
G75*
G02*
X13656910Y-10070000I-85090J0D01*
G01*
X13656910Y-10070000D02*
G75*
G02*
X13827090Y-10070000I85090J0D01*
G01*
X13893090Y-5700000D02*
G75*
G02*
X13722910Y-5700000I-85090J0D01*
G01*
X13722910Y-5700000D02*
G75*
G02*
X13893090Y-5700000I85090J0D01*
G01*
X13893090Y-8170000D02*
G75*
G02*
X13722910Y-8170000I-85090J0D01*
G01*
X13722910Y-8170000D02*
G75*
G02*
X13893090Y-8170000I85090J0D01*
G01*
X14043090Y-15770000D02*
G75*
G02*
X13872910Y-15770000I-85090J0D01*
G01*
X13872910Y-15770000D02*
G75*
G02*
X14043090Y-15770000I85090J0D01*
G01*
X14277090Y-11970000D02*
G75*
G02*
X14106910Y-11970000I-85090J0D01*
G01*
X14106910Y-11970000D02*
G75*
G02*
X14277090Y-11970000I85090J0D01*
G01*
X14293090Y-13870000D02*
G75*
G02*
X14122910Y-13870000I-85090J0D01*
G01*
X14122910Y-13870000D02*
G75*
G02*
X14293090Y-13870000I85090J0D01*
G01*
X14777090Y-5700000D02*
G75*
G02*
X14606910Y-5700000I-85090J0D01*
G01*
X14606910Y-5700000D02*
G75*
G02*
X14777090Y-5700000I85090J0D01*
G01*
X14777090Y-8170000D02*
G75*
G02*
X14606910Y-8170000I-85090J0D01*
G01*
X14606910Y-8170000D02*
G75*
G02*
X14777090Y-8170000I85090J0D01*
G01*
X14843090Y-10070000D02*
G75*
G02*
X14672910Y-10070000I-85090J0D01*
G01*
X14672910Y-10070000D02*
G75*
G02*
X14843090Y-10070000I85090J0D01*
G01*
X15177090Y-13870000D02*
G75*
G02*
X15006910Y-13870000I-85090J0D01*
G01*
X15006910Y-13870000D02*
G75*
G02*
X15177090Y-13870000I85090J0D01*
G01*
X15293090Y-11970000D02*
G75*
G02*
X15122910Y-11970000I-85090J0D01*
G01*
X15122910Y-11970000D02*
G75*
G02*
X15293090Y-11970000I85090J0D01*
G01*
X15793090Y-5700000D02*
G75*
G02*
X15622910Y-5700000I-85090J0D01*
G01*
X15622910Y-5700000D02*
G75*
G02*
X15793090Y-5700000I85090J0D01*
G01*
X15793090Y-8170000D02*
G75*
G02*
X15622910Y-8170000I-85090J0D01*
G01*
X15622910Y-8170000D02*
G75*
G02*
X15793090Y-8170000I85090J0D01*
G01*
X16193090Y-13870000D02*
G75*
G02*
X16022910Y-13870000I-85090J0D01*
G01*
X16022910Y-13870000D02*
G75*
G02*
X16193090Y-13870000I85090J0D01*
G01*
X23027090Y-13870000D02*
G75*
G02*
X22856910Y-13870000I-85090J0D01*
G01*
X22856910Y-13870000D02*
G75*
G02*
X23027090Y-13870000I85090J0D01*
G01*
X23477090Y-5700000D02*
G75*
G02*
X23306910Y-5700000I-85090J0D01*
G01*
X23306910Y-5700000D02*
G75*
G02*
X23477090Y-5700000I85090J0D01*
G01*
X23477090Y-10070000D02*
G75*
G02*
X23306910Y-10070000I-85090J0D01*
G01*
X23306910Y-10070000D02*
G75*
G02*
X23477090Y-10070000I85090J0D01*
G01*
X24027090Y-11970000D02*
G75*
G02*
X23856910Y-11970000I-85090J0D01*
G01*
X23856910Y-11970000D02*
G75*
G02*
X24027090Y-11970000I85090J0D01*
G01*
X24043090Y-13870000D02*
G75*
G02*
X23872910Y-13870000I-85090J0D01*
G01*
X23872910Y-13870000D02*
G75*
G02*
X24043090Y-13870000I85090J0D01*
G01*
X24427090Y-8170000D02*
G75*
G02*
X24256910Y-8170000I-85090J0D01*
G01*
X24256910Y-8170000D02*
G75*
G02*
X24427090Y-8170000I85090J0D01*
G01*
X24493090Y-5700000D02*
G75*
G02*
X24322910Y-5700000I-85090J0D01*
G01*
X24322910Y-5700000D02*
G75*
G02*
X24493090Y-5700000I85090J0D01*
G01*
X24493090Y-10070000D02*
G75*
G02*
X24322910Y-10070000I-85090J0D01*
G01*
X24322910Y-10070000D02*
G75*
G02*
X24493090Y-10070000I85090J0D01*
G01*
X24927090Y-13870000D02*
G75*
G02*
X24756910Y-13870000I-85090J0D01*
G01*
X24756910Y-13870000D02*
G75*
G02*
X24927090Y-13870000I85090J0D01*
G01*
X25043090Y-11970000D02*
G75*
G02*
X24872910Y-11970000I-85090J0D01*
G01*
X24872910Y-11970000D02*
G75*
G02*
X25043090Y-11970000I85090J0D01*
G01*
X25377090Y-5700000D02*
G75*
G02*
X25206910Y-5700000I-85090J0D01*
G01*
X25206910Y-5700000D02*
G75*
G02*
X25377090Y-5700000I85090J0D01*
G01*
X25377090Y-10070000D02*
G75*
G02*
X25206910Y-10070000I-85090J0D01*
G01*
X25206910Y-10070000D02*
G75*
G02*
X25377090Y-10070000I85090J0D01*
G01*
X25443090Y-8170000D02*
G75*
G02*
X25272910Y-8170000I-85090J0D01*
G01*
X25272910Y-8170000D02*
G75*
G02*
X25443090Y-8170000I85090J0D01*
G01*
X25727090Y-15770000D02*
G75*
G02*
X25556910Y-15770000I-85090J0D01*
G01*
X25556910Y-15770000D02*
G75*
G02*
X25727090Y-15770000I85090J0D01*
G01*
X25927090Y-11970000D02*
G75*
G02*
X25756910Y-11970000I-85090J0D01*
G01*
X25756910Y-11970000D02*
G75*
G02*
X25927090Y-11970000I85090J0D01*
G01*
X25943090Y-13870000D02*
G75*
G02*
X25772910Y-13870000I-85090J0D01*
G01*
X25772910Y-13870000D02*
G75*
G02*
X25943090Y-13870000I85090J0D01*
G01*
X26327090Y-8170000D02*
G75*
G02*
X26156910Y-8170000I-85090J0D01*
G01*
X26156910Y-8170000D02*
G75*
G02*
X26327090Y-8170000I85090J0D01*
G01*
X26393090Y-5700000D02*
G75*
G02*
X26222910Y-5700000I-85090J0D01*
G01*
X26222910Y-5700000D02*
G75*
G02*
X26393090Y-5700000I85090J0D01*
G01*
X26393090Y-10070000D02*
G75*
G02*
X26222910Y-10070000I-85090J0D01*
G01*
X26222910Y-10070000D02*
G75*
G02*
X26393090Y-10070000I85090J0D01*
G01*
X26743090Y-15770000D02*
G75*
G02*
X26572910Y-15770000I-85090J0D01*
G01*
X26572910Y-15770000D02*
G75*
G02*
X26743090Y-15770000I85090J0D01*
G01*
X26827090Y-13870000D02*
G75*
G02*
X26656910Y-13870000I-85090J0D01*
G01*
X26656910Y-13870000D02*
G75*
G02*
X26827090Y-13870000I85090J0D01*
G01*
X26943090Y-11970000D02*
G75*
G02*
X26772910Y-11970000I-85090J0D01*
G01*
X26772910Y-11970000D02*
G75*
G02*
X26943090Y-11970000I85090J0D01*
G01*
X27277090Y-5700000D02*
G75*
G02*
X27106910Y-5700000I-85090J0D01*
G01*
X27106910Y-5700000D02*
G75*
G02*
X27277090Y-5700000I85090J0D01*
G01*
X27277090Y-10070000D02*
G75*
G02*
X27106910Y-10070000I-85090J0D01*
G01*
X27106910Y-10070000D02*
G75*
G02*
X27277090Y-10070000I85090J0D01*
G01*
X27343090Y-8170000D02*
G75*
G02*
X27172910Y-8170000I-85090J0D01*
G01*
X27172910Y-8170000D02*
G75*
G02*
X27343090Y-8170000I85090J0D01*
G01*
X27827090Y-11970000D02*
G75*
G02*
X27656910Y-11970000I-85090J0D01*
G01*
X27656910Y-11970000D02*
G75*
G02*
X27827090Y-11970000I85090J0D01*
G01*
X27843090Y-13870000D02*
G75*
G02*
X27672910Y-13870000I-85090J0D01*
G01*
X27672910Y-13870000D02*
G75*
G02*
X27843090Y-13870000I85090J0D01*
G01*
X28227090Y-8170000D02*
G75*
G02*
X28056910Y-8170000I-85090J0D01*
G01*
X28056910Y-8170000D02*
G75*
G02*
X28227090Y-8170000I85090J0D01*
G01*
X28293090Y-5700000D02*
G75*
G02*
X28122910Y-5700000I-85090J0D01*
G01*
X28122910Y-5700000D02*
G75*
G02*
X28293090Y-5700000I85090J0D01*
G01*
X28293090Y-10070000D02*
G75*
G02*
X28122910Y-10070000I-85090J0D01*
G01*
X28122910Y-10070000D02*
G75*
G02*
X28293090Y-10070000I85090J0D01*
G01*
X28727090Y-13870000D02*
G75*
G02*
X28556910Y-13870000I-85090J0D01*
G01*
X28556910Y-13870000D02*
G75*
G02*
X28727090Y-13870000I85090J0D01*
G01*
X28843090Y-11970000D02*
G75*
G02*
X28672910Y-11970000I-85090J0D01*
G01*
X28672910Y-11970000D02*
G75*
G02*
X28843090Y-11970000I85090J0D01*
G01*
X29177090Y-5700000D02*
G75*
G02*
X29006910Y-5700000I-85090J0D01*
G01*
X29006910Y-5700000D02*
G75*
G02*
X29177090Y-5700000I85090J0D01*
G01*
X29177090Y-10070000D02*
G75*
G02*
X29006910Y-10070000I-85090J0D01*
G01*
X29006910Y-10070000D02*
G75*
G02*
X29177090Y-10070000I85090J0D01*
G01*
X29243090Y-8170000D02*
G75*
G02*
X29072910Y-8170000I-85090J0D01*
G01*
X29072910Y-8170000D02*
G75*
G02*
X29243090Y-8170000I85090J0D01*
G01*
X29727090Y-11970000D02*
G75*
G02*
X29556910Y-11970000I-85090J0D01*
G01*
X29556910Y-11970000D02*
G75*
G02*
X29727090Y-11970000I85090J0D01*
G01*
X29743090Y-13870000D02*
G75*
G02*
X29572910Y-13870000I-85090J0D01*
G01*
X29572910Y-13870000D02*
G75*
G02*
X29743090Y-13870000I85090J0D01*
G01*
X30127090Y-8170000D02*
G75*
G02*
X29956910Y-8170000I-85090J0D01*
G01*
X29956910Y-8170000D02*
G75*
G02*
X30127090Y-8170000I85090J0D01*
G01*
X30193090Y-5700000D02*
G75*
G02*
X30022910Y-5700000I-85090J0D01*
G01*
X30022910Y-5700000D02*
G75*
G02*
X30193090Y-5700000I85090J0D01*
G01*
X30193090Y-10070000D02*
G75*
G02*
X30022910Y-10070000I-85090J0D01*
G01*
X30022910Y-10070000D02*
G75*
G02*
X30193090Y-10070000I85090J0D01*
G01*
X30452090Y-15770000D02*
G75*
G02*
X30281910Y-15770000I-85090J0D01*
G01*
X30281910Y-15770000D02*
G75*
G02*
X30452090Y-15770000I85090J0D01*
G01*
X30627090Y-13870000D02*
G75*
G02*
X30456910Y-13870000I-85090J0D01*
G01*
X30456910Y-13870000D02*
G75*
G02*
X30627090Y-13870000I85090J0D01*
G01*
X30743090Y-11970000D02*
G75*
G02*
X30572910Y-11970000I-85090J0D01*
G01*
X30572910Y-11970000D02*
G75*
G02*
X30743090Y-11970000I85090J0D01*
G01*
X31077090Y-10070000D02*
G75*
G02*
X30906910Y-10070000I-85090J0D01*
G01*
X30906910Y-10070000D02*
G75*
G02*
X31077090Y-10070000I85090J0D01*
G01*
X31143090Y-8170000D02*
G75*
G02*
X30972910Y-8170000I-85090J0D01*
G01*
X30972910Y-8170000D02*
G75*
G02*
X31143090Y-8170000I85090J0D01*
G01*
X31468090Y-15770000D02*
G75*
G02*
X31297910Y-15770000I-85090J0D01*
G01*
X31297910Y-15770000D02*
G75*
G02*
X31468090Y-15770000I85090J0D01*
G01*
X31627090Y-11970000D02*
G75*
G02*
X31456910Y-11970000I-85090J0D01*
G01*
X31456910Y-11970000D02*
G75*
G02*
X31627090Y-11970000I85090J0D01*
G01*
X31643090Y-13870000D02*
G75*
G02*
X31472910Y-13870000I-85090J0D01*
G01*
X31472910Y-13870000D02*
G75*
G02*
X31643090Y-13870000I85090J0D01*
G01*
X32027090Y-5700000D02*
G75*
G02*
X31856910Y-5700000I-85090J0D01*
G01*
X31856910Y-5700000D02*
G75*
G02*
X32027090Y-5700000I85090J0D01*
G01*
X32027090Y-8170000D02*
G75*
G02*
X31856910Y-8170000I-85090J0D01*
G01*
X31856910Y-8170000D02*
G75*
G02*
X32027090Y-8170000I85090J0D01*
G01*
X32093090Y-10070000D02*
G75*
G02*
X31922910Y-10070000I-85090J0D01*
G01*
X31922910Y-10070000D02*
G75*
G02*
X32093090Y-10070000I85090J0D01*
G01*
X32527090Y-13870000D02*
G75*
G02*
X32356910Y-13870000I-85090J0D01*
G01*
X32356910Y-13870000D02*
G75*
G02*
X32527090Y-13870000I85090J0D01*
G01*
X32643090Y-11970000D02*
G75*
G02*
X32472910Y-11970000I-85090J0D01*
G01*
X32472910Y-11970000D02*
G75*
G02*
X32643090Y-11970000I85090J0D01*
G01*
X32802090Y-15770000D02*
G75*
G02*
X32631910Y-15770000I-85090J0D01*
G01*
X32631910Y-15770000D02*
G75*
G02*
X32802090Y-15770000I85090J0D01*
G01*
X32977090Y-10070000D02*
G75*
G02*
X32806910Y-10070000I-85090J0D01*
G01*
X32806910Y-10070000D02*
G75*
G02*
X32977090Y-10070000I85090J0D01*
G01*
X33043090Y-5700000D02*
G75*
G02*
X32872910Y-5700000I-85090J0D01*
G01*
X32872910Y-5700000D02*
G75*
G02*
X33043090Y-5700000I85090J0D01*
G01*
X33043090Y-8170000D02*
G75*
G02*
X32872910Y-8170000I-85090J0D01*
G01*
X32872910Y-8170000D02*
G75*
G02*
X33043090Y-8170000I85090J0D01*
G01*
X33527090Y-11970000D02*
G75*
G02*
X33356910Y-11970000I-85090J0D01*
G01*
X33356910Y-11970000D02*
G75*
G02*
X33527090Y-11970000I85090J0D01*
G01*
X33543090Y-13870000D02*
G75*
G02*
X33372910Y-13870000I-85090J0D01*
G01*
X33372910Y-13870000D02*
G75*
G02*
X33543090Y-13870000I85090J0D01*
G01*
X33818090Y-15770000D02*
G75*
G02*
X33647910Y-15770000I-85090J0D01*
G01*
X33647910Y-15770000D02*
G75*
G02*
X33818090Y-15770000I85090J0D01*
G01*
X33927090Y-5700000D02*
G75*
G02*
X33756910Y-5700000I-85090J0D01*
G01*
X33756910Y-5700000D02*
G75*
G02*
X33927090Y-5700000I85090J0D01*
G01*
X33927090Y-8170000D02*
G75*
G02*
X33756910Y-8170000I-85090J0D01*
G01*
X33756910Y-8170000D02*
G75*
G02*
X33927090Y-8170000I85090J0D01*
G01*
X33993090Y-10070000D02*
G75*
G02*
X33822910Y-10070000I-85090J0D01*
G01*
X33822910Y-10070000D02*
G75*
G02*
X33993090Y-10070000I85090J0D01*
G01*
X34543090Y-11970000D02*
G75*
G02*
X34372910Y-11970000I-85090J0D01*
G01*
X34372910Y-11970000D02*
G75*
G02*
X34543090Y-11970000I85090J0D01*
G01*
X34877090Y-10070000D02*
G75*
G02*
X34706910Y-10070000I-85090J0D01*
G01*
X34706910Y-10070000D02*
G75*
G02*
X34877090Y-10070000I85090J0D01*
G01*
X34943090Y-5700000D02*
G75*
G02*
X34772910Y-5700000I-85090J0D01*
G01*
X34772910Y-5700000D02*
G75*
G02*
X34943090Y-5700000I85090J0D01*
G01*
X34943090Y-8170000D02*
G75*
G02*
X34772910Y-8170000I-85090J0D01*
G01*
X34772910Y-8170000D02*
G75*
G02*
X34943090Y-8170000I85090J0D01*
G01*
X35152090Y-15770000D02*
G75*
G02*
X34981910Y-15770000I-85090J0D01*
G01*
X34981910Y-15770000D02*
G75*
G02*
X35152090Y-15770000I85090J0D01*
G01*
X35827090Y-5700000D02*
G75*
G02*
X35656910Y-5700000I-85090J0D01*
G01*
X35656910Y-5700000D02*
G75*
G02*
X35827090Y-5700000I85090J0D01*
G01*
X35893090Y-10070000D02*
G75*
G02*
X35722910Y-10070000I-85090J0D01*
G01*
X35722910Y-10070000D02*
G75*
G02*
X35893090Y-10070000I85090J0D01*
G01*
X36077090Y-13870000D02*
G75*
G02*
X35906910Y-13870000I-85090J0D01*
G01*
X35906910Y-13870000D02*
G75*
G02*
X36077090Y-13870000I85090J0D01*
G01*
X36168090Y-15770000D02*
G75*
G02*
X35997910Y-15770000I-85090J0D01*
G01*
X35997910Y-15770000D02*
G75*
G02*
X36168090Y-15770000I85090J0D01*
G01*
X36577090Y-11970000D02*
G75*
G02*
X36406910Y-11970000I-85090J0D01*
G01*
X36406910Y-11970000D02*
G75*
G02*
X36577090Y-11970000I85090J0D01*
G01*
X36777090Y-8170000D02*
G75*
G02*
X36606910Y-8170000I-85090J0D01*
G01*
X36606910Y-8170000D02*
G75*
G02*
X36777090Y-8170000I85090J0D01*
G01*
X36843090Y-5700000D02*
G75*
G02*
X36672910Y-5700000I-85090J0D01*
G01*
X36672910Y-5700000D02*
G75*
G02*
X36843090Y-5700000I85090J0D01*
G01*
X37093090Y-13870000D02*
G75*
G02*
X36922910Y-13870000I-85090J0D01*
G01*
X36922910Y-13870000D02*
G75*
G02*
X37093090Y-13870000I85090J0D01*
G01*
X37252090Y-10070000D02*
G75*
G02*
X37081910Y-10070000I-85090J0D01*
G01*
X37081910Y-10070000D02*
G75*
G02*
X37252090Y-10070000I85090J0D01*
G01*
X37502090Y-15770000D02*
G75*
G02*
X37331910Y-15770000I-85090J0D01*
G01*
X37331910Y-15770000D02*
G75*
G02*
X37502090Y-15770000I85090J0D01*
G01*
X37593090Y-11970000D02*
G75*
G02*
X37422910Y-11970000I-85090J0D01*
G01*
X37422910Y-11970000D02*
G75*
G02*
X37593090Y-11970000I85090J0D01*
G01*
X37727090Y-5700000D02*
G75*
G02*
X37556910Y-5700000I-85090J0D01*
G01*
X37556910Y-5700000D02*
G75*
G02*
X37727090Y-5700000I85090J0D01*
G01*
X37793090Y-8170000D02*
G75*
G02*
X37622910Y-8170000I-85090J0D01*
G01*
X37622910Y-8170000D02*
G75*
G02*
X37793090Y-8170000I85090J0D01*
G01*
X38268090Y-10070000D02*
G75*
G02*
X38097910Y-10070000I-85090J0D01*
G01*
X38097910Y-10070000D02*
G75*
G02*
X38268090Y-10070000I85090J0D01*
G01*
X38518090Y-15770000D02*
G75*
G02*
X38347910Y-15770000I-85090J0D01*
G01*
X38347910Y-15770000D02*
G75*
G02*
X38518090Y-15770000I85090J0D01*
G01*
X38743090Y-5700000D02*
G75*
G02*
X38572910Y-5700000I-85090J0D01*
G01*
X38572910Y-5700000D02*
G75*
G02*
X38743090Y-5700000I85090J0D01*
G01*
D14*
X4750000Y-6160000D02*
X4750000Y-6380000D01*
X4640000Y-6270000D02*
X4860000Y-6270000D01*
X4975000Y-16230000D02*
X4975000Y-16450000D01*
X4865000Y-16340000D02*
X5085000Y-16340000D01*
X9950000Y-12430000D02*
X9950000Y-12650000D01*
X9840000Y-12540000D02*
X10060000Y-12540000D01*
X14250000Y-6160000D02*
X14250000Y-6380000D01*
X14140000Y-6270000D02*
X14360000Y-6270000D01*
X14400000Y-16230000D02*
X14400000Y-16450000D01*
X14290000Y-16340000D02*
X14510000Y-16340000D01*
X24850000Y-6160000D02*
X24850000Y-6380000D01*
X24740000Y-6270000D02*
X24960000Y-6270000D01*
X25200000Y-16230000D02*
X25200000Y-16450000D01*
X25090000Y-16340000D02*
X25310000Y-16340000D01*
X29200000Y-12430000D02*
X29200000Y-12650000D01*
X29090000Y-12540000D02*
X29310000Y-12540000D01*
X36975000Y-16230000D02*
X36975000Y-16450000D01*
X36865000Y-16340000D02*
X37085000Y-16340000D01*
X37200000Y-6160000D02*
X37200000Y-6380000D01*
X37090000Y-6270000D02*
X37310000Y-6270000D01*
D15*
X3525067Y-5552067D02*
X3525067Y-5339933D01*
X3312933Y-5339933D01*
X3312933Y-5552067D01*
X3525067Y-5552067D01*
X3525067Y-8022067D02*
X3525067Y-7809933D01*
X3312933Y-7809933D01*
X3312933Y-8022067D01*
X3525067Y-8022067D01*
X3750067Y-15622067D02*
X3750067Y-15409933D01*
X3537933Y-15409933D01*
X3537933Y-15622067D01*
X3750067Y-15622067D01*
X4000067Y-9922067D02*
X4000067Y-9709933D01*
X3787933Y-9709933D01*
X3787933Y-9922067D01*
X4000067Y-9922067D01*
X4160067Y-5298067D02*
X4160067Y-5085933D01*
X3947933Y-5085933D01*
X3947933Y-5298067D01*
X4160067Y-5298067D01*
X4160067Y-7768067D02*
X4160067Y-7555933D01*
X3947933Y-7555933D01*
X3947933Y-7768067D01*
X4160067Y-7768067D01*
X4225067Y-11822067D02*
X4225067Y-11609933D01*
X4012933Y-11609933D01*
X4012933Y-11822067D01*
X4225067Y-11822067D01*
X4385067Y-15368067D02*
X4385067Y-15155933D01*
X4172933Y-15155933D01*
X4172933Y-15368067D01*
X4385067Y-15368067D01*
X4635067Y-9668067D02*
X4635067Y-9455933D01*
X4422933Y-9455933D01*
X4422933Y-9668067D01*
X4635067Y-9668067D01*
X4675067Y-13722067D02*
X4675067Y-13509933D01*
X4462933Y-13509933D01*
X4462933Y-13722067D01*
X4675067Y-13722067D01*
X4860067Y-11568067D02*
X4860067Y-11355933D01*
X4647933Y-11355933D01*
X4647933Y-11568067D01*
X4860067Y-11568067D01*
X5310067Y-13468067D02*
X5310067Y-13255933D01*
X5097933Y-13255933D01*
X5097933Y-13468067D01*
X5310067Y-13468067D01*
X5425067Y-8022067D02*
X5425067Y-7809933D01*
X5212933Y-7809933D01*
X5212933Y-8022067D01*
X5425067Y-8022067D01*
X6060067Y-7768067D02*
X6060067Y-7555933D01*
X5847933Y-7555933D01*
X5847933Y-7768067D01*
X6060067Y-7768067D01*
X6100067Y-15622067D02*
X6100067Y-15409933D01*
X5887933Y-15409933D01*
X5887933Y-15622067D01*
X6100067Y-15622067D01*
X6375067Y-9922067D02*
X6375067Y-9709933D01*
X6162933Y-9709933D01*
X6162933Y-9922067D01*
X6375067Y-9922067D01*
X6735067Y-15368067D02*
X6735067Y-15155933D01*
X6522933Y-15155933D01*
X6522933Y-15368067D01*
X6735067Y-15368067D01*
X6825067Y-11822067D02*
X6825067Y-11609933D01*
X6612933Y-11609933D01*
X6612933Y-11822067D01*
X6825067Y-11822067D01*
X7010067Y-9668067D02*
X7010067Y-9455933D01*
X6797933Y-9455933D01*
X6797933Y-9668067D01*
X7010067Y-9668067D01*
X7325067Y-5552067D02*
X7325067Y-5339933D01*
X7112933Y-5339933D01*
X7112933Y-5552067D01*
X7325067Y-5552067D01*
X7325067Y-8022067D02*
X7325067Y-7809933D01*
X7112933Y-7809933D01*
X7112933Y-8022067D01*
X7325067Y-8022067D01*
X7460067Y-11568067D02*
X7460067Y-11355933D01*
X7247933Y-11355933D01*
X7247933Y-11568067D01*
X7460067Y-11568067D01*
X7725067Y-13722067D02*
X7725067Y-13509933D01*
X7512933Y-13509933D01*
X7512933Y-13722067D01*
X7725067Y-13722067D01*
X7960067Y-5298067D02*
X7960067Y-5085933D01*
X7747933Y-5085933D01*
X7747933Y-5298067D01*
X7960067Y-5298067D01*
X7960067Y-7768067D02*
X7960067Y-7555933D01*
X7747933Y-7555933D01*
X7747933Y-7768067D01*
X7960067Y-7768067D01*
X8275067Y-9922067D02*
X8275067Y-9709933D01*
X8062933Y-9709933D01*
X8062933Y-9922067D01*
X8275067Y-9922067D01*
X8360067Y-13468067D02*
X8360067Y-13255933D01*
X8147933Y-13255933D01*
X8147933Y-13468067D01*
X8360067Y-13468067D01*
X8450067Y-15622067D02*
X8450067Y-15409933D01*
X8237933Y-15409933D01*
X8237933Y-15622067D01*
X8450067Y-15622067D01*
X8725067Y-11822067D02*
X8725067Y-11609933D01*
X8512933Y-11609933D01*
X8512933Y-11822067D01*
X8725067Y-11822067D01*
X8910067Y-9668067D02*
X8910067Y-9455933D01*
X8697933Y-9455933D01*
X8697933Y-9668067D01*
X8910067Y-9668067D01*
X9085067Y-15368067D02*
X9085067Y-15155933D01*
X8872933Y-15155933D01*
X8872933Y-15368067D01*
X9085067Y-15368067D01*
X9225067Y-5552067D02*
X9225067Y-5339933D01*
X9012933Y-5339933D01*
X9012933Y-5552067D01*
X9225067Y-5552067D01*
X9225067Y-8022067D02*
X9225067Y-7809933D01*
X9012933Y-7809933D01*
X9012933Y-8022067D01*
X9225067Y-8022067D01*
X9360067Y-11568067D02*
X9360067Y-11355933D01*
X9147933Y-11355933D01*
X9147933Y-11568067D01*
X9360067Y-11568067D01*
X9625067Y-13722067D02*
X9625067Y-13509933D01*
X9412933Y-13509933D01*
X9412933Y-13722067D01*
X9625067Y-13722067D01*
X9860067Y-5298067D02*
X9860067Y-5085933D01*
X9647933Y-5085933D01*
X9647933Y-5298067D01*
X9860067Y-5298067D01*
X9860067Y-7768067D02*
X9860067Y-7555933D01*
X9647933Y-7555933D01*
X9647933Y-7768067D01*
X9860067Y-7768067D01*
X10175067Y-9922067D02*
X10175067Y-9709933D01*
X9962933Y-9709933D01*
X9962933Y-9922067D01*
X10175067Y-9922067D01*
X10260067Y-13468067D02*
X10260067Y-13255933D01*
X10047933Y-13255933D01*
X10047933Y-13468067D01*
X10260067Y-13468067D01*
X10625067Y-11822067D02*
X10625067Y-11609933D01*
X10412933Y-11609933D01*
X10412933Y-11822067D01*
X10625067Y-11822067D01*
X10810067Y-9668067D02*
X10810067Y-9455933D01*
X10597933Y-9455933D01*
X10597933Y-9668067D01*
X10810067Y-9668067D01*
X11125067Y-5552067D02*
X11125067Y-5339933D01*
X10912933Y-5339933D01*
X10912933Y-5552067D01*
X11125067Y-5552067D01*
X11125067Y-8022067D02*
X11125067Y-7809933D01*
X10912933Y-7809933D01*
X10912933Y-8022067D01*
X11125067Y-8022067D01*
X11260067Y-11568067D02*
X11260067Y-11355933D01*
X11047933Y-11355933D01*
X11047933Y-11568067D01*
X11260067Y-11568067D01*
X11525067Y-13722067D02*
X11525067Y-13509933D01*
X11312933Y-13509933D01*
X11312933Y-13722067D01*
X11525067Y-13722067D01*
X11760067Y-5298067D02*
X11760067Y-5085933D01*
X11547933Y-5085933D01*
X11547933Y-5298067D01*
X11760067Y-5298067D01*
X11760067Y-7768067D02*
X11760067Y-7555933D01*
X11547933Y-7555933D01*
X11547933Y-7768067D01*
X11760067Y-7768067D01*
X12075067Y-9922067D02*
X12075067Y-9709933D01*
X11862933Y-9709933D01*
X11862933Y-9922067D01*
X12075067Y-9922067D01*
X12160067Y-13468067D02*
X12160067Y-13255933D01*
X11947933Y-13255933D01*
X11947933Y-13468067D01*
X12160067Y-13468067D01*
X12525067Y-11822067D02*
X12525067Y-11609933D01*
X12312933Y-11609933D01*
X12312933Y-11822067D01*
X12525067Y-11822067D01*
X12710067Y-9668067D02*
X12710067Y-9455933D01*
X12497933Y-9455933D01*
X12497933Y-9668067D01*
X12710067Y-9668067D01*
X13025067Y-5552067D02*
X13025067Y-5339933D01*
X12812933Y-5339933D01*
X12812933Y-5552067D01*
X13025067Y-5552067D01*
X13025067Y-8022067D02*
X13025067Y-7809933D01*
X12812933Y-7809933D01*
X12812933Y-8022067D01*
X13025067Y-8022067D01*
X13160067Y-11568067D02*
X13160067Y-11355933D01*
X12947933Y-11355933D01*
X12947933Y-11568067D01*
X13160067Y-11568067D01*
X13175067Y-15622067D02*
X13175067Y-15409933D01*
X12962933Y-15409933D01*
X12962933Y-15622067D01*
X13175067Y-15622067D01*
X13425067Y-13722067D02*
X13425067Y-13509933D01*
X13212933Y-13509933D01*
X13212933Y-13722067D01*
X13425067Y-13722067D01*
X13660067Y-5298067D02*
X13660067Y-5085933D01*
X13447933Y-5085933D01*
X13447933Y-5298067D01*
X13660067Y-5298067D01*
X13660067Y-7768067D02*
X13660067Y-7555933D01*
X13447933Y-7555933D01*
X13447933Y-7768067D01*
X13660067Y-7768067D01*
X13810067Y-15368067D02*
X13810067Y-15155933D01*
X13597933Y-15155933D01*
X13597933Y-15368067D01*
X13810067Y-15368067D01*
X13975067Y-9922067D02*
X13975067Y-9709933D01*
X13762933Y-9709933D01*
X13762933Y-9922067D01*
X13975067Y-9922067D01*
X14060067Y-13468067D02*
X14060067Y-13255933D01*
X13847933Y-13255933D01*
X13847933Y-13468067D01*
X14060067Y-13468067D01*
X14425067Y-11822067D02*
X14425067Y-11609933D01*
X14212933Y-11609933D01*
X14212933Y-11822067D01*
X14425067Y-11822067D01*
X14610067Y-9668067D02*
X14610067Y-9455933D01*
X14397933Y-9455933D01*
X14397933Y-9668067D01*
X14610067Y-9668067D01*
X14925067Y-5552067D02*
X14925067Y-5339933D01*
X14712933Y-5339933D01*
X14712933Y-5552067D01*
X14925067Y-5552067D01*
X14925067Y-8022067D02*
X14925067Y-7809933D01*
X14712933Y-7809933D01*
X14712933Y-8022067D01*
X14925067Y-8022067D01*
X15060067Y-11568067D02*
X15060067Y-11355933D01*
X14847933Y-11355933D01*
X14847933Y-11568067D01*
X15060067Y-11568067D01*
X15325067Y-13722067D02*
X15325067Y-13509933D01*
X15112933Y-13509933D01*
X15112933Y-13722067D01*
X15325067Y-13722067D01*
X15560067Y-5298067D02*
X15560067Y-5085933D01*
X15347933Y-5085933D01*
X15347933Y-5298067D01*
X15560067Y-5298067D01*
X15560067Y-7768067D02*
X15560067Y-7555933D01*
X15347933Y-7555933D01*
X15347933Y-7768067D01*
X15560067Y-7768067D01*
X15960067Y-13468067D02*
X15960067Y-13255933D01*
X15747933Y-13255933D01*
X15747933Y-13468067D01*
X15960067Y-13468067D01*
X23175067Y-13722067D02*
X23175067Y-13509933D01*
X22962933Y-13509933D01*
X22962933Y-13722067D01*
X23175067Y-13722067D01*
X23625067Y-5552067D02*
X23625067Y-5339933D01*
X23412933Y-5339933D01*
X23412933Y-5552067D01*
X23625067Y-5552067D01*
X23625067Y-9922067D02*
X23625067Y-9709933D01*
X23412933Y-9709933D01*
X23412933Y-9922067D01*
X23625067Y-9922067D01*
X23810067Y-13468067D02*
X23810067Y-13255933D01*
X23597933Y-13255933D01*
X23597933Y-13468067D01*
X23810067Y-13468067D01*
X24175067Y-11822067D02*
X24175067Y-11609933D01*
X23962933Y-11609933D01*
X23962933Y-11822067D01*
X24175067Y-11822067D01*
X24260067Y-5298067D02*
X24260067Y-5085933D01*
X24047933Y-5085933D01*
X24047933Y-5298067D01*
X24260067Y-5298067D01*
X24260067Y-9668067D02*
X24260067Y-9455933D01*
X24047933Y-9455933D01*
X24047933Y-9668067D01*
X24260067Y-9668067D01*
X24575067Y-8022067D02*
X24575067Y-7809933D01*
X24362933Y-7809933D01*
X24362933Y-8022067D01*
X24575067Y-8022067D01*
X24810067Y-11568067D02*
X24810067Y-11355933D01*
X24597933Y-11355933D01*
X24597933Y-11568067D01*
X24810067Y-11568067D01*
X25075067Y-13722067D02*
X25075067Y-13509933D01*
X24862933Y-13509933D01*
X24862933Y-13722067D01*
X25075067Y-13722067D01*
X25210067Y-7768067D02*
X25210067Y-7555933D01*
X24997933Y-7555933D01*
X24997933Y-7768067D01*
X25210067Y-7768067D01*
X25525067Y-5552067D02*
X25525067Y-5339933D01*
X25312933Y-5339933D01*
X25312933Y-5552067D01*
X25525067Y-5552067D01*
X25525067Y-9922067D02*
X25525067Y-9709933D01*
X25312933Y-9709933D01*
X25312933Y-9922067D01*
X25525067Y-9922067D01*
X25710067Y-13468067D02*
X25710067Y-13255933D01*
X25497933Y-13255933D01*
X25497933Y-13468067D01*
X25710067Y-13468067D01*
X25875067Y-15622067D02*
X25875067Y-15409933D01*
X25662933Y-15409933D01*
X25662933Y-15622067D01*
X25875067Y-15622067D01*
X26075067Y-11822067D02*
X26075067Y-11609933D01*
X25862933Y-11609933D01*
X25862933Y-11822067D01*
X26075067Y-11822067D01*
X26160067Y-5298067D02*
X26160067Y-5085933D01*
X25947933Y-5085933D01*
X25947933Y-5298067D01*
X26160067Y-5298067D01*
X26160067Y-9668067D02*
X26160067Y-9455933D01*
X25947933Y-9455933D01*
X25947933Y-9668067D01*
X26160067Y-9668067D01*
X26475067Y-8022067D02*
X26475067Y-7809933D01*
X26262933Y-7809933D01*
X26262933Y-8022067D01*
X26475067Y-8022067D01*
X26510067Y-15368067D02*
X26510067Y-15155933D01*
X26297933Y-15155933D01*
X26297933Y-15368067D01*
X26510067Y-15368067D01*
X26710067Y-11568067D02*
X26710067Y-11355933D01*
X26497933Y-11355933D01*
X26497933Y-11568067D01*
X26710067Y-11568067D01*
X26975067Y-13722067D02*
X26975067Y-13509933D01*
X26762933Y-13509933D01*
X26762933Y-13722067D01*
X26975067Y-13722067D01*
X27110067Y-7768067D02*
X27110067Y-7555933D01*
X26897933Y-7555933D01*
X26897933Y-7768067D01*
X27110067Y-7768067D01*
X27425067Y-5552067D02*
X27425067Y-5339933D01*
X27212933Y-5339933D01*
X27212933Y-5552067D01*
X27425067Y-5552067D01*
X27425067Y-9922067D02*
X27425067Y-9709933D01*
X27212933Y-9709933D01*
X27212933Y-9922067D01*
X27425067Y-9922067D01*
X27610067Y-13468067D02*
X27610067Y-13255933D01*
X27397933Y-13255933D01*
X27397933Y-13468067D01*
X27610067Y-13468067D01*
X27975067Y-11822067D02*
X27975067Y-11609933D01*
X27762933Y-11609933D01*
X27762933Y-11822067D01*
X27975067Y-11822067D01*
X28060067Y-5298067D02*
X28060067Y-5085933D01*
X27847933Y-5085933D01*
X27847933Y-5298067D01*
X28060067Y-5298067D01*
X28060067Y-9668067D02*
X28060067Y-9455933D01*
X27847933Y-9455933D01*
X27847933Y-9668067D01*
X28060067Y-9668067D01*
X28375067Y-8022067D02*
X28375067Y-7809933D01*
X28162933Y-7809933D01*
X28162933Y-8022067D01*
X28375067Y-8022067D01*
X28610067Y-11568067D02*
X28610067Y-11355933D01*
X28397933Y-11355933D01*
X28397933Y-11568067D01*
X28610067Y-11568067D01*
X28875067Y-13722067D02*
X28875067Y-13509933D01*
X28662933Y-13509933D01*
X28662933Y-13722067D01*
X28875067Y-13722067D01*
X29010067Y-7768067D02*
X29010067Y-7555933D01*
X28797933Y-7555933D01*
X28797933Y-7768067D01*
X29010067Y-7768067D01*
X29325067Y-5552067D02*
X29325067Y-5339933D01*
X29112933Y-5339933D01*
X29112933Y-5552067D01*
X29325067Y-5552067D01*
X29325067Y-9922067D02*
X29325067Y-9709933D01*
X29112933Y-9709933D01*
X29112933Y-9922067D01*
X29325067Y-9922067D01*
X29510067Y-13468067D02*
X29510067Y-13255933D01*
X29297933Y-13255933D01*
X29297933Y-13468067D01*
X29510067Y-13468067D01*
X29875067Y-11822067D02*
X29875067Y-11609933D01*
X29662933Y-11609933D01*
X29662933Y-11822067D01*
X29875067Y-11822067D01*
X29960067Y-5298067D02*
X29960067Y-5085933D01*
X29747933Y-5085933D01*
X29747933Y-5298067D01*
X29960067Y-5298067D01*
X29960067Y-9668067D02*
X29960067Y-9455933D01*
X29747933Y-9455933D01*
X29747933Y-9668067D01*
X29960067Y-9668067D01*
X30275067Y-8022067D02*
X30275067Y-7809933D01*
X30062933Y-7809933D01*
X30062933Y-8022067D01*
X30275067Y-8022067D01*
X30510067Y-11568067D02*
X30510067Y-11355933D01*
X30297933Y-11355933D01*
X30297933Y-11568067D01*
X30510067Y-11568067D01*
X30600067Y-15622067D02*
X30600067Y-15409933D01*
X30387933Y-15409933D01*
X30387933Y-15622067D01*
X30600067Y-15622067D01*
X30775067Y-13722067D02*
X30775067Y-13509933D01*
X30562933Y-13509933D01*
X30562933Y-13722067D01*
X30775067Y-13722067D01*
X30910067Y-7768067D02*
X30910067Y-7555933D01*
X30697933Y-7555933D01*
X30697933Y-7768067D01*
X30910067Y-7768067D01*
X31225067Y-9922067D02*
X31225067Y-9709933D01*
X31012933Y-9709933D01*
X31012933Y-9922067D01*
X31225067Y-9922067D01*
X31235067Y-15368067D02*
X31235067Y-15155933D01*
X31022933Y-15155933D01*
X31022933Y-15368067D01*
X31235067Y-15368067D01*
X31410067Y-13468067D02*
X31410067Y-13255933D01*
X31197933Y-13255933D01*
X31197933Y-13468067D01*
X31410067Y-13468067D01*
X31775067Y-11822067D02*
X31775067Y-11609933D01*
X31562933Y-11609933D01*
X31562933Y-11822067D01*
X31775067Y-11822067D01*
X31860067Y-9668067D02*
X31860067Y-9455933D01*
X31647933Y-9455933D01*
X31647933Y-9668067D01*
X31860067Y-9668067D01*
X32175067Y-5552067D02*
X32175067Y-5339933D01*
X31962933Y-5339933D01*
X31962933Y-5552067D01*
X32175067Y-5552067D01*
X32175067Y-8022067D02*
X32175067Y-7809933D01*
X31962933Y-7809933D01*
X31962933Y-8022067D01*
X32175067Y-8022067D01*
X32410067Y-11568067D02*
X32410067Y-11355933D01*
X32197933Y-11355933D01*
X32197933Y-11568067D01*
X32410067Y-11568067D01*
X32675067Y-13722067D02*
X32675067Y-13509933D01*
X32462933Y-13509933D01*
X32462933Y-13722067D01*
X32675067Y-13722067D01*
X32810067Y-5298067D02*
X32810067Y-5085933D01*
X32597933Y-5085933D01*
X32597933Y-5298067D01*
X32810067Y-5298067D01*
X32810067Y-7768067D02*
X32810067Y-7555933D01*
X32597933Y-7555933D01*
X32597933Y-7768067D01*
X32810067Y-7768067D01*
X32950067Y-15622067D02*
X32950067Y-15409933D01*
X32737933Y-15409933D01*
X32737933Y-15622067D01*
X32950067Y-15622067D01*
X33125067Y-9922067D02*
X33125067Y-9709933D01*
X32912933Y-9709933D01*
X32912933Y-9922067D01*
X33125067Y-9922067D01*
X33310067Y-13468067D02*
X33310067Y-13255933D01*
X33097933Y-13255933D01*
X33097933Y-13468067D01*
X33310067Y-13468067D01*
X33585067Y-15368067D02*
X33585067Y-15155933D01*
X33372933Y-15155933D01*
X33372933Y-15368067D01*
X33585067Y-15368067D01*
X33675067Y-11822067D02*
X33675067Y-11609933D01*
X33462933Y-11609933D01*
X33462933Y-11822067D01*
X33675067Y-11822067D01*
X33760067Y-9668067D02*
X33760067Y-9455933D01*
X33547933Y-9455933D01*
X33547933Y-9668067D01*
X33760067Y-9668067D01*
X34075067Y-5552067D02*
X34075067Y-5339933D01*
X33862933Y-5339933D01*
X33862933Y-5552067D01*
X34075067Y-5552067D01*
X34075067Y-8022067D02*
X34075067Y-7809933D01*
X33862933Y-7809933D01*
X33862933Y-8022067D01*
X34075067Y-8022067D01*
X34310067Y-11568067D02*
X34310067Y-11355933D01*
X34097933Y-11355933D01*
X34097933Y-11568067D01*
X34310067Y-11568067D01*
X34710067Y-5298067D02*
X34710067Y-5085933D01*
X34497933Y-5085933D01*
X34497933Y-5298067D01*
X34710067Y-5298067D01*
X34710067Y-7768067D02*
X34710067Y-7555933D01*
X34497933Y-7555933D01*
X34497933Y-7768067D01*
X34710067Y-7768067D01*
X35025067Y-9922067D02*
X35025067Y-9709933D01*
X34812933Y-9709933D01*
X34812933Y-9922067D01*
X35025067Y-9922067D01*
X35300067Y-15622067D02*
X35300067Y-15409933D01*
X35087933Y-15409933D01*
X35087933Y-15622067D01*
X35300067Y-15622067D01*
X35660067Y-9668067D02*
X35660067Y-9455933D01*
X35447933Y-9455933D01*
X35447933Y-9668067D01*
X35660067Y-9668067D01*
X35935067Y-15368067D02*
X35935067Y-15155933D01*
X35722933Y-15155933D01*
X35722933Y-15368067D01*
X35935067Y-15368067D01*
X35975067Y-5552067D02*
X35975067Y-5339933D01*
X35762933Y-5339933D01*
X35762933Y-5552067D01*
X35975067Y-5552067D01*
X36225067Y-13722067D02*
X36225067Y-13509933D01*
X36012933Y-13509933D01*
X36012933Y-13722067D01*
X36225067Y-13722067D01*
X36610067Y-5298067D02*
X36610067Y-5085933D01*
X36397933Y-5085933D01*
X36397933Y-5298067D01*
X36610067Y-5298067D01*
X36725067Y-11822067D02*
X36725067Y-11609933D01*
X36512933Y-11609933D01*
X36512933Y-11822067D01*
X36725067Y-11822067D01*
X36860067Y-13468067D02*
X36860067Y-13255933D01*
X36647933Y-13255933D01*
X36647933Y-13468067D01*
X36860067Y-13468067D01*
X36925067Y-8022067D02*
X36925067Y-7809933D01*
X36712933Y-7809933D01*
X36712933Y-8022067D01*
X36925067Y-8022067D01*
X37360067Y-11568067D02*
X37360067Y-11355933D01*
X37147933Y-11355933D01*
X37147933Y-11568067D01*
X37360067Y-11568067D01*
X37400067Y-9922067D02*
X37400067Y-9709933D01*
X37187933Y-9709933D01*
X37187933Y-9922067D01*
X37400067Y-9922067D01*
X37560067Y-7768067D02*
X37560067Y-7555933D01*
X37347933Y-7555933D01*
X37347933Y-7768067D01*
X37560067Y-7768067D01*
X37650067Y-15622067D02*
X37650067Y-15409933D01*
X37437933Y-15409933D01*
X37437933Y-15622067D01*
X37650067Y-15622067D01*
X37875067Y-5552067D02*
X37875067Y-5339933D01*
X37662933Y-5339933D01*
X37662933Y-5552067D01*
X37875067Y-5552067D01*
X38035067Y-9668067D02*
X38035067Y-9455933D01*
X37822933Y-9455933D01*
X37822933Y-9668067D01*
X38035067Y-9668067D01*
X38285067Y-15368067D02*
X38285067Y-15155933D01*
X38072933Y-15155933D01*
X38072933Y-15368067D01*
X38285067Y-15368067D01*
X38510067Y-5298067D02*
X38510067Y-5085933D01*
X38297933Y-5085933D01*
X38297933Y-5298067D01*
X38510067Y-5298067D01*
D16*
X3800000Y-5899390D02*
X3999390Y-5700000D01*
X3800000Y-5500610D01*
X3600610Y-5700000D01*
X3800000Y-5899390D01*
X3800000Y-8369390D02*
X3999390Y-8170000D01*
X3800000Y-7970610D01*
X3600610Y-8170000D01*
X3800000Y-8369390D01*
X4025000Y-15969390D02*
X4224390Y-15770000D01*
X4025000Y-15570610D01*
X3825610Y-15770000D01*
X4025000Y-15969390D01*
X4275000Y-10269390D02*
X4474390Y-10070000D01*
X4275000Y-9870610D01*
X4075610Y-10070000D01*
X4275000Y-10269390D01*
X4500000Y-12169390D02*
X4699390Y-11970000D01*
X4500000Y-11770610D01*
X4300610Y-11970000D01*
X4500000Y-12169390D01*
X4950000Y-14069390D02*
X5149390Y-13870000D01*
X4950000Y-13670610D01*
X4750610Y-13870000D01*
X4950000Y-14069390D01*
X5700000Y-8369390D02*
X5899390Y-8170000D01*
X5700000Y-7970610D01*
X5500610Y-8170000D01*
X5700000Y-8369390D01*
X6375000Y-15969390D02*
X6574390Y-15770000D01*
X6375000Y-15570610D01*
X6175610Y-15770000D01*
X6375000Y-15969390D01*
X6650000Y-10269390D02*
X6849390Y-10070000D01*
X6650000Y-9870610D01*
X6450610Y-10070000D01*
X6650000Y-10269390D01*
X7100000Y-12169390D02*
X7299390Y-11970000D01*
X7100000Y-11770610D01*
X6900610Y-11970000D01*
X7100000Y-12169390D01*
X7600000Y-5899390D02*
X7799390Y-5700000D01*
X7600000Y-5500610D01*
X7400610Y-5700000D01*
X7600000Y-5899390D01*
X7600000Y-8369390D02*
X7799390Y-8170000D01*
X7600000Y-7970610D01*
X7400610Y-8170000D01*
X7600000Y-8369390D01*
X8000000Y-14069390D02*
X8199390Y-13870000D01*
X8000000Y-13670610D01*
X7800610Y-13870000D01*
X8000000Y-14069390D01*
X8550000Y-10269390D02*
X8749390Y-10070000D01*
X8550000Y-9870610D01*
X8350610Y-10070000D01*
X8550000Y-10269390D01*
X8725000Y-15969390D02*
X8924390Y-15770000D01*
X8725000Y-15570610D01*
X8525610Y-15770000D01*
X8725000Y-15969390D01*
X9000000Y-12169390D02*
X9199390Y-11970000D01*
X9000000Y-11770610D01*
X8800610Y-11970000D01*
X9000000Y-12169390D01*
X9500000Y-5899390D02*
X9699390Y-5700000D01*
X9500000Y-5500610D01*
X9300610Y-5700000D01*
X9500000Y-5899390D01*
X9500000Y-8369390D02*
X9699390Y-8170000D01*
X9500000Y-7970610D01*
X9300610Y-8170000D01*
X9500000Y-8369390D01*
X9900000Y-14069390D02*
X10099390Y-13870000D01*
X9900000Y-13670610D01*
X9700610Y-13870000D01*
X9900000Y-14069390D01*
X10450000Y-10269390D02*
X10649390Y-10070000D01*
X10450000Y-9870610D01*
X10250610Y-10070000D01*
X10450000Y-10269390D01*
X10900000Y-12169390D02*
X11099390Y-11970000D01*
X10900000Y-11770610D01*
X10700610Y-11970000D01*
X10900000Y-12169390D01*
X11400000Y-5899390D02*
X11599390Y-5700000D01*
X11400000Y-5500610D01*
X11200610Y-5700000D01*
X11400000Y-5899390D01*
X11400000Y-8369390D02*
X11599390Y-8170000D01*
X11400000Y-7970610D01*
X11200610Y-8170000D01*
X11400000Y-8369390D01*
X11800000Y-14069390D02*
X11999390Y-13870000D01*
X11800000Y-13670610D01*
X11600610Y-13870000D01*
X11800000Y-14069390D01*
X12350000Y-10269390D02*
X12549390Y-10070000D01*
X12350000Y-9870610D01*
X12150610Y-10070000D01*
X12350000Y-10269390D01*
X12800000Y-12169390D02*
X12999390Y-11970000D01*
X12800000Y-11770610D01*
X12600610Y-11970000D01*
X12800000Y-12169390D01*
X13300000Y-5899390D02*
X13499390Y-5700000D01*
X13300000Y-5500610D01*
X13100610Y-5700000D01*
X13300000Y-5899390D01*
X13300000Y-8369390D02*
X13499390Y-8170000D01*
X13300000Y-7970610D01*
X13100610Y-8170000D01*
X13300000Y-8369390D01*
X13450000Y-15969390D02*
X13649390Y-15770000D01*
X13450000Y-15570610D01*
X13250610Y-15770000D01*
X13450000Y-15969390D01*
X13700000Y-14069390D02*
X13899390Y-13870000D01*
X13700000Y-13670610D01*
X13500610Y-13870000D01*
X13700000Y-14069390D01*
X14250000Y-10269390D02*
X14449390Y-10070000D01*
X14250000Y-9870610D01*
X14050610Y-10070000D01*
X14250000Y-10269390D01*
X14700000Y-12169390D02*
X14899390Y-11970000D01*
X14700000Y-11770610D01*
X14500610Y-11970000D01*
X14700000Y-12169390D01*
X15200000Y-5899390D02*
X15399390Y-5700000D01*
X15200000Y-5500610D01*
X15000610Y-5700000D01*
X15200000Y-5899390D01*
X15200000Y-8369390D02*
X15399390Y-8170000D01*
X15200000Y-7970610D01*
X15000610Y-8170000D01*
X15200000Y-8369390D01*
X15600000Y-14069390D02*
X15799390Y-13870000D01*
X15600000Y-13670610D01*
X15400610Y-13870000D01*
X15600000Y-14069390D01*
X23450000Y-14069390D02*
X23649390Y-13870000D01*
X23450000Y-13670610D01*
X23250610Y-13870000D01*
X23450000Y-14069390D01*
X23900000Y-5899390D02*
X24099390Y-5700000D01*
X23900000Y-5500610D01*
X23700610Y-5700000D01*
X23900000Y-5899390D01*
X23900000Y-10269390D02*
X24099390Y-10070000D01*
X23900000Y-9870610D01*
X23700610Y-10070000D01*
X23900000Y-10269390D01*
X24450000Y-12169390D02*
X24649390Y-11970000D01*
X24450000Y-11770610D01*
X24250610Y-11970000D01*
X24450000Y-12169390D01*
X24850000Y-8369390D02*
X25049390Y-8170000D01*
X24850000Y-7970610D01*
X24650610Y-8170000D01*
X24850000Y-8369390D01*
X25350000Y-14069390D02*
X25549390Y-13870000D01*
X25350000Y-13670610D01*
X25150610Y-13870000D01*
X25350000Y-14069390D01*
X25800000Y-5899390D02*
X25999390Y-5700000D01*
X25800000Y-5500610D01*
X25600610Y-5700000D01*
X25800000Y-5899390D01*
X25800000Y-10269390D02*
X25999390Y-10070000D01*
X25800000Y-9870610D01*
X25600610Y-10070000D01*
X25800000Y-10269390D01*
X26150000Y-15969390D02*
X26349390Y-15770000D01*
X26150000Y-15570610D01*
X25950610Y-15770000D01*
X26150000Y-15969390D01*
X26350000Y-12169390D02*
X26549390Y-11970000D01*
X26350000Y-11770610D01*
X26150610Y-11970000D01*
X26350000Y-12169390D01*
X26750000Y-8369390D02*
X26949390Y-8170000D01*
X26750000Y-7970610D01*
X26550610Y-8170000D01*
X26750000Y-8369390D01*
X27250000Y-14069390D02*
X27449390Y-13870000D01*
X27250000Y-13670610D01*
X27050610Y-13870000D01*
X27250000Y-14069390D01*
X27700000Y-5899390D02*
X27899390Y-5700000D01*
X27700000Y-5500610D01*
X27500610Y-5700000D01*
X27700000Y-5899390D01*
X27700000Y-10269390D02*
X27899390Y-10070000D01*
X27700000Y-9870610D01*
X27500610Y-10070000D01*
X27700000Y-10269390D01*
X28250000Y-12169390D02*
X28449390Y-11970000D01*
X28250000Y-11770610D01*
X28050610Y-11970000D01*
X28250000Y-12169390D01*
X28650000Y-8369390D02*
X28849390Y-8170000D01*
X28650000Y-7970610D01*
X28450610Y-8170000D01*
X28650000Y-8369390D01*
X29150000Y-14069390D02*
X29349390Y-13870000D01*
X29150000Y-13670610D01*
X28950610Y-13870000D01*
X29150000Y-14069390D01*
X29600000Y-5899390D02*
X29799390Y-5700000D01*
X29600000Y-5500610D01*
X29400610Y-5700000D01*
X29600000Y-5899390D01*
X29600000Y-10269390D02*
X29799390Y-10070000D01*
X29600000Y-9870610D01*
X29400610Y-10070000D01*
X29600000Y-10269390D01*
X30150000Y-12169390D02*
X30349390Y-11970000D01*
X30150000Y-11770610D01*
X29950610Y-11970000D01*
X30150000Y-12169390D01*
X30550000Y-8369390D02*
X30749390Y-8170000D01*
X30550000Y-7970610D01*
X30350610Y-8170000D01*
X30550000Y-8369390D01*
X30875000Y-15969390D02*
X31074390Y-15770000D01*
X30875000Y-15570610D01*
X30675610Y-15770000D01*
X30875000Y-15969390D01*
X31050000Y-14069390D02*
X31249390Y-13870000D01*
X31050000Y-13670610D01*
X30850610Y-13870000D01*
X31050000Y-14069390D01*
X31500000Y-10269390D02*
X31699390Y-10070000D01*
X31500000Y-9870610D01*
X31300610Y-10070000D01*
X31500000Y-10269390D01*
X32050000Y-12169390D02*
X32249390Y-11970000D01*
X32050000Y-11770610D01*
X31850610Y-11970000D01*
X32050000Y-12169390D01*
X32450000Y-5899390D02*
X32649390Y-5700000D01*
X32450000Y-5500610D01*
X32250610Y-5700000D01*
X32450000Y-5899390D01*
X32450000Y-8369390D02*
X32649390Y-8170000D01*
X32450000Y-7970610D01*
X32250610Y-8170000D01*
X32450000Y-8369390D01*
X32950000Y-14069390D02*
X33149390Y-13870000D01*
X32950000Y-13670610D01*
X32750610Y-13870000D01*
X32950000Y-14069390D01*
X33225000Y-15969390D02*
X33424390Y-15770000D01*
X33225000Y-15570610D01*
X33025610Y-15770000D01*
X33225000Y-15969390D01*
X33400000Y-10269390D02*
X33599390Y-10070000D01*
X33400000Y-9870610D01*
X33200610Y-10070000D01*
X33400000Y-10269390D01*
X33950000Y-12169390D02*
X34149390Y-11970000D01*
X33950000Y-11770610D01*
X33750610Y-11970000D01*
X33950000Y-12169390D01*
X34350000Y-5899390D02*
X34549390Y-5700000D01*
X34350000Y-5500610D01*
X34150610Y-5700000D01*
X34350000Y-5899390D01*
X34350000Y-8369390D02*
X34549390Y-8170000D01*
X34350000Y-7970610D01*
X34150610Y-8170000D01*
X34350000Y-8369390D01*
X35300000Y-10269390D02*
X35499390Y-10070000D01*
X35300000Y-9870610D01*
X35100610Y-10070000D01*
X35300000Y-10269390D01*
X35575000Y-15969390D02*
X35774390Y-15770000D01*
X35575000Y-15570610D01*
X35375610Y-15770000D01*
X35575000Y-15969390D01*
X36250000Y-5899390D02*
X36449390Y-5700000D01*
X36250000Y-5500610D01*
X36050610Y-5700000D01*
X36250000Y-5899390D01*
X36500000Y-14069390D02*
X36699390Y-13870000D01*
X36500000Y-13670610D01*
X36300610Y-13870000D01*
X36500000Y-14069390D01*
X37000000Y-12169390D02*
X37199390Y-11970000D01*
X37000000Y-11770610D01*
X36800610Y-11970000D01*
X37000000Y-12169390D01*
X37200000Y-8369390D02*
X37399390Y-8170000D01*
X37200000Y-7970610D01*
X37000610Y-8170000D01*
X37200000Y-8369390D01*
X37675000Y-10269390D02*
X37874390Y-10070000D01*
X37675000Y-9870610D01*
X37475610Y-10070000D01*
X37675000Y-10269390D01*
X37925000Y-15969390D02*
X38124390Y-15770000D01*
X37925000Y-15570610D01*
X37725610Y-15770000D01*
X37925000Y-15969390D01*
X38150000Y-5899390D02*
X38349390Y-5700000D01*
X38150000Y-5500610D01*
X37950610Y-5700000D01*
X38150000Y-5899390D01*
D11*
X2723277Y-17418984D02*
X2723277Y-17218984D01*
X2723277Y-17218984D02*
X2770896Y-17218984D01*
X2770896Y-17218984D02*
X2799467Y-17228508D01*
X2799467Y-17228508D02*
X2818515Y-17247555D01*
X2818515Y-17247555D02*
X2828039Y-17266603D01*
X2828039Y-17266603D02*
X2837562Y-17304698D01*
X2837562Y-17304698D02*
X2837562Y-17333270D01*
X2837562Y-17333270D02*
X2828039Y-17371365D01*
X2828039Y-17371365D02*
X2818515Y-17390412D01*
X2818515Y-17390412D02*
X2799467Y-17409460D01*
X2799467Y-17409460D02*
X2770896Y-17418984D01*
X2770896Y-17418984D02*
X2723277Y-17418984D01*
X2923277Y-17418984D02*
X2923277Y-17285650D01*
X2923277Y-17323746D02*
X2932801Y-17304698D01*
X2932801Y-17304698D02*
X2942324Y-17295174D01*
X2942324Y-17295174D02*
X2961372Y-17285650D01*
X2961372Y-17285650D02*
X2980420Y-17285650D01*
X3047086Y-17418984D02*
X3047086Y-17285650D01*
X3047086Y-17218984D02*
X3037562Y-17228508D01*
X3037562Y-17228508D02*
X3047086Y-17238031D01*
X3047086Y-17238031D02*
X3056610Y-17228508D01*
X3056610Y-17228508D02*
X3047086Y-17218984D01*
X3047086Y-17218984D02*
X3047086Y-17238031D01*
X3170896Y-17418984D02*
X3151848Y-17409460D01*
X3151848Y-17409460D02*
X3142324Y-17390412D01*
X3142324Y-17390412D02*
X3142324Y-17218984D01*
X3275658Y-17418984D02*
X3256610Y-17409460D01*
X3256610Y-17409460D02*
X3247086Y-17390412D01*
X3247086Y-17390412D02*
X3247086Y-17218984D01*
X3504229Y-17418984D02*
X3504229Y-17218984D01*
X3504229Y-17218984D02*
X3570896Y-17361841D01*
X3570896Y-17361841D02*
X3637562Y-17218984D01*
X3637562Y-17218984D02*
X3637562Y-17418984D01*
X3818515Y-17418984D02*
X3818515Y-17314222D01*
X3818515Y-17314222D02*
X3808991Y-17295174D01*
X3808991Y-17295174D02*
X3789943Y-17285650D01*
X3789943Y-17285650D02*
X3751848Y-17285650D01*
X3751848Y-17285650D02*
X3732801Y-17295174D01*
X3818515Y-17409460D02*
X3799467Y-17418984D01*
X3799467Y-17418984D02*
X3751848Y-17418984D01*
X3751848Y-17418984D02*
X3732801Y-17409460D01*
X3732801Y-17409460D02*
X3723277Y-17390412D01*
X3723277Y-17390412D02*
X3723277Y-17371365D01*
X3723277Y-17371365D02*
X3732801Y-17352317D01*
X3732801Y-17352317D02*
X3751848Y-17342793D01*
X3751848Y-17342793D02*
X3799467Y-17342793D01*
X3799467Y-17342793D02*
X3818515Y-17333270D01*
X3913753Y-17285650D02*
X3913753Y-17485650D01*
X3913753Y-17295174D02*
X3932801Y-17285650D01*
X3932801Y-17285650D02*
X3970896Y-17285650D01*
X3970896Y-17285650D02*
X3989943Y-17295174D01*
X3989943Y-17295174D02*
X3999467Y-17304698D01*
X3999467Y-17304698D02*
X4008991Y-17323746D01*
X4008991Y-17323746D02*
X4008991Y-17380889D01*
X4008991Y-17380889D02*
X3999467Y-17399936D01*
X3999467Y-17399936D02*
X3989943Y-17409460D01*
X3989943Y-17409460D02*
X3970896Y-17418984D01*
X3970896Y-17418984D02*
X3932801Y-17418984D01*
X3932801Y-17418984D02*
X3913753Y-17409460D01*
X4094705Y-17399936D02*
X4104229Y-17409460D01*
X4104229Y-17409460D02*
X4094705Y-17418984D01*
X4094705Y-17418984D02*
X4085182Y-17409460D01*
X4085182Y-17409460D02*
X4094705Y-17399936D01*
X4094705Y-17399936D02*
X4094705Y-17418984D01*
X4094705Y-17295174D02*
X4104229Y-17304698D01*
X4104229Y-17304698D02*
X4094705Y-17314222D01*
X4094705Y-17314222D02*
X4085182Y-17304698D01*
X4085182Y-17304698D02*
X4094705Y-17295174D01*
X4094705Y-17295174D02*
X4094705Y-17314222D01*
D12*
X2372500Y-17702500D02*
X2462500Y-17792500D01*
X2462500Y-17702500D02*
X2372500Y-17792500D01*
D11*
X2761372Y-17638984D02*
X2780420Y-17638984D01*
X2780420Y-17638984D02*
X2799467Y-17648508D01*
X2799467Y-17648508D02*
X2808991Y-17658031D01*
X2808991Y-17658031D02*
X2818515Y-17677079D01*
X2818515Y-17677079D02*
X2828039Y-17715174D01*
X2828039Y-17715174D02*
X2828039Y-17762793D01*
X2828039Y-17762793D02*
X2818515Y-17800889D01*
X2818515Y-17800889D02*
X2808991Y-17819936D01*
X2808991Y-17819936D02*
X2799467Y-17829460D01*
X2799467Y-17829460D02*
X2780420Y-17838984D01*
X2780420Y-17838984D02*
X2761372Y-17838984D01*
X2761372Y-17838984D02*
X2742324Y-17829460D01*
X2742324Y-17829460D02*
X2732801Y-17819936D01*
X2732801Y-17819936D02*
X2723277Y-17800889D01*
X2723277Y-17800889D02*
X2713753Y-17762793D01*
X2713753Y-17762793D02*
X2713753Y-17715174D01*
X2713753Y-17715174D02*
X2723277Y-17677079D01*
X2723277Y-17677079D02*
X2732801Y-17658031D01*
X2732801Y-17658031D02*
X2742324Y-17648508D01*
X2742324Y-17648508D02*
X2761372Y-17638984D01*
X2913753Y-17819936D02*
X2923277Y-17829460D01*
X2923277Y-17829460D02*
X2913753Y-17838984D01*
X2913753Y-17838984D02*
X2904229Y-17829460D01*
X2904229Y-17829460D02*
X2913753Y-17819936D01*
X2913753Y-17819936D02*
X2913753Y-17838984D01*
X3018515Y-17838984D02*
X3056610Y-17838984D01*
X3056610Y-17838984D02*
X3075658Y-17829460D01*
X3075658Y-17829460D02*
X3085182Y-17819936D01*
X3085182Y-17819936D02*
X3104229Y-17791365D01*
X3104229Y-17791365D02*
X3113753Y-17753270D01*
X3113753Y-17753270D02*
X3113753Y-17677079D01*
X3113753Y-17677079D02*
X3104229Y-17658031D01*
X3104229Y-17658031D02*
X3094705Y-17648508D01*
X3094705Y-17648508D02*
X3075658Y-17638984D01*
X3075658Y-17638984D02*
X3037562Y-17638984D01*
X3037562Y-17638984D02*
X3018515Y-17648508D01*
X3018515Y-17648508D02*
X3008991Y-17658031D01*
X3008991Y-17658031D02*
X2999467Y-17677079D01*
X2999467Y-17677079D02*
X2999467Y-17724698D01*
X2999467Y-17724698D02*
X3008991Y-17743746D01*
X3008991Y-17743746D02*
X3018515Y-17753270D01*
X3018515Y-17753270D02*
X3037562Y-17762793D01*
X3037562Y-17762793D02*
X3075658Y-17762793D01*
X3075658Y-17762793D02*
X3094705Y-17753270D01*
X3094705Y-17753270D02*
X3104229Y-17743746D01*
X3104229Y-17743746D02*
X3113753Y-17724698D01*
X3237562Y-17638984D02*
X3256610Y-17638984D01*
X3256610Y-17638984D02*
X3275658Y-17648508D01*
X3275658Y-17648508D02*
X3285182Y-17658031D01*
X3285182Y-17658031D02*
X3294705Y-17677079D01*
X3294705Y-17677079D02*
X3304229Y-17715174D01*
X3304229Y-17715174D02*
X3304229Y-17762793D01*
X3304229Y-17762793D02*
X3294705Y-17800889D01*
X3294705Y-17800889D02*
X3285182Y-17819936D01*
X3285182Y-17819936D02*
X3275658Y-17829460D01*
X3275658Y-17829460D02*
X3256610Y-17838984D01*
X3256610Y-17838984D02*
X3237562Y-17838984D01*
X3237562Y-17838984D02*
X3218515Y-17829460D01*
X3218515Y-17829460D02*
X3208991Y-17819936D01*
X3208991Y-17819936D02*
X3199467Y-17800889D01*
X3199467Y-17800889D02*
X3189943Y-17762793D01*
X3189943Y-17762793D02*
X3189943Y-17715174D01*
X3189943Y-17715174D02*
X3199467Y-17677079D01*
X3199467Y-17677079D02*
X3208991Y-17658031D01*
X3208991Y-17658031D02*
X3218515Y-17648508D01*
X3218515Y-17648508D02*
X3237562Y-17638984D01*
X3428039Y-17638984D02*
X3447086Y-17638984D01*
X3447086Y-17638984D02*
X3466134Y-17648508D01*
X3466134Y-17648508D02*
X3475658Y-17658031D01*
X3475658Y-17658031D02*
X3485182Y-17677079D01*
X3485182Y-17677079D02*
X3494705Y-17715174D01*
X3494705Y-17715174D02*
X3494705Y-17762793D01*
X3494705Y-17762793D02*
X3485182Y-17800889D01*
X3485182Y-17800889D02*
X3475658Y-17819936D01*
X3475658Y-17819936D02*
X3466134Y-17829460D01*
X3466134Y-17829460D02*
X3447086Y-17838984D01*
X3447086Y-17838984D02*
X3428039Y-17838984D01*
X3428039Y-17838984D02*
X3408991Y-17829460D01*
X3408991Y-17829460D02*
X3399467Y-17819936D01*
X3399467Y-17819936D02*
X3389943Y-17800889D01*
X3389943Y-17800889D02*
X3380420Y-17762793D01*
X3380420Y-17762793D02*
X3380420Y-17715174D01*
X3380420Y-17715174D02*
X3389943Y-17677079D01*
X3389943Y-17677079D02*
X3399467Y-17658031D01*
X3399467Y-17658031D02*
X3408991Y-17648508D01*
X3408991Y-17648508D02*
X3428039Y-17638984D01*
X3580420Y-17838984D02*
X3580420Y-17705650D01*
X3580420Y-17724698D02*
X3589943Y-17715174D01*
X3589943Y-17715174D02*
X3608991Y-17705650D01*
X3608991Y-17705650D02*
X3637563Y-17705650D01*
X3637563Y-17705650D02*
X3656610Y-17715174D01*
X3656610Y-17715174D02*
X3666134Y-17734222D01*
X3666134Y-17734222D02*
X3666134Y-17838984D01*
X3666134Y-17734222D02*
X3675658Y-17715174D01*
X3675658Y-17715174D02*
X3694705Y-17705650D01*
X3694705Y-17705650D02*
X3723277Y-17705650D01*
X3723277Y-17705650D02*
X3742324Y-17715174D01*
X3742324Y-17715174D02*
X3751848Y-17734222D01*
X3751848Y-17734222D02*
X3751848Y-17838984D01*
X3847086Y-17838984D02*
X3847086Y-17705650D01*
X3847086Y-17724698D02*
X3856610Y-17715174D01*
X3856610Y-17715174D02*
X3875658Y-17705650D01*
X3875658Y-17705650D02*
X3904229Y-17705650D01*
X3904229Y-17705650D02*
X3923277Y-17715174D01*
X3923277Y-17715174D02*
X3932801Y-17734222D01*
X3932801Y-17734222D02*
X3932801Y-17838984D01*
X3932801Y-17734222D02*
X3942324Y-17715174D01*
X3942324Y-17715174D02*
X3961372Y-17705650D01*
X3961372Y-17705650D02*
X3989943Y-17705650D01*
X3989943Y-17705650D02*
X4008991Y-17715174D01*
X4008991Y-17715174D02*
X4018515Y-17734222D01*
X4018515Y-17734222D02*
X4018515Y-17838984D01*
X4408991Y-17629460D02*
X4237563Y-17886603D01*
X4666134Y-17638984D02*
X4685182Y-17638984D01*
X4685182Y-17638984D02*
X4704229Y-17648508D01*
X4704229Y-17648508D02*
X4713753Y-17658031D01*
X4713753Y-17658031D02*
X4723277Y-17677079D01*
X4723277Y-17677079D02*
X4732801Y-17715174D01*
X4732801Y-17715174D02*
X4732801Y-17762793D01*
X4732801Y-17762793D02*
X4723277Y-17800889D01*
X4723277Y-17800889D02*
X4713753Y-17819936D01*
X4713753Y-17819936D02*
X4704229Y-17829460D01*
X4704229Y-17829460D02*
X4685182Y-17838984D01*
X4685182Y-17838984D02*
X4666134Y-17838984D01*
X4666134Y-17838984D02*
X4647087Y-17829460D01*
X4647087Y-17829460D02*
X4637563Y-17819936D01*
X4637563Y-17819936D02*
X4628039Y-17800889D01*
X4628039Y-17800889D02*
X4618515Y-17762793D01*
X4618515Y-17762793D02*
X4618515Y-17715174D01*
X4618515Y-17715174D02*
X4628039Y-17677079D01*
X4628039Y-17677079D02*
X4637563Y-17658031D01*
X4637563Y-17658031D02*
X4647087Y-17648508D01*
X4647087Y-17648508D02*
X4666134Y-17638984D01*
X4818515Y-17819936D02*
X4828039Y-17829460D01*
X4828039Y-17829460D02*
X4818515Y-17838984D01*
X4818515Y-17838984D02*
X4808991Y-17829460D01*
X4808991Y-17829460D02*
X4818515Y-17819936D01*
X4818515Y-17819936D02*
X4818515Y-17838984D01*
X4951848Y-17638984D02*
X4970896Y-17638984D01*
X4970896Y-17638984D02*
X4989944Y-17648508D01*
X4989944Y-17648508D02*
X4999468Y-17658031D01*
X4999468Y-17658031D02*
X5008991Y-17677079D01*
X5008991Y-17677079D02*
X5018515Y-17715174D01*
X5018515Y-17715174D02*
X5018515Y-17762793D01*
X5018515Y-17762793D02*
X5008991Y-17800889D01*
X5008991Y-17800889D02*
X4999468Y-17819936D01*
X4999468Y-17819936D02*
X4989944Y-17829460D01*
X4989944Y-17829460D02*
X4970896Y-17838984D01*
X4970896Y-17838984D02*
X4951848Y-17838984D01*
X4951848Y-17838984D02*
X4932801Y-17829460D01*
X4932801Y-17829460D02*
X4923277Y-17819936D01*
X4923277Y-17819936D02*
X4913753Y-17800889D01*
X4913753Y-17800889D02*
X4904229Y-17762793D01*
X4904229Y-17762793D02*
X4904229Y-17715174D01*
X4904229Y-17715174D02*
X4913753Y-17677079D01*
X4913753Y-17677079D02*
X4923277Y-17658031D01*
X4923277Y-17658031D02*
X4932801Y-17648508D01*
X4932801Y-17648508D02*
X4951848Y-17638984D01*
X5085182Y-17638984D02*
X5208991Y-17638984D01*
X5208991Y-17638984D02*
X5142325Y-17715174D01*
X5142325Y-17715174D02*
X5170896Y-17715174D01*
X5170896Y-17715174D02*
X5189944Y-17724698D01*
X5189944Y-17724698D02*
X5199468Y-17734222D01*
X5199468Y-17734222D02*
X5208991Y-17753270D01*
X5208991Y-17753270D02*
X5208991Y-17800889D01*
X5208991Y-17800889D02*
X5199468Y-17819936D01*
X5199468Y-17819936D02*
X5189944Y-17829460D01*
X5189944Y-17829460D02*
X5170896Y-17838984D01*
X5170896Y-17838984D02*
X5113753Y-17838984D01*
X5113753Y-17838984D02*
X5094706Y-17829460D01*
X5094706Y-17829460D02*
X5085182Y-17819936D01*
X5389944Y-17638984D02*
X5294706Y-17638984D01*
X5294706Y-17638984D02*
X5285182Y-17734222D01*
X5285182Y-17734222D02*
X5294706Y-17724698D01*
X5294706Y-17724698D02*
X5313753Y-17715174D01*
X5313753Y-17715174D02*
X5361372Y-17715174D01*
X5361372Y-17715174D02*
X5380420Y-17724698D01*
X5380420Y-17724698D02*
X5389944Y-17734222D01*
X5389944Y-17734222D02*
X5399468Y-17753270D01*
X5399468Y-17753270D02*
X5399468Y-17800889D01*
X5399468Y-17800889D02*
X5389944Y-17819936D01*
X5389944Y-17819936D02*
X5380420Y-17829460D01*
X5380420Y-17829460D02*
X5361372Y-17838984D01*
X5361372Y-17838984D02*
X5313753Y-17838984D01*
X5313753Y-17838984D02*
X5294706Y-17829460D01*
X5294706Y-17829460D02*
X5285182Y-17819936D01*
X5570896Y-17705650D02*
X5570896Y-17838984D01*
X5523277Y-17629460D02*
X5475658Y-17772317D01*
X5475658Y-17772317D02*
X5599467Y-17772317D01*
X5666134Y-17638984D02*
X5666134Y-17677079D01*
X5742325Y-17638984D02*
X5742325Y-17677079D01*
X6037563Y-17915174D02*
X6028039Y-17905650D01*
X6028039Y-17905650D02*
X6008991Y-17877079D01*
X6008991Y-17877079D02*
X5999468Y-17858031D01*
X5999468Y-17858031D02*
X5989944Y-17829460D01*
X5989944Y-17829460D02*
X5980420Y-17781841D01*
X5980420Y-17781841D02*
X5980420Y-17743746D01*
X5980420Y-17743746D02*
X5989944Y-17696127D01*
X5989944Y-17696127D02*
X5999468Y-17667555D01*
X5999468Y-17667555D02*
X6008991Y-17648508D01*
X6008991Y-17648508D02*
X6028039Y-17619936D01*
X6028039Y-17619936D02*
X6037563Y-17610412D01*
X6199468Y-17705650D02*
X6199468Y-17838984D01*
X6151848Y-17629460D02*
X6104229Y-17772317D01*
X6104229Y-17772317D02*
X6228039Y-17772317D01*
X6456610Y-17838984D02*
X6456610Y-17638984D01*
X6542325Y-17838984D02*
X6542325Y-17734222D01*
X6542325Y-17734222D02*
X6532801Y-17715174D01*
X6532801Y-17715174D02*
X6513753Y-17705650D01*
X6513753Y-17705650D02*
X6485182Y-17705650D01*
X6485182Y-17705650D02*
X6466134Y-17715174D01*
X6466134Y-17715174D02*
X6456610Y-17724698D01*
X6666134Y-17838984D02*
X6647087Y-17829460D01*
X6647087Y-17829460D02*
X6637563Y-17819936D01*
X6637563Y-17819936D02*
X6628039Y-17800889D01*
X6628039Y-17800889D02*
X6628039Y-17743746D01*
X6628039Y-17743746D02*
X6637563Y-17724698D01*
X6637563Y-17724698D02*
X6647087Y-17715174D01*
X6647087Y-17715174D02*
X6666134Y-17705650D01*
X6666134Y-17705650D02*
X6694706Y-17705650D01*
X6694706Y-17705650D02*
X6713753Y-17715174D01*
X6713753Y-17715174D02*
X6723277Y-17724698D01*
X6723277Y-17724698D02*
X6732801Y-17743746D01*
X6732801Y-17743746D02*
X6732801Y-17800889D01*
X6732801Y-17800889D02*
X6723277Y-17819936D01*
X6723277Y-17819936D02*
X6713753Y-17829460D01*
X6713753Y-17829460D02*
X6694706Y-17838984D01*
X6694706Y-17838984D02*
X6666134Y-17838984D01*
X6847087Y-17838984D02*
X6828039Y-17829460D01*
X6828039Y-17829460D02*
X6818515Y-17810412D01*
X6818515Y-17810412D02*
X6818515Y-17638984D01*
X6999468Y-17829460D02*
X6980420Y-17838984D01*
X6980420Y-17838984D02*
X6942325Y-17838984D01*
X6942325Y-17838984D02*
X6923277Y-17829460D01*
X6923277Y-17829460D02*
X6913753Y-17810412D01*
X6913753Y-17810412D02*
X6913753Y-17734222D01*
X6913753Y-17734222D02*
X6923277Y-17715174D01*
X6923277Y-17715174D02*
X6942325Y-17705650D01*
X6942325Y-17705650D02*
X6980420Y-17705650D01*
X6980420Y-17705650D02*
X6999468Y-17715174D01*
X6999468Y-17715174D02*
X7008991Y-17734222D01*
X7008991Y-17734222D02*
X7008991Y-17753270D01*
X7008991Y-17753270D02*
X6913753Y-17772317D01*
X7085182Y-17829460D02*
X7104230Y-17838984D01*
X7104230Y-17838984D02*
X7142325Y-17838984D01*
X7142325Y-17838984D02*
X7161372Y-17829460D01*
X7161372Y-17829460D02*
X7170896Y-17810412D01*
X7170896Y-17810412D02*
X7170896Y-17800889D01*
X7170896Y-17800889D02*
X7161372Y-17781841D01*
X7161372Y-17781841D02*
X7142325Y-17772317D01*
X7142325Y-17772317D02*
X7113753Y-17772317D01*
X7113753Y-17772317D02*
X7094706Y-17762793D01*
X7094706Y-17762793D02*
X7085182Y-17743746D01*
X7085182Y-17743746D02*
X7085182Y-17734222D01*
X7085182Y-17734222D02*
X7094706Y-17715174D01*
X7094706Y-17715174D02*
X7113753Y-17705650D01*
X7113753Y-17705650D02*
X7142325Y-17705650D01*
X7142325Y-17705650D02*
X7161372Y-17715174D01*
X7237563Y-17915174D02*
X7247087Y-17905650D01*
X7247087Y-17905650D02*
X7266134Y-17877079D01*
X7266134Y-17877079D02*
X7275658Y-17858031D01*
X7275658Y-17858031D02*
X7285182Y-17829460D01*
X7285182Y-17829460D02*
X7294706Y-17781841D01*
X7294706Y-17781841D02*
X7294706Y-17743746D01*
X7294706Y-17743746D02*
X7285182Y-17696127D01*
X7285182Y-17696127D02*
X7275658Y-17667555D01*
X7275658Y-17667555D02*
X7266134Y-17648508D01*
X7266134Y-17648508D02*
X7247087Y-17619936D01*
X7247087Y-17619936D02*
X7237563Y-17610412D01*
X7599468Y-17915174D02*
X7589944Y-17905650D01*
X7589944Y-17905650D02*
X7570896Y-17877079D01*
X7570896Y-17877079D02*
X7561372Y-17858031D01*
X7561372Y-17858031D02*
X7551849Y-17829460D01*
X7551849Y-17829460D02*
X7542325Y-17781841D01*
X7542325Y-17781841D02*
X7542325Y-17743746D01*
X7542325Y-17743746D02*
X7551849Y-17696127D01*
X7551849Y-17696127D02*
X7561372Y-17667555D01*
X7561372Y-17667555D02*
X7570896Y-17648508D01*
X7570896Y-17648508D02*
X7589944Y-17619936D01*
X7589944Y-17619936D02*
X7599468Y-17610412D01*
X7675658Y-17705650D02*
X7675658Y-17838984D01*
X7675658Y-17724698D02*
X7685182Y-17715174D01*
X7685182Y-17715174D02*
X7704230Y-17705650D01*
X7704230Y-17705650D02*
X7732801Y-17705650D01*
X7732801Y-17705650D02*
X7751849Y-17715174D01*
X7751849Y-17715174D02*
X7761372Y-17734222D01*
X7761372Y-17734222D02*
X7761372Y-17838984D01*
X7885182Y-17838984D02*
X7866134Y-17829460D01*
X7866134Y-17829460D02*
X7856611Y-17819936D01*
X7856611Y-17819936D02*
X7847087Y-17800889D01*
X7847087Y-17800889D02*
X7847087Y-17743746D01*
X7847087Y-17743746D02*
X7856611Y-17724698D01*
X7856611Y-17724698D02*
X7866134Y-17715174D01*
X7866134Y-17715174D02*
X7885182Y-17705650D01*
X7885182Y-17705650D02*
X7913753Y-17705650D01*
X7913753Y-17705650D02*
X7932801Y-17715174D01*
X7932801Y-17715174D02*
X7942325Y-17724698D01*
X7942325Y-17724698D02*
X7951849Y-17743746D01*
X7951849Y-17743746D02*
X7951849Y-17800889D01*
X7951849Y-17800889D02*
X7942325Y-17819936D01*
X7942325Y-17819936D02*
X7932801Y-17829460D01*
X7932801Y-17829460D02*
X7913753Y-17838984D01*
X7913753Y-17838984D02*
X7885182Y-17838984D01*
X8008992Y-17705650D02*
X8085182Y-17705650D01*
X8037563Y-17638984D02*
X8037563Y-17810412D01*
X8037563Y-17810412D02*
X8047087Y-17829460D01*
X8047087Y-17829460D02*
X8066134Y-17838984D01*
X8066134Y-17838984D02*
X8085182Y-17838984D01*
X8304230Y-17705650D02*
X8304230Y-17905650D01*
X8304230Y-17715174D02*
X8323277Y-17705650D01*
X8323277Y-17705650D02*
X8361373Y-17705650D01*
X8361373Y-17705650D02*
X8380420Y-17715174D01*
X8380420Y-17715174D02*
X8389944Y-17724698D01*
X8389944Y-17724698D02*
X8399468Y-17743746D01*
X8399468Y-17743746D02*
X8399468Y-17800889D01*
X8399468Y-17800889D02*
X8389944Y-17819936D01*
X8389944Y-17819936D02*
X8380420Y-17829460D01*
X8380420Y-17829460D02*
X8361373Y-17838984D01*
X8361373Y-17838984D02*
X8323277Y-17838984D01*
X8323277Y-17838984D02*
X8304230Y-17829460D01*
X8513754Y-17838984D02*
X8494706Y-17829460D01*
X8494706Y-17829460D02*
X8485182Y-17810412D01*
X8485182Y-17810412D02*
X8485182Y-17638984D01*
X8675658Y-17838984D02*
X8675658Y-17734222D01*
X8675658Y-17734222D02*
X8666135Y-17715174D01*
X8666135Y-17715174D02*
X8647087Y-17705650D01*
X8647087Y-17705650D02*
X8608992Y-17705650D01*
X8608992Y-17705650D02*
X8589944Y-17715174D01*
X8675658Y-17829460D02*
X8656611Y-17838984D01*
X8656611Y-17838984D02*
X8608992Y-17838984D01*
X8608992Y-17838984D02*
X8589944Y-17829460D01*
X8589944Y-17829460D02*
X8580420Y-17810412D01*
X8580420Y-17810412D02*
X8580420Y-17791365D01*
X8580420Y-17791365D02*
X8589944Y-17772317D01*
X8589944Y-17772317D02*
X8608992Y-17762793D01*
X8608992Y-17762793D02*
X8656611Y-17762793D01*
X8656611Y-17762793D02*
X8675658Y-17753270D01*
X8742325Y-17705650D02*
X8818515Y-17705650D01*
X8770896Y-17638984D02*
X8770896Y-17810412D01*
X8770896Y-17810412D02*
X8780420Y-17829460D01*
X8780420Y-17829460D02*
X8799468Y-17838984D01*
X8799468Y-17838984D02*
X8818515Y-17838984D01*
X8961373Y-17829460D02*
X8942325Y-17838984D01*
X8942325Y-17838984D02*
X8904230Y-17838984D01*
X8904230Y-17838984D02*
X8885182Y-17829460D01*
X8885182Y-17829460D02*
X8875658Y-17810412D01*
X8875658Y-17810412D02*
X8875658Y-17734222D01*
X8875658Y-17734222D02*
X8885182Y-17715174D01*
X8885182Y-17715174D02*
X8904230Y-17705650D01*
X8904230Y-17705650D02*
X8942325Y-17705650D01*
X8942325Y-17705650D02*
X8961373Y-17715174D01*
X8961373Y-17715174D02*
X8970896Y-17734222D01*
X8970896Y-17734222D02*
X8970896Y-17753270D01*
X8970896Y-17753270D02*
X8875658Y-17772317D01*
X9142325Y-17838984D02*
X9142325Y-17638984D01*
X9142325Y-17829460D02*
X9123277Y-17838984D01*
X9123277Y-17838984D02*
X9085182Y-17838984D01*
X9085182Y-17838984D02*
X9066135Y-17829460D01*
X9066135Y-17829460D02*
X9056611Y-17819936D01*
X9056611Y-17819936D02*
X9047087Y-17800889D01*
X9047087Y-17800889D02*
X9047087Y-17743746D01*
X9047087Y-17743746D02*
X9056611Y-17724698D01*
X9056611Y-17724698D02*
X9066135Y-17715174D01*
X9066135Y-17715174D02*
X9085182Y-17705650D01*
X9085182Y-17705650D02*
X9123277Y-17705650D01*
X9123277Y-17705650D02*
X9142325Y-17715174D01*
X9218516Y-17915174D02*
X9228039Y-17905650D01*
X9228039Y-17905650D02*
X9247087Y-17877079D01*
X9247087Y-17877079D02*
X9256611Y-17858031D01*
X9256611Y-17858031D02*
X9266135Y-17829460D01*
X9266135Y-17829460D02*
X9275658Y-17781841D01*
X9275658Y-17781841D02*
X9275658Y-17743746D01*
X9275658Y-17743746D02*
X9266135Y-17696127D01*
X9266135Y-17696127D02*
X9256611Y-17667555D01*
X9256611Y-17667555D02*
X9247087Y-17648508D01*
X9247087Y-17648508D02*
X9228039Y-17619936D01*
X9228039Y-17619936D02*
X9218516Y-17610412D01*
D13*
X2462500Y-18011500D02*
G75*
G02*
X2292320Y-18011500I-85090J0D01*
G01*
X2292320Y-18011500D02*
G75*
G02*
X2462500Y-18011500I85090J0D01*
G01*
D11*
X2828039Y-18102984D02*
X2713753Y-18102984D01*
X2770896Y-18102984D02*
X2770896Y-17902984D01*
X2770896Y-17902984D02*
X2751848Y-17931555D01*
X2751848Y-17931555D02*
X2732801Y-17950603D01*
X2732801Y-17950603D02*
X2713753Y-17960127D01*
X2913753Y-18083936D02*
X2923277Y-18093460D01*
X2923277Y-18093460D02*
X2913753Y-18102984D01*
X2913753Y-18102984D02*
X2904229Y-18093460D01*
X2904229Y-18093460D02*
X2913753Y-18083936D01*
X2913753Y-18083936D02*
X2913753Y-18102984D01*
X2989943Y-17902984D02*
X3123277Y-17902984D01*
X3123277Y-17902984D02*
X3037562Y-18102984D01*
X3237562Y-17902984D02*
X3256610Y-17902984D01*
X3256610Y-17902984D02*
X3275658Y-17912508D01*
X3275658Y-17912508D02*
X3285182Y-17922031D01*
X3285182Y-17922031D02*
X3294705Y-17941079D01*
X3294705Y-17941079D02*
X3304229Y-17979174D01*
X3304229Y-17979174D02*
X3304229Y-18026793D01*
X3304229Y-18026793D02*
X3294705Y-18064889D01*
X3294705Y-18064889D02*
X3285182Y-18083936D01*
X3285182Y-18083936D02*
X3275658Y-18093460D01*
X3275658Y-18093460D02*
X3256610Y-18102984D01*
X3256610Y-18102984D02*
X3237562Y-18102984D01*
X3237562Y-18102984D02*
X3218515Y-18093460D01*
X3218515Y-18093460D02*
X3208991Y-18083936D01*
X3208991Y-18083936D02*
X3199467Y-18064889D01*
X3199467Y-18064889D02*
X3189943Y-18026793D01*
X3189943Y-18026793D02*
X3189943Y-17979174D01*
X3189943Y-17979174D02*
X3199467Y-17941079D01*
X3199467Y-17941079D02*
X3208991Y-17922031D01*
X3208991Y-17922031D02*
X3218515Y-17912508D01*
X3218515Y-17912508D02*
X3237562Y-17902984D01*
X3380420Y-17922031D02*
X3389943Y-17912508D01*
X3389943Y-17912508D02*
X3408991Y-17902984D01*
X3408991Y-17902984D02*
X3456610Y-17902984D01*
X3456610Y-17902984D02*
X3475658Y-17912508D01*
X3475658Y-17912508D02*
X3485182Y-17922031D01*
X3485182Y-17922031D02*
X3494705Y-17941079D01*
X3494705Y-17941079D02*
X3494705Y-17960127D01*
X3494705Y-17960127D02*
X3485182Y-17988698D01*
X3485182Y-17988698D02*
X3370896Y-18102984D01*
X3370896Y-18102984D02*
X3494705Y-18102984D01*
X3580420Y-18102984D02*
X3580420Y-17969650D01*
X3580420Y-17988698D02*
X3589943Y-17979174D01*
X3589943Y-17979174D02*
X3608991Y-17969650D01*
X3608991Y-17969650D02*
X3637563Y-17969650D01*
X3637563Y-17969650D02*
X3656610Y-17979174D01*
X3656610Y-17979174D02*
X3666134Y-17998222D01*
X3666134Y-17998222D02*
X3666134Y-18102984D01*
X3666134Y-17998222D02*
X3675658Y-17979174D01*
X3675658Y-17979174D02*
X3694705Y-17969650D01*
X3694705Y-17969650D02*
X3723277Y-17969650D01*
X3723277Y-17969650D02*
X3742324Y-17979174D01*
X3742324Y-17979174D02*
X3751848Y-17998222D01*
X3751848Y-17998222D02*
X3751848Y-18102984D01*
X3847086Y-18102984D02*
X3847086Y-17969650D01*
X3847086Y-17988698D02*
X3856610Y-17979174D01*
X3856610Y-17979174D02*
X3875658Y-17969650D01*
X3875658Y-17969650D02*
X3904229Y-17969650D01*
X3904229Y-17969650D02*
X3923277Y-17979174D01*
X3923277Y-17979174D02*
X3932801Y-17998222D01*
X3932801Y-17998222D02*
X3932801Y-18102984D01*
X3932801Y-17998222D02*
X3942324Y-17979174D01*
X3942324Y-17979174D02*
X3961372Y-17969650D01*
X3961372Y-17969650D02*
X3989943Y-17969650D01*
X3989943Y-17969650D02*
X4008991Y-17979174D01*
X4008991Y-17979174D02*
X4018515Y-17998222D01*
X4018515Y-17998222D02*
X4018515Y-18102984D01*
X4408991Y-17893460D02*
X4237563Y-18150603D01*
X4666134Y-17902984D02*
X4685182Y-17902984D01*
X4685182Y-17902984D02*
X4704229Y-17912508D01*
X4704229Y-17912508D02*
X4713753Y-17922031D01*
X4713753Y-17922031D02*
X4723277Y-17941079D01*
X4723277Y-17941079D02*
X4732801Y-17979174D01*
X4732801Y-17979174D02*
X4732801Y-18026793D01*
X4732801Y-18026793D02*
X4723277Y-18064889D01*
X4723277Y-18064889D02*
X4713753Y-18083936D01*
X4713753Y-18083936D02*
X4704229Y-18093460D01*
X4704229Y-18093460D02*
X4685182Y-18102984D01*
X4685182Y-18102984D02*
X4666134Y-18102984D01*
X4666134Y-18102984D02*
X4647087Y-18093460D01*
X4647087Y-18093460D02*
X4637563Y-18083936D01*
X4637563Y-18083936D02*
X4628039Y-18064889D01*
X4628039Y-18064889D02*
X4618515Y-18026793D01*
X4618515Y-18026793D02*
X4618515Y-17979174D01*
X4618515Y-17979174D02*
X4628039Y-17941079D01*
X4628039Y-17941079D02*
X4637563Y-17922031D01*
X4637563Y-17922031D02*
X4647087Y-17912508D01*
X4647087Y-17912508D02*
X4666134Y-17902984D01*
X4818515Y-18083936D02*
X4828039Y-18093460D01*
X4828039Y-18093460D02*
X4818515Y-18102984D01*
X4818515Y-18102984D02*
X4808991Y-18093460D01*
X4808991Y-18093460D02*
X4818515Y-18083936D01*
X4818515Y-18083936D02*
X4818515Y-18102984D01*
X4951848Y-17902984D02*
X4970896Y-17902984D01*
X4970896Y-17902984D02*
X4989944Y-17912508D01*
X4989944Y-17912508D02*
X4999468Y-17922031D01*
X4999468Y-17922031D02*
X5008991Y-17941079D01*
X5008991Y-17941079D02*
X5018515Y-17979174D01*
X5018515Y-17979174D02*
X5018515Y-18026793D01*
X5018515Y-18026793D02*
X5008991Y-18064889D01*
X5008991Y-18064889D02*
X4999468Y-18083936D01*
X4999468Y-18083936D02*
X4989944Y-18093460D01*
X4989944Y-18093460D02*
X4970896Y-18102984D01*
X4970896Y-18102984D02*
X4951848Y-18102984D01*
X4951848Y-18102984D02*
X4932801Y-18093460D01*
X4932801Y-18093460D02*
X4923277Y-18083936D01*
X4923277Y-18083936D02*
X4913753Y-18064889D01*
X4913753Y-18064889D02*
X4904229Y-18026793D01*
X4904229Y-18026793D02*
X4904229Y-17979174D01*
X4904229Y-17979174D02*
X4913753Y-17941079D01*
X4913753Y-17941079D02*
X4923277Y-17922031D01*
X4923277Y-17922031D02*
X4932801Y-17912508D01*
X4932801Y-17912508D02*
X4951848Y-17902984D01*
X5189944Y-17902984D02*
X5151848Y-17902984D01*
X5151848Y-17902984D02*
X5132801Y-17912508D01*
X5132801Y-17912508D02*
X5123277Y-17922031D01*
X5123277Y-17922031D02*
X5104229Y-17950603D01*
X5104229Y-17950603D02*
X5094706Y-17988698D01*
X5094706Y-17988698D02*
X5094706Y-18064889D01*
X5094706Y-18064889D02*
X5104229Y-18083936D01*
X5104229Y-18083936D02*
X5113753Y-18093460D01*
X5113753Y-18093460D02*
X5132801Y-18102984D01*
X5132801Y-18102984D02*
X5170896Y-18102984D01*
X5170896Y-18102984D02*
X5189944Y-18093460D01*
X5189944Y-18093460D02*
X5199468Y-18083936D01*
X5199468Y-18083936D02*
X5208991Y-18064889D01*
X5208991Y-18064889D02*
X5208991Y-18017270D01*
X5208991Y-18017270D02*
X5199468Y-17998222D01*
X5199468Y-17998222D02*
X5189944Y-17988698D01*
X5189944Y-17988698D02*
X5170896Y-17979174D01*
X5170896Y-17979174D02*
X5132801Y-17979174D01*
X5132801Y-17979174D02*
X5113753Y-17988698D01*
X5113753Y-17988698D02*
X5104229Y-17998222D01*
X5104229Y-17998222D02*
X5094706Y-18017270D01*
X5275658Y-17902984D02*
X5408991Y-17902984D01*
X5408991Y-17902984D02*
X5323277Y-18102984D01*
X5523277Y-17902984D02*
X5542325Y-17902984D01*
X5542325Y-17902984D02*
X5561372Y-17912508D01*
X5561372Y-17912508D02*
X5570896Y-17922031D01*
X5570896Y-17922031D02*
X5580420Y-17941079D01*
X5580420Y-17941079D02*
X5589944Y-17979174D01*
X5589944Y-17979174D02*
X5589944Y-18026793D01*
X5589944Y-18026793D02*
X5580420Y-18064889D01*
X5580420Y-18064889D02*
X5570896Y-18083936D01*
X5570896Y-18083936D02*
X5561372Y-18093460D01*
X5561372Y-18093460D02*
X5542325Y-18102984D01*
X5542325Y-18102984D02*
X5523277Y-18102984D01*
X5523277Y-18102984D02*
X5504229Y-18093460D01*
X5504229Y-18093460D02*
X5494706Y-18083936D01*
X5494706Y-18083936D02*
X5485182Y-18064889D01*
X5485182Y-18064889D02*
X5475658Y-18026793D01*
X5475658Y-18026793D02*
X5475658Y-17979174D01*
X5475658Y-17979174D02*
X5485182Y-17941079D01*
X5485182Y-17941079D02*
X5494706Y-17922031D01*
X5494706Y-17922031D02*
X5504229Y-17912508D01*
X5504229Y-17912508D02*
X5523277Y-17902984D01*
X5666134Y-17902984D02*
X5666134Y-17941079D01*
X5742325Y-17902984D02*
X5742325Y-17941079D01*
X6037563Y-18179174D02*
X6028039Y-18169650D01*
X6028039Y-18169650D02*
X6008991Y-18141079D01*
X6008991Y-18141079D02*
X5999468Y-18122031D01*
X5999468Y-18122031D02*
X5989944Y-18093460D01*
X5989944Y-18093460D02*
X5980420Y-18045841D01*
X5980420Y-18045841D02*
X5980420Y-18007746D01*
X5980420Y-18007746D02*
X5989944Y-17960127D01*
X5989944Y-17960127D02*
X5999468Y-17931555D01*
X5999468Y-17931555D02*
X6008991Y-17912508D01*
X6008991Y-17912508D02*
X6028039Y-17883936D01*
X6028039Y-17883936D02*
X6037563Y-17874412D01*
X6218515Y-18102984D02*
X6104229Y-18102984D01*
X6161372Y-18102984D02*
X6161372Y-17902984D01*
X6161372Y-17902984D02*
X6142325Y-17931555D01*
X6142325Y-17931555D02*
X6123277Y-17950603D01*
X6123277Y-17950603D02*
X6104229Y-17960127D01*
X6399468Y-17902984D02*
X6304229Y-17902984D01*
X6304229Y-17902984D02*
X6294706Y-17998222D01*
X6294706Y-17998222D02*
X6304229Y-17988698D01*
X6304229Y-17988698D02*
X6323277Y-17979174D01*
X6323277Y-17979174D02*
X6370896Y-17979174D01*
X6370896Y-17979174D02*
X6389944Y-17988698D01*
X6389944Y-17988698D02*
X6399468Y-17998222D01*
X6399468Y-17998222D02*
X6408991Y-18017270D01*
X6408991Y-18017270D02*
X6408991Y-18064889D01*
X6408991Y-18064889D02*
X6399468Y-18083936D01*
X6399468Y-18083936D02*
X6389944Y-18093460D01*
X6389944Y-18093460D02*
X6370896Y-18102984D01*
X6370896Y-18102984D02*
X6323277Y-18102984D01*
X6323277Y-18102984D02*
X6304229Y-18093460D01*
X6304229Y-18093460D02*
X6294706Y-18083936D01*
X6580420Y-17969650D02*
X6580420Y-18102984D01*
X6532801Y-17893460D02*
X6485182Y-18036317D01*
X6485182Y-18036317D02*
X6608991Y-18036317D01*
X6837563Y-18102984D02*
X6837563Y-17902984D01*
X6923277Y-18102984D02*
X6923277Y-17998222D01*
X6923277Y-17998222D02*
X6913753Y-17979174D01*
X6913753Y-17979174D02*
X6894706Y-17969650D01*
X6894706Y-17969650D02*
X6866134Y-17969650D01*
X6866134Y-17969650D02*
X6847087Y-17979174D01*
X6847087Y-17979174D02*
X6837563Y-17988698D01*
X7047087Y-18102984D02*
X7028039Y-18093460D01*
X7028039Y-18093460D02*
X7018515Y-18083936D01*
X7018515Y-18083936D02*
X7008991Y-18064889D01*
X7008991Y-18064889D02*
X7008991Y-18007746D01*
X7008991Y-18007746D02*
X7018515Y-17988698D01*
X7018515Y-17988698D02*
X7028039Y-17979174D01*
X7028039Y-17979174D02*
X7047087Y-17969650D01*
X7047087Y-17969650D02*
X7075658Y-17969650D01*
X7075658Y-17969650D02*
X7094706Y-17979174D01*
X7094706Y-17979174D02*
X7104230Y-17988698D01*
X7104230Y-17988698D02*
X7113753Y-18007746D01*
X7113753Y-18007746D02*
X7113753Y-18064889D01*
X7113753Y-18064889D02*
X7104230Y-18083936D01*
X7104230Y-18083936D02*
X7094706Y-18093460D01*
X7094706Y-18093460D02*
X7075658Y-18102984D01*
X7075658Y-18102984D02*
X7047087Y-18102984D01*
X7228039Y-18102984D02*
X7208991Y-18093460D01*
X7208991Y-18093460D02*
X7199468Y-18074412D01*
X7199468Y-18074412D02*
X7199468Y-17902984D01*
X7380420Y-18093460D02*
X7361372Y-18102984D01*
X7361372Y-18102984D02*
X7323277Y-18102984D01*
X7323277Y-18102984D02*
X7304230Y-18093460D01*
X7304230Y-18093460D02*
X7294706Y-18074412D01*
X7294706Y-18074412D02*
X7294706Y-17998222D01*
X7294706Y-17998222D02*
X7304230Y-17979174D01*
X7304230Y-17979174D02*
X7323277Y-17969650D01*
X7323277Y-17969650D02*
X7361372Y-17969650D01*
X7361372Y-17969650D02*
X7380420Y-17979174D01*
X7380420Y-17979174D02*
X7389944Y-17998222D01*
X7389944Y-17998222D02*
X7389944Y-18017270D01*
X7389944Y-18017270D02*
X7294706Y-18036317D01*
X7466134Y-18093460D02*
X7485182Y-18102984D01*
X7485182Y-18102984D02*
X7523277Y-18102984D01*
X7523277Y-18102984D02*
X7542325Y-18093460D01*
X7542325Y-18093460D02*
X7551849Y-18074412D01*
X7551849Y-18074412D02*
X7551849Y-18064889D01*
X7551849Y-18064889D02*
X7542325Y-18045841D01*
X7542325Y-18045841D02*
X7523277Y-18036317D01*
X7523277Y-18036317D02*
X7494706Y-18036317D01*
X7494706Y-18036317D02*
X7475658Y-18026793D01*
X7475658Y-18026793D02*
X7466134Y-18007746D01*
X7466134Y-18007746D02*
X7466134Y-17998222D01*
X7466134Y-17998222D02*
X7475658Y-17979174D01*
X7475658Y-17979174D02*
X7494706Y-17969650D01*
X7494706Y-17969650D02*
X7523277Y-17969650D01*
X7523277Y-17969650D02*
X7542325Y-17979174D01*
X7618515Y-18179174D02*
X7628039Y-18169650D01*
X7628039Y-18169650D02*
X7647087Y-18141079D01*
X7647087Y-18141079D02*
X7656611Y-18122031D01*
X7656611Y-18122031D02*
X7666134Y-18093460D01*
X7666134Y-18093460D02*
X7675658Y-18045841D01*
X7675658Y-18045841D02*
X7675658Y-18007746D01*
X7675658Y-18007746D02*
X7666134Y-17960127D01*
X7666134Y-17960127D02*
X7656611Y-17931555D01*
X7656611Y-17931555D02*
X7647087Y-17912508D01*
X7647087Y-17912508D02*
X7628039Y-17883936D01*
X7628039Y-17883936D02*
X7618515Y-17874412D01*
X7980420Y-18179174D02*
X7970896Y-18169650D01*
X7970896Y-18169650D02*
X7951849Y-18141079D01*
X7951849Y-18141079D02*
X7942325Y-18122031D01*
X7942325Y-18122031D02*
X7932801Y-18093460D01*
X7932801Y-18093460D02*
X7923277Y-18045841D01*
X7923277Y-18045841D02*
X7923277Y-18007746D01*
X7923277Y-18007746D02*
X7932801Y-17960127D01*
X7932801Y-17960127D02*
X7942325Y-17931555D01*
X7942325Y-17931555D02*
X7951849Y-17912508D01*
X7951849Y-17912508D02*
X7970896Y-17883936D01*
X7970896Y-17883936D02*
X7980420Y-17874412D01*
X8056611Y-17969650D02*
X8056611Y-18102984D01*
X8056611Y-17988698D02*
X8066134Y-17979174D01*
X8066134Y-17979174D02*
X8085182Y-17969650D01*
X8085182Y-17969650D02*
X8113753Y-17969650D01*
X8113753Y-17969650D02*
X8132801Y-17979174D01*
X8132801Y-17979174D02*
X8142325Y-17998222D01*
X8142325Y-17998222D02*
X8142325Y-18102984D01*
X8266134Y-18102984D02*
X8247087Y-18093460D01*
X8247087Y-18093460D02*
X8237563Y-18083936D01*
X8237563Y-18083936D02*
X8228039Y-18064889D01*
X8228039Y-18064889D02*
X8228039Y-18007746D01*
X8228039Y-18007746D02*
X8237563Y-17988698D01*
X8237563Y-17988698D02*
X8247087Y-17979174D01*
X8247087Y-17979174D02*
X8266134Y-17969650D01*
X8266134Y-17969650D02*
X8294706Y-17969650D01*
X8294706Y-17969650D02*
X8313753Y-17979174D01*
X8313753Y-17979174D02*
X8323277Y-17988698D01*
X8323277Y-17988698D02*
X8332801Y-18007746D01*
X8332801Y-18007746D02*
X8332801Y-18064889D01*
X8332801Y-18064889D02*
X8323277Y-18083936D01*
X8323277Y-18083936D02*
X8313753Y-18093460D01*
X8313753Y-18093460D02*
X8294706Y-18102984D01*
X8294706Y-18102984D02*
X8266134Y-18102984D01*
X8389944Y-17969650D02*
X8466134Y-17969650D01*
X8418515Y-17902984D02*
X8418515Y-18074412D01*
X8418515Y-18074412D02*
X8428039Y-18093460D01*
X8428039Y-18093460D02*
X8447087Y-18102984D01*
X8447087Y-18102984D02*
X8466134Y-18102984D01*
X8685182Y-17969650D02*
X8685182Y-18169650D01*
X8685182Y-17979174D02*
X8704230Y-17969650D01*
X8704230Y-17969650D02*
X8742325Y-17969650D01*
X8742325Y-17969650D02*
X8761373Y-17979174D01*
X8761373Y-17979174D02*
X8770896Y-17988698D01*
X8770896Y-17988698D02*
X8780420Y-18007746D01*
X8780420Y-18007746D02*
X8780420Y-18064889D01*
X8780420Y-18064889D02*
X8770896Y-18083936D01*
X8770896Y-18083936D02*
X8761373Y-18093460D01*
X8761373Y-18093460D02*
X8742325Y-18102984D01*
X8742325Y-18102984D02*
X8704230Y-18102984D01*
X8704230Y-18102984D02*
X8685182Y-18093460D01*
X8894706Y-18102984D02*
X8875658Y-18093460D01*
X8875658Y-18093460D02*
X8866135Y-18074412D01*
X8866135Y-18074412D02*
X8866135Y-17902984D01*
X9056611Y-18102984D02*
X9056611Y-17998222D01*
X9056611Y-17998222D02*
X9047087Y-17979174D01*
X9047087Y-17979174D02*
X9028039Y-17969650D01*
X9028039Y-17969650D02*
X8989944Y-17969650D01*
X8989944Y-17969650D02*
X8970896Y-17979174D01*
X9056611Y-18093460D02*
X9037563Y-18102984D01*
X9037563Y-18102984D02*
X8989944Y-18102984D01*
X8989944Y-18102984D02*
X8970896Y-18093460D01*
X8970896Y-18093460D02*
X8961373Y-18074412D01*
X8961373Y-18074412D02*
X8961373Y-18055365D01*
X8961373Y-18055365D02*
X8970896Y-18036317D01*
X8970896Y-18036317D02*
X8989944Y-18026793D01*
X8989944Y-18026793D02*
X9037563Y-18026793D01*
X9037563Y-18026793D02*
X9056611Y-18017270D01*
X9123277Y-17969650D02*
X9199468Y-17969650D01*
X9151849Y-17902984D02*
X9151849Y-18074412D01*
X9151849Y-18074412D02*
X9161373Y-18093460D01*
X9161373Y-18093460D02*
X9180420Y-18102984D01*
X9180420Y-18102984D02*
X9199468Y-18102984D01*
X9342325Y-18093460D02*
X9323277Y-18102984D01*
X9323277Y-18102984D02*
X9285182Y-18102984D01*
X9285182Y-18102984D02*
X9266135Y-18093460D01*
X9266135Y-18093460D02*
X9256611Y-18074412D01*
X9256611Y-18074412D02*
X9256611Y-17998222D01*
X9256611Y-17998222D02*
X9266135Y-17979174D01*
X9266135Y-17979174D02*
X9285182Y-17969650D01*
X9285182Y-17969650D02*
X9323277Y-17969650D01*
X9323277Y-17969650D02*
X9342325Y-17979174D01*
X9342325Y-17979174D02*
X9351849Y-17998222D01*
X9351849Y-17998222D02*
X9351849Y-18017270D01*
X9351849Y-18017270D02*
X9256611Y-18036317D01*
X9523277Y-18102984D02*
X9523277Y-17902984D01*
X9523277Y-18093460D02*
X9504230Y-18102984D01*
X9504230Y-18102984D02*
X9466135Y-18102984D01*
X9466135Y-18102984D02*
X9447087Y-18093460D01*
X9447087Y-18093460D02*
X9437563Y-18083936D01*
X9437563Y-18083936D02*
X9428039Y-18064889D01*
X9428039Y-18064889D02*
X9428039Y-18007746D01*
X9428039Y-18007746D02*
X9437563Y-17988698D01*
X9437563Y-17988698D02*
X9447087Y-17979174D01*
X9447087Y-17979174D02*
X9466135Y-17969650D01*
X9466135Y-17969650D02*
X9504230Y-17969650D01*
X9504230Y-17969650D02*
X9523277Y-17979174D01*
X9599468Y-18179174D02*
X9608992Y-18169650D01*
X9608992Y-18169650D02*
X9628039Y-18141079D01*
X9628039Y-18141079D02*
X9637563Y-18122031D01*
X9637563Y-18122031D02*
X9647087Y-18093460D01*
X9647087Y-18093460D02*
X9656611Y-18045841D01*
X9656611Y-18045841D02*
X9656611Y-18007746D01*
X9656611Y-18007746D02*
X9647087Y-17960127D01*
X9647087Y-17960127D02*
X9637563Y-17931555D01*
X9637563Y-17931555D02*
X9628039Y-17912508D01*
X9628039Y-17912508D02*
X9608992Y-17883936D01*
X9608992Y-17883936D02*
X9599468Y-17874412D01*
X2362500Y-18201680D02*
X2362500Y-18401680D01*
X2262500Y-18301680D02*
X2462500Y-18301680D01*
X2713753Y-18212211D02*
X2723277Y-18202688D01*
X2723277Y-18202688D02*
X2742324Y-18193164D01*
X2742324Y-18193164D02*
X2789944Y-18193164D01*
X2789944Y-18193164D02*
X2808991Y-18202688D01*
X2808991Y-18202688D02*
X2818515Y-18212211D01*
X2818515Y-18212211D02*
X2828039Y-18231259D01*
X2828039Y-18231259D02*
X2828039Y-18250307D01*
X2828039Y-18250307D02*
X2818515Y-18278878D01*
X2818515Y-18278878D02*
X2704229Y-18393164D01*
X2704229Y-18393164D02*
X2828039Y-18393164D01*
X2913753Y-18374116D02*
X2923277Y-18383640D01*
X2923277Y-18383640D02*
X2913753Y-18393164D01*
X2913753Y-18393164D02*
X2904229Y-18383640D01*
X2904229Y-18383640D02*
X2913753Y-18374116D01*
X2913753Y-18374116D02*
X2913753Y-18393164D01*
X2999467Y-18212211D02*
X3008991Y-18202688D01*
X3008991Y-18202688D02*
X3028039Y-18193164D01*
X3028039Y-18193164D02*
X3075658Y-18193164D01*
X3075658Y-18193164D02*
X3094705Y-18202688D01*
X3094705Y-18202688D02*
X3104229Y-18212211D01*
X3104229Y-18212211D02*
X3113753Y-18231259D01*
X3113753Y-18231259D02*
X3113753Y-18250307D01*
X3113753Y-18250307D02*
X3104229Y-18278878D01*
X3104229Y-18278878D02*
X2989943Y-18393164D01*
X2989943Y-18393164D02*
X3113753Y-18393164D01*
X3237562Y-18193164D02*
X3256610Y-18193164D01*
X3256610Y-18193164D02*
X3275658Y-18202688D01*
X3275658Y-18202688D02*
X3285182Y-18212211D01*
X3285182Y-18212211D02*
X3294705Y-18231259D01*
X3294705Y-18231259D02*
X3304229Y-18269354D01*
X3304229Y-18269354D02*
X3304229Y-18316973D01*
X3304229Y-18316973D02*
X3294705Y-18355069D01*
X3294705Y-18355069D02*
X3285182Y-18374116D01*
X3285182Y-18374116D02*
X3275658Y-18383640D01*
X3275658Y-18383640D02*
X3256610Y-18393164D01*
X3256610Y-18393164D02*
X3237562Y-18393164D01*
X3237562Y-18393164D02*
X3218515Y-18383640D01*
X3218515Y-18383640D02*
X3208991Y-18374116D01*
X3208991Y-18374116D02*
X3199467Y-18355069D01*
X3199467Y-18355069D02*
X3189943Y-18316973D01*
X3189943Y-18316973D02*
X3189943Y-18269354D01*
X3189943Y-18269354D02*
X3199467Y-18231259D01*
X3199467Y-18231259D02*
X3208991Y-18212211D01*
X3208991Y-18212211D02*
X3218515Y-18202688D01*
X3218515Y-18202688D02*
X3237562Y-18193164D01*
X3428039Y-18193164D02*
X3447086Y-18193164D01*
X3447086Y-18193164D02*
X3466134Y-18202688D01*
X3466134Y-18202688D02*
X3475658Y-18212211D01*
X3475658Y-18212211D02*
X3485182Y-18231259D01*
X3485182Y-18231259D02*
X3494705Y-18269354D01*
X3494705Y-18269354D02*
X3494705Y-18316973D01*
X3494705Y-18316973D02*
X3485182Y-18355069D01*
X3485182Y-18355069D02*
X3475658Y-18374116D01*
X3475658Y-18374116D02*
X3466134Y-18383640D01*
X3466134Y-18383640D02*
X3447086Y-18393164D01*
X3447086Y-18393164D02*
X3428039Y-18393164D01*
X3428039Y-18393164D02*
X3408991Y-18383640D01*
X3408991Y-18383640D02*
X3399467Y-18374116D01*
X3399467Y-18374116D02*
X3389943Y-18355069D01*
X3389943Y-18355069D02*
X3380420Y-18316973D01*
X3380420Y-18316973D02*
X3380420Y-18269354D01*
X3380420Y-18269354D02*
X3389943Y-18231259D01*
X3389943Y-18231259D02*
X3399467Y-18212211D01*
X3399467Y-18212211D02*
X3408991Y-18202688D01*
X3408991Y-18202688D02*
X3428039Y-18193164D01*
X3580420Y-18393164D02*
X3580420Y-18259830D01*
X3580420Y-18278878D02*
X3589943Y-18269354D01*
X3589943Y-18269354D02*
X3608991Y-18259830D01*
X3608991Y-18259830D02*
X3637563Y-18259830D01*
X3637563Y-18259830D02*
X3656610Y-18269354D01*
X3656610Y-18269354D02*
X3666134Y-18288402D01*
X3666134Y-18288402D02*
X3666134Y-18393164D01*
X3666134Y-18288402D02*
X3675658Y-18269354D01*
X3675658Y-18269354D02*
X3694705Y-18259830D01*
X3694705Y-18259830D02*
X3723277Y-18259830D01*
X3723277Y-18259830D02*
X3742324Y-18269354D01*
X3742324Y-18269354D02*
X3751848Y-18288402D01*
X3751848Y-18288402D02*
X3751848Y-18393164D01*
X3847086Y-18393164D02*
X3847086Y-18259830D01*
X3847086Y-18278878D02*
X3856610Y-18269354D01*
X3856610Y-18269354D02*
X3875658Y-18259830D01*
X3875658Y-18259830D02*
X3904229Y-18259830D01*
X3904229Y-18259830D02*
X3923277Y-18269354D01*
X3923277Y-18269354D02*
X3932801Y-18288402D01*
X3932801Y-18288402D02*
X3932801Y-18393164D01*
X3932801Y-18288402D02*
X3942324Y-18269354D01*
X3942324Y-18269354D02*
X3961372Y-18259830D01*
X3961372Y-18259830D02*
X3989943Y-18259830D01*
X3989943Y-18259830D02*
X4008991Y-18269354D01*
X4008991Y-18269354D02*
X4018515Y-18288402D01*
X4018515Y-18288402D02*
X4018515Y-18393164D01*
X4408991Y-18183640D02*
X4237563Y-18440783D01*
X4666134Y-18193164D02*
X4685182Y-18193164D01*
X4685182Y-18193164D02*
X4704229Y-18202688D01*
X4704229Y-18202688D02*
X4713753Y-18212211D01*
X4713753Y-18212211D02*
X4723277Y-18231259D01*
X4723277Y-18231259D02*
X4732801Y-18269354D01*
X4732801Y-18269354D02*
X4732801Y-18316973D01*
X4732801Y-18316973D02*
X4723277Y-18355069D01*
X4723277Y-18355069D02*
X4713753Y-18374116D01*
X4713753Y-18374116D02*
X4704229Y-18383640D01*
X4704229Y-18383640D02*
X4685182Y-18393164D01*
X4685182Y-18393164D02*
X4666134Y-18393164D01*
X4666134Y-18393164D02*
X4647087Y-18383640D01*
X4647087Y-18383640D02*
X4637563Y-18374116D01*
X4637563Y-18374116D02*
X4628039Y-18355069D01*
X4628039Y-18355069D02*
X4618515Y-18316973D01*
X4618515Y-18316973D02*
X4618515Y-18269354D01*
X4618515Y-18269354D02*
X4628039Y-18231259D01*
X4628039Y-18231259D02*
X4637563Y-18212211D01*
X4637563Y-18212211D02*
X4647087Y-18202688D01*
X4647087Y-18202688D02*
X4666134Y-18193164D01*
X4818515Y-18374116D02*
X4828039Y-18383640D01*
X4828039Y-18383640D02*
X4818515Y-18393164D01*
X4818515Y-18393164D02*
X4808991Y-18383640D01*
X4808991Y-18383640D02*
X4818515Y-18374116D01*
X4818515Y-18374116D02*
X4818515Y-18393164D01*
X4951848Y-18193164D02*
X4970896Y-18193164D01*
X4970896Y-18193164D02*
X4989944Y-18202688D01*
X4989944Y-18202688D02*
X4999468Y-18212211D01*
X4999468Y-18212211D02*
X5008991Y-18231259D01*
X5008991Y-18231259D02*
X5018515Y-18269354D01*
X5018515Y-18269354D02*
X5018515Y-18316973D01*
X5018515Y-18316973D02*
X5008991Y-18355069D01*
X5008991Y-18355069D02*
X4999468Y-18374116D01*
X4999468Y-18374116D02*
X4989944Y-18383640D01*
X4989944Y-18383640D02*
X4970896Y-18393164D01*
X4970896Y-18393164D02*
X4951848Y-18393164D01*
X4951848Y-18393164D02*
X4932801Y-18383640D01*
X4932801Y-18383640D02*
X4923277Y-18374116D01*
X4923277Y-18374116D02*
X4913753Y-18355069D01*
X4913753Y-18355069D02*
X4904229Y-18316973D01*
X4904229Y-18316973D02*
X4904229Y-18269354D01*
X4904229Y-18269354D02*
X4913753Y-18231259D01*
X4913753Y-18231259D02*
X4923277Y-18212211D01*
X4923277Y-18212211D02*
X4932801Y-18202688D01*
X4932801Y-18202688D02*
X4951848Y-18193164D01*
X5132801Y-18278878D02*
X5113753Y-18269354D01*
X5113753Y-18269354D02*
X5104229Y-18259830D01*
X5104229Y-18259830D02*
X5094706Y-18240783D01*
X5094706Y-18240783D02*
X5094706Y-18231259D01*
X5094706Y-18231259D02*
X5104229Y-18212211D01*
X5104229Y-18212211D02*
X5113753Y-18202688D01*
X5113753Y-18202688D02*
X5132801Y-18193164D01*
X5132801Y-18193164D02*
X5170896Y-18193164D01*
X5170896Y-18193164D02*
X5189944Y-18202688D01*
X5189944Y-18202688D02*
X5199468Y-18212211D01*
X5199468Y-18212211D02*
X5208991Y-18231259D01*
X5208991Y-18231259D02*
X5208991Y-18240783D01*
X5208991Y-18240783D02*
X5199468Y-18259830D01*
X5199468Y-18259830D02*
X5189944Y-18269354D01*
X5189944Y-18269354D02*
X5170896Y-18278878D01*
X5170896Y-18278878D02*
X5132801Y-18278878D01*
X5132801Y-18278878D02*
X5113753Y-18288402D01*
X5113753Y-18288402D02*
X5104229Y-18297926D01*
X5104229Y-18297926D02*
X5094706Y-18316973D01*
X5094706Y-18316973D02*
X5094706Y-18355069D01*
X5094706Y-18355069D02*
X5104229Y-18374116D01*
X5104229Y-18374116D02*
X5113753Y-18383640D01*
X5113753Y-18383640D02*
X5132801Y-18393164D01*
X5132801Y-18393164D02*
X5170896Y-18393164D01*
X5170896Y-18393164D02*
X5189944Y-18383640D01*
X5189944Y-18383640D02*
X5199468Y-18374116D01*
X5199468Y-18374116D02*
X5208991Y-18355069D01*
X5208991Y-18355069D02*
X5208991Y-18316973D01*
X5208991Y-18316973D02*
X5199468Y-18297926D01*
X5199468Y-18297926D02*
X5189944Y-18288402D01*
X5189944Y-18288402D02*
X5170896Y-18278878D01*
X5380420Y-18193164D02*
X5342325Y-18193164D01*
X5342325Y-18193164D02*
X5323277Y-18202688D01*
X5323277Y-18202688D02*
X5313753Y-18212211D01*
X5313753Y-18212211D02*
X5294706Y-18240783D01*
X5294706Y-18240783D02*
X5285182Y-18278878D01*
X5285182Y-18278878D02*
X5285182Y-18355069D01*
X5285182Y-18355069D02*
X5294706Y-18374116D01*
X5294706Y-18374116D02*
X5304229Y-18383640D01*
X5304229Y-18383640D02*
X5323277Y-18393164D01*
X5323277Y-18393164D02*
X5361372Y-18393164D01*
X5361372Y-18393164D02*
X5380420Y-18383640D01*
X5380420Y-18383640D02*
X5389944Y-18374116D01*
X5389944Y-18374116D02*
X5399468Y-18355069D01*
X5399468Y-18355069D02*
X5399468Y-18307450D01*
X5399468Y-18307450D02*
X5389944Y-18288402D01*
X5389944Y-18288402D02*
X5380420Y-18278878D01*
X5380420Y-18278878D02*
X5361372Y-18269354D01*
X5361372Y-18269354D02*
X5323277Y-18269354D01*
X5323277Y-18269354D02*
X5304229Y-18278878D01*
X5304229Y-18278878D02*
X5294706Y-18288402D01*
X5294706Y-18288402D02*
X5285182Y-18307450D01*
X5570896Y-18193164D02*
X5532801Y-18193164D01*
X5532801Y-18193164D02*
X5513753Y-18202688D01*
X5513753Y-18202688D02*
X5504229Y-18212211D01*
X5504229Y-18212211D02*
X5485182Y-18240783D01*
X5485182Y-18240783D02*
X5475658Y-18278878D01*
X5475658Y-18278878D02*
X5475658Y-18355069D01*
X5475658Y-18355069D02*
X5485182Y-18374116D01*
X5485182Y-18374116D02*
X5494706Y-18383640D01*
X5494706Y-18383640D02*
X5513753Y-18393164D01*
X5513753Y-18393164D02*
X5551849Y-18393164D01*
X5551849Y-18393164D02*
X5570896Y-18383640D01*
X5570896Y-18383640D02*
X5580420Y-18374116D01*
X5580420Y-18374116D02*
X5589944Y-18355069D01*
X5589944Y-18355069D02*
X5589944Y-18307450D01*
X5589944Y-18307450D02*
X5580420Y-18288402D01*
X5580420Y-18288402D02*
X5570896Y-18278878D01*
X5570896Y-18278878D02*
X5551849Y-18269354D01*
X5551849Y-18269354D02*
X5513753Y-18269354D01*
X5513753Y-18269354D02*
X5494706Y-18278878D01*
X5494706Y-18278878D02*
X5485182Y-18288402D01*
X5485182Y-18288402D02*
X5475658Y-18307450D01*
X5666134Y-18193164D02*
X5666134Y-18231259D01*
X5742325Y-18193164D02*
X5742325Y-18231259D01*
X6037563Y-18469354D02*
X6028039Y-18459830D01*
X6028039Y-18459830D02*
X6008991Y-18431259D01*
X6008991Y-18431259D02*
X5999468Y-18412211D01*
X5999468Y-18412211D02*
X5989944Y-18383640D01*
X5989944Y-18383640D02*
X5980420Y-18336021D01*
X5980420Y-18336021D02*
X5980420Y-18297926D01*
X5980420Y-18297926D02*
X5989944Y-18250307D01*
X5989944Y-18250307D02*
X5999468Y-18221735D01*
X5999468Y-18221735D02*
X6008991Y-18202688D01*
X6008991Y-18202688D02*
X6028039Y-18174116D01*
X6028039Y-18174116D02*
X6037563Y-18164592D01*
X6218515Y-18393164D02*
X6104229Y-18393164D01*
X6161372Y-18393164D02*
X6161372Y-18193164D01*
X6161372Y-18193164D02*
X6142325Y-18221735D01*
X6142325Y-18221735D02*
X6123277Y-18240783D01*
X6123277Y-18240783D02*
X6104229Y-18250307D01*
X6342325Y-18193164D02*
X6361372Y-18193164D01*
X6361372Y-18193164D02*
X6380420Y-18202688D01*
X6380420Y-18202688D02*
X6389944Y-18212211D01*
X6389944Y-18212211D02*
X6399468Y-18231259D01*
X6399468Y-18231259D02*
X6408991Y-18269354D01*
X6408991Y-18269354D02*
X6408991Y-18316973D01*
X6408991Y-18316973D02*
X6399468Y-18355069D01*
X6399468Y-18355069D02*
X6389944Y-18374116D01*
X6389944Y-18374116D02*
X6380420Y-18383640D01*
X6380420Y-18383640D02*
X6361372Y-18393164D01*
X6361372Y-18393164D02*
X6342325Y-18393164D01*
X6342325Y-18393164D02*
X6323277Y-18383640D01*
X6323277Y-18383640D02*
X6313753Y-18374116D01*
X6313753Y-18374116D02*
X6304229Y-18355069D01*
X6304229Y-18355069D02*
X6294706Y-18316973D01*
X6294706Y-18316973D02*
X6294706Y-18269354D01*
X6294706Y-18269354D02*
X6304229Y-18231259D01*
X6304229Y-18231259D02*
X6313753Y-18212211D01*
X6313753Y-18212211D02*
X6323277Y-18202688D01*
X6323277Y-18202688D02*
X6342325Y-18193164D01*
X6647087Y-18393164D02*
X6647087Y-18193164D01*
X6732801Y-18393164D02*
X6732801Y-18288402D01*
X6732801Y-18288402D02*
X6723277Y-18269354D01*
X6723277Y-18269354D02*
X6704230Y-18259830D01*
X6704230Y-18259830D02*
X6675658Y-18259830D01*
X6675658Y-18259830D02*
X6656610Y-18269354D01*
X6656610Y-18269354D02*
X6647087Y-18278878D01*
X6856610Y-18393164D02*
X6837563Y-18383640D01*
X6837563Y-18383640D02*
X6828039Y-18374116D01*
X6828039Y-18374116D02*
X6818515Y-18355069D01*
X6818515Y-18355069D02*
X6818515Y-18297926D01*
X6818515Y-18297926D02*
X6828039Y-18278878D01*
X6828039Y-18278878D02*
X6837563Y-18269354D01*
X6837563Y-18269354D02*
X6856610Y-18259830D01*
X6856610Y-18259830D02*
X6885182Y-18259830D01*
X6885182Y-18259830D02*
X6904230Y-18269354D01*
X6904230Y-18269354D02*
X6913753Y-18278878D01*
X6913753Y-18278878D02*
X6923277Y-18297926D01*
X6923277Y-18297926D02*
X6923277Y-18355069D01*
X6923277Y-18355069D02*
X6913753Y-18374116D01*
X6913753Y-18374116D02*
X6904230Y-18383640D01*
X6904230Y-18383640D02*
X6885182Y-18393164D01*
X6885182Y-18393164D02*
X6856610Y-18393164D01*
X7037563Y-18393164D02*
X7018515Y-18383640D01*
X7018515Y-18383640D02*
X7008991Y-18364592D01*
X7008991Y-18364592D02*
X7008991Y-18193164D01*
X7189944Y-18383640D02*
X7170896Y-18393164D01*
X7170896Y-18393164D02*
X7132801Y-18393164D01*
X7132801Y-18393164D02*
X7113753Y-18383640D01*
X7113753Y-18383640D02*
X7104230Y-18364592D01*
X7104230Y-18364592D02*
X7104230Y-18288402D01*
X7104230Y-18288402D02*
X7113753Y-18269354D01*
X7113753Y-18269354D02*
X7132801Y-18259830D01*
X7132801Y-18259830D02*
X7170896Y-18259830D01*
X7170896Y-18259830D02*
X7189944Y-18269354D01*
X7189944Y-18269354D02*
X7199468Y-18288402D01*
X7199468Y-18288402D02*
X7199468Y-18307450D01*
X7199468Y-18307450D02*
X7104230Y-18326497D01*
X7275658Y-18383640D02*
X7294706Y-18393164D01*
X7294706Y-18393164D02*
X7332801Y-18393164D01*
X7332801Y-18393164D02*
X7351849Y-18383640D01*
X7351849Y-18383640D02*
X7361372Y-18364592D01*
X7361372Y-18364592D02*
X7361372Y-18355069D01*
X7361372Y-18355069D02*
X7351849Y-18336021D01*
X7351849Y-18336021D02*
X7332801Y-18326497D01*
X7332801Y-18326497D02*
X7304230Y-18326497D01*
X7304230Y-18326497D02*
X7285182Y-18316973D01*
X7285182Y-18316973D02*
X7275658Y-18297926D01*
X7275658Y-18297926D02*
X7275658Y-18288402D01*
X7275658Y-18288402D02*
X7285182Y-18269354D01*
X7285182Y-18269354D02*
X7304230Y-18259830D01*
X7304230Y-18259830D02*
X7332801Y-18259830D01*
X7332801Y-18259830D02*
X7351849Y-18269354D01*
X7428039Y-18469354D02*
X7437563Y-18459830D01*
X7437563Y-18459830D02*
X7456611Y-18431259D01*
X7456611Y-18431259D02*
X7466134Y-18412211D01*
X7466134Y-18412211D02*
X7475658Y-18383640D01*
X7475658Y-18383640D02*
X7485182Y-18336021D01*
X7485182Y-18336021D02*
X7485182Y-18297926D01*
X7485182Y-18297926D02*
X7475658Y-18250307D01*
X7475658Y-18250307D02*
X7466134Y-18221735D01*
X7466134Y-18221735D02*
X7456611Y-18202688D01*
X7456611Y-18202688D02*
X7437563Y-18174116D01*
X7437563Y-18174116D02*
X7428039Y-18164592D01*
X7789944Y-18469354D02*
X7780420Y-18459830D01*
X7780420Y-18459830D02*
X7761372Y-18431259D01*
X7761372Y-18431259D02*
X7751849Y-18412211D01*
X7751849Y-18412211D02*
X7742325Y-18383640D01*
X7742325Y-18383640D02*
X7732801Y-18336021D01*
X7732801Y-18336021D02*
X7732801Y-18297926D01*
X7732801Y-18297926D02*
X7742325Y-18250307D01*
X7742325Y-18250307D02*
X7751849Y-18221735D01*
X7751849Y-18221735D02*
X7761372Y-18202688D01*
X7761372Y-18202688D02*
X7780420Y-18174116D01*
X7780420Y-18174116D02*
X7789944Y-18164592D01*
X7866134Y-18259830D02*
X7866134Y-18393164D01*
X7866134Y-18278878D02*
X7875658Y-18269354D01*
X7875658Y-18269354D02*
X7894706Y-18259830D01*
X7894706Y-18259830D02*
X7923277Y-18259830D01*
X7923277Y-18259830D02*
X7942325Y-18269354D01*
X7942325Y-18269354D02*
X7951849Y-18288402D01*
X7951849Y-18288402D02*
X7951849Y-18393164D01*
X8075658Y-18393164D02*
X8056611Y-18383640D01*
X8056611Y-18383640D02*
X8047087Y-18374116D01*
X8047087Y-18374116D02*
X8037563Y-18355069D01*
X8037563Y-18355069D02*
X8037563Y-18297926D01*
X8037563Y-18297926D02*
X8047087Y-18278878D01*
X8047087Y-18278878D02*
X8056611Y-18269354D01*
X8056611Y-18269354D02*
X8075658Y-18259830D01*
X8075658Y-18259830D02*
X8104230Y-18259830D01*
X8104230Y-18259830D02*
X8123277Y-18269354D01*
X8123277Y-18269354D02*
X8132801Y-18278878D01*
X8132801Y-18278878D02*
X8142325Y-18297926D01*
X8142325Y-18297926D02*
X8142325Y-18355069D01*
X8142325Y-18355069D02*
X8132801Y-18374116D01*
X8132801Y-18374116D02*
X8123277Y-18383640D01*
X8123277Y-18383640D02*
X8104230Y-18393164D01*
X8104230Y-18393164D02*
X8075658Y-18393164D01*
X8199468Y-18259830D02*
X8275658Y-18259830D01*
X8228039Y-18193164D02*
X8228039Y-18364592D01*
X8228039Y-18364592D02*
X8237563Y-18383640D01*
X8237563Y-18383640D02*
X8256611Y-18393164D01*
X8256611Y-18393164D02*
X8275658Y-18393164D01*
X8494706Y-18259830D02*
X8494706Y-18459830D01*
X8494706Y-18269354D02*
X8513754Y-18259830D01*
X8513754Y-18259830D02*
X8551849Y-18259830D01*
X8551849Y-18259830D02*
X8570896Y-18269354D01*
X8570896Y-18269354D02*
X8580420Y-18278878D01*
X8580420Y-18278878D02*
X8589944Y-18297926D01*
X8589944Y-18297926D02*
X8589944Y-18355069D01*
X8589944Y-18355069D02*
X8580420Y-18374116D01*
X8580420Y-18374116D02*
X8570896Y-18383640D01*
X8570896Y-18383640D02*
X8551849Y-18393164D01*
X8551849Y-18393164D02*
X8513754Y-18393164D01*
X8513754Y-18393164D02*
X8494706Y-18383640D01*
X8704230Y-18393164D02*
X8685182Y-18383640D01*
X8685182Y-18383640D02*
X8675658Y-18364592D01*
X8675658Y-18364592D02*
X8675658Y-18193164D01*
X8866135Y-18393164D02*
X8866135Y-18288402D01*
X8866135Y-18288402D02*
X8856611Y-18269354D01*
X8856611Y-18269354D02*
X8837563Y-18259830D01*
X8837563Y-18259830D02*
X8799468Y-18259830D01*
X8799468Y-18259830D02*
X8780420Y-18269354D01*
X8866135Y-18383640D02*
X8847087Y-18393164D01*
X8847087Y-18393164D02*
X8799468Y-18393164D01*
X8799468Y-18393164D02*
X8780420Y-18383640D01*
X8780420Y-18383640D02*
X8770896Y-18364592D01*
X8770896Y-18364592D02*
X8770896Y-18345545D01*
X8770896Y-18345545D02*
X8780420Y-18326497D01*
X8780420Y-18326497D02*
X8799468Y-18316973D01*
X8799468Y-18316973D02*
X8847087Y-18316973D01*
X8847087Y-18316973D02*
X8866135Y-18307450D01*
X8932801Y-18259830D02*
X9008992Y-18259830D01*
X8961373Y-18193164D02*
X8961373Y-18364592D01*
X8961373Y-18364592D02*
X8970896Y-18383640D01*
X8970896Y-18383640D02*
X8989944Y-18393164D01*
X8989944Y-18393164D02*
X9008992Y-18393164D01*
X9151849Y-18383640D02*
X9132801Y-18393164D01*
X9132801Y-18393164D02*
X9094706Y-18393164D01*
X9094706Y-18393164D02*
X9075658Y-18383640D01*
X9075658Y-18383640D02*
X9066135Y-18364592D01*
X9066135Y-18364592D02*
X9066135Y-18288402D01*
X9066135Y-18288402D02*
X9075658Y-18269354D01*
X9075658Y-18269354D02*
X9094706Y-18259830D01*
X9094706Y-18259830D02*
X9132801Y-18259830D01*
X9132801Y-18259830D02*
X9151849Y-18269354D01*
X9151849Y-18269354D02*
X9161373Y-18288402D01*
X9161373Y-18288402D02*
X9161373Y-18307450D01*
X9161373Y-18307450D02*
X9066135Y-18326497D01*
X9332801Y-18393164D02*
X9332801Y-18193164D01*
X9332801Y-18383640D02*
X9313754Y-18393164D01*
X9313754Y-18393164D02*
X9275658Y-18393164D01*
X9275658Y-18393164D02*
X9256611Y-18383640D01*
X9256611Y-18383640D02*
X9247087Y-18374116D01*
X9247087Y-18374116D02*
X9237563Y-18355069D01*
X9237563Y-18355069D02*
X9237563Y-18297926D01*
X9237563Y-18297926D02*
X9247087Y-18278878D01*
X9247087Y-18278878D02*
X9256611Y-18269354D01*
X9256611Y-18269354D02*
X9275658Y-18259830D01*
X9275658Y-18259830D02*
X9313754Y-18259830D01*
X9313754Y-18259830D02*
X9332801Y-18269354D01*
X9408992Y-18469354D02*
X9418516Y-18459830D01*
X9418516Y-18459830D02*
X9437563Y-18431259D01*
X9437563Y-18431259D02*
X9447087Y-18412211D01*
X9447087Y-18412211D02*
X9456611Y-18383640D01*
X9456611Y-18383640D02*
X9466135Y-18336021D01*
X9466135Y-18336021D02*
X9466135Y-18297926D01*
X9466135Y-18297926D02*
X9456611Y-18250307D01*
X9456611Y-18250307D02*
X9447087Y-18221735D01*
X9447087Y-18221735D02*
X9437563Y-18202688D01*
X9437563Y-18202688D02*
X9418516Y-18174116D01*
X9418516Y-18174116D02*
X9408992Y-18164592D01*
X2433211Y-18692391D02*
X2433211Y-18550969D01*
X2291789Y-18550969D01*
X2291789Y-18692391D01*
X2433211Y-18692391D01*
X2704229Y-18513164D02*
X2828039Y-18513164D01*
X2828039Y-18513164D02*
X2761372Y-18589354D01*
X2761372Y-18589354D02*
X2789944Y-18589354D01*
X2789944Y-18589354D02*
X2808991Y-18598878D01*
X2808991Y-18598878D02*
X2818515Y-18608402D01*
X2818515Y-18608402D02*
X2828039Y-18627450D01*
X2828039Y-18627450D02*
X2828039Y-18675069D01*
X2828039Y-18675069D02*
X2818515Y-18694116D01*
X2818515Y-18694116D02*
X2808991Y-18703640D01*
X2808991Y-18703640D02*
X2789944Y-18713164D01*
X2789944Y-18713164D02*
X2732801Y-18713164D01*
X2732801Y-18713164D02*
X2713753Y-18703640D01*
X2713753Y-18703640D02*
X2704229Y-18694116D01*
X2913753Y-18694116D02*
X2923277Y-18703640D01*
X2923277Y-18703640D02*
X2913753Y-18713164D01*
X2913753Y-18713164D02*
X2904229Y-18703640D01*
X2904229Y-18703640D02*
X2913753Y-18694116D01*
X2913753Y-18694116D02*
X2913753Y-18713164D01*
X3047086Y-18513164D02*
X3066134Y-18513164D01*
X3066134Y-18513164D02*
X3085182Y-18522688D01*
X3085182Y-18522688D02*
X3094705Y-18532211D01*
X3094705Y-18532211D02*
X3104229Y-18551259D01*
X3104229Y-18551259D02*
X3113753Y-18589354D01*
X3113753Y-18589354D02*
X3113753Y-18636973D01*
X3113753Y-18636973D02*
X3104229Y-18675069D01*
X3104229Y-18675069D02*
X3094705Y-18694116D01*
X3094705Y-18694116D02*
X3085182Y-18703640D01*
X3085182Y-18703640D02*
X3066134Y-18713164D01*
X3066134Y-18713164D02*
X3047086Y-18713164D01*
X3047086Y-18713164D02*
X3028039Y-18703640D01*
X3028039Y-18703640D02*
X3018515Y-18694116D01*
X3018515Y-18694116D02*
X3008991Y-18675069D01*
X3008991Y-18675069D02*
X2999467Y-18636973D01*
X2999467Y-18636973D02*
X2999467Y-18589354D01*
X2999467Y-18589354D02*
X3008991Y-18551259D01*
X3008991Y-18551259D02*
X3018515Y-18532211D01*
X3018515Y-18532211D02*
X3028039Y-18522688D01*
X3028039Y-18522688D02*
X3047086Y-18513164D01*
X3237562Y-18513164D02*
X3256610Y-18513164D01*
X3256610Y-18513164D02*
X3275658Y-18522688D01*
X3275658Y-18522688D02*
X3285182Y-18532211D01*
X3285182Y-18532211D02*
X3294705Y-18551259D01*
X3294705Y-18551259D02*
X3304229Y-18589354D01*
X3304229Y-18589354D02*
X3304229Y-18636973D01*
X3304229Y-18636973D02*
X3294705Y-18675069D01*
X3294705Y-18675069D02*
X3285182Y-18694116D01*
X3285182Y-18694116D02*
X3275658Y-18703640D01*
X3275658Y-18703640D02*
X3256610Y-18713164D01*
X3256610Y-18713164D02*
X3237562Y-18713164D01*
X3237562Y-18713164D02*
X3218515Y-18703640D01*
X3218515Y-18703640D02*
X3208991Y-18694116D01*
X3208991Y-18694116D02*
X3199467Y-18675069D01*
X3199467Y-18675069D02*
X3189943Y-18636973D01*
X3189943Y-18636973D02*
X3189943Y-18589354D01*
X3189943Y-18589354D02*
X3199467Y-18551259D01*
X3199467Y-18551259D02*
X3208991Y-18532211D01*
X3208991Y-18532211D02*
X3218515Y-18522688D01*
X3218515Y-18522688D02*
X3237562Y-18513164D01*
X3428039Y-18513164D02*
X3447086Y-18513164D01*
X3447086Y-18513164D02*
X3466134Y-18522688D01*
X3466134Y-18522688D02*
X3475658Y-18532211D01*
X3475658Y-18532211D02*
X3485182Y-18551259D01*
X3485182Y-18551259D02*
X3494705Y-18589354D01*
X3494705Y-18589354D02*
X3494705Y-18636973D01*
X3494705Y-18636973D02*
X3485182Y-18675069D01*
X3485182Y-18675069D02*
X3475658Y-18694116D01*
X3475658Y-18694116D02*
X3466134Y-18703640D01*
X3466134Y-18703640D02*
X3447086Y-18713164D01*
X3447086Y-18713164D02*
X3428039Y-18713164D01*
X3428039Y-18713164D02*
X3408991Y-18703640D01*
X3408991Y-18703640D02*
X3399467Y-18694116D01*
X3399467Y-18694116D02*
X3389943Y-18675069D01*
X3389943Y-18675069D02*
X3380420Y-18636973D01*
X3380420Y-18636973D02*
X3380420Y-18589354D01*
X3380420Y-18589354D02*
X3389943Y-18551259D01*
X3389943Y-18551259D02*
X3399467Y-18532211D01*
X3399467Y-18532211D02*
X3408991Y-18522688D01*
X3408991Y-18522688D02*
X3428039Y-18513164D01*
X3580420Y-18713164D02*
X3580420Y-18579830D01*
X3580420Y-18598878D02*
X3589943Y-18589354D01*
X3589943Y-18589354D02*
X3608991Y-18579830D01*
X3608991Y-18579830D02*
X3637563Y-18579830D01*
X3637563Y-18579830D02*
X3656610Y-18589354D01*
X3656610Y-18589354D02*
X3666134Y-18608402D01*
X3666134Y-18608402D02*
X3666134Y-18713164D01*
X3666134Y-18608402D02*
X3675658Y-18589354D01*
X3675658Y-18589354D02*
X3694705Y-18579830D01*
X3694705Y-18579830D02*
X3723277Y-18579830D01*
X3723277Y-18579830D02*
X3742324Y-18589354D01*
X3742324Y-18589354D02*
X3751848Y-18608402D01*
X3751848Y-18608402D02*
X3751848Y-18713164D01*
X3847086Y-18713164D02*
X3847086Y-18579830D01*
X3847086Y-18598878D02*
X3856610Y-18589354D01*
X3856610Y-18589354D02*
X3875658Y-18579830D01*
X3875658Y-18579830D02*
X3904229Y-18579830D01*
X3904229Y-18579830D02*
X3923277Y-18589354D01*
X3923277Y-18589354D02*
X3932801Y-18608402D01*
X3932801Y-18608402D02*
X3932801Y-18713164D01*
X3932801Y-18608402D02*
X3942324Y-18589354D01*
X3942324Y-18589354D02*
X3961372Y-18579830D01*
X3961372Y-18579830D02*
X3989943Y-18579830D01*
X3989943Y-18579830D02*
X4008991Y-18589354D01*
X4008991Y-18589354D02*
X4018515Y-18608402D01*
X4018515Y-18608402D02*
X4018515Y-18713164D01*
X4408991Y-18503640D02*
X4237563Y-18760783D01*
X4666134Y-18513164D02*
X4685182Y-18513164D01*
X4685182Y-18513164D02*
X4704229Y-18522688D01*
X4704229Y-18522688D02*
X4713753Y-18532211D01*
X4713753Y-18532211D02*
X4723277Y-18551259D01*
X4723277Y-18551259D02*
X4732801Y-18589354D01*
X4732801Y-18589354D02*
X4732801Y-18636973D01*
X4732801Y-18636973D02*
X4723277Y-18675069D01*
X4723277Y-18675069D02*
X4713753Y-18694116D01*
X4713753Y-18694116D02*
X4704229Y-18703640D01*
X4704229Y-18703640D02*
X4685182Y-18713164D01*
X4685182Y-18713164D02*
X4666134Y-18713164D01*
X4666134Y-18713164D02*
X4647087Y-18703640D01*
X4647087Y-18703640D02*
X4637563Y-18694116D01*
X4637563Y-18694116D02*
X4628039Y-18675069D01*
X4628039Y-18675069D02*
X4618515Y-18636973D01*
X4618515Y-18636973D02*
X4618515Y-18589354D01*
X4618515Y-18589354D02*
X4628039Y-18551259D01*
X4628039Y-18551259D02*
X4637563Y-18532211D01*
X4637563Y-18532211D02*
X4647087Y-18522688D01*
X4647087Y-18522688D02*
X4666134Y-18513164D01*
X4818515Y-18694116D02*
X4828039Y-18703640D01*
X4828039Y-18703640D02*
X4818515Y-18713164D01*
X4818515Y-18713164D02*
X4808991Y-18703640D01*
X4808991Y-18703640D02*
X4818515Y-18694116D01*
X4818515Y-18694116D02*
X4818515Y-18713164D01*
X5018515Y-18713164D02*
X4904229Y-18713164D01*
X4961372Y-18713164D02*
X4961372Y-18513164D01*
X4961372Y-18513164D02*
X4942325Y-18541735D01*
X4942325Y-18541735D02*
X4923277Y-18560783D01*
X4923277Y-18560783D02*
X4904229Y-18570307D01*
X5208991Y-18713164D02*
X5094706Y-18713164D01*
X5151848Y-18713164D02*
X5151848Y-18513164D01*
X5151848Y-18513164D02*
X5132801Y-18541735D01*
X5132801Y-18541735D02*
X5113753Y-18560783D01*
X5113753Y-18560783D02*
X5094706Y-18570307D01*
X5323277Y-18598878D02*
X5304229Y-18589354D01*
X5304229Y-18589354D02*
X5294706Y-18579830D01*
X5294706Y-18579830D02*
X5285182Y-18560783D01*
X5285182Y-18560783D02*
X5285182Y-18551259D01*
X5285182Y-18551259D02*
X5294706Y-18532211D01*
X5294706Y-18532211D02*
X5304229Y-18522688D01*
X5304229Y-18522688D02*
X5323277Y-18513164D01*
X5323277Y-18513164D02*
X5361372Y-18513164D01*
X5361372Y-18513164D02*
X5380420Y-18522688D01*
X5380420Y-18522688D02*
X5389944Y-18532211D01*
X5389944Y-18532211D02*
X5399468Y-18551259D01*
X5399468Y-18551259D02*
X5399468Y-18560783D01*
X5399468Y-18560783D02*
X5389944Y-18579830D01*
X5389944Y-18579830D02*
X5380420Y-18589354D01*
X5380420Y-18589354D02*
X5361372Y-18598878D01*
X5361372Y-18598878D02*
X5323277Y-18598878D01*
X5323277Y-18598878D02*
X5304229Y-18608402D01*
X5304229Y-18608402D02*
X5294706Y-18617926D01*
X5294706Y-18617926D02*
X5285182Y-18636973D01*
X5285182Y-18636973D02*
X5285182Y-18675069D01*
X5285182Y-18675069D02*
X5294706Y-18694116D01*
X5294706Y-18694116D02*
X5304229Y-18703640D01*
X5304229Y-18703640D02*
X5323277Y-18713164D01*
X5323277Y-18713164D02*
X5361372Y-18713164D01*
X5361372Y-18713164D02*
X5380420Y-18703640D01*
X5380420Y-18703640D02*
X5389944Y-18694116D01*
X5389944Y-18694116D02*
X5399468Y-18675069D01*
X5399468Y-18675069D02*
X5399468Y-18636973D01*
X5399468Y-18636973D02*
X5389944Y-18617926D01*
X5389944Y-18617926D02*
X5380420Y-18608402D01*
X5380420Y-18608402D02*
X5361372Y-18598878D01*
X5589944Y-18713164D02*
X5475658Y-18713164D01*
X5532801Y-18713164D02*
X5532801Y-18513164D01*
X5532801Y-18513164D02*
X5513753Y-18541735D01*
X5513753Y-18541735D02*
X5494706Y-18560783D01*
X5494706Y-18560783D02*
X5475658Y-18570307D01*
X5666134Y-18513164D02*
X5666134Y-18551259D01*
X5742325Y-18513164D02*
X5742325Y-18551259D01*
X6037563Y-18789354D02*
X6028039Y-18779830D01*
X6028039Y-18779830D02*
X6008991Y-18751259D01*
X6008991Y-18751259D02*
X5999468Y-18732211D01*
X5999468Y-18732211D02*
X5989944Y-18703640D01*
X5989944Y-18703640D02*
X5980420Y-18656021D01*
X5980420Y-18656021D02*
X5980420Y-18617926D01*
X5980420Y-18617926D02*
X5989944Y-18570307D01*
X5989944Y-18570307D02*
X5999468Y-18541735D01*
X5999468Y-18541735D02*
X6008991Y-18522688D01*
X6008991Y-18522688D02*
X6028039Y-18494116D01*
X6028039Y-18494116D02*
X6037563Y-18484592D01*
X6218515Y-18713164D02*
X6104229Y-18713164D01*
X6161372Y-18713164D02*
X6161372Y-18513164D01*
X6161372Y-18513164D02*
X6142325Y-18541735D01*
X6142325Y-18541735D02*
X6123277Y-18560783D01*
X6123277Y-18560783D02*
X6104229Y-18570307D01*
X6399468Y-18513164D02*
X6304229Y-18513164D01*
X6304229Y-18513164D02*
X6294706Y-18608402D01*
X6294706Y-18608402D02*
X6304229Y-18598878D01*
X6304229Y-18598878D02*
X6323277Y-18589354D01*
X6323277Y-18589354D02*
X6370896Y-18589354D01*
X6370896Y-18589354D02*
X6389944Y-18598878D01*
X6389944Y-18598878D02*
X6399468Y-18608402D01*
X6399468Y-18608402D02*
X6408991Y-18627450D01*
X6408991Y-18627450D02*
X6408991Y-18675069D01*
X6408991Y-18675069D02*
X6399468Y-18694116D01*
X6399468Y-18694116D02*
X6389944Y-18703640D01*
X6389944Y-18703640D02*
X6370896Y-18713164D01*
X6370896Y-18713164D02*
X6323277Y-18713164D01*
X6323277Y-18713164D02*
X6304229Y-18703640D01*
X6304229Y-18703640D02*
X6294706Y-18694116D01*
X6580420Y-18579830D02*
X6580420Y-18713164D01*
X6532801Y-18503640D02*
X6485182Y-18646497D01*
X6485182Y-18646497D02*
X6608991Y-18646497D01*
X6837563Y-18713164D02*
X6837563Y-18513164D01*
X6923277Y-18713164D02*
X6923277Y-18608402D01*
X6923277Y-18608402D02*
X6913753Y-18589354D01*
X6913753Y-18589354D02*
X6894706Y-18579830D01*
X6894706Y-18579830D02*
X6866134Y-18579830D01*
X6866134Y-18579830D02*
X6847087Y-18589354D01*
X6847087Y-18589354D02*
X6837563Y-18598878D01*
X7047087Y-18713164D02*
X7028039Y-18703640D01*
X7028039Y-18703640D02*
X7018515Y-18694116D01*
X7018515Y-18694116D02*
X7008991Y-18675069D01*
X7008991Y-18675069D02*
X7008991Y-18617926D01*
X7008991Y-18617926D02*
X7018515Y-18598878D01*
X7018515Y-18598878D02*
X7028039Y-18589354D01*
X7028039Y-18589354D02*
X7047087Y-18579830D01*
X7047087Y-18579830D02*
X7075658Y-18579830D01*
X7075658Y-18579830D02*
X7094706Y-18589354D01*
X7094706Y-18589354D02*
X7104230Y-18598878D01*
X7104230Y-18598878D02*
X7113753Y-18617926D01*
X7113753Y-18617926D02*
X7113753Y-18675069D01*
X7113753Y-18675069D02*
X7104230Y-18694116D01*
X7104230Y-18694116D02*
X7094706Y-18703640D01*
X7094706Y-18703640D02*
X7075658Y-18713164D01*
X7075658Y-18713164D02*
X7047087Y-18713164D01*
X7228039Y-18713164D02*
X7208991Y-18703640D01*
X7208991Y-18703640D02*
X7199468Y-18684592D01*
X7199468Y-18684592D02*
X7199468Y-18513164D01*
X7380420Y-18703640D02*
X7361372Y-18713164D01*
X7361372Y-18713164D02*
X7323277Y-18713164D01*
X7323277Y-18713164D02*
X7304230Y-18703640D01*
X7304230Y-18703640D02*
X7294706Y-18684592D01*
X7294706Y-18684592D02*
X7294706Y-18608402D01*
X7294706Y-18608402D02*
X7304230Y-18589354D01*
X7304230Y-18589354D02*
X7323277Y-18579830D01*
X7323277Y-18579830D02*
X7361372Y-18579830D01*
X7361372Y-18579830D02*
X7380420Y-18589354D01*
X7380420Y-18589354D02*
X7389944Y-18608402D01*
X7389944Y-18608402D02*
X7389944Y-18627450D01*
X7389944Y-18627450D02*
X7294706Y-18646497D01*
X7466134Y-18703640D02*
X7485182Y-18713164D01*
X7485182Y-18713164D02*
X7523277Y-18713164D01*
X7523277Y-18713164D02*
X7542325Y-18703640D01*
X7542325Y-18703640D02*
X7551849Y-18684592D01*
X7551849Y-18684592D02*
X7551849Y-18675069D01*
X7551849Y-18675069D02*
X7542325Y-18656021D01*
X7542325Y-18656021D02*
X7523277Y-18646497D01*
X7523277Y-18646497D02*
X7494706Y-18646497D01*
X7494706Y-18646497D02*
X7475658Y-18636973D01*
X7475658Y-18636973D02*
X7466134Y-18617926D01*
X7466134Y-18617926D02*
X7466134Y-18608402D01*
X7466134Y-18608402D02*
X7475658Y-18589354D01*
X7475658Y-18589354D02*
X7494706Y-18579830D01*
X7494706Y-18579830D02*
X7523277Y-18579830D01*
X7523277Y-18579830D02*
X7542325Y-18589354D01*
X7618515Y-18789354D02*
X7628039Y-18779830D01*
X7628039Y-18779830D02*
X7647087Y-18751259D01*
X7647087Y-18751259D02*
X7656611Y-18732211D01*
X7656611Y-18732211D02*
X7666134Y-18703640D01*
X7666134Y-18703640D02*
X7675658Y-18656021D01*
X7675658Y-18656021D02*
X7675658Y-18617926D01*
X7675658Y-18617926D02*
X7666134Y-18570307D01*
X7666134Y-18570307D02*
X7656611Y-18541735D01*
X7656611Y-18541735D02*
X7647087Y-18522688D01*
X7647087Y-18522688D02*
X7628039Y-18494116D01*
X7628039Y-18494116D02*
X7618515Y-18484592D01*
X7980420Y-18789354D02*
X7970896Y-18779830D01*
X7970896Y-18779830D02*
X7951849Y-18751259D01*
X7951849Y-18751259D02*
X7942325Y-18732211D01*
X7942325Y-18732211D02*
X7932801Y-18703640D01*
X7932801Y-18703640D02*
X7923277Y-18656021D01*
X7923277Y-18656021D02*
X7923277Y-18617926D01*
X7923277Y-18617926D02*
X7932801Y-18570307D01*
X7932801Y-18570307D02*
X7942325Y-18541735D01*
X7942325Y-18541735D02*
X7951849Y-18522688D01*
X7951849Y-18522688D02*
X7970896Y-18494116D01*
X7970896Y-18494116D02*
X7980420Y-18484592D01*
X8056611Y-18579830D02*
X8056611Y-18713164D01*
X8056611Y-18598878D02*
X8066134Y-18589354D01*
X8066134Y-18589354D02*
X8085182Y-18579830D01*
X8085182Y-18579830D02*
X8113753Y-18579830D01*
X8113753Y-18579830D02*
X8132801Y-18589354D01*
X8132801Y-18589354D02*
X8142325Y-18608402D01*
X8142325Y-18608402D02*
X8142325Y-18713164D01*
X8266134Y-18713164D02*
X8247087Y-18703640D01*
X8247087Y-18703640D02*
X8237563Y-18694116D01*
X8237563Y-18694116D02*
X8228039Y-18675069D01*
X8228039Y-18675069D02*
X8228039Y-18617926D01*
X8228039Y-18617926D02*
X8237563Y-18598878D01*
X8237563Y-18598878D02*
X8247087Y-18589354D01*
X8247087Y-18589354D02*
X8266134Y-18579830D01*
X8266134Y-18579830D02*
X8294706Y-18579830D01*
X8294706Y-18579830D02*
X8313753Y-18589354D01*
X8313753Y-18589354D02*
X8323277Y-18598878D01*
X8323277Y-18598878D02*
X8332801Y-18617926D01*
X8332801Y-18617926D02*
X8332801Y-18675069D01*
X8332801Y-18675069D02*
X8323277Y-18694116D01*
X8323277Y-18694116D02*
X8313753Y-18703640D01*
X8313753Y-18703640D02*
X8294706Y-18713164D01*
X8294706Y-18713164D02*
X8266134Y-18713164D01*
X8389944Y-18579830D02*
X8466134Y-18579830D01*
X8418515Y-18513164D02*
X8418515Y-18684592D01*
X8418515Y-18684592D02*
X8428039Y-18703640D01*
X8428039Y-18703640D02*
X8447087Y-18713164D01*
X8447087Y-18713164D02*
X8466134Y-18713164D01*
X8685182Y-18579830D02*
X8685182Y-18779830D01*
X8685182Y-18589354D02*
X8704230Y-18579830D01*
X8704230Y-18579830D02*
X8742325Y-18579830D01*
X8742325Y-18579830D02*
X8761373Y-18589354D01*
X8761373Y-18589354D02*
X8770896Y-18598878D01*
X8770896Y-18598878D02*
X8780420Y-18617926D01*
X8780420Y-18617926D02*
X8780420Y-18675069D01*
X8780420Y-18675069D02*
X8770896Y-18694116D01*
X8770896Y-18694116D02*
X8761373Y-18703640D01*
X8761373Y-18703640D02*
X8742325Y-18713164D01*
X8742325Y-18713164D02*
X8704230Y-18713164D01*
X8704230Y-18713164D02*
X8685182Y-18703640D01*
X8894706Y-18713164D02*
X8875658Y-18703640D01*
X8875658Y-18703640D02*
X8866135Y-18684592D01*
X8866135Y-18684592D02*
X8866135Y-18513164D01*
X9056611Y-18713164D02*
X9056611Y-18608402D01*
X9056611Y-18608402D02*
X9047087Y-18589354D01*
X9047087Y-18589354D02*
X9028039Y-18579830D01*
X9028039Y-18579830D02*
X8989944Y-18579830D01*
X8989944Y-18579830D02*
X8970896Y-18589354D01*
X9056611Y-18703640D02*
X9037563Y-18713164D01*
X9037563Y-18713164D02*
X8989944Y-18713164D01*
X8989944Y-18713164D02*
X8970896Y-18703640D01*
X8970896Y-18703640D02*
X8961373Y-18684592D01*
X8961373Y-18684592D02*
X8961373Y-18665545D01*
X8961373Y-18665545D02*
X8970896Y-18646497D01*
X8970896Y-18646497D02*
X8989944Y-18636973D01*
X8989944Y-18636973D02*
X9037563Y-18636973D01*
X9037563Y-18636973D02*
X9056611Y-18627450D01*
X9123277Y-18579830D02*
X9199468Y-18579830D01*
X9151849Y-18513164D02*
X9151849Y-18684592D01*
X9151849Y-18684592D02*
X9161373Y-18703640D01*
X9161373Y-18703640D02*
X9180420Y-18713164D01*
X9180420Y-18713164D02*
X9199468Y-18713164D01*
X9342325Y-18703640D02*
X9323277Y-18713164D01*
X9323277Y-18713164D02*
X9285182Y-18713164D01*
X9285182Y-18713164D02*
X9266135Y-18703640D01*
X9266135Y-18703640D02*
X9256611Y-18684592D01*
X9256611Y-18684592D02*
X9256611Y-18608402D01*
X9256611Y-18608402D02*
X9266135Y-18589354D01*
X9266135Y-18589354D02*
X9285182Y-18579830D01*
X9285182Y-18579830D02*
X9323277Y-18579830D01*
X9323277Y-18579830D02*
X9342325Y-18589354D01*
X9342325Y-18589354D02*
X9351849Y-18608402D01*
X9351849Y-18608402D02*
X9351849Y-18627450D01*
X9351849Y-18627450D02*
X9256611Y-18646497D01*
X9523277Y-18713164D02*
X9523277Y-18513164D01*
X9523277Y-18703640D02*
X9504230Y-18713164D01*
X9504230Y-18713164D02*
X9466135Y-18713164D01*
X9466135Y-18713164D02*
X9447087Y-18703640D01*
X9447087Y-18703640D02*
X9437563Y-18694116D01*
X9437563Y-18694116D02*
X9428039Y-18675069D01*
X9428039Y-18675069D02*
X9428039Y-18617926D01*
X9428039Y-18617926D02*
X9437563Y-18598878D01*
X9437563Y-18598878D02*
X9447087Y-18589354D01*
X9447087Y-18589354D02*
X9466135Y-18579830D01*
X9466135Y-18579830D02*
X9504230Y-18579830D01*
X9504230Y-18579830D02*
X9523277Y-18589354D01*
X9599468Y-18789354D02*
X9608992Y-18779830D01*
X9608992Y-18779830D02*
X9628039Y-18751259D01*
X9628039Y-18751259D02*
X9637563Y-18732211D01*
X9637563Y-18732211D02*
X9647087Y-18703640D01*
X9647087Y-18703640D02*
X9656611Y-18656021D01*
X9656611Y-18656021D02*
X9656611Y-18617926D01*
X9656611Y-18617926D02*
X9647087Y-18570307D01*
X9647087Y-18570307D02*
X9637563Y-18541735D01*
X9637563Y-18541735D02*
X9628039Y-18522688D01*
X9628039Y-18522688D02*
X9608992Y-18494116D01*
X9608992Y-18494116D02*
X9599468Y-18484592D01*
X2362500Y-19041680D02*
X2462500Y-18941680D01*
X2362500Y-18841680D01*
X2262500Y-18941680D01*
X2362500Y-19041680D01*
X2704229Y-18833164D02*
X2828039Y-18833164D01*
X2828039Y-18833164D02*
X2761372Y-18909354D01*
X2761372Y-18909354D02*
X2789944Y-18909354D01*
X2789944Y-18909354D02*
X2808991Y-18918878D01*
X2808991Y-18918878D02*
X2818515Y-18928402D01*
X2818515Y-18928402D02*
X2828039Y-18947450D01*
X2828039Y-18947450D02*
X2828039Y-18995069D01*
X2828039Y-18995069D02*
X2818515Y-19014116D01*
X2818515Y-19014116D02*
X2808991Y-19023640D01*
X2808991Y-19023640D02*
X2789944Y-19033164D01*
X2789944Y-19033164D02*
X2732801Y-19033164D01*
X2732801Y-19033164D02*
X2713753Y-19023640D01*
X2713753Y-19023640D02*
X2704229Y-19014116D01*
X2913753Y-19014116D02*
X2923277Y-19023640D01*
X2923277Y-19023640D02*
X2913753Y-19033164D01*
X2913753Y-19033164D02*
X2904229Y-19023640D01*
X2904229Y-19023640D02*
X2913753Y-19014116D01*
X2913753Y-19014116D02*
X2913753Y-19033164D01*
X3018515Y-19033164D02*
X3056610Y-19033164D01*
X3056610Y-19033164D02*
X3075658Y-19023640D01*
X3075658Y-19023640D02*
X3085182Y-19014116D01*
X3085182Y-19014116D02*
X3104229Y-18985545D01*
X3104229Y-18985545D02*
X3113753Y-18947450D01*
X3113753Y-18947450D02*
X3113753Y-18871259D01*
X3113753Y-18871259D02*
X3104229Y-18852211D01*
X3104229Y-18852211D02*
X3094705Y-18842688D01*
X3094705Y-18842688D02*
X3075658Y-18833164D01*
X3075658Y-18833164D02*
X3037562Y-18833164D01*
X3037562Y-18833164D02*
X3018515Y-18842688D01*
X3018515Y-18842688D02*
X3008991Y-18852211D01*
X3008991Y-18852211D02*
X2999467Y-18871259D01*
X2999467Y-18871259D02*
X2999467Y-18918878D01*
X2999467Y-18918878D02*
X3008991Y-18937926D01*
X3008991Y-18937926D02*
X3018515Y-18947450D01*
X3018515Y-18947450D02*
X3037562Y-18956973D01*
X3037562Y-18956973D02*
X3075658Y-18956973D01*
X3075658Y-18956973D02*
X3094705Y-18947450D01*
X3094705Y-18947450D02*
X3104229Y-18937926D01*
X3104229Y-18937926D02*
X3113753Y-18918878D01*
X3228039Y-18918878D02*
X3208991Y-18909354D01*
X3208991Y-18909354D02*
X3199467Y-18899830D01*
X3199467Y-18899830D02*
X3189943Y-18880783D01*
X3189943Y-18880783D02*
X3189943Y-18871259D01*
X3189943Y-18871259D02*
X3199467Y-18852211D01*
X3199467Y-18852211D02*
X3208991Y-18842688D01*
X3208991Y-18842688D02*
X3228039Y-18833164D01*
X3228039Y-18833164D02*
X3266134Y-18833164D01*
X3266134Y-18833164D02*
X3285182Y-18842688D01*
X3285182Y-18842688D02*
X3294705Y-18852211D01*
X3294705Y-18852211D02*
X3304229Y-18871259D01*
X3304229Y-18871259D02*
X3304229Y-18880783D01*
X3304229Y-18880783D02*
X3294705Y-18899830D01*
X3294705Y-18899830D02*
X3285182Y-18909354D01*
X3285182Y-18909354D02*
X3266134Y-18918878D01*
X3266134Y-18918878D02*
X3228039Y-18918878D01*
X3228039Y-18918878D02*
X3208991Y-18928402D01*
X3208991Y-18928402D02*
X3199467Y-18937926D01*
X3199467Y-18937926D02*
X3189943Y-18956973D01*
X3189943Y-18956973D02*
X3189943Y-18995069D01*
X3189943Y-18995069D02*
X3199467Y-19014116D01*
X3199467Y-19014116D02*
X3208991Y-19023640D01*
X3208991Y-19023640D02*
X3228039Y-19033164D01*
X3228039Y-19033164D02*
X3266134Y-19033164D01*
X3266134Y-19033164D02*
X3285182Y-19023640D01*
X3285182Y-19023640D02*
X3294705Y-19014116D01*
X3294705Y-19014116D02*
X3304229Y-18995069D01*
X3304229Y-18995069D02*
X3304229Y-18956973D01*
X3304229Y-18956973D02*
X3294705Y-18937926D01*
X3294705Y-18937926D02*
X3285182Y-18928402D01*
X3285182Y-18928402D02*
X3266134Y-18918878D01*
X3418515Y-18918878D02*
X3399467Y-18909354D01*
X3399467Y-18909354D02*
X3389943Y-18899830D01*
X3389943Y-18899830D02*
X3380420Y-18880783D01*
X3380420Y-18880783D02*
X3380420Y-18871259D01*
X3380420Y-18871259D02*
X3389943Y-18852211D01*
X3389943Y-18852211D02*
X3399467Y-18842688D01*
X3399467Y-18842688D02*
X3418515Y-18833164D01*
X3418515Y-18833164D02*
X3456610Y-18833164D01*
X3456610Y-18833164D02*
X3475658Y-18842688D01*
X3475658Y-18842688D02*
X3485182Y-18852211D01*
X3485182Y-18852211D02*
X3494705Y-18871259D01*
X3494705Y-18871259D02*
X3494705Y-18880783D01*
X3494705Y-18880783D02*
X3485182Y-18899830D01*
X3485182Y-18899830D02*
X3475658Y-18909354D01*
X3475658Y-18909354D02*
X3456610Y-18918878D01*
X3456610Y-18918878D02*
X3418515Y-18918878D01*
X3418515Y-18918878D02*
X3399467Y-18928402D01*
X3399467Y-18928402D02*
X3389943Y-18937926D01*
X3389943Y-18937926D02*
X3380420Y-18956973D01*
X3380420Y-18956973D02*
X3380420Y-18995069D01*
X3380420Y-18995069D02*
X3389943Y-19014116D01*
X3389943Y-19014116D02*
X3399467Y-19023640D01*
X3399467Y-19023640D02*
X3418515Y-19033164D01*
X3418515Y-19033164D02*
X3456610Y-19033164D01*
X3456610Y-19033164D02*
X3475658Y-19023640D01*
X3475658Y-19023640D02*
X3485182Y-19014116D01*
X3485182Y-19014116D02*
X3494705Y-18995069D01*
X3494705Y-18995069D02*
X3494705Y-18956973D01*
X3494705Y-18956973D02*
X3485182Y-18937926D01*
X3485182Y-18937926D02*
X3475658Y-18928402D01*
X3475658Y-18928402D02*
X3456610Y-18918878D01*
X3580420Y-19033164D02*
X3580420Y-18899830D01*
X3580420Y-18918878D02*
X3589943Y-18909354D01*
X3589943Y-18909354D02*
X3608991Y-18899830D01*
X3608991Y-18899830D02*
X3637563Y-18899830D01*
X3637563Y-18899830D02*
X3656610Y-18909354D01*
X3656610Y-18909354D02*
X3666134Y-18928402D01*
X3666134Y-18928402D02*
X3666134Y-19033164D01*
X3666134Y-18928402D02*
X3675658Y-18909354D01*
X3675658Y-18909354D02*
X3694705Y-18899830D01*
X3694705Y-18899830D02*
X3723277Y-18899830D01*
X3723277Y-18899830D02*
X3742324Y-18909354D01*
X3742324Y-18909354D02*
X3751848Y-18928402D01*
X3751848Y-18928402D02*
X3751848Y-19033164D01*
X3847086Y-19033164D02*
X3847086Y-18899830D01*
X3847086Y-18918878D02*
X3856610Y-18909354D01*
X3856610Y-18909354D02*
X3875658Y-18899830D01*
X3875658Y-18899830D02*
X3904229Y-18899830D01*
X3904229Y-18899830D02*
X3923277Y-18909354D01*
X3923277Y-18909354D02*
X3932801Y-18928402D01*
X3932801Y-18928402D02*
X3932801Y-19033164D01*
X3932801Y-18928402D02*
X3942324Y-18909354D01*
X3942324Y-18909354D02*
X3961372Y-18899830D01*
X3961372Y-18899830D02*
X3989943Y-18899830D01*
X3989943Y-18899830D02*
X4008991Y-18909354D01*
X4008991Y-18909354D02*
X4018515Y-18928402D01*
X4018515Y-18928402D02*
X4018515Y-19033164D01*
X4408991Y-18823640D02*
X4237563Y-19080783D01*
X4666134Y-18833164D02*
X4685182Y-18833164D01*
X4685182Y-18833164D02*
X4704229Y-18842688D01*
X4704229Y-18842688D02*
X4713753Y-18852211D01*
X4713753Y-18852211D02*
X4723277Y-18871259D01*
X4723277Y-18871259D02*
X4732801Y-18909354D01*
X4732801Y-18909354D02*
X4732801Y-18956973D01*
X4732801Y-18956973D02*
X4723277Y-18995069D01*
X4723277Y-18995069D02*
X4713753Y-19014116D01*
X4713753Y-19014116D02*
X4704229Y-19023640D01*
X4704229Y-19023640D02*
X4685182Y-19033164D01*
X4685182Y-19033164D02*
X4666134Y-19033164D01*
X4666134Y-19033164D02*
X4647087Y-19023640D01*
X4647087Y-19023640D02*
X4637563Y-19014116D01*
X4637563Y-19014116D02*
X4628039Y-18995069D01*
X4628039Y-18995069D02*
X4618515Y-18956973D01*
X4618515Y-18956973D02*
X4618515Y-18909354D01*
X4618515Y-18909354D02*
X4628039Y-18871259D01*
X4628039Y-18871259D02*
X4637563Y-18852211D01*
X4637563Y-18852211D02*
X4647087Y-18842688D01*
X4647087Y-18842688D02*
X4666134Y-18833164D01*
X4818515Y-19014116D02*
X4828039Y-19023640D01*
X4828039Y-19023640D02*
X4818515Y-19033164D01*
X4818515Y-19033164D02*
X4808991Y-19023640D01*
X4808991Y-19023640D02*
X4818515Y-19014116D01*
X4818515Y-19014116D02*
X4818515Y-19033164D01*
X5018515Y-19033164D02*
X4904229Y-19033164D01*
X4961372Y-19033164D02*
X4961372Y-18833164D01*
X4961372Y-18833164D02*
X4942325Y-18861735D01*
X4942325Y-18861735D02*
X4923277Y-18880783D01*
X4923277Y-18880783D02*
X4904229Y-18890307D01*
X5199468Y-18833164D02*
X5104229Y-18833164D01*
X5104229Y-18833164D02*
X5094706Y-18928402D01*
X5094706Y-18928402D02*
X5104229Y-18918878D01*
X5104229Y-18918878D02*
X5123277Y-18909354D01*
X5123277Y-18909354D02*
X5170896Y-18909354D01*
X5170896Y-18909354D02*
X5189944Y-18918878D01*
X5189944Y-18918878D02*
X5199468Y-18928402D01*
X5199468Y-18928402D02*
X5208991Y-18947450D01*
X5208991Y-18947450D02*
X5208991Y-18995069D01*
X5208991Y-18995069D02*
X5199468Y-19014116D01*
X5199468Y-19014116D02*
X5189944Y-19023640D01*
X5189944Y-19023640D02*
X5170896Y-19033164D01*
X5170896Y-19033164D02*
X5123277Y-19033164D01*
X5123277Y-19033164D02*
X5104229Y-19023640D01*
X5104229Y-19023640D02*
X5094706Y-19014116D01*
X5275658Y-18833164D02*
X5408991Y-18833164D01*
X5408991Y-18833164D02*
X5323277Y-19033164D01*
X5523277Y-18833164D02*
X5542325Y-18833164D01*
X5542325Y-18833164D02*
X5561372Y-18842688D01*
X5561372Y-18842688D02*
X5570896Y-18852211D01*
X5570896Y-18852211D02*
X5580420Y-18871259D01*
X5580420Y-18871259D02*
X5589944Y-18909354D01*
X5589944Y-18909354D02*
X5589944Y-18956973D01*
X5589944Y-18956973D02*
X5580420Y-18995069D01*
X5580420Y-18995069D02*
X5570896Y-19014116D01*
X5570896Y-19014116D02*
X5561372Y-19023640D01*
X5561372Y-19023640D02*
X5542325Y-19033164D01*
X5542325Y-19033164D02*
X5523277Y-19033164D01*
X5523277Y-19033164D02*
X5504229Y-19023640D01*
X5504229Y-19023640D02*
X5494706Y-19014116D01*
X5494706Y-19014116D02*
X5485182Y-18995069D01*
X5485182Y-18995069D02*
X5475658Y-18956973D01*
X5475658Y-18956973D02*
X5475658Y-18909354D01*
X5475658Y-18909354D02*
X5485182Y-18871259D01*
X5485182Y-18871259D02*
X5494706Y-18852211D01*
X5494706Y-18852211D02*
X5504229Y-18842688D01*
X5504229Y-18842688D02*
X5523277Y-18833164D01*
X5666134Y-18833164D02*
X5666134Y-18871259D01*
X5742325Y-18833164D02*
X5742325Y-18871259D01*
X6037563Y-19109354D02*
X6028039Y-19099830D01*
X6028039Y-19099830D02*
X6008991Y-19071259D01*
X6008991Y-19071259D02*
X5999468Y-19052211D01*
X5999468Y-19052211D02*
X5989944Y-19023640D01*
X5989944Y-19023640D02*
X5980420Y-18976021D01*
X5980420Y-18976021D02*
X5980420Y-18937926D01*
X5980420Y-18937926D02*
X5989944Y-18890307D01*
X5989944Y-18890307D02*
X5999468Y-18861735D01*
X5999468Y-18861735D02*
X6008991Y-18842688D01*
X6008991Y-18842688D02*
X6028039Y-18814116D01*
X6028039Y-18814116D02*
X6037563Y-18804592D01*
X6094706Y-18833164D02*
X6228039Y-18833164D01*
X6228039Y-18833164D02*
X6142325Y-19033164D01*
X6285182Y-18833164D02*
X6418515Y-18833164D01*
X6418515Y-18833164D02*
X6332801Y-19033164D01*
X6647087Y-19033164D02*
X6647087Y-18833164D01*
X6732801Y-19033164D02*
X6732801Y-18928402D01*
X6732801Y-18928402D02*
X6723277Y-18909354D01*
X6723277Y-18909354D02*
X6704230Y-18899830D01*
X6704230Y-18899830D02*
X6675658Y-18899830D01*
X6675658Y-18899830D02*
X6656610Y-18909354D01*
X6656610Y-18909354D02*
X6647087Y-18918878D01*
X6856610Y-19033164D02*
X6837563Y-19023640D01*
X6837563Y-19023640D02*
X6828039Y-19014116D01*
X6828039Y-19014116D02*
X6818515Y-18995069D01*
X6818515Y-18995069D02*
X6818515Y-18937926D01*
X6818515Y-18937926D02*
X6828039Y-18918878D01*
X6828039Y-18918878D02*
X6837563Y-18909354D01*
X6837563Y-18909354D02*
X6856610Y-18899830D01*
X6856610Y-18899830D02*
X6885182Y-18899830D01*
X6885182Y-18899830D02*
X6904230Y-18909354D01*
X6904230Y-18909354D02*
X6913753Y-18918878D01*
X6913753Y-18918878D02*
X6923277Y-18937926D01*
X6923277Y-18937926D02*
X6923277Y-18995069D01*
X6923277Y-18995069D02*
X6913753Y-19014116D01*
X6913753Y-19014116D02*
X6904230Y-19023640D01*
X6904230Y-19023640D02*
X6885182Y-19033164D01*
X6885182Y-19033164D02*
X6856610Y-19033164D01*
X7037563Y-19033164D02*
X7018515Y-19023640D01*
X7018515Y-19023640D02*
X7008991Y-19004592D01*
X7008991Y-19004592D02*
X7008991Y-18833164D01*
X7189944Y-19023640D02*
X7170896Y-19033164D01*
X7170896Y-19033164D02*
X7132801Y-19033164D01*
X7132801Y-19033164D02*
X7113753Y-19023640D01*
X7113753Y-19023640D02*
X7104230Y-19004592D01*
X7104230Y-19004592D02*
X7104230Y-18928402D01*
X7104230Y-18928402D02*
X7113753Y-18909354D01*
X7113753Y-18909354D02*
X7132801Y-18899830D01*
X7132801Y-18899830D02*
X7170896Y-18899830D01*
X7170896Y-18899830D02*
X7189944Y-18909354D01*
X7189944Y-18909354D02*
X7199468Y-18928402D01*
X7199468Y-18928402D02*
X7199468Y-18947450D01*
X7199468Y-18947450D02*
X7104230Y-18966497D01*
X7275658Y-19023640D02*
X7294706Y-19033164D01*
X7294706Y-19033164D02*
X7332801Y-19033164D01*
X7332801Y-19033164D02*
X7351849Y-19023640D01*
X7351849Y-19023640D02*
X7361372Y-19004592D01*
X7361372Y-19004592D02*
X7361372Y-18995069D01*
X7361372Y-18995069D02*
X7351849Y-18976021D01*
X7351849Y-18976021D02*
X7332801Y-18966497D01*
X7332801Y-18966497D02*
X7304230Y-18966497D01*
X7304230Y-18966497D02*
X7285182Y-18956973D01*
X7285182Y-18956973D02*
X7275658Y-18937926D01*
X7275658Y-18937926D02*
X7275658Y-18928402D01*
X7275658Y-18928402D02*
X7285182Y-18909354D01*
X7285182Y-18909354D02*
X7304230Y-18899830D01*
X7304230Y-18899830D02*
X7332801Y-18899830D01*
X7332801Y-18899830D02*
X7351849Y-18909354D01*
X7428039Y-19109354D02*
X7437563Y-19099830D01*
X7437563Y-19099830D02*
X7456611Y-19071259D01*
X7456611Y-19071259D02*
X7466134Y-19052211D01*
X7466134Y-19052211D02*
X7475658Y-19023640D01*
X7475658Y-19023640D02*
X7485182Y-18976021D01*
X7485182Y-18976021D02*
X7485182Y-18937926D01*
X7485182Y-18937926D02*
X7475658Y-18890307D01*
X7475658Y-18890307D02*
X7466134Y-18861735D01*
X7466134Y-18861735D02*
X7456611Y-18842688D01*
X7456611Y-18842688D02*
X7437563Y-18814116D01*
X7437563Y-18814116D02*
X7428039Y-18804592D01*
X7789944Y-19109354D02*
X7780420Y-19099830D01*
X7780420Y-19099830D02*
X7761372Y-19071259D01*
X7761372Y-19071259D02*
X7751849Y-19052211D01*
X7751849Y-19052211D02*
X7742325Y-19023640D01*
X7742325Y-19023640D02*
X7732801Y-18976021D01*
X7732801Y-18976021D02*
X7732801Y-18937926D01*
X7732801Y-18937926D02*
X7742325Y-18890307D01*
X7742325Y-18890307D02*
X7751849Y-18861735D01*
X7751849Y-18861735D02*
X7761372Y-18842688D01*
X7761372Y-18842688D02*
X7780420Y-18814116D01*
X7780420Y-18814116D02*
X7789944Y-18804592D01*
X7866134Y-18899830D02*
X7866134Y-19033164D01*
X7866134Y-18918878D02*
X7875658Y-18909354D01*
X7875658Y-18909354D02*
X7894706Y-18899830D01*
X7894706Y-18899830D02*
X7923277Y-18899830D01*
X7923277Y-18899830D02*
X7942325Y-18909354D01*
X7942325Y-18909354D02*
X7951849Y-18928402D01*
X7951849Y-18928402D02*
X7951849Y-19033164D01*
X8075658Y-19033164D02*
X8056611Y-19023640D01*
X8056611Y-19023640D02*
X8047087Y-19014116D01*
X8047087Y-19014116D02*
X8037563Y-18995069D01*
X8037563Y-18995069D02*
X8037563Y-18937926D01*
X8037563Y-18937926D02*
X8047087Y-18918878D01*
X8047087Y-18918878D02*
X8056611Y-18909354D01*
X8056611Y-18909354D02*
X8075658Y-18899830D01*
X8075658Y-18899830D02*
X8104230Y-18899830D01*
X8104230Y-18899830D02*
X8123277Y-18909354D01*
X8123277Y-18909354D02*
X8132801Y-18918878D01*
X8132801Y-18918878D02*
X8142325Y-18937926D01*
X8142325Y-18937926D02*
X8142325Y-18995069D01*
X8142325Y-18995069D02*
X8132801Y-19014116D01*
X8132801Y-19014116D02*
X8123277Y-19023640D01*
X8123277Y-19023640D02*
X8104230Y-19033164D01*
X8104230Y-19033164D02*
X8075658Y-19033164D01*
X8199468Y-18899830D02*
X8275658Y-18899830D01*
X8228039Y-18833164D02*
X8228039Y-19004592D01*
X8228039Y-19004592D02*
X8237563Y-19023640D01*
X8237563Y-19023640D02*
X8256611Y-19033164D01*
X8256611Y-19033164D02*
X8275658Y-19033164D01*
X8494706Y-18899830D02*
X8494706Y-19099830D01*
X8494706Y-18909354D02*
X8513754Y-18899830D01*
X8513754Y-18899830D02*
X8551849Y-18899830D01*
X8551849Y-18899830D02*
X8570896Y-18909354D01*
X8570896Y-18909354D02*
X8580420Y-18918878D01*
X8580420Y-18918878D02*
X8589944Y-18937926D01*
X8589944Y-18937926D02*
X8589944Y-18995069D01*
X8589944Y-18995069D02*
X8580420Y-19014116D01*
X8580420Y-19014116D02*
X8570896Y-19023640D01*
X8570896Y-19023640D02*
X8551849Y-19033164D01*
X8551849Y-19033164D02*
X8513754Y-19033164D01*
X8513754Y-19033164D02*
X8494706Y-19023640D01*
X8704230Y-19033164D02*
X8685182Y-19023640D01*
X8685182Y-19023640D02*
X8675658Y-19004592D01*
X8675658Y-19004592D02*
X8675658Y-18833164D01*
X8866135Y-19033164D02*
X8866135Y-18928402D01*
X8866135Y-18928402D02*
X8856611Y-18909354D01*
X8856611Y-18909354D02*
X8837563Y-18899830D01*
X8837563Y-18899830D02*
X8799468Y-18899830D01*
X8799468Y-18899830D02*
X8780420Y-18909354D01*
X8866135Y-19023640D02*
X8847087Y-19033164D01*
X8847087Y-19033164D02*
X8799468Y-19033164D01*
X8799468Y-19033164D02*
X8780420Y-19023640D01*
X8780420Y-19023640D02*
X8770896Y-19004592D01*
X8770896Y-19004592D02*
X8770896Y-18985545D01*
X8770896Y-18985545D02*
X8780420Y-18966497D01*
X8780420Y-18966497D02*
X8799468Y-18956973D01*
X8799468Y-18956973D02*
X8847087Y-18956973D01*
X8847087Y-18956973D02*
X8866135Y-18947450D01*
X8932801Y-18899830D02*
X9008992Y-18899830D01*
X8961373Y-18833164D02*
X8961373Y-19004592D01*
X8961373Y-19004592D02*
X8970896Y-19023640D01*
X8970896Y-19023640D02*
X8989944Y-19033164D01*
X8989944Y-19033164D02*
X9008992Y-19033164D01*
X9151849Y-19023640D02*
X9132801Y-19033164D01*
X9132801Y-19033164D02*
X9094706Y-19033164D01*
X9094706Y-19033164D02*
X9075658Y-19023640D01*
X9075658Y-19023640D02*
X9066135Y-19004592D01*
X9066135Y-19004592D02*
X9066135Y-18928402D01*
X9066135Y-18928402D02*
X9075658Y-18909354D01*
X9075658Y-18909354D02*
X9094706Y-18899830D01*
X9094706Y-18899830D02*
X9132801Y-18899830D01*
X9132801Y-18899830D02*
X9151849Y-18909354D01*
X9151849Y-18909354D02*
X9161373Y-18928402D01*
X9161373Y-18928402D02*
X9161373Y-18947450D01*
X9161373Y-18947450D02*
X9066135Y-18966497D01*
X9332801Y-19033164D02*
X9332801Y-18833164D01*
X9332801Y-19023640D02*
X9313754Y-19033164D01*
X9313754Y-19033164D02*
X9275658Y-19033164D01*
X9275658Y-19033164D02*
X9256611Y-19023640D01*
X9256611Y-19023640D02*
X9247087Y-19014116D01*
X9247087Y-19014116D02*
X9237563Y-18995069D01*
X9237563Y-18995069D02*
X9237563Y-18937926D01*
X9237563Y-18937926D02*
X9247087Y-18918878D01*
X9247087Y-18918878D02*
X9256611Y-18909354D01*
X9256611Y-18909354D02*
X9275658Y-18899830D01*
X9275658Y-18899830D02*
X9313754Y-18899830D01*
X9313754Y-18899830D02*
X9332801Y-18909354D01*
X9408992Y-19109354D02*
X9418516Y-19099830D01*
X9418516Y-19099830D02*
X9437563Y-19071259D01*
X9437563Y-19071259D02*
X9447087Y-19052211D01*
X9447087Y-19052211D02*
X9456611Y-19023640D01*
X9456611Y-19023640D02*
X9466135Y-18976021D01*
X9466135Y-18976021D02*
X9466135Y-18937926D01*
X9466135Y-18937926D02*
X9456611Y-18890307D01*
X9456611Y-18890307D02*
X9447087Y-18861735D01*
X9447087Y-18861735D02*
X9437563Y-18842688D01*
X9437563Y-18842688D02*
X9418516Y-18814116D01*
X9418516Y-18814116D02*
X9408992Y-18804592D01*
M02*
