0
SECTION
2
HEADER
9
$INSUNITS
70
4
0
ENDSEC
0
SECTION
2
TABLES
0
TABLE
2
LTYPE
0
LTYPE
72
65
70
64
2
CONTINUOUS
3
______
73
0
40
0
0
ENDTAB
0
TABLE
2
LAYER
0
ENDTAB
0
ENDSEC
0
SECTION
2
ENTITIES
0
LINE
8
0
10
29
20
-66
11
47
21
-66
0
LINE
8
0
10
47
20
-66
11
47
21
-48
0
LINE
8
0
10
47
20
-48
11
29
21
-48
0
LINE
8
0
10
29
20
-48
11
29
21
-66
0
LINE
8
0
10
67
20
-66
11
85
21
-66
0
LINE
8
0
10
85
20
-66
11
85
21
-48
0
LINE
8
0
10
85
20
-48
11
67
21
-48
0
LINE
8
0
10
67
20
-48
11
67
21
-66
0
LINE
8
0
10
86
20
-66
11
104
21
-66
0
LINE
8
0
10
104
20
-66
11
104
21
-48
0
LINE
8
0
10
104
20
-48
11
86
21
-48
0
LINE
8
0
10
86
20
-48
11
86
21
-66
0
LINE
8
0
10
105
20
-66
11
123
21
-66
0
LINE
8
0
10
123
20
-66
11
123
21
-48
0
LINE
8
0
10
123
20
-48
11
105
21
-48
0
LINE
8
0
10
105
20
-48
11
105
21
-66
0
LINE
8
0
10
124
20
-66
11
142
21
-66
0
LINE
8
0
10
142
20
-66
11
142
21
-48
0
LINE
8
0
10
142
20
-48
11
124
21
-48
0
LINE
8
0
10
124
20
-48
11
124
21
-66
0
LINE
8
0
10
143
20
-66
11
161
21
-66
0
LINE
8
0
10
161
20
-66
11
161
21
-48
0
LINE
8
0
10
161
20
-48
11
143
21
-48
0
LINE
8
0
10
143
20
-48
11
143
21
-66
0
LINE
8
0
10
29
20
-90.7
11
47
21
-90.7
0
LINE
8
0
10
47
20
-90.7
11
47
21
-72.7
0
LINE
8
0
10
47
20
-72.7
11
29
21
-72.7
0
LINE
8
0
10
29
20
-72.7
11
29
21
-90.7
0
LINE
8
0
10
48
20
-90.7
11
66
21
-90.7
0
LINE
8
0
10
66
20
-90.7
11
66
21
-72.7
0
LINE
8
0
10
66
20
-72.7
11
48
21
-72.7
0
LINE
8
0
10
48
20
-72.7
11
48
21
-90.7
0
LINE
8
0
10
67
20
-90.7
11
85
21
-90.7
0
LINE
8
0
10
85
20
-90.7
11
85
21
-72.7
0
LINE
8
0
10
85
20
-72.7
11
67
21
-72.7
0
LINE
8
0
10
67
20
-72.7
11
67
21
-90.7
0
LINE
8
0
10
86
20
-90.7
11
104
21
-90.7
0
LINE
8
0
10
104
20
-90.7
11
104
21
-72.7
0
LINE
8
0
10
104
20
-72.7
11
86
21
-72.7
0
LINE
8
0
10
86
20
-72.7
11
86
21
-90.7
0
LINE
8
0
10
105
20
-90.7
11
123
21
-90.7
0
LINE
8
0
10
123
20
-90.7
11
123
21
-72.7
0
LINE
8
0
10
123
20
-72.7
11
105
21
-72.7
0
LINE
8
0
10
105
20
-72.7
11
105
21
-90.7
0
LINE
8
0
10
124
20
-90.7
11
142
21
-90.7
0
LINE
8
0
10
142
20
-90.7
11
142
21
-72.7
0
LINE
8
0
10
142
20
-72.7
11
124
21
-72.7
0
LINE
8
0
10
124
20
-72.7
11
124
21
-90.7
0
LINE
8
0
10
143
20
-90.7
11
161
21
-90.7
0
LINE
8
0
10
161
20
-90.7
11
161
21
-72.7
0
LINE
8
0
10
161
20
-72.7
11
143
21
-72.7
0
LINE
8
0
10
143
20
-72.7
11
143
21
-90.7
0
LINE
8
0
10
33.75
20
-109.7
11
51.75
21
-109.7
0
LINE
8
0
10
51.75
20
-109.7
11
51.75
21
-91.7
0
LINE
8
0
10
51.75
20
-91.7
11
33.75
21
-91.7
0
LINE
8
0
10
33.75
20
-91.7
11
33.75
21
-109.7
0
LINE
8
0
10
57.5
20
-109.7
11
75.5
21
-109.7
0
LINE
8
0
10
75.5
20
-109.7
11
75.5
21
-91.7
0
LINE
8
0
10
75.5
20
-91.7
11
57.5
21
-91.7
0
LINE
8
0
10
57.5
20
-91.7
11
57.5
21
-109.7
0
LINE
8
0
10
76.5
20
-109.7
11
94.5
21
-109.7
0
LINE
8
0
10
94.5
20
-109.7
11
94.5
21
-91.7
0
LINE
8
0
10
94.5
20
-91.7
11
76.5
21
-91.7
0
LINE
8
0
10
76.5
20
-91.7
11
76.5
21
-109.7
0
LINE
8
0
10
95.5
20
-109.7
11
113.5
21
-109.7
0
LINE
8
0
10
113.5
20
-109.7
11
113.5
21
-91.7
0
LINE
8
0
10
113.5
20
-91.7
11
95.5
21
-91.7
0
LINE
8
0
10
95.5
20
-91.7
11
95.5
21
-109.7
0
LINE
8
0
10
114.5
20
-109.7
11
132.5
21
-109.7
0
LINE
8
0
10
132.5
20
-109.7
11
132.5
21
-91.7
0
LINE
8
0
10
132.5
20
-91.7
11
114.5
21
-91.7
0
LINE
8
0
10
114.5
20
-91.7
11
114.5
21
-109.7
0
LINE
8
0
10
133.5
20
-109.7
11
151.5
21
-109.7
0
LINE
8
0
10
151.5
20
-109.7
11
151.5
21
-91.7
0
LINE
8
0
10
151.5
20
-91.7
11
133.5
21
-91.7
0
LINE
8
0
10
133.5
20
-91.7
11
133.5
21
-109.7
0
LINE
8
0
10
36
20
-128.7
11
54
21
-128.7
0
LINE
8
0
10
54
20
-128.7
11
54
21
-110.7
0
LINE
8
0
10
54
20
-110.7
11
36
21
-110.7
0
LINE
8
0
10
36
20
-110.7
11
36
21
-128.7
0
LINE
8
0
10
62
20
-128.7
11
80
21
-128.7
0
LINE
8
0
10
80
20
-128.7
11
80
21
-110.7
0
LINE
8
0
10
80
20
-110.7
11
62
21
-110.7
0
LINE
8
0
10
62
20
-110.7
11
62
21
-128.7
0
LINE
8
0
10
81
20
-128.7
11
99
21
-128.7
0
LINE
8
0
10
99
20
-128.7
11
99
21
-110.7
0
LINE
8
0
10
99
20
-110.7
11
81
21
-110.7
0
LINE
8
0
10
81
20
-110.7
11
81
21
-128.7
0
LINE
8
0
10
100
20
-128.7
11
118
21
-128.7
0
LINE
8
0
10
118
20
-128.7
11
118
21
-110.7
0
LINE
8
0
10
118
20
-110.7
11
100
21
-110.7
0
LINE
8
0
10
100
20
-110.7
11
100
21
-128.7
0
LINE
8
0
10
119
20
-128.7
11
137
21
-128.7
0
LINE
8
0
10
137
20
-128.7
11
137
21
-110.7
0
LINE
8
0
10
137
20
-110.7
11
119
21
-110.7
0
LINE
8
0
10
119
20
-110.7
11
119
21
-128.7
0
LINE
8
0
10
138
20
-128.7
11
156
21
-128.7
0
LINE
8
0
10
156
20
-128.7
11
156
21
-110.7
0
LINE
8
0
10
156
20
-110.7
11
138
21
-110.7
0
LINE
8
0
10
138
20
-110.7
11
138
21
-128.7
0
LINE
8
0
10
40.5
20
-147.7
11
58.5
21
-147.7
0
LINE
8
0
10
58.5
20
-147.7
11
58.5
21
-129.7
0
LINE
8
0
10
58.5
20
-129.7
11
40.5
21
-129.7
0
LINE
8
0
10
40.5
20
-129.7
11
40.5
21
-147.7
0
LINE
8
0
10
71
20
-147.7
11
89
21
-147.7
0
LINE
8
0
10
89
20
-147.7
11
89
21
-129.7
0
LINE
8
0
10
89
20
-129.7
11
71
21
-129.7
0
LINE
8
0
10
71
20
-129.7
11
71
21
-147.7
0
LINE
8
0
10
90
20
-147.7
11
108
21
-147.7
0
LINE
8
0
10
108
20
-147.7
11
108
21
-129.7
0
LINE
8
0
10
108
20
-129.7
11
90
21
-129.7
0
LINE
8
0
10
90
20
-129.7
11
90
21
-147.7
0
LINE
8
0
10
109
20
-147.7
11
127
21
-147.7
0
LINE
8
0
10
127
20
-147.7
11
127
21
-129.7
0
LINE
8
0
10
127
20
-129.7
11
109
21
-129.7
0
LINE
8
0
10
109
20
-129.7
11
109
21
-147.7
0
LINE
8
0
10
128
20
-147.7
11
146
21
-147.7
0
LINE
8
0
10
146
20
-147.7
11
146
21
-129.7
0
LINE
8
0
10
146
20
-129.7
11
128
21
-129.7
0
LINE
8
0
10
128
20
-129.7
11
128
21
-147.7
0
LINE
8
0
10
147
20
-147.7
11
165
21
-147.7
0
LINE
8
0
10
165
20
-147.7
11
165
21
-129.7
0
LINE
8
0
10
165
20
-129.7
11
147
21
-129.7
0
LINE
8
0
10
147
20
-129.7
11
147
21
-147.7
0
LINE
8
0
10
31.25
20
-166.7
11
49.25
21
-166.7
0
LINE
8
0
10
49.25
20
-166.7
11
49.25
21
-148.7
0
LINE
8
0
10
49.25
20
-148.7
11
31.25
21
-148.7
0
LINE
8
0
10
31.25
20
-148.7
11
31.25
21
-166.7
0
LINE
8
0
10
54.75
20
-166.7
11
72.75
21
-166.7
0
LINE
8
0
10
72.75
20
-166.7
11
72.75
21
-148.7
0
LINE
8
0
10
72.75
20
-148.7
11
54.75
21
-148.7
0
LINE
8
0
10
54.75
20
-148.7
11
54.75
21
-166.7
0
LINE
8
0
10
78.25
20
-166.7
11
96.25
21
-166.7
0
LINE
8
0
10
96.25
20
-166.7
11
96.25
21
-148.7
0
LINE
8
0
10
96.25
20
-148.7
11
78.25
21
-148.7
0
LINE
8
0
10
78.25
20
-148.7
11
78.25
21
-166.7
0
LINE
8
0
10
125.5
20
-166.7
11
143.5
21
-166.7
0
LINE
8
0
10
143.5
20
-166.7
11
143.5
21
-148.7
0
LINE
8
0
10
143.5
20
-148.7
11
125.5
21
-148.7
0
LINE
8
0
10
125.5
20
-148.7
11
125.5
21
-166.7
0
LINE
8
0
10
370.25
20
-166.7
11
388.25
21
-166.7
0
LINE
8
0
10
388.25
20
-166.7
11
388.25
21
-148.7
0
LINE
8
0
10
388.25
20
-148.7
11
370.25
21
-148.7
0
LINE
8
0
10
370.25
20
-148.7
11
370.25
21
-166.7
0
LINE
8
0
10
346.75
20
-166.7
11
364.75
21
-166.7
0
LINE
8
0
10
364.75
20
-166.7
11
364.75
21
-148.7
0
LINE
8
0
10
364.75
20
-148.7
11
346.75
21
-148.7
0
LINE
8
0
10
346.75
20
-148.7
11
346.75
21
-166.7
0
LINE
8
0
10
323.25
20
-166.7
11
341.25
21
-166.7
0
LINE
8
0
10
341.25
20
-166.7
11
341.25
21
-148.7
0
LINE
8
0
10
341.25
20
-148.7
11
323.25
21
-148.7
0
LINE
8
0
10
323.25
20
-148.7
11
323.25
21
-166.7
0
LINE
8
0
10
299.75
20
-166.7
11
317.75
21
-166.7
0
LINE
8
0
10
317.75
20
-166.7
11
317.75
21
-148.7
0
LINE
8
0
10
317.75
20
-148.7
11
299.75
21
-148.7
0
LINE
8
0
10
299.75
20
-148.7
11
299.75
21
-166.7
0
LINE
8
0
10
252.5
20
-166.7
11
270.5
21
-166.7
0
LINE
8
0
10
270.5
20
-166.7
11
270.5
21
-148.7
0
LINE
8
0
10
270.5
20
-148.7
11
252.5
21
-148.7
0
LINE
8
0
10
252.5
20
-148.7
11
252.5
21
-166.7
0
LINE
8
0
10
356
20
-147.7
11
374
21
-147.7
0
LINE
8
0
10
374
20
-147.7
11
374
21
-129.7
0
LINE
8
0
10
374
20
-129.7
11
356
21
-129.7
0
LINE
8
0
10
356
20
-129.7
11
356
21
-147.7
0
LINE
8
0
10
320.5
20
-147.7
11
338.5
21
-147.7
0
LINE
8
0
10
338.5
20
-147.7
11
338.5
21
-129.7
0
LINE
8
0
10
338.5
20
-129.7
11
320.5
21
-129.7
0
LINE
8
0
10
320.5
20
-129.7
11
320.5
21
-147.7
0
LINE
8
0
10
301.5
20
-147.7
11
319.5
21
-147.7
0
LINE
8
0
10
319.5
20
-147.7
11
319.5
21
-129.7
0
LINE
8
0
10
319.5
20
-129.7
11
301.5
21
-129.7
0
LINE
8
0
10
301.5
20
-129.7
11
301.5
21
-147.7
0
LINE
8
0
10
282.5
20
-147.7
11
300.5
21
-147.7
0
LINE
8
0
10
300.5
20
-147.7
11
300.5
21
-129.7
0
LINE
8
0
10
300.5
20
-129.7
11
282.5
21
-129.7
0
LINE
8
0
10
282.5
20
-129.7
11
282.5
21
-147.7
0
LINE
8
0
10
263.5
20
-147.7
11
281.5
21
-147.7
0
LINE
8
0
10
281.5
20
-147.7
11
281.5
21
-129.7
0
LINE
8
0
10
281.5
20
-129.7
11
263.5
21
-129.7
0
LINE
8
0
10
263.5
20
-129.7
11
263.5
21
-147.7
0
LINE
8
0
10
244.5
20
-147.7
11
262.5
21
-147.7
0
LINE
8
0
10
262.5
20
-147.7
11
262.5
21
-129.7
0
LINE
8
0
10
262.5
20
-129.7
11
244.5
21
-129.7
0
LINE
8
0
10
244.5
20
-129.7
11
244.5
21
-147.7
0
LINE
8
0
10
225.5
20
-147.7
11
243.5
21
-147.7
0
LINE
8
0
10
243.5
20
-147.7
11
243.5
21
-129.7
0
LINE
8
0
10
243.5
20
-129.7
11
225.5
21
-129.7
0
LINE
8
0
10
225.5
20
-129.7
11
225.5
21
-147.7
0
LINE
8
0
10
361
20
-128.7
11
379
21
-128.7
0
LINE
8
0
10
379
20
-128.7
11
379
21
-110.7
0
LINE
8
0
10
379
20
-110.7
11
361
21
-110.7
0
LINE
8
0
10
361
20
-110.7
11
361
21
-128.7
0
LINE
8
0
10
330.5
20
-128.7
11
348.5
21
-128.7
0
LINE
8
0
10
348.5
20
-128.7
11
348.5
21
-110.7
0
LINE
8
0
10
348.5
20
-110.7
11
330.5
21
-110.7
0
LINE
8
0
10
330.5
20
-110.7
11
330.5
21
-128.7
0
LINE
8
0
10
311.5
20
-128.7
11
329.5
21
-128.7
0
LINE
8
0
10
329.5
20
-128.7
11
329.5
21
-110.7
0
LINE
8
0
10
329.5
20
-110.7
11
311.5
21
-110.7
0
LINE
8
0
10
311.5
20
-110.7
11
311.5
21
-128.7
0
LINE
8
0
10
292.5
20
-128.7
11
310.5
21
-128.7
0
LINE
8
0
10
310.5
20
-128.7
11
310.5
21
-110.7
0
LINE
8
0
10
310.5
20
-110.7
11
292.5
21
-110.7
0
LINE
8
0
10
292.5
20
-110.7
11
292.5
21
-128.7
0
LINE
8
0
10
273.5
20
-128.7
11
291.5
21
-128.7
0
LINE
8
0
10
291.5
20
-128.7
11
291.5
21
-110.7
0
LINE
8
0
10
291.5
20
-110.7
11
273.5
21
-110.7
0
LINE
8
0
10
273.5
20
-110.7
11
273.5
21
-128.7
0
LINE
8
0
10
254.5
20
-128.7
11
272.5
21
-128.7
0
LINE
8
0
10
272.5
20
-128.7
11
272.5
21
-110.7
0
LINE
8
0
10
272.5
20
-110.7
11
254.5
21
-110.7
0
LINE
8
0
10
254.5
20
-110.7
11
254.5
21
-128.7
0
LINE
8
0
10
235.5
20
-128.7
11
253.5
21
-128.7
0
LINE
8
0
10
253.5
20
-128.7
11
253.5
21
-110.7
0
LINE
8
0
10
253.5
20
-110.7
11
235.5
21
-110.7
0
LINE
8
0
10
235.5
20
-110.7
11
235.5
21
-128.7
0
LINE
8
0
10
367.75
20
-109.7
11
385.75
21
-109.7
0
LINE
8
0
10
385.75
20
-109.7
11
385.75
21
-91.7
0
LINE
8
0
10
385.75
20
-91.7
11
367.75
21
-91.7
0
LINE
8
0
10
367.75
20
-91.7
11
367.75
21
-109.7
0
LINE
8
0
10
344
20
-109.7
11
362
21
-109.7
0
LINE
8
0
10
362
20
-109.7
11
362
21
-91.7
0
LINE
8
0
10
362
20
-91.7
11
344
21
-91.7
0
LINE
8
0
10
344
20
-91.7
11
344
21
-109.7
0
LINE
8
0
10
325
20
-109.7
11
343
21
-109.7
0
LINE
8
0
10
343
20
-109.7
11
343
21
-91.7
0
LINE
8
0
10
343
20
-91.7
11
325
21
-91.7
0
LINE
8
0
10
325
20
-91.7
11
325
21
-109.7
0
LINE
8
0
10
306
20
-109.7
11
324
21
-109.7
0
LINE
8
0
10
324
20
-109.7
11
324
21
-91.7
0
LINE
8
0
10
324
20
-91.7
11
306
21
-91.7
0
LINE
8
0
10
306
20
-91.7
11
306
21
-109.7
0
LINE
8
0
10
287
20
-109.7
11
305
21
-109.7
0
LINE
8
0
10
305
20
-109.7
11
305
21
-91.7
0
LINE
8
0
10
305
20
-91.7
11
287
21
-91.7
0
LINE
8
0
10
287
20
-91.7
11
287
21
-109.7
0
LINE
8
0
10
268
20
-109.7
11
286
21
-109.7
0
LINE
8
0
10
286
20
-109.7
11
286
21
-91.7
0
LINE
8
0
10
286
20
-91.7
11
268
21
-91.7
0
LINE
8
0
10
268
20
-91.7
11
268
21
-109.7
0
LINE
8
0
10
249
20
-109.7
11
267
21
-109.7
0
LINE
8
0
10
267
20
-109.7
11
267
21
-91.7
0
LINE
8
0
10
267
20
-91.7
11
249
21
-91.7
0
LINE
8
0
10
249
20
-91.7
11
249
21
-109.7
0
LINE
8
0
10
230
20
-109.7
11
248
21
-109.7
0
LINE
8
0
10
248
20
-109.7
11
248
21
-91.7
0
LINE
8
0
10
248
20
-91.7
11
230
21
-91.7
0
LINE
8
0
10
230
20
-91.7
11
230
21
-109.7
0
LINE
8
0
10
363
20
-90.7
11
381
21
-90.7
0
LINE
8
0
10
381
20
-90.7
11
381
21
-72.7
0
LINE
8
0
10
381
20
-72.7
11
363
21
-72.7
0
LINE
8
0
10
363
20
-72.7
11
363
21
-90.7
0
LINE
8
0
10
334.5
20
-90.7
11
352.5
21
-90.7
0
LINE
8
0
10
352.5
20
-90.7
11
352.5
21
-72.7
0
LINE
8
0
10
352.5
20
-72.7
11
334.5
21
-72.7
0
LINE
8
0
10
334.5
20
-72.7
11
334.5
21
-90.7
0
LINE
8
0
10
315.5
20
-90.7
11
333.5
21
-90.7
0
LINE
8
0
10
333.5
20
-90.7
11
333.5
21
-72.7
0
LINE
8
0
10
333.5
20
-72.7
11
315.5
21
-72.7
0
LINE
8
0
10
315.5
20
-72.7
11
315.5
21
-90.7
0
LINE
8
0
10
296.5
20
-90.7
11
314.5
21
-90.7
0
LINE
8
0
10
314.5
20
-90.7
11
314.5
21
-72.7
0
LINE
8
0
10
314.5
20
-72.7
11
296.5
21
-72.7
0
LINE
8
0
10
296.5
20
-72.7
11
296.5
21
-90.7
0
LINE
8
0
10
277.5
20
-90.7
11
295.5
21
-90.7
0
LINE
8
0
10
295.5
20
-90.7
11
295.5
21
-72.7
0
LINE
8
0
10
295.5
20
-72.7
11
277.5
21
-72.7
0
LINE
8
0
10
277.5
20
-72.7
11
277.5
21
-90.7
0
LINE
8
0
10
258.5
20
-90.7
11
276.5
21
-90.7
0
LINE
8
0
10
276.5
20
-90.7
11
276.5
21
-72.7
0
LINE
8
0
10
276.5
20
-72.7
11
258.5
21
-72.7
0
LINE
8
0
10
258.5
20
-72.7
11
258.5
21
-90.7
0
LINE
8
0
10
239.5
20
-90.7
11
257.5
21
-90.7
0
LINE
8
0
10
257.5
20
-90.7
11
257.5
21
-72.7
0
LINE
8
0
10
257.5
20
-72.7
11
239.5
21
-72.7
0
LINE
8
0
10
239.5
20
-72.7
11
239.5
21
-90.7
0
LINE
8
0
10
372.5
20
-66
11
390.5
21
-66
0
LINE
8
0
10
390.5
20
-66
11
390.5
21
-48
0
LINE
8
0
10
390.5
20
-48
11
372.5
21
-48
0
LINE
8
0
10
372.5
20
-48
11
372.5
21
-66
0
LINE
8
0
10
353.5
20
-66
11
371.5
21
-66
0
LINE
8
0
10
371.5
20
-66
11
371.5
21
-48
0
LINE
8
0
10
371.5
20
-48
11
353.5
21
-48
0
LINE
8
0
10
353.5
20
-48
11
353.5
21
-66
0
LINE
8
0
10
334.5
20
-66
11
352.5
21
-66
0
LINE
8
0
10
352.5
20
-66
11
352.5
21
-48
0
LINE
8
0
10
352.5
20
-48
11
334.5
21
-48
0
LINE
8
0
10
334.5
20
-48
11
334.5
21
-66
0
LINE
8
0
10
315.5
20
-66
11
333.5
21
-66
0
LINE
8
0
10
333.5
20
-66
11
333.5
21
-48
0
LINE
8
0
10
333.5
20
-48
11
315.5
21
-48
0
LINE
8
0
10
315.5
20
-48
11
315.5
21
-66
0
LINE
8
0
10
287
20
-66
11
305
21
-66
0
LINE
8
0
10
305
20
-66
11
305
21
-48
0
LINE
8
0
10
305
20
-48
11
287
21
-48
0
LINE
8
0
10
287
20
-48
11
287
21
-66
0
LINE
8
0
10
268
20
-66
11
286
21
-66
0
LINE
8
0
10
286
20
-66
11
286
21
-48
0
LINE
8
0
10
286
20
-48
11
268
21
-48
0
LINE
8
0
10
268
20
-48
11
268
21
-66
0
LINE
8
0
10
249
20
-66
11
267
21
-66
0
LINE
8
0
10
267
20
-66
11
267
21
-48
0
LINE
8
0
10
267
20
-48
11
249
21
-48
0
LINE
8
0
10
249
20
-48
11
249
21
-66
0
LINE
8
0
10
230
20
-66
11
248
21
-66
0
LINE
8
0
10
248
20
-66
11
248
21
-48
0
LINE
8
0
10
248
20
-48
11
230
21
-48
0
LINE
8
0
10
230
20
-48
11
230
21
-66
0
ENDSEC
0
EOF